<?xml version="1.0" encoding="UTF-8" standalone="no"?>
<!-- Created with Inkscape (http://www.inkscape.org/) -->

<svg
   width="60.907509cm"
   height="7.4501586cm"
   id="svg3744"
   version="1.1"
   inkscape:version="1.4 (e7c3feb1, 2024-10-09)"
   sodipodi:docname="logo-capitoledulibre-horizontal.svg"
   inkscape:export-filename="logo-capitoledulibre-horizontal.png"
   inkscape:export-xdpi="53.379295"
   inkscape:export-ydpi="53.379295"
   xmlns:inkscape="http://www.inkscape.org/namespaces/inkscape"
   xmlns:sodipodi="http://sodipodi.sourceforge.net/DTD/sodipodi-0.dtd"
   xmlns="http://www.w3.org/2000/svg"
   xmlns:svg="http://www.w3.org/2000/svg"
   xmlns:rdf="http://www.w3.org/1999/02/22-rdf-syntax-ns#"
   xmlns:cc="http://creativecommons.org/ns#"
   xmlns:dc="http://purl.org/dc/elements/1.1/">
  <defs
     id="defs3746" />
  <sodipodi:namedview
     id="base"
     pagecolor="#ffffff"
     bordercolor="#666666"
     borderopacity="1.0"
     inkscape:pageopacity="0.0"
     inkscape:pageshadow="2"
     inkscape:zoom="0.39516263"
     inkscape:cx="1271.6283"
     inkscape:cy="67.060997"
     inkscape:document-units="px"
     inkscape:current-layer="layer1"
     showgrid="false"
     fit-margin-top="0"
     fit-margin-left="0"
     fit-margin-right="0"
     fit-margin-bottom="0"
     inkscape:window-width="1200"
     inkscape:window-height="1186"
     inkscape:window-x="0"
     inkscape:window-y="31"
     inkscape:window-maximized="0"
     units="cm"
     inkscape:showpageshadow="2"
     inkscape:pagecheckerboard="0"
     inkscape:deskcolor="#d1d1d1" />
  <metadata
     id="metadata3749">
    <rdf:RDF>
      <cc:Work
         rdf:about="">
        <dc:format>image/svg+xml</dc:format>
        <dc:type
           rdf:resource="http://purl.org/dc/dcmitype/StillImage" />
        <dc:title />
      </cc:Work>
    </rdf:RDF>
  </metadata>
  <g
     inkscape:label="Calque 1"
     inkscape:groupmode="layer"
     id="layer1"
     transform="translate(-335.00001,-56.038784)">
    <path
       inkscape:connector-curvature="0"
       d="m 436.38036,287.51703 c -33.0128,0 -58.16108,-9.17999 -75.44936,-27.54702 -17.28735,-18.35433 -25.93099,-44.4351 -25.93099,-78.22959 0,-16.79917 2.63884,-31.79197 7.91158,-44.97701 5.27548,-13.18644 12.49862,-24.32097 21.68347,-33.40358 9.17849,-9.082618 20.11535,-15.967962 32.81622,-20.656036 12.69522,-4.689486 26.46663,-7.0307 41.31352,-7.0307 8.59411,0 16.4098,0.633638 23.441,1.900913 7.03233,1.275744 13.18548,2.739179 18.45803,4.395952 5.2751,1.661006 9.67101,3.371406 13.18632,5.129786 3.51532,1.75697 6.05126,3.124442 7.61911,4.101007 l -13.18632,36.918938 c -6.25447,-3.3206 -13.52783,-6.15151 -21.82969,-8.49837 -8.30467,-2.34545 -17.7273,-3.51394 -28.27551,-3.51394 -7.0312,0 -13.91634,1.16849 -20.65542,3.51394 -6.73908,2.34686 -12.69918,6.10776 -17.87436,11.28271 -5.17786,5.17635 -9.32991,11.86554 -12.45122,20.07037 -3.12837,8.20202 -4.68832,18.16382 -4.68832,29.88401 0,9.37756 1.02482,18.12148 3.07601,26.22612 2.05176,8.10746 5.37021,15.09159 9.96214,20.95097 4.58755,5.85939 10.59407,10.5009 18.01943,13.91746 7.42097,3.41939 16.40796,5.12979 26.95632,5.12979 6.63916,0 12.59883,-0.39373 17.87266,-1.17414 5.27439,-0.77899 9.96284,-1.70899 14.06691,-2.78434 4.09956,-1.0697 7.71366,-2.29605 10.83949,-3.6607 3.12159,-1.36465 5.95671,-2.6404 8.49829,-3.80889 l 12.59785,36.62541 c -6.44781,3.90767 -15.52752,7.42443 -27.24901,10.54605 -11.71951,3.12303 -25.2997,4.69089 -40.72815,4.69089"
       style="fill:#d03d00;fill-opacity:1;fill-rule:nonzero;stroke:none;stroke-width:0.1411214"
       id="path3301-4" />
    <path
       inkscape:connector-curvature="0"
       d="m 583.292,125.18999 c 12.89279,0 23.63208,1.46344 32.23057,4.39596 8.59284,2.92687 15.47953,7.12948 20.65725,12.59514 5.17349,5.47271 8.83698,12.11391 10.98766,19.92643 2.14645,7.81534 3.2232,16.50987 3.2232,26.07794 v 90.83038 c -6.25588,1.37171 -14.94327,2.9805 -26.07629,4.83625 -11.13584,1.85294 -24.61428,2.78293 -40.43674,2.78293 -9.9603,0 -18.99909,-0.87637 -27.10224,-2.63475 -8.10739,-1.75838 -15.09004,-4.63868 -20.95079,-8.64372 -5.85933,-4.00364 -10.35403,-9.2308 -13.47703,-15.67866 -3.12723,-6.44363 -4.68944,-14.35494 -4.68944,-23.73108 0,-8.98383 1.80635,-16.60301 5.42186,-22.85472 3.61128,-6.24888 8.44749,-11.2319 14.50439,-14.94623 6.05267,-3.70728 12.98875,-6.39565 20.80261,-8.05666 7.81103,-1.65677 15.91842,-2.48798 24.31934,-2.48798 5.66317,0 10.69413,0.24414 15.09145,0.73383 4.3945,0.48828 7.95639,1.12192 10.69413,1.90092 v -4.10101 c 0,-7.42302 -2.24946,-13.37837 -6.73993,-17.87311 -4.4961,-4.49473 -12.30572,-6.7414 -23.44156,-6.7414 -7.42578,0 -14.74994,0.54191 -21.97391,1.61162 -7.23103,1.07676 -13.47845,2.591 -18.75213,4.54413 l -5.56862,-35.16338 c 2.53735,-0.77476 5.71397,-1.60879 9.52282,-2.4894 3.81026,-0.87919 7.9578,-1.65677 12.45391,-2.34544 4.49046,-0.6788 9.2293,-1.26587 14.20945,-1.75838 4.98156,-0.48264 10.00969,-0.72961 15.09004,-0.72961 z m 3.51532,127.75214 c 4.2943,0 8.39668,-0.0988 12.30714,-0.29494 3.90622,-0.19334 7.03205,-0.48546 9.37747,-0.87919 v -33.10864 c -1.75836,-0.38809 -4.39732,-0.78182 -7.91264,-1.17555 -3.51532,-0.38668 -6.73851,-0.58425 -9.66818,-0.58425 -4.10379,0 -7.96203,0.24838 -11.57331,0.73384 -3.61834,0.48828 -6.79073,1.41827 -9.52283,2.78434 -2.73916,1.36747 -4.88419,3.22181 -6.44781,5.56726 -1.56362,2.34404 -2.34401,5.27373 -2.34401,8.78767 0,6.84301 2.29321,11.57624 6.88669,14.21099 4.58783,2.63757 10.88746,3.95847 18.89748,3.95847"
       style="fill:#d03d00;fill-opacity:1;fill-rule:nonzero;stroke:none;stroke-width:0.1411214"
       id="path3303-4" />
    <path
       inkscape:connector-curvature="0"
       d="m 828.59232,206.3521 c 0,11.91917 -1.46342,22.75734 -4.39309,32.5244 -2.92966,9.76706 -7.23103,18.16664 -12.8942,25.19875 -5.666,7.0307 -12.70087,12.50341 -21.09614,16.40826 -8.39951,3.90485 -18.0691,5.85939 -29.00596,5.85939 -6.0569,0 -11.72008,-0.58425 -16.99376,-1.75838 -5.2751,-1.17132 -10.35685,-2.82809 -15.23822,-4.98161 v 58.01668 H 685.31383 V 134.56332 c 3.90623,-1.16849 8.3981,-2.29182 13.47845,-3.36858 5.0747,-1.07253 10.4006,-1.9997 15.96922,-2.78293 5.5658,-0.77899 11.22898,-1.41263 16.99517,-1.90515 5.75773,-0.48546 11.27696,-0.73101 16.55347,-0.73101 12.69522,0 24.02581,1.90233 33.98893,5.71121 9.9603,3.8103 18.35981,9.18705 25.19711,16.11755 6.83589,6.93474 12.05877,15.3823 15.67569,25.34411 3.61269,9.96039 5.42045,21.09633 5.42045,33.40358 z m -44.5363,1.17132 c 0,-13.47857 -3.03127,-24.26876 -9.08112,-32.37622 -6.05831,-8.10323 -15.04488,-12.16049 -26.95688,-12.16049 -3.91187,0 -7.52315,0.14536 -10.84231,0.4403 -3.32339,0.29354 -6.0569,0.63505 -8.20476,1.02596 v 78.81948 c 2.73351,1.75556 6.30104,3.21899 10.69554,4.39454 4.3945,1.17131 8.83557,1.75697 13.33168,1.75697 20.70382,0 31.05785,-13.96261 31.05785,-41.90054"
       style="fill:#d03d00;fill-opacity:1;fill-rule:nonzero;stroke:none;stroke-width:0.1411214"
       id="path3305-5" />
    <path
       inkscape:connector-curvature="0"
       d="m 904.18647,84.754297 c 0,8.011498 -2.5938,14.309775 -7.76446,18.900473 -5.17913,4.5907 -11.2826,6.88393 -18.31324,6.88393 -7.03346,0 -13.13975,-2.29323 -18.31183,-6.88393 -5.18054,-4.590698 -7.76728,-10.888975 -7.76728,-18.900473 0,-8.008676 2.58674,-14.308364 7.76728,-18.900475 5.17208,-4.586466 11.27837,-6.885344 18.31183,-6.885344 7.03064,0 13.13411,2.298878 18.31324,6.885344 5.17066,4.592111 7.76446,10.891799 7.76446,18.900475 z M 900.0855,283.4132 H 856.42557 V 129.291 h 43.65993 v 154.1222"
       style="fill:#d03d00;fill-opacity:1;fill-rule:nonzero;stroke:none;stroke-width:0.1411214"
       id="path3307-7" />
    <path
       inkscape:connector-curvature="0"
       d="m 934.50768,90.908629 43.65711,-7.033522 V 129.291 h 52.44611 v 36.33328 h -52.44611 v 54.20498 c 0,9.18422 1.60596,16.51128 4.8348,21.97693 3.22461,5.47272 9.71475,8.20343 19.48591,8.20343 4.6853,0 9.52,-0.43889 14.503,-1.31808 4.9788,-0.87919 9.5214,-2.09849 13.6224,-3.66353 l 6.1571,33.98783 c -5.2751,2.15211 -11.1358,4.00787 -17.5851,5.56868 -6.4435,1.56222 -14.3548,2.34262 -23.73082,2.34262 -11.91905,0 -21.78339,-1.60879 -29.59161,-4.83484 -7.81667,-3.21899 -14.06832,-7.71232 -18.75635,-13.47856 -4.68521,-5.75778 -7.96345,-12.74474 -9.81778,-20.94675 -1.85291,-8.20342 -2.77866,-17.28745 -2.77866,-27.24925 V 90.908629"
       style="fill:#d03d00;fill-opacity:1;fill-rule:nonzero;stroke:none;stroke-width:0.1411214"
       id="path3309-2" />
    <path
       inkscape:connector-curvature="0"
       d="m 1291.1142,286.3429 c -12.6967,-0.19616 -22.9985,-1.56787 -30.9097,-4.10101 -7.9098,-2.53737 -14.1615,-6.10494 -18.7535,-10.69423 -4.5893,-4.5907 -7.7208,-10.15514 -9.3761,-16.7032 -1.6568,-6.5396 -2.4866,-13.91746 -2.4866,-22.1237 V 63.069484 l 43.6529,-7.0307 V 223.9345 c 0,3.90767 0.2921,7.42161 0.882,10.54605 0.5857,3.13008 1.7062,5.76342 3.3686,7.90989 1.6596,2.15211 4.0544,3.91049 7.1774,5.27655 3.1258,1.36888 7.327,2.24666 12.6049,2.63475 l -6.1599,36.04116"
       style="fill:#d03d00;fill-opacity:1;fill-rule:nonzero;stroke:none;stroke-width:0.1411214"
       id="path3311-4" />
    <path
       inkscape:connector-curvature="0"
       d="m 1310.3334,207.52342 c 0,-13.66909 2.0999,-25.64047 6.2996,-35.89298 4.1984,-10.25393 9.719,-18.79887 16.5549,-25.63906 6.8387,-6.83454 14.702,-12.0123 23.5912,-15.52907 8.8863,-3.51817 18.0197,-5.27232 27.3971,-5.27232 21.8709,0 39.1582,6.69201 51.8563,20.06756 12.6952,13.38401 19.0456,33.0663 19.0456,59.04264 0,2.54302 -0.1016,5.32736 -0.2921,8.35019 -0.199,3.03412 -0.3937,5.71685 -0.5842,8.05948 h -99.0357 c 0.9737,8.98524 5.1763,16.11331 12.5964,21.38846 7.4229,5.27655 17.3832,7.9113 29.8894,7.9113 8.0057,0 15.8704,-0.73384 23.5855,-2.19727 7.7108,-1.46344 14.0119,-3.2698 18.8932,-5.42191 l 5.8636,35.45409 c -2.3468,1.17131 -5.4684,2.34686 -9.3747,3.51817 -3.909,1.17131 -8.2555,2.19586 -13.0339,3.07505 -4.7938,0.8806 -9.9208,1.61302 -15.3864,2.19727 -5.474,0.58707 -10.9396,0.88201 -16.4053,0.88201 -13.8721,0 -25.9309,-2.05332 -36.189,-6.15433 -10.2566,-4.10524 -18.7507,-9.71343 -25.4906,-16.84997 -6.7385,-7.12666 -11.7215,-15.57282 -14.9475,-25.34411 -3.219,-9.76423 -4.8334,-20.3131 -4.8334,-31.6452 z m 102.5553,-16.70039 c -0.1934,-3.70868 -0.8326,-7.32423 -1.9052,-10.83958 -1.0753,-3.51958 -2.7377,-6.64262 -4.9773,-9.37897 -2.2494,-2.73212 -5.086,-4.9802 -8.5011,-6.73858 -3.4236,-1.75838 -7.6671,-2.63757 -12.7474,-2.63757 -4.8814,0 -9.0854,0.83403 -12.5937,2.49222 -3.5167,1.66241 -6.4492,3.85686 -8.7918,6.59322 -2.3454,2.73494 -4.1574,5.90737 -5.419,9.51868 -1.2757,3.61978 -2.2029,7.2819 -2.7871,10.99058 h 57.7226"
       style="fill:#d03d00;fill-opacity:1;fill-rule:nonzero;stroke:none;stroke-width:0.1411214"
       id="path3313-0" />
    <path
       inkscape:connector-curvature="0"
       d="m 1691.7725,281.85716 c -3.9091,1.17308 -8.401,2.2993 -13.4785,3.36984 -5.0816,1.07771 -10.4013,2.00107 -15.9678,2.78219 -5.5676,0.78169 -11.2356,1.41674 -16.9952,1.90627 -5.7632,0.4851 -11.2796,0.73317 -16.554,0.73317 -12.7009,0 -24.0264,-1.85775 -33.9892,-5.56937 -9.9623,-3.70721 -18.3616,-9.03343 -25.1977,-15.96549 -6.8394,-6.93375 -12.0654,-15.33333 -15.675,-25.19974 -3.6173,-9.86203 -5.4225,-20.95436 -5.4225,-33.25738 0,-12.50088 1.5627,-23.77963 4.69,-33.84276 3.1211,-10.05495 7.6167,-18.60497 13.4764,-25.63905 5.8598,-7.03197 13.0399,-12.40167 21.5375,-16.11318 8.4947,-3.70727 18.2106,-5.56726 29.153,-5.56726 6.0511,0 11.4732,0.58424 16.262,1.75838 4.7832,1.17131 9.6183,2.83232 14.5034,4.97737 V 66.49611 l 43.6576,-7.0307 z m -98.7415,-73.25229 c 0,13.47942 3.0252,24.31985 9.0818,32.52539 6.0528,8.20272 15.04,12.30401 26.958,12.30401 3.904,0 7.5174,-0.14607 10.8398,-0.43819 3.3192,-0.29494 6.0517,-0.63237 8.2043,-1.02539 v -79.40697 c -2.737,-1.75853 -6.2997,-3.2221 -10.6942,-4.39356 -4.3952,-1.17427 -8.8411,-1.75852 -13.3321,-1.75852 -20.7061,0 -31.0576,14.06253 -31.0576,42.19323"
       style="fill:#d03d00;fill-opacity:1;fill-rule:nonzero;stroke:none;stroke-width:0.1411214"
       id="path3315-8" />
    <path
       inkscape:connector-curvature="0"
       d="m 1859.5453,281.565 c -7.4258,2.15156 -16.9952,4.14986 -28.7167,6.0076 -11.7172,1.85333 -24.0244,2.77945 -36.9172,2.77945 -13.0875,0 -23.9806,-1.75411 -32.6694,-5.27279 -8.6945,-3.51426 -15.5798,-8.44368 -20.6573,-14.79418 -5.0817,-6.34654 -8.6944,-13.91802 -10.8409,-22.71062 -2.1521,-8.78923 -3.2232,-18.45891 -3.2232,-29.00722 v -85.85103 h 43.6571 v 80.57547 c 0,14.06874 1.8544,24.2267 5.5673,30.47417 3.7086,6.25227 10.6447,9.37629 20.8026,9.37629 3.123,0 6.4478,-0.14606 9.9645,-0.441 3.5139,-0.29156 6.6369,-0.63124 9.3747,-1.0254 V 132.71621 h 43.6585 V 281.565"
       style="fill:#d03d00;fill-opacity:1;fill-rule:nonzero;stroke:none;stroke-width:0.1411214"
       id="path3317-4" />
    <path
       inkscape:connector-curvature="0"
       d="m 2109.473,247.57446 v 39.26497 H 1973.8122 V 83.78356 h 45.7062 v 163.7909 h 89.9546"
       style="fill:#d03d00;fill-opacity:1;fill-rule:nonzero;stroke:none;stroke-width:0.1411214"
       id="path3319-8" />
    <path
       inkscape:connector-curvature="0"
       d="m 2178.8507,88.17951 c 0,8.01291 -2.5881,14.30977 -7.7616,18.90047 -5.182,4.58929 -11.284,6.88535 -18.3132,6.88535 -7.0335,0 -13.1384,-2.29606 -18.3119,-6.88535 -5.1819,-4.5907 -7.7673,-10.88756 -7.7673,-18.90047 0,-8.00868 2.5854,-14.30695 7.7673,-18.90047 5.1735,-4.58647 11.2784,-6.88535 18.3119,-6.88535 7.0292,0 13.1312,2.29888 18.3132,6.88535 5.1735,4.59352 7.7616,10.89179 7.7616,18.90047 z m -4.1023,198.65992 h -43.6529 V 132.71621 h 43.6529 v 154.12322"
       style="fill:#d03d00;fill-opacity:1;fill-rule:nonzero;stroke:none;stroke-width:0.1411214"
       id="path3321-3" />
    <path
       inkscape:connector-curvature="0"
       d="m 2353.9773,209.77746 c 0,12.30683 -1.8106,23.4422 -5.4233,33.40344 -3.6141,9.96124 -8.8426,18.45891 -15.6728,25.49186 -6.8444,7.03395 -15.2368,12.45123 -25.1971,16.26208 -9.9674,3.80809 -21.2952,5.71379 -33.9904,5.71379 -5.2793,0 -10.7971,-0.24807 -16.5549,-0.73317 -5.7662,-0.48953 -11.4293,-1.12458 -16.9951,-1.90627 -5.5701,-0.78112 -10.8931,-1.70448 -15.9693,-2.78219 -5.0803,-1.07054 -9.575,-2.19676 -13.4812,-3.36984 V 66.49611 l 43.6599,-7.0307 v 76.76474 c 4.8842,-2.14505 9.9631,-3.80606 15.2382,-4.97737 5.2765,-1.17414 10.9397,-1.75838 16.9952,-1.75838 10.9312,0 20.6008,1.90091 29.0074,5.7098 8.3924,3.81029 15.4273,9.23361 21.0961,16.26276 5.6618,7.03409 9.9617,15.48758 12.8886,25.34693 2.9325,9.86753 4.3987,20.85403 4.3987,32.96357 z m -44.5405,-1.17259 c 0,-28.1307 -10.3555,-42.19323 -31.0579,-42.19323 -4.4961,0 -8.9386,0.58425 -13.3288,1.75852 -4.3945,1.17146 -7.9663,2.63503 -10.697,4.39356 v 79.40697 c 2.1465,0.39302 4.8842,0.73045 8.2048,1.02539 3.3191,0.29212 6.9318,0.43819 10.8437,0.43819 11.9092,0 20.8972,-4.10129 26.9555,-12.30401 6.0498,-8.20554 9.0797,-19.04597 9.0797,-32.52539"
       style="fill:#d03d00;fill-opacity:1;fill-rule:nonzero;stroke:none;stroke-width:0.1411214"
       id="path3323-9" />
    <path
       inkscape:connector-curvature="0"
       d="m 2475.7772,171.39226 c -3.9119,-0.97459 -8.5011,-1.99829 -13.7705,-3.07604 -5.2751,-1.06942 -10.9454,-1.61246 -16.9952,-1.61246 -2.742,0 -6.0089,0.25078 -9.8178,0.73313 -3.8088,0.48899 -6.6948,1.0254 -8.6436,1.61246 v 117.79008 h -43.6543 V 140.92105 c 7.8096,-2.73495 17.0375,-5.31889 27.685,-7.76736 10.6476,-2.43717 22.513,-3.65929 35.5992,-3.65929 2.3482,0 5.1734,0.14535 8.5011,0.43748 3.3205,0.29494 6.6341,0.68867 9.9603,1.17131 3.3191,0.49252 6.6397,1.08099 9.9617,1.75838 3.3206,0.68726 6.1514,1.51424 8.494,2.49222 l -7.3199,36.03847"
       style="fill:#d03d00;fill-opacity:1;fill-rule:nonzero;stroke:none;stroke-width:0.1411214"
       id="path3325-9" />
    <path
       inkscape:connector-curvature="0"
       d="m 2492.27,210.94933 c 0,-13.67006 2.0956,-25.6406 6.2954,-35.89396 4.204,-10.25238 9.719,-18.79788 16.5633,-25.63877 6.8303,-6.83454 14.6935,-12.01231 23.5799,-15.52907 8.8878,-3.51676 18.0225,-5.27232 27.4,-5.27232 21.8765,0 39.1582,6.69201 51.8619,20.06755 12.6924,13.38331 19.0456,33.06758 19.0456,59.04405 0,2.54288 -0.103,5.3268 -0.2921,8.34765 -0.1961,3.03469 -0.3994,5.7177 -0.5899,8.06047 h -99.0329 c 0.9752,8.98722 5.1735,16.11219 12.6021,21.3893 7.4145,5.275 17.3805,7.91004 29.8823,7.91004 8.0044,0 15.8691,-0.73313 23.5884,-2.19671 7.715,-1.46358 14.0161,-3.27008 18.8975,-5.42163 l 5.8593,35.4558 c -2.3426,1.16976 -5.4741,2.3456 -9.3761,3.51537 -3.9118,1.17307 -8.2499,2.19841 -13.0381,3.07767 -4.7868,0.87816 -9.9194,1.61078 -15.385,2.19676 -5.4656,0.5871 -10.9397,0.88036 -16.4053,0.88036 -13.8722,0 -25.9309,-2.05178 -36.1848,-6.15479 -10.258,-4.10412 -18.7535,-9.71431 -25.4977,-16.84761 -6.7328,-7.12765 -11.72,-15.57578 -14.9362,-25.34566 -3.2274,-9.76395 -4.8376,-20.31225 -4.8376,-31.6445 z m 102.5524,-16.70024 c -0.1975,-3.70897 -0.834,-7.32409 -1.9065,-10.84212 -1.0725,-3.51606 -2.7377,-6.63993 -4.9787,-9.377 -2.2453,-2.73311 -5.0846,-4.98062 -8.4997,-6.73801 -3.4152,-1.75965 -7.6685,-2.63884 -12.7475,-2.63884 -4.8813,0 -9.0769,0.83516 -12.5936,2.49165 -3.5195,1.66312 -6.452,3.85884 -8.7932,6.59308 -2.3455,2.73692 -4.1504,5.90949 -5.4177,9.52024 -1.2771,3.61893 -2.2,7.28203 -2.7843,10.991 h 57.7212"
       style="fill:#d03d00;fill-opacity:1;fill-rule:nonzero;stroke:none;stroke-width:0.1411214"
       id="path3327-1" />
    <path
       inkscape:connector-curvature="0"
       d="m 1196.535,172.94852 c -3.71,-9.96181 -8.8892,-18.46018 -15.5289,-25.49088 -6.6425,-7.03493 -14.606,-12.50059 -23.8833,-16.40826 -9.2744,-3.90767 -19.4803,-5.85939 -30.6161,-5.85939 -10.9369,0 -21.0468,1.95172 -30.324,5.85939 -9.2815,3.90767 -17.2873,9.37333 -24.0301,16.40826 -6.7357,7.0307 -12.0108,15.52907 -15.821,25.49088 -3.8089,9.96039 -5.7112,21.00178 -5.7112,33.10864 0,12.11674 1.8558,23.20187 5.5686,33.25682 3.7101,10.06341 8.8836,18.65915 15.529,25.78582 6.6341,7.1323 14.5989,12.64877 23.8804,16.55502 9.2773,3.90767 19.5777,5.86221 30.9083,5.86221 11.5239,0 21.9259,-1.95454 31.2088,-5.86221 9.2745,-3.90625 17.2323,-9.42272 23.8805,-16.55502 6.6341,-7.12667 11.7201,-15.72241 15.2368,-25.78582 3.5083,-10.05495 5.2695,-21.14008 5.2695,-33.25682 0,-12.10686 -1.86,-23.14825 -5.5673,-33.10864 z m -16.7228,29.33786 c -1.4549,0.32458 -2.7222,-0.17641 -3.4645,-1.20095 -5.3273,5.71403 -8.47,12.87033 -10.7816,21.4068 0.047,-0.0155 0.088,-0.0395 0.1369,-0.048 2.3595,-0.53344 4.2251,1.10922 4.1673,3.65083 -0.061,2.54584 -2.0336,5.03523 -4.3931,5.56303 -2.3624,0.5292 -4.228,-1.10076 -4.1673,-3.64942 0.035,-1.52553 0.7691,-3.02848 1.8529,-4.10101 -6.8006,-6.38153 -16.0059,-11.00751 -26.0664,-9.7233 0.011,6.54806 -2.1055,17.35377 11.0794,24.6145 0.8001,-1.21506 2.0039,-2.1761 3.3798,-2.50915 2.409,-0.58283 4.3578,0.96528 4.3578,3.44479 0,2.48939 -1.9488,4.97173 -4.3578,5.55033 -2.1803,0.52497 -3.9641,-0.69714 -4.2915,-2.77587 -7.5527,4.53707 -13.985,10.7662 -18.2003,17.7842 1.6243,0.26672 2.7674,1.60456 2.7674,3.51112 0,2.48233 -1.9503,4.97031 -4.3578,5.54891 -2.409,0.58143 -4.3621,-0.96245 -4.3621,-3.44478 0,-1.91644 1.16,-3.81877 2.7942,-4.86025 -4.132,-5.25115 -9.6682,-8.41087 -17.4778,-9.08402 0,0.024 0,0.0452 0,0.072 0,2.47951 -1.9503,4.96326 -4.3564,5.54751 -2.4146,0.58001 -4.3663,-0.96104 -4.3663,-3.45044 0,-2.48233 1.9517,-4.96467 4.3663,-5.55174 1.4183,-0.33587 2.6559,0.0692 3.4561,0.95399 7.2126,-9.19834 11.7088,-20.86772 13.4304,-32.09539 -10.2524,4.18709 -20.5062,12.85199 -27.7443,22.08701 0.8961,0.57719 1.4253,1.68359 1.4253,3.11315 0,2.4894 -1.5495,4.96891 -3.9584,5.55316 -2.409,0.58142 -3.9627,-0.96528 -3.9627,-3.45467 0,-2.22973 1.2701,-4.4524 3.2712,-5.29913 -2.4612,-7.13513 -6.7639,-12.75744 -12.3453,-15.9101 -0.7917,1.61584 -2.3482,2.95933 -4.0304,3.36435 -1.4719,0.35845 -4.4693,-0.26672 -4.4693,-3.4462 0,-2.48234 2.1211,-4.97032 4.5258,-5.54892 1.4662,-0.3514 2.8196,0.0861 3.6564,1.03724 4.9308,-6.0499 6.541,-14.16018 8.4066,-22.81943 -0.071,0.024 -0.1426,0.0593 -0.2202,0.0762 -2.4004,0.58001 -4.3578,-0.96104 -4.3578,-3.44479 0,-2.48516 1.9574,-4.96468 4.3578,-5.54751 2.409,-0.58283 4.3635,0.95822 4.3635,3.44056 0,1.46625 -0.6859,2.92122 -1.7344,3.99375 7.8506,5.79165 22.307,8.27116 32.8275,7.49922 -1.7033,-10.42045 -7.9705,-18.84402 -15.4682,-24.39012 -0.7988,1.32232 -2.0802,2.37509 -3.5365,2.72789 -2.4089,0.58566 -4.3578,-0.96104 -4.3578,-3.4462 0,-2.47951 1.9489,-4.96608 4.3578,-5.54327 2.4089,-0.58848 4.3634,0.95963 4.3634,3.44479 0,0.0212 -0.011,0.0452 -0.011,0.0677 7.9169,-4.67538 13.8017,-11.61717 18.0155,-19.1291 -1.414,-0.30341 -2.4004,-1.63419 -2.4004,-3.50406 0,-2.48375 1.7555,-4.96467 3.9189,-5.55033 2.1718,-0.5786 3.9302,0.96951 3.9302,3.44761 0,1.84306 -0.9639,3.67482 -2.3483,4.73606 4.523,5.24268 12.1534,8.8173 20.2368,9.73742 0,-2.48234 1.7583,-4.9675 3.9302,-5.55174 2.169,-0.5786 3.9217,0.96527 3.9217,3.44197 0,2.48939 -1.7527,4.97455 -3.9217,5.55315 -0.9893,0.26531 -1.8798,0.072 -2.5712,-0.43466 -7.0815,8.96266 -11.9925,19.58492 -13.669,30.59667 10.7308,-2.52044 15.138,-15.35972 25.8604,-20.5135 -0.2921,-0.58142 -0.4685,-1.28139 -0.453,-2.08578 0.061,-2.54584 1.8303,-5.04088 3.9584,-5.56868 2.1281,-0.52779 3.8089,1.1064 3.7482,3.64801 -0.052,2.54584 -1.8162,5.03241 -3.9443,5.56585 2.1746,7.56132 6.2572,13.50538 11.7003,16.94452 0.7634,-1.5975 2.1831,-2.89441 3.8046,-3.25568 2.3666,-0.52921 4.2393,1.10357 4.1729,3.648 -0.066,2.54302 -2.0349,5.03806 -4.3945,5.56586"
       style="fill:#d03d00;fill-opacity:1;fill-rule:nonzero;stroke:none;stroke-width:0.1411214"
       id="path3329-4" />
  </g>
</svg>
