<?xml version="1.0" encoding="UTF-8" standalone="no"?>
<!-- Created with Inkscape (http://www.inkscape.org/) -->

<svg
   width="1000"
   height="1000"
   viewBox="0 0 937.5 937.5"
   id="svg4190"
   version="1.1"
   inkscape:version="1.2.1 (9c6d41e, 2022-07-14)"
   sodipodi:docname="icon-capitoledulibre.svg"
   inkscape:export-filename="icon-capitoledulibre-32px.png"
   inkscape:export-xdpi="3.0699999"
   inkscape:export-ydpi="3.0699999"
   xmlns:inkscape="http://www.inkscape.org/namespaces/inkscape"
   xmlns:sodipodi="http://sodipodi.sourceforge.net/DTD/sodipodi-0.dtd"
   xmlns="http://www.w3.org/2000/svg"
   xmlns:svg="http://www.w3.org/2000/svg"
   xmlns:rdf="http://www.w3.org/1999/02/22-rdf-syntax-ns#"
   xmlns:cc="http://creativecommons.org/ns#"
   xmlns:dc="http://purl.org/dc/elements/1.1/">
  <defs
     id="defs4192" />
  <sodipodi:namedview
     id="base"
     pagecolor="#ffffff"
     bordercolor="#666666"
     borderopacity="1.0"
     inkscape:pageopacity="0.0"
     inkscape:pageshadow="2"
     inkscape:zoom="0.35"
     inkscape:cx="-124.28571"
     inkscape:cy="-180"
     inkscape:document-units="px"
     inkscape:current-layer="layer1"
     showgrid="false"
     fit-margin-top="0"
     fit-margin-left="0"
     fit-margin-right="0"
     fit-margin-bottom="0"
     inkscape:window-width="2560"
     inkscape:window-height="1302"
     inkscape:window-x="0"
     inkscape:window-y="25"
     inkscape:window-maximized="1"
     inkscape:showpageshadow="2"
     inkscape:pagecheckerboard="0"
     inkscape:deskcolor="#d1d1d1" />
  <metadata
     id="metadata4195">
    <rdf:RDF>
      <cc:Work
         rdf:about="">
        <dc:format>image/svg+xml</dc:format>
        <dc:type
           rdf:resource="http://purl.org/dc/dcmitype/StillImage" />
      </cc:Work>
    </rdf:RDF>
  </metadata>
  <g
     inkscape:label="Layer 1"
     inkscape:groupmode="layer"
     id="layer1"
     transform="translate(-37.447456,-55.136651)">
    <path
       inkscape:connector-curvature="0"
       d="M 903.36652,334.82129 C 882.3678,278.43932 853.05525,230.34063 815.47615,190.54816 777.88006,150.73189 732.80851,119.79715 680.30166,97.680524 627.80965,75.5639 570.04641,64.518257 507.02006,64.518257 c -61.90039,0 -119.11991,11.045643 -171.62768,33.162267 -52.53154,22.116626 -97.8425,53.051366 -136.00496,92.867636 -38.12285,39.79247 -67.97831,87.89116 -89.54421,144.27313 -21.557174,56.37399 -32.323866,118.86555 -32.323866,187.38826 0,68.57818 10.503625,131.31773 31.517176,188.22663 20.99851,56.9563 50.27947,105.6066 87.8904,145.94214 37.54835,40.36768 82.62712,71.58934 135.15865,93.69806 52.50777,22.11643 110.8058,33.17867 174.93449,33.17867 65.22316,0 124.0964,-11.06224 176.63569,-33.17867 52.49139,-22.10872 97.53112,-53.33038 135.15873,-93.69806 37.54758,-40.33554 66.33325,-88.98584 86.23743,-145.94214 19.85597,-56.9089 29.82366,-119.64845 29.82366,-188.22663 0,-68.52271 -10.52733,-131.01427 -31.50905,-187.38826 z m -94.64829,166.04582 c -8.2341,1.83844 -15.40703,-0.99844 -19.60783,-6.79902 -30.15184,32.33972 -47.93955,72.84303 -61.02246,121.15807 0.23795,-0.0794 0.47558,-0.23764 0.79263,-0.23764 13.35454,-3.01917 23.91369,6.27601 23.58583,20.66332 -0.31706,14.40868 -11.50939,28.49803 -24.86423,31.48547 -13.36968,2.99537 -23.92884,-6.22848 -23.58552,-20.6554 0.23795,-8.63348 4.35036,-17.14017 10.48685,-23.21015 -38.48978,-36.1188 -90.59026,-62.30059 -147.52997,-55.03245 0.0618,37.061 -11.91729,98.2189 62.70692,139.31333 4.52495,-6.87826 11.34128,-12.31667 19.12916,-14.20106 13.63389,-3.29652 24.66429,5.45979 24.66429,19.49605 0,14.09016 -11.0304,28.13902 -24.66429,31.41431 -12.34034,2.97152 -22.43597,-3.94647 -24.28946,-15.7108 -42.7465,25.67849 -79.15225,60.93439 -103.00976,100.65468 9.19292,1.51357 15.66296,9.08143 15.66296,19.87173 0,14.04982 -11.03838,28.13117 -24.66414,31.40645 -13.63451,3.28858 -24.68883,-5.44397 -24.68883,-19.49689 0,-10.84685 6.5692,-21.61367 15.81444,-27.5085 -23.3861,-29.71983 -54.71941,-47.60334 -98.92018,-51.41323 0,0.1576 0,0.23795 0,0.39617 0,14.03375 -11.03851,28.09069 -24.65636,31.39749 -13.66618,3.28054 -24.71259,-5.43594 -24.71259,-19.52841 0,-14.04983 11.04641,-28.09873 24.71259,-31.42222 8.0265,-1.9017 15.03155,0.39616 19.56027,5.39639 40.82265,-52.06084 66.26904,-118.1072 76.0135,-181.65347 -58.02622,23.6983 -116.06116,72.74 -157.02722,125.00847 5.07152,3.26478 8.06689,9.52892 8.06689,17.6196 0,14.08948 -8.76978,28.12323 -22.40348,31.43004 -13.63451,3.28857 -22.42806,-5.45974 -22.42806,-19.55313 0,-12.61942 7.18731,-25.19918 18.51425,-29.99177 -13.93005,-40.38366 -38.28213,-72.20432 -69.8714,-90.04818 -4.48515,9.14539 -13.2906,16.7495 -22.81161,19.04198 -8.33076,2.02861 -25.29503,-1.5056 -25.29503,-19.50477 0,-14.04973 12.00447,-28.13114 25.6144,-31.40624 8.29906,-1.989 15.95867,0.47546 20.69499,5.87187 27.90689,-34.24154 37.02061,-80.14364 47.57968,-129.15364 -0.39619,0.15853 -0.80826,0.31699 -1.2441,0.39623 -13.58616,3.28066 -24.66428,-5.43604 -24.66428,-19.49606 0,-14.06559 11.07812,-28.09947 24.66428,-31.39833 13.6345,-3.29648 24.69597,5.42021 24.69597,19.4731 0,8.29828 -3.88288,16.53319 -9.81578,22.60397 44.43213,32.77949 126.25254,46.8126 185.79706,42.44395 -9.64066,-58.97794 -45.11126,-106.6535 -87.54726,-138.04308 -4.52477,7.4805 -11.77311,13.44273 -20.01592,15.43883 -13.6337,3.31237 -24.66427,-5.43603 -24.66427,-19.50477 0,-14.03308 11.03057,-28.10657 24.66427,-31.37376 13.6345,-3.32819 24.69677,5.42812 24.69677,19.49686 0,0.15852 -0.0643,0.23763 -0.0643,0.39622 44.80774,-26.46151 78.11423,-65.75081 101.96389,-108.26685 -8.00351,-1.71956 -13.58614,-9.24922 -13.58614,-19.83208 0,-14.05764 9.93623,-28.09863 22.18,-31.41334 12.29213,-3.27272 22.24422,5.48359 22.24422,19.51271 0,10.43069 -5.45192,20.79881 -13.2906,26.80461 25.59945,29.6724 68.78568,49.90464 114.53584,55.11169 0,-14.04893 9.95193,-28.11452 22.24406,-31.42132 12.27637,-3.27272 22.19679,5.45982 22.19679,19.481 0,14.08935 -9.92042,28.15494 -22.19679,31.42924 -5.6025,1.50559 -10.63919,0.39622 -14.55198,-2.45651 -40.08029,50.72637 -67.87525,110.84619 -77.36396,173.17054 60.73414,-14.26527 85.6781,-86.93238 146.36435,-116.10237 -1.65603,-3.28858 -2.65447,-7.25072 -2.56733,-11.80478 0.31675,-14.40869 10.35861,-28.53052 22.40352,-31.51718 12.04492,-2.98743 21.55712,6.26016 21.2138,20.64669 -0.31675,14.40869 -10.27919,28.48218 -22.3241,31.50132 12.30789,42.79579 35.41504,76.43744 66.22138,95.90263 4.31884,-9.0416 12.35641,-16.38184 21.53363,-18.4263 13.3944,-2.99538 23.99311,6.2443 23.61827,20.64665 -0.39647,14.39287 -11.51804,28.5147 -24.87288,31.50136"
       style="fill:#d03d00;fill-opacity:1;fill-rule:nonzero;stroke:none;stroke-width:3.09018"
       id="path3329-4" />
  </g>
</svg>
