<svg width="723" height="723" viewBox="0 0 723 723" fill="none" xmlns="http://www.w3.org/2000/svg">
<path d="M247.752 113.252L308.092 90.4848M247.752 113.252L303.451 214.016M247.752 113.252L334.253 175.65M308.596 307.089L212.73 301.71M308.596 307.089L303.451 214.016M308.596 307.089L334.253 175.65M308.596 307.089L175.808 334.385M308.596 307.089L260.663 333.28M308.596 307.089L334.764 260.552M308.596 307.089L372.872 318.123M308.596 307.089L305.786 366.983M474.765 113.252L411.894 90.4848M474.765 113.252L416.535 214.016M474.765 113.252C470.377 111.663 414.847 154.188 387.631 175.65M415.246 307.191L416.535 214.016M415.246 307.191L507.678 301.71M415.246 307.191L387.631 175.65M415.246 307.191C452.336 311.634 502.131 322.662 548.186 331.766M415.246 307.191L388.089 260.603L360.932 214.016M415.246 307.191L461.462 333.331M607.682 249.431L632.156 312.672M607.682 249.431L507.678 301.71M607.682 249.431L548.186 331.766M680.681 359.47L632.156 414.279M680.681 359.47L632.156 312.672M680.681 359.47L548.186 385.821M680.681 359.47C678.858 359.47 617.225 345.412 548.186 331.766M680.681 359.47H507.678M607.682 477.099L632.156 414.279M607.682 477.099L507.678 419.339M607.682 477.099L548.186 385.821M414.93 411.226L507.678 419.339M414.93 411.226L422.865 516.308M414.93 411.226L548.186 385.821M414.93 411.226L390.163 547.086M414.93 411.226L461.304 385.348M414.93 411.226L389.093 459.551M414.93 411.226L350.908 400.686M414.93 411.226L417.088 351.736M474.765 604.424L416.535 633.937M474.765 604.424L422.865 516.308M474.765 604.424L390.163 547.086M364.634 682L314.843 633.937M364.634 682L416.535 633.937M364.634 682L390.163 547.086M364.634 682L336.785 547.086M364.634 682L363.257 507.876M250.284 609.062L314.843 633.937M250.284 609.062L303.451 507.876M250.284 609.062L336.785 547.086M308.491 412.171L212.73 414.279M308.491 412.171L303.451 507.876M308.491 412.171L336.785 547.086M308.491 412.171L175.808 385.821M308.491 412.171L335.874 460.024L363.257 507.876M308.491 412.171L260.61 385.821M112.304 472.04L88.2521 414.279M112.304 472.04L212.73 414.279M112.304 472.04L175.808 385.821M42.6807 359.47L88.2521 312.672M42.6807 359.47L88.2521 414.279M42.6807 359.47L175.808 385.821M42.6807 359.47L175.808 334.385M42.6807 359.47H212.73M112.304 249.431L88.2521 312.672M112.304 249.431L212.73 301.71M112.304 249.431L175.808 334.385M359.571 42L308.092 90.4848M359.571 42L411.894 90.4848M359.571 42L334.253 175.65M359.571 42L387.631 175.65M359.571 42L360.932 214.016M88.2521 312.672L175.808 334.385M88.2521 414.279L175.808 385.821M308.092 90.4848L334.253 175.65M411.894 90.4848L387.631 175.65M314.843 633.937L336.785 547.086M416.535 633.937L390.163 547.086M632.156 414.279L548.186 385.821M632.156 312.672L548.186 331.766M212.73 414.279L175.808 385.821M212.73 301.71L175.808 334.385M303.451 214.016L334.253 175.65M416.535 214.016L387.631 175.65M507.678 301.71L548.186 331.766M507.678 419.339L548.186 385.821M422.865 516.308L390.163 547.086M303.451 507.876L336.785 547.086M360.932 214.016L334.764 260.552M360.932 214.016L372.872 318.123M507.678 359.47L461.462 333.331M507.678 359.47L461.304 385.348M363.257 507.876L389.093 459.551M363.257 507.876L350.908 400.686M212.73 359.47L260.61 385.821M212.73 359.47L260.663 333.28M461.462 333.331L372.872 318.123M461.304 385.348L417.088 351.736M389.093 459.551L372.872 318.123M260.61 385.821L350.908 400.686M260.663 333.28L305.786 366.983M334.764 260.552L350.908 400.686M350.908 400.686L305.786 366.983M372.872 318.123L417.088 351.736" stroke="black" stroke-width="10"/>
<circle cx="21.6807" cy="363" r="16" stroke="black" stroke-width="10"/>
<circle cx="106.181" cy="224.5" r="16.5" stroke="black" stroke-width="10"/>
<path d="M122.681 498C122.681 506.726 115.405 514 106.181 514C96.9564 514 89.6807 506.726 89.6807 498C89.6807 489.274 96.9564 482 106.181 482C115.405 482 122.681 489.274 122.681 498Z" stroke="black" stroke-width="10"/>
<circle cx="498.681" cy="105" r="16" transform="rotate(90 498.681 105)" stroke="black" stroke-width="10"/>
<circle cx="224.681" cy="105" r="16" transform="rotate(90 224.681 105)" stroke="black" stroke-width="10"/>
<circle cx="361.681" cy="21" r="16" transform="rotate(90 361.681 21)" stroke="black" stroke-width="10"/>
<circle cx="701.681" cy="359" r="16" transform="rotate(-180 701.681 359)" stroke="black" stroke-width="10"/>
<path d="M600.681 498C600.681 489.274 607.956 482 617.181 482C626.405 482 633.681 489.274 633.681 498C633.681 506.726 626.405 514 617.181 514C607.956 514 600.681 506.726 600.681 498Z" stroke="black" stroke-width="10"/>
<circle cx="617.181" cy="224.5" r="16.5" transform="rotate(-180 617.181 224.5)" stroke="black" stroke-width="10"/>
<path d="M363.681 686C372.517 686 379.681 693.163 379.681 702C379.681 710.837 372.517 718 363.681 718C354.844 718 347.681 710.837 347.681 702C347.681 693.163 354.844 686 363.681 686Z" stroke="black" stroke-width="10"/>
<path d="M224.681 601C233.407 601 240.681 608.276 240.681 617.5C240.681 626.724 233.407 634 224.681 634C215.954 634 208.681 626.724 208.681 617.5C208.681 608.276 215.954 601 224.681 601Z" stroke="black" stroke-width="10"/>
<path d="M498.681 601C507.407 601 514.681 608.276 514.681 617.5C514.681 626.724 507.407 634 498.681 634C489.954 634 482.681 626.724 482.681 617.5C482.681 608.276 489.954 601 498.681 601Z" stroke="black" stroke-width="10"/>
</svg>
