<?xml version="1.0" encoding="UTF-8" standalone="no"?>
<!-- Created with Inkscape (http://www.inkscape.org/) -->
<svg xmlns:svg="http://www.w3.org/2000/svg" xmlns="http://www.w3.org/2000/svg" version="1.1" width="198.88135" height="26.012617" id="svg3149">
  <defs id="defs3151"/>
  <g transform="translate(127.36089,-66.506163)" id="layer1">
    <path d="m -41.438782,69.839928 c 1.34475,1.105 3.131375,0.862 4.77925,1.09275 0.393875,-0.755125 0.87175,-0.91 1.562375,-1.179125 0.911625,-0.42 6.756,-0.655625 11.08837,-2.275125 1.405,-0.730625 1.6815,-0.139375 3.82688,-0.503875 3.98825,-0.67675 4.77512,-0.56425 5.95675,-0.01875 0.075,0.03425 2.8075,0.565875 3.59762,0.63525 -0.0595,0.584625 0.16888,1.51825 0.19975,1.921875 0.46563,1.824125 -0.0309,4.768625 -0.561,7.135875 -0.14425,0.668625 -0.28375,0.9125 -0.98425,2.032 0.38988,2.34775 2.62738,4.147375 3.16313,7.705875 -2.26775,-1.75975 -5.24725,2.907 -11.023,2.6395 -1.93013,-0.08888 -5.54163,-0.097 -7.789,1.2085 -0.830875,0.4835 -2.065625,0.577375 -3.107,0.5105 -0.887125,-0.05637 -4.806125,0.741125 -5.39075,0.91075 -2.147875,0.623875 -1.776875,0.842375 -3.035875,0.86275 -0.62875,0.0099 -2.93225,-0.700375 -3.47125,-1.201125 0.57,-1.967625 0.986625,-5.239125 0.7795,-7.0885 -0.434625,-3.874875 0.4835,-7.079625 0.4085,-7.079625 0.95575,-2.248875 0.159,-7.201 0,-7.3095" id="path2890" style="fill:#ee293d;fill-opacity:1;fill-rule:nonzero;stroke:none"/>
    <path d="m -17.628787,76.459678 c -0.26012,0.05825 -0.488,0.266 -0.61,0.521625 -0.87375,-0.551625 -1.52887,-1.50475 -1.87787,-2.718 0.34125,-0.08525 0.62462,-0.484375 0.63363,-0.8925 0.009,-0.40775 -0.26013,-0.670375 -0.60188,-0.5855 -0.34163,0.08475 -0.62538,0.485125 -0.63437,0.892875 -0.003,0.12925 0.0249,0.241375 0.0714,0.335125 -1.71975,0.82625 -2.42625,2.88625 -4.14775,3.291125 0.26875,-1.766875 1.05725,-3.47075 2.19275,-4.9085 0.1105,0.08113 0.25362,0.112125 0.41175,0.06975 0.34825,-0.093 0.6295,-0.49175 0.6295,-0.8905 0,-0.397875 -0.28125,-0.64575 -0.6295,-0.552875 -0.34738,0.09375 -0.6295,0.4925 -0.6295,0.8905 l 0,2.5e-4 c -1.29688,-0.147 -2.52125,-0.720875 -3.24625,-1.561625 0.221,-0.171 0.376,-0.46525 0.376,-0.760125 0,-0.398 -0.28225,-0.645875 -0.6295,-0.552875 -0.34763,0.09375 -0.62975,0.491625 -0.62975,0.890375 0,0.2995 0.15912,0.513375 0.38562,0.561875 -0.7505,1.33625 -1.828495,2.56225 -3.316245,3.3025 1.330875,0.879875 2.480625,2.313375 2.776745,4.120375 -1.68887,0.123875 -4.006495,-0.274625 -5.26687,-1.20325 0.168375,-0.172375 0.278625,-0.405625 0.278625,-0.6405 0,-0.39875 -0.313125,-0.64575 -0.699625,-0.552 -0.3865,0.093 -0.699625,0.490875 -0.699625,0.889625 0,0.39875 0.313125,0.645875 0.699625,0.552875 0.0125,-0.0029 0.02362,-0.0088 0.03562,-0.01225 -0.3,1.388875 -0.558125,2.689875 -1.3495,3.660625 -0.13475,-0.152625 -0.351375,-0.223 -0.5865,-0.1665 -0.386125,0.093 -0.726125,0.49175 -0.726125,0.8905 0,0.509625 0.481125,0.609875 0.71725,0.552875 0.269625,-0.06513 0.51875,-0.28075 0.646375,-0.539875 0.894875,0.506 1.585375,1.407625 1.980375,2.552125 -0.32175,0.13575 -0.525125,0.4925 -0.525125,0.850625 0,0.39875 0.249625,0.646625 0.63575,0.55375 0.3865,-0.09388 0.635625,-0.49175 0.635625,-0.8905 0,-0.23 -0.08512,-0.407125 -0.229375,-0.5 1.162375,-1.48125 2.80625,-2.871 4.451,-3.542875 -0.275,1.80125 -0.997,3.67325 -2.154125,5.14925 -0.127875,-0.14225 -0.327625,-0.20775 -0.554875,-0.153125 -0.386625,0.09375 -0.69975,0.49175 -0.69975,0.8905 0,0.39875 0.313125,0.646625 0.69975,0.552875 0.386625,-0.093 0.69975,-0.49175 0.69975,-0.88975 0,-0.004 -0.0012,-0.0077 -0.0012,-0.01175 1.25375,0.108625 2.14225,0.615375 2.80475,1.457375 -0.262,0.1675 -0.44875,0.4725 -0.44875,0.77975 0,0.39875 0.31338,0.64575 0.69988,0.552875 0.3865,-0.093 0.69962,-0.49175 0.69962,-0.8905 0,-0.305375 -0.18425,-0.52025 -0.444,-0.563 0.676,-1.125375 1.7075,-2.125 2.91963,-2.85325 0.0519,0.33375 0.33887,0.529875 0.68825,0.445625 0.3865,-0.093 0.69961,-0.491625 0.69961,-0.890375 0,-0.397875 -0.31311,-0.645875 -0.69961,-0.552875 -0.22013,0.05362 -0.41425,0.20775 -0.54225,0.403 -2.11513,-1.1655 -1.77513,-2.898625 -1.77763,-3.9485 1.6145,-0.20675 3.09125,0.53575 4.18188,1.558875 -0.174,0.172625 -0.2915,0.413375 -0.29713,0.65825 -0.01,0.4085 0.28938,0.67025 0.66863,0.5855 0.37912,-0.08488 0.6955,-0.484375 0.7045,-0.892875 0.01,-0.40775 -0.2895,-0.67025 -0.66863,-0.5855 -0.007,0.0016 -0.0143,0.0053 -0.0216,0.0071 0.37062,-1.3685 0.87537,-2.516875 1.7295,-3.433625 0.1195,0.164625 0.3225,0.24475 0.55575,0.1925 0.37912,-0.08488 0.69475,-0.484375 0.70537,-0.892125 0.01,-0.4085 -0.29037,-0.67025 -0.6695,-0.585375 z" id="path2898" style="fill:none;stroke:#fde012;stroke-width:0.0168675;stroke-linecap:butt;stroke-linejoin:miter;stroke-miterlimit:4;stroke-opacity:1;stroke-dasharray:none"/>
    <path d="m -26.306527,79.179928 c -0.0889,1.935 -0.57275,4.25 -1.43038,5.937875 0.6165,0.01475 1.32113,0.487625 1.67325,0.9305 0.35238,-0.612375 1.39038,-1.599875 2.00763,-1.91225 -0.8505,-1.27375 -1.4465,-3.205375 -1.53375,-5.0915 l 0.0635,0 c 1.57387,0.02613 3.37275,-0.3775 5.18787,0.76975 0.172,-0.686625 0.53725,-1.718125 1.04863,-2.20325 -0.49263,-0.260125 -1.16775,-1.45475 -1.308,-2.072 -1.55575,0.429625 -2.45525,2.453625 -4.93738,2.693375 0.0864,-1.94075 0.62213,-3.82525 1.48238,-5.518875 -0.61638,-0.01475 -1.913,-0.583875 -2.26525,-1.025875 -0.35325,0.612375 -1.13588,1.695375 -1.75313,2.007625 0.85375,1.278625 1.60963,2.898875 1.69362,4.79475 -1.854245,0.3555 -4.524995,0.322125 -5.960995,-0.217 -0.158625,0.67525 -0.128,1.950625 -0.63925,2.437375 0.51125,0.240625 1.2255,1.13925 1.3845,1.737625 1.432,-1.22225 3.438875,-2.731625 5.286745,-3.268125" id="path2902" style="fill:none;stroke:#fde012;stroke-width:0.0168675;stroke-linecap:butt;stroke-linejoin:miter;stroke-miterlimit:4;stroke-opacity:1;stroke-dasharray:none"/>
    <path d="m -2.3337773,73.575428 7.16274,0 0,3.044 c -0.29037,-0.145125 -0.71112,-0.20225 -1.07312,-0.20225 l -0.87,0 0,6.5235 c 0,0.319625 0.0864,0.696375 0.3335,0.95725 l -3.94349998,0 c 0.24625,-0.260875 0.3335,-0.637625 0.3335,-0.95725 l 0,-6.5235 -0.87000002,0 c -0.36213,0 -0.78287,0.05712 -1.07312,0.20225" id="path2904" style="fill:#000000;fill-opacity:1;fill-rule:nonzero;stroke:none"/>
    <path d="m 16.368093,78.736303 c 0,2.914375 -2.262,5.39325 -5.23425,5.39325 -2.9722503,0 -5.2333703,-2.478875 -5.2333703,-5.39325 0,-2.914375 2.26112,-5.39325 5.2333703,-5.39325 2.97225,0 5.23425,2.478875 5.23425,5.39325 z m -5.23425,2.116875 c 1.07313,0 1.95788,-0.87 1.95788,-2.116875 0,-1.24675 -0.88475,-2.116875 -1.95788,-2.116875 -1.07225,0 -1.9570003,0.870125 -1.9570003,2.116875 0,1.246875 0.8847503,2.116875 1.9570003,2.116875" id="path2906" style="fill:#000000;fill-opacity:1;fill-rule:nonzero;stroke:none"/>
    <path d="m 18.032343,74.531928 c 0,-0.318875 -0.0871,-0.6955 -0.3335,-0.9565 l 3.9435,0 c -0.24713,0.261 -0.33363,0.637625 -0.33363,0.9565 l 0,5.23425 c 0,0.811375 0.20225,1.232125 0.92725,1.232125 0.74038,0 0.89938,-0.42075 0.89938,-1.232125 l 0,-5.23425 c 0,-0.318875 -0.0864,-0.6955 -0.3335,-0.9565 l 3.94338,0 c -0.24625,0.261 -0.33263,0.637625 -0.33263,0.9565 l 0,5.45125 c 0,2.306 -1.98725,4.146375 -4.23375,4.146375 -2.24725,0 -4.1465,-1.840375 -4.1465,-4.146375" id="path2908" style="fill:#000000;fill-opacity:1;fill-rule:nonzero;stroke:none"/>
    <path d="m 31.775593,81.056178 0.9125,0 c 0.45012,0 0.95737,-0.0285 1.348749,-0.232375 l 0,3.074125 -5.871129,0 c 0.24625,-0.260875 0.33275,-0.637625 0.33275,-0.95725 l 0,-8.40875 c 0,-0.318875 -0.0865,-0.6955 -0.33275,-0.9565 l 3.94263,0 c -0.24625,0.261 -0.33275,0.637625 -0.33275,0.9565" id="path2910" style="fill:#000000;fill-opacity:1;fill-rule:nonzero;stroke:none"/>
    <path d="m 45.618342,78.736303 c 0,2.914375 -2.262,5.39325 -5.235,5.39325 -2.9715,0 -5.23338,-2.478875 -5.23338,-5.39325 0,-2.914375 2.26188,-5.39325 5.23338,-5.39325 2.973,0 5.235,2.478875 5.235,5.39325 z m -5.235,2.116875 c 1.07387,0 1.957,-0.87 1.957,-2.116875 0,-1.24675 -0.88313,-2.116875 -1.957,-2.116875 -1.07225,0 -1.95713,0.870125 -1.95713,2.116875 0,1.246875 0.88488,2.116875 1.95713,2.116875" id="path2912" style="fill:#000000;fill-opacity:1;fill-rule:nonzero;stroke:none"/>
    <path d="m 47.281092,74.531928 c 0,-0.318875 -0.0865,-0.6955 -0.33275,-0.9565 l 3.94337,0 c -0.24625,0.261 -0.3335,0.637625 -0.3335,0.9565 l 0,5.23425 c 0,0.811375 0.20313,1.232125 0.928,1.232125 0.73963,0 0.89938,-0.42075 0.89938,-1.232125 l 0,-5.23425 c 0,-0.318875 -0.0873,-0.6955 -0.3335,-0.9565 l 3.943381,0 c -0.24701,0.261 -0.33426,0.637625 -0.33426,0.9565 l 0,5.45125 c 0,2.306 -1.985621,4.146375 -4.232871,4.146375 -2.24738,0 -4.14725,-1.840375 -4.14725,-4.146375" id="path2914" style="fill:#000000;fill-opacity:1;fill-rule:nonzero;stroke:none"/>
    <path d="m 57.443713,79.824053 c 0.60913,0.71025 1.49388,1.608875 2.47975,1.608875 0.362,0 0.78288,-0.24625 0.78288,-0.66625 0,-0.667 -0.84163,-1.029875 -1.68225,-1.609625 -0.85463,-0.565875 -1.69613,-1.348625 -1.69613,-2.7985 0,-2.10225 1.4645,-3.0155 3.4215,-3.0155 0.56513,0 1.2175,0.305 1.436,0.305 0.23163,0 0.43388,-0.02938 0.59363,-0.188375 l 0,3.3775 c -0.21688,-0.434625 -0.88388,-1.144875 -1.4205,-1.144875 -0.5365,0 -0.75425,0.17375 -0.75425,0.550375 0,0.580625 0.8415,0.88475 1.69687,1.449875 0.84075,0.565875 1.6815,1.392 1.6815,3.0595 0,2.275875 -1.69612,3.3775 -3.813,3.3775 -0.6955,0 -1.36262,-0.304125 -1.89912,-0.304125 -0.31888,0 -0.56588,0.05787 -0.82688,0.18825" id="path2916" style="fill:#000000;fill-opacity:1;fill-rule:nonzero;stroke:none"/>
    <path d="m 71.520463,83.897928 -6.40837,0 c 0.24625,-0.260875 0.3335,-0.637625 0.3335,-0.95725 l 0,-8.40875 c 0,-0.318875 -0.0873,-0.6955 -0.3335,-0.9565 l 6.40837,0 0,3.116625 c -0.44925,-0.203125 -1.04375,-0.274875 -1.56562,-0.274875 l -1.37725,0 0,1.087 0.73962,0 c 0.37675,0 0.75338,-0.04325 1.131,-0.203 l 0,2.7545 c -0.37762,-0.159 -0.75425,-0.203 -1.131,-0.203 l -0.73962,0 0,1.2035 1.37725,0 c 0.52187,0 1.11637,-0.07263 1.56562,-0.275625" id="path2918" style="fill:#000000;fill-opacity:1;fill-rule:nonzero;stroke:none"/>
    <path d="m -67.391158,73.309678 c 0.26063,0.203 0.57988,0.3335 0.95688,0.3335 0.62337,0 1.31937,-0.3335 2.49362,-0.3335 2.72588,0 4.886,2.6525 4.886,5.26275 0,2.827125 -2.02975,5.292125 -4.944,5.292125 l -3.726,0 c 0.24625,-0.261 0.3335,-0.6385 0.3335,-0.95725 l 0,-9.597625 z m 3.13163,7.42275 c 1.20312,0 2.07325,-0.87 2.07325,-2.102125 0,-1.37725 -0.87013,-2.189375 -2.07325,-2.189375" id="path2920" style="fill:#000000;fill-opacity:1;fill-rule:nonzero;stroke:none"/>
    <path d="m -51.255657,83.864553 -6.408251,0 c 0.24638,-0.261 0.33363,-0.6385 0.33363,-0.95725 l 0,-8.408875 c 0,-0.31875 -0.0872,-0.6955 -0.33363,-0.95725 l 6.408251,0 0,3.1175 c -0.4495,-0.203125 -1.044,-0.27575 -1.565625,-0.27575 l -1.37775,0 0,1.087875 0.739625,0 c 0.377,0 0.753875,-0.04412 1.131,-0.203125 l 0,2.7545 c -0.377125,-0.15975 -0.754,-0.203 -1.131,-0.203 l -0.739625,0 0,1.203625 1.37775,0 c 0.521625,0 1.116125,-0.07263 1.565625,-0.275625" id="path2922" style="fill:#000000;fill-opacity:1;fill-rule:nonzero;stroke:none"/>
    <path d="m -116.05203,73.541178 c -0.24638,0.18925 -0.3045,0.406125 -0.3045,0.711125 0,0.14425 0.0145,0.318875 0.0434,0.507125 l 1.15975,7.988 c 0.0581,0.435375 0.17412,0.8415 0.58025,1.117125 l -4.03075,0 c 0.26125,-0.18925 0.31887,-0.450125 0.31887,-0.75425 0,-0.50725 -0.10125,-1.0585 -0.14487,-1.565625 l -0.28975,-3.667875 -0.0291,0 -2.26175,6.21925 -2.17475,-6.21925 -0.0289,0 -0.29025,3.667875 c -0.0581,0.507125 -0.14488,1.058375 -0.14488,1.565625 0,0.304125 0.058,0.565 0.319,0.75425 l -4.03063,0 c 0.406,-0.275625 0.47838,-0.68175 0.58,-1.117125 l 1.07288,-7.988 c 0.0291,-0.18825 0.0434,-0.362875 0.0434,-0.507125 0,-0.305 -0.0579,-0.521875 -0.30437,-0.711125 l 3.72612,0 1.247,3.958125 0.0289,0 1.24662,-3.958125" id="path2924" style="fill:#000000;fill-opacity:1;fill-rule:nonzero;stroke:none"/>
    <path d="m -107.10041,73.541178 3.43625,9.423875 c 0.145,0.3915 0.36225,0.667125 0.59425,0.8995 l -4.17537,0 c 0.0721,-0.159875 0.10125,-0.362875 0.10125,-0.55125 0,-0.318875 -0.116,-0.623 -0.2175,-0.927875 l -2.8415,0 c -0.1595,0.260875 -0.2465,0.637625 -0.2465,0.9425 0,0.159125 0.0434,0.37675 0.15937,0.464 l 0,0.07262 -4.2045,0 c 0.37688,-0.36287 0.55075,-0.884745 0.75375,-1.43512 l 2.871,-7.78575 c 0.0577,-0.159875 0.145,-0.464 0.145,-0.63775 0,-0.232375 -0.145,-0.348125 -0.31912,-0.46475 l 3.94362,0 z m -1.00037,6.466375 -0.68138,-3.17525 -0.0581,0 -0.65237,3.17525" id="path2926" style="fill:#000000;fill-opacity:1;fill-rule:nonzero;stroke:none"/>
    <path d="m -98.17128,73.541178 c -0.24638,0.26175 -0.3335,0.6385 -0.3335,0.95725 l 0,8.408875 c 0,0.31875 0.0871,0.69625 0.3335,0.95725 l -3.94363,0 c 0.2465,-0.261 0.33363,-0.6385 0.33363,-0.95725 l 0,-8.408875 c 0,-0.31875 -0.0871,-0.6955 -0.33363,-0.95725" id="path2928" style="fill:#000000;fill-opacity:1;fill-rule:nonzero;stroke:none"/>
    <path d="m -96.33491,73.309678 c 0.232,0.203 0.551,0.3335 0.928,0.3335 0.62338,0 1.31913,-0.3335 2.49363,-0.3335 2.233002,0 4.045122,1.2615 4.045122,3.63925 0,0.81125 -0.3625,1.652 -0.9135,2.261125 1.16,0.5945 2.059,2.001125 2.059,3.69725 0,0.31875 0.0868,0.69625 0.3335,0.95725 l -3.94387,0 c 0.24675,-0.261 0.33375,-0.6385 0.33375,-0.95725 0,-0.84075 -0.928,-1.826625 -2.059002,-2.059 l 0,2.059 c 0,0.31875 0.0869,0.69625 0.3335,0.95725 l -3.94363,0 c 0.2465,-0.261 0.3335,-0.6385 0.3335,-0.95725 l 0,-9.597625 z m 3.27663,4.87125 c 0.53637,0 1.232372,-0.18825 1.232372,-0.95725 0,-0.768125 -0.696002,-0.9565 -1.232372,-0.9565" id="path2930" style="fill:#000000;fill-opacity:1;fill-rule:nonzero;stroke:none"/>
    <path d="m -82.432028,73.541178 c -0.24663,0.26175 -0.3335,0.6385 -0.3335,0.95725 l 0,8.408875 c 0,0.31875 0.0869,0.69625 0.3335,0.95725 l -3.94363,0 c 0.24675,-0.261 0.33338,-0.6385 0.33338,-0.95725 l 0,-8.408875 c 0,-0.31875 -0.0866,-0.6955 -0.33338,-0.95725" id="path2932" style="fill:#000000;fill-opacity:1;fill-rule:nonzero;stroke:none"/>
    <path d="m -74.666028,83.864553 -6.40825,0 c 0.24662,-0.261 0.33362,-0.6385 0.33362,-0.95725 l 0,-8.408875 c 0,-0.31875 -0.087,-0.6955 -0.33362,-0.95725 l 6.40825,0 0,3.1175 c -0.44925,-0.203125 -1.04363,-0.27575 -1.56563,-0.27575 l -1.3775,0 0,1.087875 0.73938,0 c 0.377,0 0.75412,-0.04412 1.131,-0.203125 l 0,2.7545 c -0.37688,-0.15975 -0.754,-0.203 -1.131,-0.203 l -0.73938,0 0,1.203625 1.3775,0 c 0.522,0 1.11638,-0.07263 1.56563,-0.275625" id="path2934" style="fill:#000000;fill-opacity:1;fill-rule:nonzero;stroke:none"/>
    <path d="m -17.648587,76.456781 c -0.260125,0.05825 -0.488,0.266 -0.61,0.521625 -0.87375,-0.551625 -1.528875,-1.50475 -1.877875,-2.718 0.34125,-0.08525 0.624625,-0.484375 0.633625,-0.8925 0.0087,-0.40775 -0.260125,-0.670375 -0.601875,-0.5855 -0.341625,0.08475 -0.625375,0.485125 -0.634375,0.892875 -0.0025,0.12925 0.02487,0.241375 0.07137,0.335125 -1.71975,0.82625 -2.42625,2.88625 -4.14775,3.291125 0.26875,-1.766875 1.05725,-3.47075 2.19275,-4.9085 0.1105,0.08113 0.253625,0.112125 0.41175,0.06975 0.34825,-0.093 0.6295,-0.49175 0.6295,-0.8905 0,-0.397875 -0.28125,-0.64575 -0.6295,-0.552875 -0.347375,0.09375 -0.6295,0.4925 -0.6295,0.8905 l 0,2.5e-4 c -1.29687,-0.147 -2.521245,-0.720875 -3.246245,-1.561625 0.221,-0.171 0.376,-0.46525 0.376,-0.760125 0,-0.398 -0.28225,-0.645875 -0.6295,-0.552875 -0.347625,0.09375 -0.62975,0.491625 -0.62975,0.890375 0,0.2995 0.159125,0.513375 0.385625,0.561875 -0.7505,1.33625 -1.8285,2.56225 -3.31625,3.3025 1.330875,0.879875 2.480625,2.313375 2.77675,4.120375 -1.688875,0.123875 -4.0065,-0.274625 -5.266875,-1.20325 0.168375,-0.172375 0.278625,-0.405625 0.278625,-0.6405 0,-0.39875 -0.313125,-0.64575 -0.699625,-0.552 -0.3865,0.093 -0.699625,0.490875 -0.699625,0.889625 0,0.39875 0.313125,0.645875 0.699625,0.552875 0.0125,-0.0029 0.02363,-0.0088 0.03563,-0.01225 -0.3,1.388875 -0.558125,2.689875 -1.3495,3.660625 -0.13475,-0.152625 -0.351375,-0.223 -0.5865,-0.1665 -0.386125,0.093 -0.726125,0.49175 -0.726125,0.8905 0,0.509625 0.481125,0.609875 0.71725,0.552875 0.269625,-0.06513 0.51875,-0.28075 0.646375,-0.539875 0.894875,0.506 1.585375,1.407625 1.980375,2.552125 -0.32175,0.13575 -0.525125,0.4925 -0.525125,0.850625 0,0.39875 0.249625,0.646625 0.63575,0.55375 0.3865,-0.09388 0.635625,-0.49175 0.635625,-0.8905 0,-0.23 -0.08513,-0.407125 -0.229375,-0.5 1.162375,-1.48125 2.80625,-2.871 4.451,-3.542875 -0.275,1.80125 -0.997,3.67325 -2.154125,5.14925 -0.127875,-0.14225 -0.327625,-0.20775 -0.554875,-0.153125 -0.386625,0.09375 -0.69975,0.49175 -0.69975,0.8905 0,0.39875 0.313125,0.646625 0.69975,0.552875 0.386625,-0.093 0.69975,-0.49175 0.69975,-0.88975 0,-0.004 -0.0012,-0.0077 -0.0012,-0.01175 1.25375,0.108625 2.14225,0.615375 2.80475,1.457375 -0.262,0.1675 -0.44875,0.4725 -0.44875,0.77975 0,0.39875 0.313375,0.64575 0.699875,0.552875 0.3865,-0.093 0.699625,-0.49175 0.699625,-0.8905 0,-0.305375 -0.18425,-0.52025 -0.444,-0.563 0.676,-1.125375 1.7075,-2.125 2.919625,-2.85325 0.05187,0.33375 0.338875,0.529875 0.68825,0.445625 0.3865,-0.093 0.699625,-0.491625 0.699625,-0.890375 0,-0.397875 -0.313125,-0.645875 -0.699625,-0.552875 -0.220125,0.05362 -0.41425,0.20775 -0.54225,0.403 -2.115125,-1.1655 -1.775125,-2.898625 -1.777625,-3.9485 1.6145,-0.20675 3.09125,0.53575 4.181875,1.558875 -0.174,0.172625 -0.2915,0.413375 -0.297125,0.65825 -0.01,0.4085 0.289375,0.67025 0.668625,0.5855 0.379125,-0.08487 0.6955,-0.484375 0.7045,-0.892875 0.01,-0.40775 -0.2895,-0.67025 -0.668625,-0.5855 -0.0075,0.0016 -0.01425,0.0053 -0.02163,0.0071 0.370625,-1.3685 0.875375,-2.516875 1.7295,-3.433625 0.1195,0.164625 0.3225,0.24475 0.55575,0.1925 0.379125,-0.08487 0.69475,-0.484375 0.705375,-0.892125 0.01,-0.4085 -0.290375,-0.67025 -0.6695,-0.585375" id="path2896" style="fill:#fde012;fill-opacity:1;fill-rule:nonzero;stroke:none"/>
    <path d="m -26.33539,79.265833 c -0.089,1.935 -0.5728,4.25 -1.4304,5.9379 0.6165,0.015 1.3211,0.4876 1.6732,0.9305 0.3524,-0.6124 1.3904,-1.5999 2.0077,-1.9122 -0.8505,-1.2738 -1.4465,-3.2054 -1.5338,-5.0915 l 0.063,0 c 1.5739,0.026 3.3728,-0.3775 5.1879,0.7697 0.172,-0.6866 0.5372,-1.7181 1.0486,-2.2032 -0.4926,-0.2602 -1.1677,-1.4548 -1.308,-2.072 -1.5557,0.4296 -2.4552,2.4536 -4.9374,2.6933 0.086,-1.9407 0.6222,-3.8252 1.4824,-5.5188 -0.6164,-0.015 -1.913,-0.5839 -2.2652,-1.0259 -0.3533,0.6124 -1.1359,1.6954 -1.7532,2.0076 0.8538,1.2786 1.6097,2.8989 1.6937,4.7948 -1.8543,0.3555 -4.525,0.3221 -5.961,-0.217 -0.1587,0.6752 -0.128,1.9506 -0.6393,2.4373 0.5113,0.2407 1.2255,1.1393 1.3845,1.7377 1.432,-1.2223 3.4389,-2.7317 5.2868,-3.2682" id="path2900" style="fill:#ee293d;fill-opacity:1;fill-rule:nonzero;stroke:none"/>
  </g>
</svg>