<?xml version="1.0" encoding="UTF-8" standalone="no"?>
<!-- Created with Inkscape (http://www.inkscape.org/) -->

<svg
   xmlns:dc="http://purl.org/dc/elements/1.1/"
   xmlns:cc="http://creativecommons.org/ns#"
   xmlns:rdf="http://www.w3.org/1999/02/22-rdf-syntax-ns#"
   xmlns:svg="http://www.w3.org/2000/svg"
   xmlns="http://www.w3.org/2000/svg"
   xmlns:sodipodi="http://sodipodi.sourceforge.net/DTD/sodipodi-0.dtd"
   xmlns:inkscape="http://www.inkscape.org/namespaces/inkscape"
   width="85.033157"
   height="24.456001"
   id="svg3110"
   version="1.1"
   inkscape:version="0.91 r13725"
   sodipodi:docname="logo-toulibre.svg"
   inkscape:export-filename="/home/ehe/Dev/toulibre/cdl-site-teasing/www/images/logo-toulibre.png"
   inkscape:export-xdpi="158.75999"
   inkscape:export-ydpi="158.75999">
  <defs
     id="defs3112" />
  <sodipodi:namedview
     id="base"
     pagecolor="#ffffff"
     bordercolor="#666666"
     borderopacity="1.0"
     inkscape:pageopacity="0.0"
     inkscape:pageshadow="2"
     inkscape:zoom="3.959798"
     inkscape:cx="-15.39224"
     inkscape:cy="-23.067393"
     inkscape:document-units="px"
     inkscape:current-layer="layer1"
     showgrid="false"
     fit-margin-top="0"
     fit-margin-left="0"
     fit-margin-right="0"
     fit-margin-bottom="0"
     inkscape:window-width="1920"
     inkscape:window-height="1031"
     inkscape:window-x="0"
     inkscape:window-y="25"
     inkscape:window-maximized="1" />
  <metadata
     id="metadata3115">
    <rdf:RDF>
      <cc:Work
         rdf:about="">
        <dc:format>image/svg+xml</dc:format>
        <dc:type
           rdf:resource="http://purl.org/dc/dcmitype/StillImage" />
        <dc:title />
      </cc:Work>
    </rdf:RDF>
  </metadata>
  <g
     inkscape:label="Calque 1"
     inkscape:groupmode="layer"
     id="layer1"
     transform="translate(-391.76732,-354.4209)">
    <g
       transform="matrix(0.17912192,0,0,0.17912192,379.02727,346.18129)"
       id="layer1-5"
       inkscape:label="Calque 1">
      <path
         inkscape:connector-curvature="0"
         id="path2185-5"
         d="m 124.44762,57.204674 c -28.475479,0.80721 -51.361034,26.97641 -51.361034,59.087906 0,32.61969 23.623312,59.0879 52.724604,59.0879 15.76921,0 29.93305,-7.76669 39.5969,-20.0792 -3.13594,2.05668 -6.86054,3.23514 -10.85508,3.23514 -8.44323,0 -15.69453,-5.3285 -18.71559,-12.88706 -2.9646,7.67326 -10.24428,13.10094 -18.76909,13.10094 -11.15153,0 -20.212898,-9.29792 -20.212898,-20.7476 0,-11.4497 9.061368,-20.74762 20.212898,-20.74762 8.44203,0 15.67004,5.33172 18.68888,12.88706 2.97088,-7.66768 10.27597,-13.10094 18.7958,-13.10094 11.15151,0 20.18617,9.29793 20.18617,20.74761 0,0.14872 0.002,0.30663 0,0.45451 2.42589,-6.78676 3.79659,-14.19631 3.79659,-21.95074 0,-32.619686 -23.62332,-59.087906 -52.72458,-59.087906 -0.34104,0 -0.67649,-0.0072 -1.01599,0 -0.11186,0.0024 -0.23591,-0.0032 -0.34758,0 z"
         style="fill:#ffad08;fill-opacity:1;fill-rule:nonzero;stroke:#000000;stroke-width:3.93759179;stroke-linecap:round;stroke-linejoin:round;stroke-miterlimit:4;stroke-opacity:1;stroke-dasharray:none;stroke-dashoffset:0" />
      <path
         sodipodi:nodetypes="cccscssscsc"
         style="fill:#ffffff;fill-opacity:1;fill-rule:nonzero;stroke:none"
         d="m 172.79654,138.49647 c -1.74388,4.10965 -4.98841,11.12847 -8.25047,14.72631 m 0,0 c -3.26209,3.59786 -6.5417,3.77473 -11.0937,4.18544 -7.22746,0.6521 -15.03989,-4.96579 -17.93492,-12.00984 -2.84096,7.15094 -9.81698,12.20916 -17.98622,12.20916 -10.68637,0 -19.369778,-8.66501 -19.369778,-19.33531 0,-10.67032 8.683408,-19.33533 19.369778,-19.33533 8.08991,0 15.01643,4.9688 17.90935,12.00984 2.84696,-7.14574 9.84734,-12.20916 18.01179,-12.20916 10.68635,0 19.34417,8.66502 19.34417,19.33532"
         id="path3978"
         inkscape:connector-curvature="0" />
      <path
         transform="matrix(0.855571,0,0,0.855571,-60.61176,-51.73938)"
         d="m 221.78571,216.46933 a 9.6428576,9.8214283 0 0 1 -9.64286,9.82143 9.6428576,9.8214283 0 0 1 -9.64285,-9.82143 9.6428576,9.8214283 0 0 1 9.64285,-9.82143 9.6428576,9.8214283 0 0 1 9.64286,9.82143 z"
         sodipodi:ry="9.8214283"
         sodipodi:rx="9.6428576"
         sodipodi:cy="216.46933"
         sodipodi:cx="212.14285"
         id="path2193-5"
         style="fill:#000000;fill-opacity:1;fill-rule:nonzero;stroke:#000000;stroke-width:4.60229826;stroke-linecap:round;stroke-linejoin:round;stroke-miterlimit:4;stroke-opacity:1;stroke-dasharray:none;stroke-dashoffset:0"
         sodipodi:type="arc" />
      <path
         transform="matrix(0.855571,0,0,0.855571,-23.33326,-50.66992)"
         d="m 221.78571,216.46933 a 9.6428576,9.8214283 0 0 1 -9.64286,9.82143 9.6428576,9.8214283 0 0 1 -9.64285,-9.82143 9.6428576,9.8214283 0 0 1 9.64285,-9.82143 9.6428576,9.8214283 0 0 1 9.64286,9.82143 z"
         sodipodi:ry="9.8214283"
         sodipodi:rx="9.6428576"
         sodipodi:cy="216.46933"
         sodipodi:cx="212.14285"
         id="path2195-7"
         style="fill:#000000;fill-opacity:1;fill-rule:nonzero;stroke:#000000;stroke-width:4.60229826;stroke-linecap:round;stroke-linejoin:round;stroke-miterlimit:4;stroke-opacity:1;stroke-dasharray:none;stroke-dashoffset:0"
         sodipodi:type="arc" />
      <path
         inkscape:connector-curvature="0"
         sodipodi:nodetypes="ccscssscccsscscscccccccsccccccccssc"
         id="text1309-1"
         d="m 278.93668,129.55757 c -4.18055,4e-5 -7.52997,1.29496 -10.07187,4.57156 -2.54096,3.24842 -3.9209,8.05481 -4.11616,13.73239 -0.1953,5.67763 0.8512,10.15475 3.1395,13.43137 2.31748,3.24839 5.58061,4.87258 9.7894,4.87258 4.15226,0 7.49936,-1.63831 10.04133,-4.91496 2.54189,-3.27661 3.90999,-7.7396 4.10434,-13.38899 0.1933,-5.62109 -0.86828,-10.06996 -3.18478,-13.34662 -2.31559,-3.30484 -5.54951,-4.95729 -9.70176,-4.95733 m 0.22734,-6.60975 c 6.77921,4e-5 12.02796,2.2033 15.74624,6.60975 3.7182,4.40656 5.44326,10.50786 5.17516,18.30395 -0.26722,7.7679 -2.41198,13.8692 -6.43428,18.30395 -4.02141,4.4065 -9.42172,6.60976 -16.20093,6.60976 -6.8075,0 -12.07036,-2.20326 -15.7886,-6.60976 -3.68904,-4.43475 -5.39997,-10.53605 -5.13279,-18.30395 0.26814,-7.79609 2.39878,-13.89739 6.39191,-18.30395 4.02137,-4.40645 9.43579,-6.60971 16.24329,-6.60975 m 32.82642,29.87103 0.30126,-28.72704 9.16973,0 -1.66467,28.43044 c -0.1545,4.49126 0.60506,7.86675 2.27865,10.12649 1.67454,2.23151 4.26312,3.34725 7.76574,3.34724 4.20876,1e-5 7.5739,-1.34171 10.09546,-4.02516 2.54972,-2.68344 3.90428,-6.3414 4.06366,-10.97389 l 0.91358,-26.56172 9.51314,0 -3.3374,47.11127 -7.79612,0 0.25065,-7.28768 c -1.99168,2.88118 -4.26876,5.02795 -6.83127,6.44028 -2.53336,1.3841 -5.45246,2.07615 -8.75731,2.07615 -5.45166,0 -9.53152,-1.69482 -12.2396,-5.08443 -2.7081,-3.38962 -3.94995,-8.34693 -3.7255,-14.87195"
         style="font-size:90.24643707px;font-style:normal;font-variant:normal;font-weight:normal;font-stretch:normal;writing-mode:lr-tb;text-anchor:end;fill:#d03d00;fill-opacity:1;stroke:#000000;stroke-width:2.67471862;stroke-linecap:round;stroke-linejoin:round;stroke-miterlimit:4;stroke-opacity:1;stroke-dasharray:none;font-family:Bitstream Vera Sans" />
      <path
         inkscape:connector-curvature="0"
         sodipodi:nodetypes="ccccccccc"
         id="path2237-9"
         d="m 195.68813,92.130414 67.97622,0 -0.3147,9.149616 -26.32922,-0.43621 -4.64516,71.6417 -10.9257,0 1.14048,-71.20549 -27.21662,0 0.3147,-9.149616"
         style="font-size:90.24643707px;font-style:normal;font-variant:normal;font-weight:normal;font-stretch:normal;writing-mode:lr-tb;text-anchor:end;fill:#d03d00;fill-opacity:1;stroke:#000000;stroke-width:2.67471862;stroke-linecap:round;stroke-linejoin:round;stroke-miterlimit:4;stroke-opacity:1;stroke-dasharray:none;font-family:Bitstream Vera Sans" />
      <path
         inkscape:connector-curvature="0"
         style="fill:#ffad08;fill-opacity:1;stroke:#000000;stroke-width:2.31118989;stroke-miterlimit:4;stroke-opacity:1;stroke-dasharray:none"
         d="m 411.71044,180.78431 c -1.19767,-0.32081 -2.47532,-0.66732 -2.83925,-0.77003 -0.83336,-0.23519 -2.3499,-1.70627 -2.31598,-2.24656 0.0253,-0.40291 0.43814,-0.84499 1.09633,-1.17398 0.95051,-0.47509 4.62718,-1.48337 7.34991,-2.0156 9.2221,-1.80272 14.00812,-3.14083 18.62782,-5.20813 3.91189,-1.75055 6.57266,-3.45373 8.47955,-5.42783 1.28362,-1.32887 1.42885,-1.54211 2.04516,-3.00267 0.36489,-0.86472 0.67411,-1.74258 0.68718,-1.9508 0.0242,-0.38533 -0.47197,-2.91401 -0.69069,-3.52015 -0.0661,-0.18319 -0.92803,-1.0765 -1.91538,-1.98514 -1.5217,-1.40038 -2.10993,-1.82085 -3.86115,-2.76 -1.86436,-0.99981 -2.2555,-1.14697 -4.00811,-1.50789 -1.68671,-0.34735 -2.19383,-0.38954 -3.8559,-0.32082 -2.22493,0.092 -5.16076,0.68385 -6.49576,1.30949 l -0.86533,0.40552 -0.16417,3.35949 c -0.24961,5.10831 -0.155,7.96202 0.35496,10.70559 0.27898,1.50086 0.38357,2.45106 0.29933,2.71951 -0.36824,1.17363 -2.65064,2.64017 -4.34698,2.79311 -1.97458,0.17805 -2.49815,-0.69918 -4.39359,-7.36141 -0.68813,-2.41864 -0.83557,-3.22535 -1.22798,-6.71896 -0.68345,-6.08468 -0.61661,-8.56803 0.92665,-34.43466 l 1.26182,-21.14944 0.13727,-13.285212 c 0.23319,-22.566448 0.54629,-28.708907 1.66852,-32.732563 0.70845,-2.540016 1.49719,-4.057754 2.66873,-5.135256 1.46968,-1.351707 3.56701,-2.216867 5.37417,-2.216867 1.25694,0 1.92638,0.35674 2.52934,1.347909 0.9467,1.556238 0.98204,0.44439 -0.95724,30.10903 -3.11265,47.613719 -4.08752,63.638719 -3.88456,63.855219 0.14581,0.15553 0.47909,0.0405 1.71696,-0.59277 1.72459,-0.88224 6.60117,-2.54542 8.15112,-2.77999 0.55116,-0.0834 2.51504,-0.17033 4.36419,-0.19315 l 3.36208,-0.0415 3.0752,0.87966 3.07519,0.87967 2.71512,1.89191 2.71512,1.89191 1.15751,2.41722 c 0.63662,1.32947 1.24617,2.62336 1.35451,2.87533 0.10836,0.25195 0.34051,1.73134 0.51588,3.28754 l 0.31887,2.82942 -0.74385,2.95572 c -0.40911,1.62563 -0.86712,3.16977 -1.0178,3.43141 -0.46763,0.81203 -4.64864,6.09951 -5.21946,6.60073 -0.53286,0.46791 -3.69665,2.75089 -6.39844,4.61713 -0.95726,0.66121 -2.58166,1.50538 -5.28811,2.74812 -5.46708,2.51037 -5.43604,2.49934 -10.4398,3.70252 l -4.49629,1.08111 -4.0599,0.21106 c -2.23293,0.11607 -4.12857,0.21066 -4.21253,0.21019 -0.084,-4.8e-4 -1.13257,-0.26332 -2.33024,-0.58414 z m 97.82307,-3.70442 -2.6512,-0.13105 -3.65356,-1.48773 -3.65356,-1.48774 -2.50315,-2.42535 c -1.84191,-1.78467 -2.56362,-2.59143 -2.73208,-3.05408 -0.12592,-0.34578 -0.58397,-1.9502 -1.01787,-3.56534 l -0.78894,-2.93664 1.19371,-3.78233 c 0.65653,-2.08028 1.37054,-4.09154 1.5867,-4.46948 0.39263,-0.68658 4.62057,-6.19714 5.72908,-7.46714 0.63565,-0.72824 7.96242,-6.3707 9.25625,-7.12838 1.21309,-0.71039 8.76204,-3.9958 9.77197,-4.2529 1.35147,-0.34404 7.56097,-1.03406 8.31486,-0.92399 0.35917,0.0525 1.62592,0.46564 2.81501,0.9182 2.15349,0.81961 2.16731,0.82804 3.53271,2.15805 1.25613,1.22356 1.41952,1.45579 1.95405,2.77714 0.33616,0.83102 0.56926,1.66544 0.55017,1.96948 -0.0474,0.7541 -1.10514,3.68165 -1.5589,4.31436 -0.44006,0.61366 -3.33007,3.54143 -4.16904,4.22356 -1.43302,1.16509 -5.60518,3.80616 -8.11021,5.13394 -2.59137,1.37354 -6.39329,2.98584 -8.3215,3.52894 -0.46653,0.13141 -1.8195,0.38596 -3.00659,0.56568 -2.10214,0.31825 -2.48885,0.32181 -4.77218,0.0439 -0.62328,-0.0758 -0.81463,-0.0482 -0.89386,0.12923 -0.0554,0.12415 -0.0829,0.99773 -0.0611,1.94128 l 0.0397,1.71554 1.26455,2.10594 1.26458,2.10593 2.44933,1.1629 2.44933,1.1629 3.02645,0.15127 3.02644,0.15128 3.53336,-0.85053 c 1.94332,-0.4678 5.24693,-1.32905 7.34131,-1.91388 l 3.80801,-1.06333 4.33227,-2.11723 c 2.38275,-1.16446 4.57555,-2.16133 4.87289,-2.21523 0.68697,-0.12452 1.0927,0.15705 0.9313,0.64629 -0.0708,0.21451 -1.67166,1.52294 -4.22276,3.45125 -3.35485,2.53587 -4.88551,3.57289 -8.34179,5.65156 -2.32815,1.40019 -4.56103,2.687 -4.96198,2.85957 -0.40095,0.17256 -2.93804,0.82347 -5.63797,1.44647 l -4.909,1.13273 -2.21282,-0.022 c -1.21706,-0.0121 -3.40585,-0.081 -4.86401,-0.15307 z m 8.22901,-25.92611 c 4.06727,-1.34625 8.41139,-4.11104 9.34298,-5.94627 0.64536,-1.27139 0.49632,-2.16676 -0.49272,-2.95998 -0.57964,-0.46485 -0.79798,-0.53772 -1.88409,-0.62878 -1.10837,-0.0929 -1.39139,-0.0555 -2.89484,0.38273 -2.59162,0.75541 -5.19995,2.2215 -7.91188,4.44707 -2.03956,1.67378 -3.27444,2.95267 -3.30389,3.42163 -0.007,0.10959 0.17385,0.2411 0.40159,0.29224 0.829,0.18612 1.48345,0.43 2.4951,0.92977 1.36022,0.67196 2.35994,0.68646 4.24775,0.0616 z m -48.2455,19.34559 c -0.88083,-0.61691 -1.29905,-1.04807 -1.81447,-1.87062 -1.32921,-2.12122 -1.30805,-2.04678 -1.32089,-4.64417 -0.0143,-2.89204 0.4118,-5.81238 1.35633,-9.29525 0.58065,-2.14112 0.62071,-2.3971 0.48494,-3.09874 -0.19802,-1.02334 -0.0243,-1.61219 0.78068,-2.64568 0.53257,-0.68377 0.8279,-1.30699 1.40281,-2.96014 1.11544,-3.20747 2.11486,-5.08861 3.49675,-6.58167 1.75651,-1.89786 3.48834,-2.87494 5.69318,-3.21203 1.97031,-0.30123 2.99345,0.19409 3.68181,1.78242 0.15469,0.35695 0.36014,0.64899 0.45655,0.64899 0.0964,0 1.09484,-0.40434 2.2188,-0.89853 1.53409,-0.67454 2.83672,-1.10169 5.22513,-1.71341 4.05722,-1.03913 4.63878,-1.05727 6.48945,-0.20231 1.56938,0.72502 1.75327,0.94833 1.2753,1.54896 -0.49619,0.62349 -3.8012,2.86623 -5.1681,3.50699 -7.56605,3.5467 -9.17987,4.36116 -10.84231,5.4718 -1.51272,1.01062 -1.82312,1.2836 -1.98243,1.74341 -0.10387,0.29986 -0.76391,2.57233 -1.46673,5.04994 -3.00094,10.57892 -2.8086,9.9875 -3.97297,12.21629 -0.59232,1.13383 -1.30264,2.64559 -1.57844,3.35948 -0.53702,1.38987 -1.05017,2.04694 -1.86321,2.38571 -0.88213,0.36758 -1.33164,0.2634 -2.55218,-0.59144 z m -98.73031,0.54244 c -0.32573,-0.11993 -1.56039,-1.41941 -1.86423,-1.96211 -0.76726,-1.37041 -0.52757,-11.90701 0.52783,-23.20379 0.92238,-9.87284 1.70369,-19.63132 2.64085,-32.98397 0.7504,-10.69185 0.95496,-14.433326 1.16041,-21.22579 0.15496,-5.123548 0.50356,-12.409267 0.92058,-19.240657 l 0.67115,-10.994652 0.61586,-3.017672 c 0.9443,-4.627042 2.02166,-7.018172 3.93067,-8.723834 1.72729,-1.543322 4.31452,-2.190808 5.76524,-1.442821 0.8997,0.463877 1.24446,0.932113 1.78092,2.41871 l 0.46839,1.297982 -0.0976,2.977726 c -0.0537,1.637748 -0.23099,4.008463 -0.394,5.268269 -1.98296,15.324311 -3.33213,28.832564 -4.12554,41.306319 -0.7125,11.20166 -2.4441,33.84329 -4.30356,56.27128 -0.57616,6.94942 -0.6881,7.93088 -1.03988,9.11612 -0.46627,1.57111 -0.99584,2.31749 -2.19757,3.09732 -1.35384,0.87851 -3.52505,1.38564 -4.4595,1.04157 z m 17.70399,-1.33384 c -0.48478,-0.21694 -2.14287,-2.1707 -2.32167,-2.73567 -0.18753,-0.59252 -0.35754,-3.94894 -0.31444,-6.20778 0.0775,-4.06401 0.7996,-7.96155 2.56021,-13.81969 1.0029,-3.33689 1.30405,-3.86151 3.24339,-5.65003 1.39218,-1.28392 2.5065,-1.94338 4.31452,-2.55337 3.192,-1.07694 5.92615,-0.5655 6.39707,1.19662 0.2465,0.92242 -0.0998,1.78604 -1.55451,3.87636 -0.88287,1.26862 -1.42489,2.8832 -2.46063,7.32978 -0.91987,3.94911 -0.95305,4.16178 -1.37639,8.82373 -0.23861,2.62739 -0.52593,5.14908 -0.63853,5.60374 -0.38701,1.56281 -1.37719,2.86396 -2.67359,3.51327 -0.72186,0.36154 -2.94303,0.84019 -3.87372,0.83475 -0.46176,-0.003 -1.04752,-0.098 -1.30171,-0.21171 z m 2.92447,-50.64553 c -2.51771,-0.60174 -3.27928,-2.59197 -1.9115,-4.99528 1.95,-3.42631 7.44575,-6.30266 11.66093,-6.10306 1.66561,0.0789 2.52857,0.40067 3.23268,1.20553 2.51174,2.87109 -2.92333,8.63167 -9.26569,9.82064 -1.38273,0.2592 -2.81732,0.28706 -3.71642,0.0722 z"
         id="path1364-8" />
    </g>
  </g>
</svg>
