<?xml version="1.0" encoding="UTF-8"?><svg id="Calque_2" xmlns="http://www.w3.org/2000/svg" viewBox="0 0 107.72 48.14"><defs><style>.cls-1,.cls-2{fill:#666768;}.cls-3{fill:#066889;fill-rule:evenodd;}.cls-2{opacity:0;}</style></defs><g id="Laag_1"><path class="cls-3" d="m58.91,5.83c-.12.03-.22.05-.32.07-.05,0-.1.02-.15.03-.05,0-.1.04-.15.04-.14,0-.29,0-.44,0h-1.1c-.08,0-.16,0-.22,0-.04,0-.12-.09-.16-.14-.48-.41-1.02-.74-1.6-1.04-.13-.06-.26-.13-.4-.19-.27-.13-.55-.23-.83-.34-.57-.23-1.16-.38-1.77-.54-.31-.08-.61-.14-.93-.21-.23-.05-.49-.09-.72-.13-.2-.03-.4-.06-.62-.1-.14-.02-.26-.03-.39-.05-.25-.02-.55-.06-.85-.09h-.05s-.03,0-.04-.02h-.18s-.04,0-.05-.02h-.2c-.16-.02-.32-.03-.49-.05-.17-.02-.36,0-.53-.02-.09,0-.17-.02-.26-.02s-.17.02-.26-.02h-.42c-.09.02-.18.02-.27.03h-.14c-.12,0-.26.02-.41.03-.09,0-.18,0-.27.03-.05-.02-.09,0-.14,0h-.06c-.3.04-.66.07-.98.11-.02,0-.05,0-.06,0-.11.02-.24.03-.37.05-.32.05-.62.11-.93.16-.4.07-.78.17-1.17.27-.29.08-.56.15-.85.23-.09.03-.18.06-.27.09-.37.12-.73.24-1.08.39-1.23.5-2.35,1.06-3.38,1.77-.45.31-.87.62-1.28.97-.17.15-.33.31-.5.47-.32.32-.62.66-.91,1.02-.1.12-.18.24-.28.37-.18.24-.35.5-.51.77-.05.06-.08.14-.12.2-.05.06-.08.14-.12.21-.46.81-.86,1.72-1.13,2.73-.06.25-.12.5-.17.77-.02.09-.03.17-.04.26-.13.7-.13,1.55-.05,2.37,0,.13.04.26.06.4,0,.05,0,.09.02.14.03.14.05.27.08.39,0,.05.02.08.03.12.08.34.19.67.3.98.12.32.26.6.4.89.14.29.31.55.47.81.08.13.18.25.27.38.09.13.18.24.28.36.19.23.4.47.6.68.11.11.23.21.33.32s.23.2.34.3c.23.2.47.4.71.57,1.02.71,2.13,1.31,3.36,1.78.32.12.63.23.95.33.16.05.32.09.49.14s.33.09.5.14c.5.14,1.04.24,1.55.33.09.02.19.03.28.05.28.05.59.09.91.13.07,0,.14.02.21.03h.14s.03,0,.05.02h.15s.04,0,.05.02c.15.02.32,0,.48.05.09,0,.22,0,.3.02.33,0,.64.03.99.02.05,0,.11,0,.16,0,.14-.02.26-.03.39-.02.12-.03.3-.02.45-.04.1,0,.19-.02.29-.03h.05s.03,0,.04-.02c.07,0,.14,0,.21-.02.06,0,.14,0,.2-.03.23,0,.5-.06.71-.08.16-.02.35-.05.51-.08.14-.02.28-.05.41-.07.27-.04.53-.11.79-.15.26-.05.52-.12.78-.18,1.01-.25,2.01-.59,2.92-.97.23-.1.46-.19.68-.3.44-.23.88-.42,1.29-.67.21-.13.41-.24.6-.37.2-.13.39-.26.59-.4.77-.53,1.41-1.18,2.04-1.88.93-.02,1.97,0,2.9,0,.07,0,.17,0,.23,0,.04.02.09.07.14.12.1.09.17.15.26.24.39.38.77.74,1.19,1.09.09.08.19.14.29.22.48.36.97.7,1.51,1.02.49.28.98.56,1.5.78.05.03.12.05.17.08.34.16.71.31,1.07.44.24.09.5.18.75.27.38.14.77.24,1.18.34.13.04.26.06.39.1.27.06.54.14.82.17.14.02.28.05.41.08s.28.05.41.07c.14.02.29.05.43.06s.3.03.44.05c.06,0,.13,0,.19.02.06,0,.13,0,.19,0,.02,0,.04,0,.05.02.27.02.52.05.81.05h.05s.03,0,.05.02c.14,0,.31,0,.45-.02.23,0,.44-.04.67-.04.07,0,.14,0,.21-.03.05,0,.07,0,.11,0h.1s.05,0,.06-.02h.13s.04,0,.05-.02c.08,0,.17,0,.25-.02.24-.03.48-.06.71-.1.32-.05.61-.12.91-.18.29-.06.58-.16.86-.25.28-.09.55-.21.8-.33.25-.13.48-.27.69-.43.42-.32.77-.72,1.02-1.24.07-.16.14-.34.17-.52,0-.04.02-.07.03-.11,0-.05.02-.12.03-.17v-.06s0-.05.02-.07v-.26s0-.04-.02-.05c0-.05,0-.11,0-.16-.03-.21-.09-.41-.16-.59-.09-.24-.22-.46-.36-.67-.06-.1-.14-.2-.23-.29s-.16-.18-.25-.27c-.05-.05-.09-.08-.14-.12-.13-.13-.28-.24-.42-.34-.8-.58-1.8-.94-2.79-1.32-.74-.29-1.49-.57-2.24-.85-.75-.28-1.49-.57-2.25-.83-.16-.05-.33-.12-.5-.18,0,0-.02-.02-.03-.02-.15-.05-.31-.11-.46-.16-.41-.15-.84-.32-1.25-.48-.46-.18-.93-.37-1.38-.56-.09-.04-.18-.08-.27-.12-.18-.07-.36-.14-.54-.23-.7-.32-1.4-.66-2.05-1.03-.66-.38-1.29-.77-1.86-1.23-.07-.06-.14-.11-.22-.17-.48-.41-.95-.86-1.3-1.4-.21-.31-.4-.63-.54-1-.1-.26-.18-.5-.23-.82,0-.08-.04-.22-.05-.32,0-.03,0-.05-.02-.08v-.09s0-.05-.02-.05v-.43c.03-.39.09-.77.17-1.08.19-.74.51-1.4.91-1.95.16-.23.32-.45.51-.64.05-.05.09-.11.14-.15.33-.33.69-.65,1.08-.94.33-.24.68-.47,1.05-.68.36-.21.75-.41,1.15-.57.34-.14.68-.29,1.04-.41.21-.07.43-.14.65-.21.31-.09.6-.17.9-.24.45-.12.91-.21,1.37-.28.08,0,.16-.03.25-.04,0,0,0-.02.03-.02.05,0,.1,0,.15-.02.26-.04.62-.09.93-.12.07,0,.14,0,.23-.02.11,0,.23-.03.35-.04.2-.02.39-.04.59-.04.07,0,.14,0,.21,0,.02,0,.04,0,.05-.02.14-.02.22,0,.36,0,.03,0,.03,0,.05-.02.21-.03.45,0,.67,0,.03,0,.05,0,.08-.02.2,0,.41,0,.62,0h1.77c.12,0,.23,0,.34.02.2-.02.41,0,.59,0,.06,0,.13,0,.19.02h.23c.41.02.86.05,1.26.08.02,0,.03,0,.05.02h.19s.04,0,.05.02h.14s.03,0,.05.02c.05,0,.09,0,.14,0,.1,0,.24.03.36.04.02,0,.03,0,.05,0,.14.02.27.04.41.05.57.09,1.13.17,1.68.29.54.11,1.07.23,1.59.38,1.06.3,2.06.62,2.96,1.09.04.2.05.48.06.71.03.27.06.51.07.81,0,.14.04.35.05.52,0,.07,0,.15.03.23,0,.36.06.71.09,1.09-.08.04-.17.05-.26.08-.08.03-.17.05-.26.07h-.02c-.13,0-.28,0-.42,0h-.85c-.14,0-.32.03-.42,0-.05-.02-.14-.09-.21-.14-.2-.14-.41-.27-.62-.4-.36-.22-.72-.4-1.09-.59-.51-.26-1.07-.5-1.63-.72-.33-.13-.67-.24-1-.34-.42-.14-.86-.25-1.31-.35-.09-.02-.18-.05-.27-.05-.05,0-.1,0-.14-.02-.05,0-.08-.03-.12-.04-.05,0-.1-.02-.14-.03-.22-.04-.45-.07-.68-.11-.09-.02-.19-.03-.29-.04s-.2-.03-.29-.04h-.15s-.04,0-.05-.02c-.1,0-.22-.02-.32-.02-.21,0-.42-.03-.65-.03-.11,0-.22,0-.32-.02-.1.03-.21.02-.32.02-.2,0-.41.03-.59.05-.27.03-.53.06-.79.13-.17.04-.33.07-.5.12-.83.23-1.56.59-2.19,1.04-.13.09-.23.19-.35.29-.23.19-.43.42-.62.67-.36.49-.65,1.09-.71,1.85-.05.7.21,1.23.53,1.63.65.8,1.59,1.32,2.55,1.82.12.06.25.12.38.17.36.18.75.34,1.13.51.5.23,1.03.43,1.55.64.26.1.51.22.77.32,1.04.41,2.09.83,3.13,1.24.77.31,1.56.63,2.35.94.39.15.77.32,1.17.48.14.05.27.1.4.15.26.12.52.21.77.32.5.23.98.47,1.43.76.23.14.44.29.65.45.92.7,1.75,1.54,2.18,2.74.13.33.21.68.26,1.07.06.42.03.99-.04,1.37-.05.25-.13.51-.2.75-.21.59-.49,1.1-.83,1.56s-.73.86-1.15,1.23c-.85.75-1.89,1.28-3.05,1.72-1.36.51-2.83.85-4.38,1.09-.11,0-.23.04-.34.05-.11.02-.23.02-.32.05-.23.02-.45.05-.7.07-.08,0-.15.02-.23.03h-.16c-.07,0-.14.02-.23.03-.15,0-.37.03-.56.04-.22.02-.43.04-.65.04-.05,0-.11,0-.16.02h-.41s-.05,0-.07.02h-.23c-.35,0-.73.02-1.07.02-.68,0-1.4.02-2.09,0-.04,0-.06,0-.09-.02h-.26c-.16,0-.33,0-.5-.02h-.13s-.07,0-.11,0h-.19c-.06,0-.13,0-.19-.02-.14,0-.29-.02-.42-.03-.21-.02-.41-.03-.6-.05-.43-.05-.94-.1-1.37-.16-.18-.03-.37-.05-.57-.09-.11-.02-.24-.05-.37-.06-1.36-.22-2.64-.54-3.9-.89-.19-.05-.39-.11-.58-.17-.38-.13-.77-.23-1.13-.37-.18-.06-.37-.14-.56-.2-.19-.07-.38-.13-.54-.21-.05-.03-.05-.07-.09-.14-.09-.19-.17-.37-.26-.56-.17-.37-.35-.76-.52-1.12-.04.03-.04.07-.05.11-.16.53-.34,1.13-.51,1.68-.27.12-.56.2-.86.28-.27.08-.57.17-.86.25-.2.05-.39.11-.59.16-.29.08-.59.14-.88.23-.28.07-.6.14-.9.21-.4.08-.79.17-1.21.26-.41.08-.82.15-1.23.23-.59.11-1.22.21-1.86.29-.11.02-.21.04-.32.05-.49.05-.94.13-1.46.17-.1,0-.21,0-.3.04-.09-.02-.19.02-.27.02h-.05s-.02.02-.04.02h-.07c-.05,0-.13.02-.2.03-.1,0-.21,0-.33.02-.12,0-.31.03-.45.03-.06,0-.14,0-.2,0-.13,0-.22.02-.33.02-.08,0-.16.02-.27.02-.04,0-.07,0-.11,0-.2,0-.41,0-.61,0-.39.04-.79,0-1.2,0h-1.21c-.5,0-1,0-1.49,0-.05,0-.09,0-.14-.02h-.28c-.1,0-.2-.02-.29-.02h-.07c-.26-.02-.59-.04-.86-.05-.09,0-.19,0-.26-.03-.14,0-.26-.02-.39-.03-.03,0-.05,0-.07-.02h-.08s-.04,0-.05-.02c-.14-.02-.31-.04-.45-.05-.08,0-.16,0-.24-.02-.04,0-.08-.02-.12-.03h-.12s-.03,0-.04-.02h-.05s-.03,0-.04-.02c-.42-.05-.86-.12-1.28-.19-.46-.07-.92-.16-1.36-.26-.44-.1-.87-.2-1.31-.32-.43-.12-.85-.24-1.27-.36-.42-.13-.83-.28-1.24-.42-.21-.07-.41-.15-.6-.23-.4-.16-.78-.32-1.18-.5-.1-.05-.19-.09-.28-.14-.29-.13-.56-.28-.84-.41-.18-.09-.36-.19-.54-.29-1.42-.79-2.73-1.72-3.75-2.94-.25-.3-.5-.62-.71-.95-.11-.17-.22-.34-.32-.52-.45-.79-.81-1.71-1.02-2.71-.02-.11-.05-.21-.07-.32-.05-.39-.13-.72-.15-1.14,0-.1-.02-.21-.02-.32,0-.04,0-.06-.02-.09v-.25c-.02-.61,0-1.23.05-1.77.08-.62.2-1.17.35-1.72.15-.54.36-1.04.58-1.52.22-.49.47-.94.73-1.38.13-.22.27-.43.41-.64.14-.21.29-.41.44-.61.32-.4.62-.79.96-1.14.05-.05.08-.1.13-.14.21-.23.44-.43.67-.65l.24-.22c.1-.09.22-.18.32-.27.05-.04.1-.07.14-.12.14-.13.29-.23.44-.34.1-.07.21-.14.31-.22.18-.13.36-.25.56-.37.03-.02.05-.05.07-.05.03-.02.06-.03.09-.05.18-.11.38-.24.58-.34.23-.13.45-.25.68-.38.45-.25.93-.47,1.4-.71.05-.03.13-.05.19-.08.18-.08.36-.16.54-.24.5-.22,1-.41,1.5-.59.25-.1.52-.18.78-.27.78-.24,1.6-.5,2.43-.68,1.1-.24,2.27-.46,3.47-.59.03,0,.03-.02.05-.02.16,0,.32-.03.5-.05.2-.03.48-.04.68-.07.06,0,.14,0,.2,0,.02,0,.04,0,.05-.02h.22s.06,0,.09-.02c.23,0,.49-.03.73-.05.13,0,.26,0,.39-.03.55,0,1.12-.05,1.72-.04,0,0,0,0,.02-.02h2.64c.14,0,.31,0,.42.02.17,0,.35-.02.52,0,.14,0,.26,0,.4,0,.03,0,.05,0,.07.02.17.02.34,0,.5,0,.04,0,.07.02.12.02h.13s.05.02.09.02c.1,0,.21,0,.32,0,.23.02.47.02.69.05.05,0,.12,0,.16.02h.23s.04,0,.05.02h.13c.23,0,.5.04.73.06.11,0,.25.03.35.04.04,0,.09,0,.12.02.34.03.75.08,1.08.12.35.05.76.11,1.09.15.59.09,1.12.19,1.67.3.86.18,1.72.38,2.52.65h0v.12s0,.04.02.05c0,.08,0,.16,0,.23,0,.03,0,.05.02.07v.22s0,.03.02.05c.02.13,0,.27.02.41.02.15.03.3.04.45v.12c.03.21.04.46.05.7.03.08.02.19.03.28.04.41.06.83.09,1.2l.12.05Z"/><path class="cls-3" d="m72.29,17.45c-.18,0-.37-.04-.56-.04-.14,0-.27-.02-.41-.03-.35-.02-.71-.05-1.09-.07-.16,0-.32-.03-.5-.03h-.07s-.03,0-.05-.02h-.12c-.08,0-.15-.02-.23-.03-.09,0-.19,0-.28,0-.05,0-.09-.02-.14-.02-.12,0-.28,0-.42-.03-.19-.02-.39,0-.57-.04-.13,0-.27,0-.39-.03-.12,0-.25,0-.37,0-.12-.02-.23,0-.35-.02-.12,0-.24-.03-.36-.03s-.24,0-.36-.02c-.22-.02-.46,0-.68-.03-.12,0-.23,0-.36,0-.04,0-.07,0-.11-.02-.14,0-.29,0-.43,0-.03,0-.05,0-.08-.02-.14-.02-.29,0-.43,0-.03,0-.05,0-.08-.02h-.18c-.28,0-.58-.03-.86-.03-.39,0-.77-.04-1.17-.04h-.22s-.04,0-.05-.02c-.1,0-.2,0-.3,0-.14,0-.28,0-.41,0-.05,0-.11-.02-.16-.02-.5,0-1-.03-1.51-.03h-.34c-.23-.02-.45,0-.68-.02-.25-.02-.5.02-.75,0-.39-.03-.86,0-1.27-.02-.24-.02-.5,0-.77,0h-.77c-.52,0-1.04-.03-1.52,0-.38.03-.77-.03-1.13,0-.28.02-.6,0-.87.02-.19.02-.38,0-.58,0-.18,0-.37,0-.54,0-.18,0-.37,0-.54,0-.03,0-.05,0-.08.02h-.5c-.34,0-.68.03-1.03.03-.16,0-.33,0-.5.02-.11,0-.23,0-.33,0-.19.02-.38,0-.57,0-.2,0-.38,0-.59.02-.15,0-.28.02-.41.02h-.14s-.05,0-.07.02c-.14.02-.3,0-.44,0-.03,0-.05,0-.08.02-.14,0-.29,0-.43,0-.02,0-.05,0-.06.02-.08,0-.16,0-.24,0-.08,0-.17,0-.26,0-.32,0-.64.04-.96.04-.04,0-.06,0-.1.02h-.14s-.05,0-.08.02c-.11,0-.22,0-.32,0-.03,0-.05,0-.08.02-.11,0-.23,0-.33,0-.02,0-.04,0-.05.02-.1,0-.23,0-.33,0,0,0-.02,0-.04.02-.12,0-.24,0-.37.02-.13,0-.25,0-.38.02-.09,0-.17,0-.27,0-.03,0-.05,0-.08.02h-.28c-.16.02-.39.03-.56.05h-.13s-.04,0-.05.02c-.18.02-.36.02-.56.03-.08,0-.15.02-.23.02-.08,0-.16,0-.23,0-.07,0-.14.02-.23.03-.14.02-.28,0-.41.03-.14.02-.28,0-.41.03-.24.03-.49.04-.71.05h-.1c-.05,0-.14.02-.22.03h-.07s-.03,0-.06.02c-.05,0-.1,0-.14,0-.13,0-.28.02-.42.03-.19,0-.37.03-.55.05-.26.03-.56.04-.84.07-.37.04-.74.06-1.11.1s-.74.06-1.1.1c-.21-.58-.33-1.16-.41-1.86,0-.12-.03-.23-.03-.34s0-.24-.02-.36c.11-.03.24-.05.36-.06.23-.03.45-.07.7-.11.12-.02.23-.04.35-.05.22-.03.42-.05.64-.09.22-.03.42-.06.64-.09.21-.03.41-.05.63-.09.16-.03.33-.05.5-.06.05,0,.11-.03.15-.03.22-.02.44-.05.67-.08.32-.05.64-.09.97-.13.08,0,.16-.02.25-.03.05,0,.09,0,.16-.02.4-.05.83-.1,1.22-.14.17-.02.33-.05.5-.05.27-.03.54-.05.82-.08.45-.05.88-.09,1.33-.14.17-.02.34-.02.52-.04.05,0,.11-.02.16-.03.34-.02.68-.05,1.03-.08.05,0,.12,0,.17-.02.05,0,.1-.02.15-.02h.22s.03,0,.05-.02c.05,0,.11,0,.16,0,.14,0,.28-.03.41-.03.14,0,.29-.03.42-.03.07,0,.14,0,.22,0,.07,0,.14-.02.2-.03h.23s.05,0,.08-.02c.14-.02.29,0,.44-.02.22-.02.42-.03.66-.04.19,0,.35-.02.55-.03.04,0,.06,0,.1-.02h.2c.06,0,.13,0,.2-.02.12,0,.23,0,.35,0,.49-.04,1-.04,1.49-.07.16,0,.33,0,.5,0,.03,0,.05,0,.07-.02.18-.02.38,0,.57,0,.03,0,.05,0,.08-.02.12,0,.23,0,.34,0s.23.02.35,0c.03,0,.05,0,.08-.02.2,0,.41,0,.61,0,.59,0,1.16-.02,1.77-.02.38,0,.68,0,1.08,0,.7,0,1.38.02,2.06.02.15,0,.31,0,.46,0,.17,0,.35,0,.52,0,.15,0,.31,0,.45,0,.03,0,.04,0,.06.02.11,0,.22,0,.32,0,.13,0,.25,0,.38,0,.05,0,.1.02.15.02h.49s.05,0,.07.02c.1,0,.2,0,.3,0,.1,0,.2,0,.29,0,.17,0,.34,0,.51.02.08,0,.16,0,.24,0,.2,0,.4,0,.59.02.03,0,.05,0,.07.02.11,0,.23,0,.35,0,.03,0,.05,0,.07.02.11,0,.21,0,.32,0,.07,0,.17.02.27.03h.1c.25,0,.57.05.85.05.09,0,.2.02.28.02.12,0,.12.02.21.07.56.34,1.13.67,1.73.96.32.16.65.32.97.47.33.15.67.29,1,.43s.68.28,1.02.41c.3.12.6.23.91.35.04.02.08.04.12.05h.05c.32.13.68.26,1.01.39.05.02.09.03.14.05.3.11.61.23.92.33.16.06.32.12.5.18.02,0,.05,0,.05.04h0Z"/><path class="cls-3" d="m21.17,17.29c.06.34.11.69.2,1,.05.29.14.51.2.78-.06.02-.14,0-.2.04-.26.03-.53.08-.77.11-.17.05-.39.05-.56.1-.07,0-.14,0-.22.03-.22.04-.45.07-.68.12-.25.05-.51.06-.73.12-.23.04-.5.07-.71.12-.11,0-.22.04-.33.05-.13.02-.25.03-.35.06-.08,0-.16.02-.23.04-.15.03-.31.05-.45.08-.07,0-.12.03-.19.03-.74.15-1.5.29-2.23.44-.03,0-.05.02-.07.03h-.07s-.05,0-.09.02c-.06,0-.19.05-.28.06-.07.02-.15.03-.23.05-.15.03-.36.08-.52.12-.15.04-.37.08-.53.11-.1.02-.21.05-.32.08-.05,0-.11.02-.15.03-.31.07-.6.14-.92.23-.2.05-.41.1-.61.15-.06.02-.13.02-.19.04-.08.03-.19.05-.29.08-.11.03-.21.05-.34.09-.9.23-1.78.5-2.66.79-.13.05-.25.08-.37.12-.08.03-.19.07-.29.1,0-.03.05-.05.08-.05.68-.33,1.38-.68,2.1-.97.47-.2.93-.4,1.4-.59.21-.08.41-.16.62-.25h.04c1.1-.43,2.25-.82,3.4-1.21.21-.05.41-.14.62-.2.42-.13.86-.26,1.27-.39.05,0,.09-.03.14-.04.14-.05.27-.08.42-.13.32-.09.64-.19.97-.28.23-.06.45-.14.68-.2.35-.1.69-.18,1.04-.28.17-.05.34-.07.51-.13.06-.02.14-.04.23-.05.54-.15,1.09-.27,1.63-.41h.03v-.02Z"/><path class="cls-3" d="m89.02,19.33c-.14-.45-.33-.86-.55-1.22-.11-.17-.21-.33-.33-.5-.04-.05-.08-.1-.11-.16-.04-.04-.07-.06-.09-.12.17.04.28.06.44.11h.05s.05.02.08.02c.07.03.15.05.23.05.15.05.33.09.47.13.06.02.14.04.22.05.09.03.18.05.27.06,0,0,.02,0,.03.02.3.06.59.16.88.23,0,0,.03,0,.03.02.34.08.67.18,1,.27.04,0,.07.03.1.04.04,0,.07,0,.11.02,0,0,.02.02.03.02.06.02.13.03.19.05.08.02.15.05.23.08.1.03.22.05.32.08,0,0,.02.02.03.02.04,0,.07,0,.11.02.05,0,.09.04.14.05.1.03.21.05.3.09.23.05.41.14.65.19.63.22,1.31.41,1.95.63.17.06.35.11.51.17.05.02.12.05.19.07.05.02.09.03.14.04.19.08.41.14.59.22.17.05.35.12.5.19.2.05.38.13.56.21.22.06.41.16.62.23.15.07.32.13.48.19.22.08.42.19.64.26.46.21.94.39,1.38.6.18.07.36.15.52.24.36.14.67.33,1.02.49,0,.03.04,0,.04.04-.02,0-.03,0-.04-.02-.08,0-.14-.05-.23-.08-.07-.03-.14-.04-.22-.06-.12-.04-.23-.09-.34-.13-.04,0-.08-.02-.12-.04-.18-.06-.37-.12-.56-.17-.14-.05-.32-.09-.47-.14-.08-.03-.17-.05-.26-.08-.02,0-.03-.02-.04-.02-.04,0-.07,0-.11-.02-.19-.06-.42-.13-.62-.19h-.03c-.33-.11-.7-.19-1.06-.28-.08-.02-.16-.04-.25-.06-.23-.06-.49-.13-.73-.19-.19-.05-.38-.09-.56-.13-.04,0-.07-.03-.11-.04-.14-.02-.25-.05-.38-.08-.03,0-.05-.02-.07-.03-.23-.05-.44-.09-.67-.14-.15-.04-.31-.06-.46-.1-.83-.18-1.67-.34-2.49-.51h-.04c-.14-.04-.29-.06-.42-.08-.14-.02-.31-.06-.47-.09-.08-.02-.17-.02-.23-.05h-.09c-.14-.03-.31-.06-.46-.08-.05,0-.1-.02-.14-.04-.05,0-.08,0-.12-.02h-.04s-.02,0-.03-.02c-.11-.03-.26-.03-.38-.05,0,0-.02,0-.03-.02-.05,0-.09,0-.13-.02-.5-.07-1.05-.18-1.59-.25v.05Z"/><path class="cls-1" d="m8.5,42.09v-.28c-.25.17-.7.39-1.31.39-.77,0-1.23-.34-1.23-1.17v-.15c0-1.09.75-1.28,1.9-1.28h.62v-.31c0-.71-.14-.87-.97-.87-.46,0-.83.04-1.28.09v-.48c.12-.05.69-.18,1.33-.18,1.38,0,1.59.5,1.59,1.44v2.8s-.65,0-.65,0Zm-.03-1.99h-.62c-.87,0-1.22.11-1.22.77v.21c0,.47.29.59.69.59.49,0,.98-.22,1.15-.33,0,0,0-1.23,0-1.23Z"/><path class="cls-1" d="m15.31,42.19c-.68,0-1.4-.11-1.59-.16v-.54c.44.05.96.1,1.59.1.76,0,1.14-.26,1.14-.92,0-.44-.16-.7-.76-.97l-.95-.43c-.75-.33-1.15-.74-1.15-1.51,0-.92.6-1.35,1.83-1.35.67,0,1.34.1,1.54.15v.55c-.34-.04-.98-.1-1.52-.1-.74,0-1.15.17-1.15.76,0,.43.16.67.76.94l.96.42c.78.35,1.16.77,1.16,1.56,0,.97-.61,1.52-1.86,1.52h0Z"/><path class="cls-1" d="m20.55,42.19c-1.16,0-1.76-.67-1.76-1.87v-.6c0-1.21.6-1.87,1.76-1.87s1.77.67,1.77,1.87v.6c0,1.21-.6,1.87-1.77,1.87Zm1.09-2.48c0-.89-.33-1.28-1.09-1.28s-1.08.39-1.08,1.28v.6c0,.89.33,1.28,1.08,1.28s1.09-.39,1.09-1.28v-.6Z"/><path class="cls-1" d="m25.71,42.19c-.28,0-.67-.05-.93-.12v1.59h-.67v-5.72h.65v.28c.37-.25.8-.39,1.21-.39.95,0,1.49.53,1.49,1.93v.41c0,1.59-.76,2.02-1.76,2.02Zm1.08-2.42c0-1.02-.32-1.33-.94-1.33-.32,0-.59.07-1.07.31v2.76c.34.06.65.11.93.11.67,0,1.08-.23,1.08-1.44,0,0,0-.41,0-.41Z"/><path class="cls-1" d="m29.94,38.81v3.29h-.67v-4.14h.67v.33c.39-.31.89-.43,1.48-.43v.6c-.54,0-1.15.15-1.47.35h0Z"/><path class="cls-1" d="m35.13,42.09v-.28c-.25.17-.7.39-1.31.39-.77,0-1.23-.34-1.23-1.17v-.15c0-1.09.75-1.28,1.9-1.28h.62v-.31c0-.71-.14-.87-.97-.87-.46,0-.83.04-1.28.09v-.48c.12-.05.69-.18,1.33-.18,1.38,0,1.59.5,1.59,1.44v2.8h-.65Zm-.03-1.99h-.62c-.87,0-1.22.11-1.22.77v.21c0,.47.29.59.69.59.49,0,.98-.22,1.15-.33v-1.23Z"/><path class="cls-1" d="m41.79,42.19c-.68,0-1.4-.11-1.59-.16v-.54c.44.05.96.1,1.59.1.76,0,1.14-.26,1.14-.92,0-.44-.16-.7-.76-.97l-.95-.43c-.75-.33-1.15-.74-1.15-1.51,0-.92.6-1.35,1.83-1.35.67,0,1.34.1,1.54.15v.55c-.34-.04-.98-.1-1.52-.1-.74,0-1.15.17-1.15.76,0,.43.15.67.75.94l.96.42c.78.35,1.16.77,1.16,1.56,0,.97-.62,1.52-1.86,1.52h0Z"/><path class="cls-1" d="m46.83,42.19c-.76,0-1.03-.27-1.03-1.05v-2.63l-.84-.06v-.5h.84v-1.07h.68v1.07h1.11v.57h-1.11v2.59c0,.47.04.54.42.54.23,0,.56-.02.68-.04v.47c-.12.04-.44.12-.76.12Z"/><path class="cls-1" d="m49.6,40.27v.08c0,.71.11,1.26,1.25,1.26.46,0,1.05-.05,1.44-.12v.54c-.29.07-.79.16-1.48.16-1.47,0-1.89-.66-1.89-1.99v-.32c0-1.31.58-2.04,1.76-2.04s1.77.73,1.77,2.13v.3h-2.85Zm2.15-.63c0-.5-.11-1.21-1.07-1.21s-1.07.7-1.07,1.21v.07h2.14s0-.07,0-.07Z"/><path class="cls-1" d="m54.92,38.81v3.29h-.67v-4.14h.67v.33c.39-.31.89-.43,1.48-.43v.6c-.54,0-1.15.15-1.47.35h0Z"/><path class="cls-1" d="m57.93,37.19v-.92h.68v.92h-.68Zm0,4.91v-4.14h.68v4.14h-.68Z"/><path class="cls-1" d="m62.96,42.09v-.28c-.25.17-.7.39-1.31.39-.77,0-1.23-.34-1.23-1.17v-.15c0-1.09.75-1.28,1.9-1.28h.62v-.31c0-.71-.14-.87-.97-.87-.46,0-.83.04-1.28.09v-.48c.12-.05.69-.18,1.33-.18,1.38,0,1.59.5,1.59,1.44v2.8s-.65,0-.65,0Zm-.03-1.99h-.62c-.87,0-1.22.11-1.22.77v.21c0,.47.29.59.69.59.49,0,.98-.22,1.15-.33v-1.23Z"/><path class="cls-1" d="m69.25,42.19c-1.13,0-1.66-.68-1.66-1.86v-.62c0-1.19.52-1.86,1.66-1.86.6,0,1.04.1,1.18.14v.51c-.5-.05-.86-.07-1.08-.07-.66,0-1.07.25-1.07,1.28v.62c0,1.03.41,1.29,1.07,1.29.22,0,.58-.03,1.08-.07v.51c-.14.05-.58.14-1.18.14v-.02Z"/><path class="cls-1" d="m73.63,42.19c-1.16,0-1.77-.67-1.77-1.87v-.6c0-1.21.6-1.87,1.77-1.87s1.77.67,1.77,1.87v.6c0,1.21-.6,1.87-1.77,1.87Zm1.09-2.48c0-.89-.33-1.28-1.09-1.28s-1.08.39-1.08,1.28v.6c0,.89.33,1.28,1.08,1.28s1.09-.39,1.09-1.28v-.6Z"/><path class="cls-1" d="m81.82,42.09v-2.75c0-.58,0-.92-.62-.92-.29,0-.68.14-1.04.34.03.2.03.4.03.58v2.75h-.68v-2.75c0-.58,0-.92-.57-.92-.36,0-.77.19-1.07.36v3.31h-.67v-4.14h.67v.32c.34-.25.77-.43,1.23-.43s.76.17.91.44c.48-.32.9-.44,1.28-.44,1.21,0,1.21.86,1.21,1.49v2.75h-.68,0Z"/><path class="cls-1" d="m86.04,42.19c-.28,0-.67-.05-.93-.12v1.59h-.67v-5.72h.65v.28c.37-.25.8-.39,1.21-.39.95,0,1.49.53,1.49,1.93v.41c0,1.59-.76,2.02-1.76,2.02Zm1.08-2.42c0-1.02-.32-1.33-.94-1.33-.32,0-.59.07-1.07.31v2.76c.34.06.65.11.93.11.67,0,1.08-.23,1.08-1.44,0,0,0-.41,0-.41Z"/><path class="cls-1" d="m91.93,42.09v-.28c-.24.17-.7.39-1.31.39-.77,0-1.23-.34-1.23-1.17v-.15c0-1.09.75-1.28,1.9-1.28h.62v-.31c0-.71-.14-.87-.97-.87-.46,0-.83.04-1.28.09v-.48c.12-.05.69-.18,1.33-.18,1.38,0,1.59.5,1.59,1.44v2.8h-.65Zm-.03-1.99h-.62c-.87,0-1.22.11-1.22.77v.21c0,.47.29.59.69.59.49,0,.98-.22,1.15-.33,0,0,0-1.23,0-1.23Z"/><path class="cls-1" d="m97.16,42.09v-2.64c0-.75-.12-1.03-.69-1.03-.32,0-.76.13-1.3.37v3.3h-.67v-4.14h.67v.32c.48-.25.92-.43,1.38-.43,1.1,0,1.3.59,1.3,1.6v2.64h-.68Z"/><path class="cls-1" d="m101.39,42.46c-.28.8-.54,1.31-1.4,1.31-.35,0-.67-.05-.8-.07v-.52c.32.03.51.03.78.03.41,0,.52-.21.75-.81l.12-.3-1.6-4.14h.75l.85,2.32c.13.37.21.66.34,1.1.11-.44.19-.72.32-1.11l.76-2.31h.72s-1.58,4.51-1.58,4.51Z"/><rect class="cls-2" width="107.72" height="48.14"/></g></svg>