<svg xmlns="http://www.w3.org/2000/svg" viewBox="0 0 699.32 192.7"><defs><style>.cls-1{fill:#f78d1e;}.cls-2{fill:#008fd4;}.cls-3{fill:#ed1c24;}.cls-4{fill:#8cc63f;}.cls-5{fill:#626366;}</style></defs><title>Logo_XWiki</title><g id="Layer_2" data-name="Layer 2"><g id="Layer_1-2" data-name="Layer 1"><path class="cls-1" d="M306.76,17.49c2.27-6.37,6.52-8.26,12.75-8.26s10.48,1.89,12.74,8.26L378.7,153.2h.57L405.61,18.91c1.42-6.85,5.95-9.68,13.59-9.68,7.09,0,11.34,4.25,11.34,9.44a46.13,46.13,0,0,1-1.42,10.62L398.53,166.42c-1.7,7.32-5.38,13.69-17.84,13.69-9.63,0-15.58-2.12-19.55-13.69L319.79,43.22h-.56l-41.35,123.2c-4,11.57-9.92,13.69-19.55,13.69-12.46,0-16.14-6.37-17.84-13.69L209.9,29.29a46.13,46.13,0,0,1-1.42-10.62c0-5.19,4.25-9.44,11.33-9.44,7.65,0,12.18,2.83,13.6,9.68L259.75,153.2h.56Z"/><path class="cls-1" d="M479,169c0,6.84-4.82,11.09-12.46,11.09S454,175.86,454,169V20.32c0-6.84,4.82-11.09,12.47-11.09S479,13.48,479,20.32Z"/><path class="cls-1" d="M536.75,169c0,6.84-4.82,11.09-12.47,11.09s-12.46-4.25-12.46-11.09V20.32c0-6.84,4.82-11.09,12.46-11.09s12.47,4.25,12.47,11.09V81.69l86.38-65.85c4.53-3.54,8.5-6.61,13.6-6.61,6.23,0,10.76,3.54,10.76,9s-2.27,7.31-5.1,9.44l-82.7,62.07L650,162.41c4,3.07,5.1,5.43,5.1,8.49,0,5-5.39,9.21-12.18,9.21-3.68,0-7.09-.47-12.18-4.48l-94-76.95Z"/><path class="cls-1" d="M699.32,169c0,6.84-4.82,11.09-12.47,11.09s-12.46-4.25-12.46-11.09V20.32c0-6.84,4.82-11.09,12.46-11.09s12.47,4.25,12.47,11.09Z"/><path class="cls-2" d="M36.1,103.1a6.75,6.75,0,0,0,6.74-6.75h0A6.75,6.75,0,0,0,36.1,89.6H6.75A6.75,6.75,0,0,0,0,96.35H0a6.75,6.75,0,0,0,6.75,6.75Z"/><path class="cls-3" d="M89.6,156.61a6.75,6.75,0,0,1,6.75-6.75h0a6.75,6.75,0,0,1,6.75,6.75V186a6.75,6.75,0,0,1-6.75,6.75h0A6.75,6.75,0,0,1,89.6,186Z"/><path class="cls-4" d="M89.6,6.74A6.75,6.75,0,0,1,96.35,0h0a6.75,6.75,0,0,1,6.75,6.74V36.09a6.75,6.75,0,0,1-6.75,6.75h0a6.75,6.75,0,0,1-6.75-6.75Z"/><path class="cls-5" d="M112.36,96l56.72-65.91a12,12,0,1,0-18.26-15.71L96.47,77.5,42.12,14.34A12,12,0,1,0,23.86,30.05L80.58,96,23.86,161.87a12,12,0,1,0,18.26,15.72l54.35-63.16,54.35,63.16a12,12,0,0,0,18.26-15.72Z"/><path class="cls-1" d="M185.17,103.25a6.75,6.75,0,0,0,6.74-6.75h0a6.75,6.75,0,0,0-6.74-6.75H155.82a6.75,6.75,0,0,0-6.75,6.75h0a6.75,6.75,0,0,0,6.75,6.75Z"/></g></g></svg>