<svg xmlns="http://www.w3.org/2000/svg" xmlns:xlink="http://www.w3.org/1999/xlink" width="1280" zoomAndPan="magnify" viewBox="0 0 960 959.999988" height="1280" preserveAspectRatio="xMidYMid meet" version="1.0"><defs><g/><clipPath id="c33cd2b1c2"><rect x="0" width="517" y="0" height="282"/></clipPath><clipPath id="1d0cd5c43c"><rect x="0" width="160" y="0" height="280"/></clipPath><clipPath id="1df45c25ba"><rect x="0" width="144" y="0" height="269"/></clipPath><clipPath id="d31b2c4e25"><rect x="0" width="138" y="0" height="280"/></clipPath><clipPath id="43be346651"><rect x="0" width="144" y="0" height="214"/></clipPath><clipPath id="e105abc164"><path d="M 159.207031 82.878906 L 178.882812 82.878906 L 178.882812 102.554688 L 159.207031 102.554688 Z M 159.207031 82.878906 " clip-rule="nonzero"/></clipPath><clipPath id="2d0b3fc8b5"><path d="M 0.207031 0.878906 L 19.882812 0.878906 L 19.882812 20.554688 L 0.207031 20.554688 Z M 0.207031 0.878906 " clip-rule="nonzero"/></clipPath><clipPath id="f37fbf099a"><rect x="0" width="20" y="0" height="21"/></clipPath><clipPath id="587a7db1ef"><rect x="0" width="94" y="0" height="216"/></clipPath><clipPath id="67121e1459"><rect x="0" width="115" y="0" height="214"/></clipPath><clipPath id="3a628dde15"><rect x="0" width="93" y="0" height="222"/></clipPath><clipPath id="0e48fc1286"><rect x="0" width="144" y="0" height="214"/></clipPath><clipPath id="e82e422985"><rect x="0" width="115" y="0" height="214"/></clipPath><clipPath id="43ecc278a9"><rect x="0" width="98" y="0" height="214"/></clipPath><clipPath id="a931e9c97d"><rect x="0" width="96" y="0" height="214"/></clipPath><clipPath id="0c37c71838"><path d="M 526.460938 279.222656 L 546.136719 279.222656 L 546.136719 298.898438 L 526.460938 298.898438 Z M 526.460938 279.222656 " clip-rule="nonzero"/></clipPath><clipPath id="ab89b10938"><path d="M 0.460938 0.222656 L 20.136719 0.222656 L 20.136719 19.898438 L 0.460938 19.898438 Z M 0.460938 0.222656 " clip-rule="nonzero"/></clipPath><clipPath id="9bd5000752"><rect x="0" width="21" y="0" height="20"/></clipPath><clipPath id="910acc1526"><path d="M 938.074219 205.40625 L 957.75 205.40625 L 957.75 225.082031 L 938.074219 225.082031 Z M 938.074219 205.40625 " clip-rule="nonzero"/></clipPath><clipPath id="5dc380dc4e"><path d="M 0.0742188 0.40625 L 19.75 0.40625 L 19.75 20.082031 L 0.0742188 20.082031 Z M 0.0742188 0.40625 " clip-rule="nonzero"/></clipPath><clipPath id="0db4ab6fd4"><rect x="0" width="20" y="0" height="21"/></clipPath><clipPath id="4ce25d2dc8"><path d="M 706.839844 718.101562 L 726.515625 718.101562 L 726.515625 737.777344 L 706.839844 737.777344 Z M 706.839844 718.101562 " clip-rule="nonzero"/></clipPath><clipPath id="bd69d4097b"><path d="M 0.839844 0.101562 L 20.515625 0.101562 L 20.515625 19.777344 L 0.839844 19.777344 Z M 0.839844 0.101562 " clip-rule="nonzero"/></clipPath><clipPath id="7e64e1e647"><rect x="0" width="21" y="0" height="20"/></clipPath><clipPath id="3e0932dfa9"><path d="M 464.492188 833.738281 L 484.167969 833.738281 L 484.167969 853.414062 L 464.492188 853.414062 Z M 464.492188 833.738281 " clip-rule="nonzero"/></clipPath><clipPath id="b2291576d1"><path d="M 0.492188 0.738281 L 20.167969 0.738281 L 20.167969 20.414062 L 0.492188 20.414062 Z M 0.492188 0.738281 " clip-rule="nonzero"/></clipPath><clipPath id="1e1655d3d8"><rect x="0" width="21" y="0" height="21"/></clipPath></defs><g transform="matrix(1, 0, 0, 1, 202, 289)"><g clip-path="url(#c33cd2b1c2)"><g fill="#42b38e" fill-opacity="1"><g transform="translate(11.810214, 227.995918)"><g><path d="M 127.46875 -167.375 L 133.71875 -165.28125 L 133.71875 -161.109375 L 127.46875 -161.109375 L 131.640625 -154.84375 C 128.609375 -147.882812 117.472656 -144.40625 98.234375 -144.40625 L 83.625 -142.3125 L 81.53125 -136.0625 L 83.625 -136.0625 C 79.445312 -126.15625 71.097656 -81.617188 58.578125 -2.453125 L 64.828125 24.6875 L 62.75 24.6875 C 59.632812 24.6875 56.847656 17.726562 54.390625 3.8125 L 56.484375 -17.0625 L 56.484375 -19.15625 L 54.390625 -19.15625 L 54.390625 -14.984375 C 50.222656 -14.984375 48.140625 -13.59375 48.140625 -10.8125 L 48.140625 -8.71875 L 52.3125 24.6875 L 52.3125 26.765625 L 48.140625 26.765625 L 39.78125 20.5 L 37.703125 22.59375 L 35.609375 22.59375 C 30.046875 10.5625 27.265625 0.125 27.265625 -8.71875 L 29.34375 -6.625 L 31.4375 -6.625 L 27.265625 -21.25 L 33.515625 -23.328125 L 33.515625 -33.765625 L 29.34375 -33.765625 L 29.34375 -35.859375 C 33.519531 -35.859375 35.609375 -37.25 35.609375 -40.03125 L 35.609375 -42.125 L 31.4375 -42.125 C 31.4375 -53.25 33.523438 -58.8125 37.703125 -58.8125 L 37.703125 -85.953125 C 39.910156 -87.921875 42.691406 -102.535156 46.046875 -129.796875 L 31.4375 -127.703125 L 2.203125 -129.796875 L 2.203125 -131.875 L 12.640625 -133.96875 L 12.640625 -131.875 L 14.734375 -133.96875 L 46.046875 -133.96875 L 46.046875 -140.234375 L 12.640625 -136.0625 L 10.5625 -138.140625 L 8.46875 -138.140625 L -4.046875 -136.0625 L -10.3125 -140.234375 L -8.234375 -150.671875 L -10.3125 -152.75 C -10.3125 -159.707031 -1.960938 -163.1875 14.734375 -163.1875 Z M 114.9375 -161.109375 L 114.9375 -159.015625 L 123.28125 -159.015625 L 123.28125 -161.109375 Z M 37.703125 -44.203125 L 33.515625 1.71875 L 37.703125 1.71875 L 35.609375 -8.71875 L 35.609375 -12.890625 L 39.78125 -19.15625 L 37.703125 -19.15625 L 39.78125 -21.25 L 39.78125 -23.328125 L 37.703125 -25.421875 L 37.703125 -27.5 L 41.875 -35.859375 L 39.78125 -44.203125 Z M 37.703125 -44.203125 "/></g></g><g transform="translate(124.661581, 227.995918)"><g><path d="M 115.546875 -163.5625 L 125.625 -156.5625 C 122.675781 -144.195312 117.351562 -138.265625 109.65625 -138.765625 L 55.140625 -136.296875 L 54.890625 -132.125 L 65.203125 -131.390625 L 77.859375 -132.625 L 79.8125 -130.28125 L 81.90625 -130.15625 L 96.640625 -131.390625 L 100.8125 -131.015625 L 100.6875 -128.9375 L 52.1875 -123.90625 L 48.375 -96.890625 L 50.46875 -96.765625 L 107.203125 -101.3125 L 109.046875 -99.09375 L 108.921875 -97.015625 L 104.75 -97.375 L 104.75 -95.28125 L 119.109375 -92.09375 L 118.984375 -90.015625 C 115.953125 -82.234375 95.976562 -75.925781 59.0625 -71.09375 L 38.0625 -70.359375 L 40.03125 -68.28125 L 29.96875 -41.75 L 27.875 -41.75 L 29.109375 -60.53125 L 27.015625 -60.65625 L 22.96875 -31.6875 C 64.632812 -37.25 94.0625 -39.457031 111.25 -38.3125 L 121.4375 -35.484375 L 121.328125 -31.3125 L 117.140625 -31.5625 L 118.984375 -29.34375 L 118.625 -23.078125 C 114.613281 -17.847656 106.097656 -15.640625 93.078125 -16.453125 L 92.953125 -14.359375 L 109.65625 -13.265625 L 109.28125 -9.09375 L 12.15625 5.15625 L 10.0625 5.03125 C 3.351562 3.5625 0 1.394531 0 -1.46875 L 0 -1.84375 L 0.375 -8.109375 L 6.140625 -30.703125 L 4.171875 -32.90625 L 8.34375 -32.78125 L 7.609375 -22.34375 L 9.703125 -22.109375 C 10.515625 -29.066406 12.148438 -32.421875 14.609375 -32.171875 L 12.640625 -34.5 L 14.125 -55.25 L 9.953125 -55.625 L 7.125 -45.3125 L 9.453125 -47.28125 L 11.546875 -47.15625 L 10.6875 -34.625 L 8.59375 -34.875 L 8.96875 -41.015625 L 6.875 -41.140625 L 6.625 -36.96875 L 4.546875 -37.078125 L 4.78125 -41.265625 L 11.421875 -76.5 L 9.328125 -76.625 L 14.125 -86.6875 L 12.15625 -88.90625 L 12.28125 -90.984375 L 16.828125 -126.234375 L 18.78125 -124.015625 L 20.875 -123.90625 L 21.125 -128.078125 L 19.765625 -138.640625 L 23.078125 -157.296875 L 23.453125 -163.5625 L 25.546875 -163.3125 L 27.5 -161.109375 L 29.71875 -163.078125 L 31.796875 -162.828125 L 33.765625 -160.734375 L 35.984375 -162.703125 L 42.234375 -162.21875 Z M 11.046875 -72.328125 L 10.0625 -57.71875 L 12.15625 -57.59375 L 13.140625 -72.078125 Z M 79.9375 -69.625 L 82.03125 -69.625 L 81.78125 -67.53125 L 43.953125 -63.734375 L 42 -66.0625 L 42.125 -68.03125 L 61.03125 -68.890625 L 60.90625 -66.796875 Z M 79.9375 -69.625 "/></g></g><g transform="translate(250.897932, 227.995918)"><g><path d="M 75.03125 -160.734375 L 77.109375 -160.734375 C 97.335938 -160.734375 112.648438 -152.382812 123.046875 -135.6875 L 123.046875 -133.59375 L 118.859375 -133.59375 L 120.953125 -131.515625 L 120.953125 -129.421875 C 112.597656 -130.410156 108.421875 -131.800781 108.421875 -133.59375 C 75.921875 -133.59375 51.566406 -116.894531 35.359375 -83.5 L 31.1875 -68.890625 L 37.453125 -29.21875 L 43.71875 -29.21875 C 61.070312 -29.21875 80.554688 -41.742188 102.171875 -66.796875 L 104.25 -66.796875 L 104.25 -64.71875 C 89.4375 -43.34375 72.738281 -30.816406 54.15625 -27.140625 L 54.15625 -25.046875 L 56.234375 -25.046875 C 70.804688 -25.046875 88.898438 -37.570312 110.515625 -62.625 L 116.78125 -54.28125 L 116.78125 -48.015625 C 116.78125 -43.515625 106.34375 -33.078125 85.46875 -16.703125 L 83.375 -14.609375 L 81.296875 -14.609375 L 81.296875 -10.4375 C 104.953125 -21.976562 116.78125 -30.328125 116.78125 -35.484375 L 120.953125 -35.484375 L 120.953125 -33.40625 C 103.429688 -12.53125 83.253906 -2.09375 60.421875 -2.09375 L 60.421875 0 L 70.859375 0 L 79.203125 -2.09375 L 81.296875 -2.09375 L 81.296875 0 L 56.234375 4.046875 C 45.679688 4.046875 34.550781 -3.5625 22.84375 -18.78125 L 22.84375 -16.703125 L 33.28125 0 L 33.28125 1.96875 L 27.015625 1.96875 C 14.078125 -6.875 6.421875 -17.96875 4.046875 -31.3125 L 1.96875 -58.453125 C 1.96875 -93.328125 8.925781 -115.59375 22.84375 -125.25 L 22.84375 -123.15625 L 10.3125 -102.28125 L 10.3125 -100.203125 L 12.40625 -100.203125 C 12.40625 -113.460938 29.800781 -132.25 64.59375 -156.5625 L 58.328125 -154.46875 L 56.234375 -154.46875 L 56.234375 -156.5625 Z M 52.0625 -152.390625 L 54.15625 -152.390625 L 54.15625 -150.296875 L 39.546875 -144.03125 C 39.546875 -146.820312 43.71875 -149.609375 52.0625 -152.390625 Z M 33.28125 -137.78125 L 33.28125 -135.6875 L 22.84375 -125.25 L 22.84375 -127.34375 Z M 8.234375 -37.578125 L 8.234375 -31.3125 L 10.3125 -22.96875 L 12.40625 -22.96875 L 12.40625 -25.046875 L 10.3125 -37.578125 Z M 8.234375 -37.578125 "/></g></g><g transform="translate(376.643089, 227.995918)"><g><path d="M 27.5 -164.796875 L 29.59375 -164.796875 L 29.59375 -158.53125 L 31.6875 -158.53125 L 31.6875 -162.703125 L 40.03125 -162.703125 C 42.8125 -162.703125 44.203125 -158.523438 44.203125 -150.171875 L 50.46875 -148.09375 C 50.46875 -152.269531 51.859375 -154.359375 54.640625 -154.359375 L 56.734375 -152.265625 L 56.734375 -150.171875 L 46.296875 -93.8125 L 77.609375 -95.90625 L 98.484375 -95.90625 L 100.5625 -106.34375 L 98.484375 -108.421875 L 102.65625 -108.421875 L 100.5625 -123.046875 L 100.5625 -125.125 L 104.75 -125.125 L 102.65625 -127.21875 L 102.65625 -131.390625 L 106.828125 -131.390625 L 106.828125 -135.5625 L 102.65625 -135.5625 L 102.65625 -137.65625 L 106.828125 -137.65625 L 104.75 -139.734375 L 104.75 -154.359375 L 106.828125 -152.265625 L 108.921875 -152.265625 L 108.921875 -160.609375 L 106.828125 -162.703125 L 106.828125 -164.796875 L 113.09375 -164.796875 L 102.65625 -93.8125 C 105.4375 -93.8125 109.613281 -116.773438 115.1875 -162.703125 L 123.53125 -164.796875 C 124.925781 -153.660156 127.015625 -148.09375 129.796875 -148.09375 L 131.875 -148.09375 C 131.875 -152.269531 133.269531 -154.359375 136.0625 -154.359375 L 138.140625 -154.359375 C 131.179688 -106.222656 120.742188 -49.859375 106.828125 14.734375 L 104.75 14.734375 L 102.65625 12.640625 L 104.75 10.5625 L 104.75 -6.140625 L 102.65625 -6.140625 L 96.390625 14.734375 L 90.125 14.734375 C 87.34375 14.734375 85.953125 10.554688 85.953125 2.203125 L 83.875 2.203125 L 83.875 10.5625 L 81.78125 10.5625 C 79 10.5625 77.609375 8.472656 77.609375 4.296875 C 77.609375 -5.773438 81.78125 -29.429688 90.125 -66.671875 L 88.046875 -66.671875 L 60.90625 -64.59375 L 42.125 -66.671875 C 37.945312 -33.273438 33.769531 -11.007812 29.59375 0.125 L 23.328125 0.125 C 20.546875 0.125 19.15625 -5.441406 19.15625 -16.578125 L 17.0625 -16.578125 L 14.984375 -1.96875 L 10.8125 -6.140625 L 10.8125 -12.40625 L 12.890625 -14.484375 L 12.890625 -16.578125 L 10.8125 -18.671875 L 8.71875 -18.671875 L 6.625 -16.578125 L 4.546875 -16.578125 L 2.453125 -24.921875 C 8.023438 -71.910156 14.289062 -106.007812 21.25 -127.21875 L 23.328125 -127.21875 L 21.25 -129.296875 L 21.25 -135.5625 L 27.5 -158.53125 L 25.421875 -158.53125 Z M 29.59375 -156.4375 L 29.59375 -141.828125 L 31.6875 -141.828125 L 31.6875 -156.4375 Z M 27.5 -139.734375 L 25.421875 -123.046875 L 25.421875 -118.859375 L 27.5 -118.859375 L 29.59375 -135.5625 L 29.59375 -139.734375 Z M 23.328125 -116.78125 L 23.328125 -108.421875 L 25.421875 -108.421875 L 25.421875 -116.78125 Z M 21.25 -106.34375 L 19.15625 -95.90625 L 19.15625 -93.8125 L 21.25 -93.8125 L 23.328125 -102.171875 L 23.328125 -106.34375 Z M 17.0625 -85.46875 L 17.0625 -77.109375 L 19.15625 -77.109375 L 19.15625 -85.46875 Z M 96.390625 -64.59375 L 94.3125 -52.0625 L 94.3125 -49.984375 L 96.390625 -49.984375 L 98.484375 -60.421875 L 98.484375 -64.59375 Z M 92.21875 -47.890625 L 92.21875 -39.546875 L 94.3125 -39.546875 L 94.3125 -47.890625 Z M 106.828125 -24.921875 L 104.75 -14.484375 L 104.75 -8.234375 L 106.828125 -8.234375 L 108.921875 -22.84375 L 108.921875 -24.921875 Z M 4.546875 -14.484375 L 6.625 -14.484375 L 6.625 -4.046875 L 4.546875 -4.046875 Z M 4.546875 -14.484375 "/></g></g></g></g></g><g transform="matrix(1, 0, 0, 1, 233, 551)"><g clip-path="url(#1d0cd5c43c)"><g fill="#b94420" fill-opacity="1"><g transform="translate(1.204106, 220.665699)"><g><path d="M 37.75 0 L 16.5625 0 L 16.5625 -164.78125 L 37.75 -164.78125 L 37.75 -94.125 L 120.140625 -94.125 L 120.140625 -164.78125 L 141.3125 -164.78125 L 141.3125 0 L 120.140625 0 L 120.140625 -74.328125 L 37.75 -74.328125 Z M 37.75 0 "/></g></g></g></g></g><g transform="matrix(1, 0, 0, 1, 400, 587)"><g clip-path="url(#1df45c25ba)"><g fill="#b94420" fill-opacity="1"><g transform="translate(0.377084, 212.672607)"><g><path d="M 70.9375 3.53125 C 53.40625 3.53125 39.265625 -2.210938 28.515625 -13.703125 C 17.753906 -25.046875 12.375 -40.070312 12.375 -58.78125 L 12.375 -158.234375 L 32.703125 -158.234375 L 32.703125 -57.90625 C 32.703125 -44.9375 36.09375 -34.691406 42.875 -27.171875 C 49.65625 -19.660156 59.007812 -15.90625 70.9375 -15.90625 C 82.875 -15.90625 92.226562 -19.660156 99 -27.171875 C 105.78125 -34.691406 109.171875 -44.9375 109.171875 -57.90625 L 109.171875 -158.234375 L 129.5 -158.234375 L 129.5 -58.78125 C 129.5 -39.632812 124.195312 -24.460938 113.59375 -13.265625 C 102.988281 -2.066406 88.769531 3.53125 70.9375 3.53125 Z M 70.9375 3.53125 "/></g></g></g></g></g><g transform="matrix(1, 0, 0, 1, 546, 551)"><g clip-path="url(#d31b2c4e25)"><g fill="#b94420" fill-opacity="1"><g transform="translate(0.527848, 220.665699)"><g><path d="M 16.5625 0 L 16.5625 -164.78125 L 76.171875 -164.78125 C 89.210938 -164.78125 100.414062 -160.484375 109.78125 -151.890625 C 119.132812 -143.453125 123.8125 -132.789062 123.8125 -119.90625 C 123.8125 -103.644531 116.367188 -92.210938 101.484375 -85.609375 L 101.484375 -84.6875 C 109.929688 -81.925781 116.6875 -77.128906 121.75 -70.296875 C 126.8125 -63.472656 129.34375 -55.691406 129.34375 -46.953125 C 129.34375 -33.453125 124.429688 -22.25 114.609375 -13.34375 C 105.097656 -4.445312 93.363281 0 79.40625 0 Z M 37.75 -144.53125 L 37.75 -94.125 L 76.171875 -94.125 C 83.691406 -94.125 89.984375 -96.65625 95.046875 -101.71875 C 100.109375 -106.9375 102.640625 -112.84375 102.640625 -119.4375 C 102.640625 -125.882812 100.1875 -131.71875 95.28125 -136.9375 C 90.363281 -142 84.300781 -144.53125 77.09375 -144.53125 Z M 37.75 -74.328125 L 37.75 -20.25 L 80.3125 -20.25 C 87.988281 -20.25 94.507812 -22.9375 99.875 -28.3125 C 105.09375 -33.675781 107.703125 -40.039062 107.703125 -47.40625 C 107.703125 -54.613281 105.019531 -60.90625 99.65625 -66.28125 C 94.28125 -71.644531 87.53125 -74.328125 79.40625 -74.328125 Z M 37.75 -74.328125 "/></g></g></g></g></g><g transform="matrix(1, 0, 0, 1, 97, 82)"><g clip-path="url(#43be346651)"><g fill="#ec6839" fill-opacity="1"><g transform="translate(1.129766, 169.470933)"><g><path d="M 135.34375 -62.6875 C 135.34375 -44.125 129.15625 -28.597656 116.78125 -16.109375 C 104.289062 -3.503906 89 2.796875 70.90625 2.796875 C 52.695312 2.796875 37.40625 -3.503906 25.03125 -16.109375 C 12.664062 -28.597656 6.484375 -44.125 6.484375 -62.6875 C 6.484375 -81.238281 12.664062 -96.765625 25.03125 -109.265625 C 37.40625 -121.867188 52.695312 -128.171875 70.90625 -128.171875 C 89.125 -128.171875 104.414062 -121.804688 116.78125 -109.078125 C 129.15625 -96.585938 135.34375 -81.125 135.34375 -62.6875 Z M 22.9375 -62.6875 C 22.9375 -48.207031 27.488281 -36.242188 36.59375 -26.796875 C 45.8125 -17.335938 57.25 -12.609375 70.90625 -12.609375 C 84.570312 -12.609375 95.957031 -17.335938 105.0625 -26.796875 C 114.28125 -36.128906 118.890625 -48.09375 118.890625 -62.6875 C 118.890625 -77.269531 114.28125 -89.234375 105.0625 -98.578125 C 95.957031 -108.035156 84.570312 -112.765625 70.90625 -112.765625 C 57.25 -112.765625 45.8125 -108.035156 36.59375 -98.578125 C 27.488281 -89.117188 22.9375 -77.15625 22.9375 -62.6875 Z M 22.9375 -62.6875 "/></g></g></g></g></g><g clip-path="url(#e105abc164)"><g transform="matrix(1, 0, 0, 1, 159, 82)"><g clip-path="url(#f37fbf099a)"><g clip-path="url(#2d0b3fc8b5)"><path fill="#b94420" d="M 0.207031 0.878906 L 19.882812 0.878906 L 19.882812 20.554688 L 0.207031 20.554688 Z M 0.207031 0.878906 " fill-opacity="1" fill-rule="nonzero"/></g></g></g></g><g transform="matrix(1, 0, 0, 1, 0, 108)"><g clip-path="url(#587a7db1ef)"><g fill="#ec6839" fill-opacity="1"><g transform="translate(-2.249994, 170.399941)"><g><path d="M 56.09375 -111.46875 L 56.09375 0 L 39.765625 0 L 39.765625 -111.46875 L 4.265625 -111.46875 L 4.265625 -127.09375 L 91.59375 -127.09375 L 91.59375 -111.46875 Z M 56.09375 -111.46875 "/></g></g></g></g></g><g transform="matrix(1, 0, 0, 1, 248, 108)"><g clip-path="url(#67121e1459)"><g fill="#ec6839" fill-opacity="1"><g transform="translate(1.016428, 168.830035)"><g><path d="M 56.203125 2.796875 C 42.316406 2.796875 31.113281 -1.753906 22.59375 -10.859375 C 14.070312 -19.847656 9.8125 -31.753906 9.8125 -46.578125 L 9.8125 -125.359375 L 25.90625 -125.359375 L 25.90625 -45.875 C 25.90625 -35.601562 28.585938 -27.488281 33.953125 -21.53125 C 39.328125 -15.582031 46.742188 -12.609375 56.203125 -12.609375 C 65.660156 -12.609375 73.070312 -15.582031 78.4375 -21.53125 C 83.8125 -27.488281 86.5 -35.601562 86.5 -45.875 L 86.5 -125.359375 L 102.609375 -125.359375 L 102.609375 -46.578125 C 102.609375 -31.398438 98.40625 -19.375 90 -10.5 C 81.59375 -1.632812 70.328125 2.796875 56.203125 2.796875 Z M 56.203125 2.796875 "/></g></g></g></g></g><g transform="matrix(1, 0, 0, 1, 367, 78)"><g clip-path="url(#3a628dde15)"><g fill="#ec6839" fill-opacity="1"><g transform="translate(0.781529, 175.735138)"><g><path d="M 86.4375 0 L 13.125 0 L 13.125 -130.5625 L 29.90625 -130.5625 L 29.90625 -16.046875 L 86.4375 -16.046875 Z M 86.4375 0 "/></g></g></g></g></g><g transform="matrix(1, 0, 0, 1, 462, 82)"><g clip-path="url(#0e48fc1286)"><g fill="#ec6839" fill-opacity="1"><g transform="translate(1.119678, 169.470933)"><g><path d="M 135.34375 -62.6875 C 135.34375 -44.125 129.15625 -28.597656 116.78125 -16.109375 C 104.289062 -3.503906 89 2.796875 70.90625 2.796875 C 52.695312 2.796875 37.40625 -3.503906 25.03125 -16.109375 C 12.664062 -28.597656 6.484375 -44.125 6.484375 -62.6875 C 6.484375 -81.238281 12.664062 -96.765625 25.03125 -109.265625 C 37.40625 -121.867188 52.695312 -128.171875 70.90625 -128.171875 C 89.125 -128.171875 104.414062 -121.804688 116.78125 -109.078125 C 129.15625 -96.585938 135.34375 -81.125 135.34375 -62.6875 Z M 22.9375 -62.6875 C 22.9375 -48.207031 27.488281 -36.242188 36.59375 -26.796875 C 45.8125 -17.335938 57.25 -12.609375 70.90625 -12.609375 C 84.570312 -12.609375 95.957031 -17.335938 105.0625 -26.796875 C 114.28125 -36.128906 118.890625 -48.09375 118.890625 -62.6875 C 118.890625 -77.269531 114.28125 -89.234375 105.0625 -98.578125 C 95.957031 -108.035156 84.570312 -112.765625 70.90625 -112.765625 C 57.25 -112.765625 45.8125 -108.035156 36.59375 -98.578125 C 27.488281 -89.117188 22.9375 -77.15625 22.9375 -62.6875 Z M 22.9375 -62.6875 "/></g></g></g></g></g><g transform="matrix(1, 0, 0, 1, 613, 108)"><g clip-path="url(#e82e422985)"><g fill="#ec6839" fill-opacity="1"><g transform="translate(1.006281, 168.830035)"><g><path d="M 56.203125 2.796875 C 42.316406 2.796875 31.113281 -1.753906 22.59375 -10.859375 C 14.070312 -19.847656 9.8125 -31.753906 9.8125 -46.578125 L 9.8125 -125.359375 L 25.90625 -125.359375 L 25.90625 -45.875 C 25.90625 -35.601562 28.585938 -27.488281 33.953125 -21.53125 C 39.328125 -15.582031 46.742188 -12.609375 56.203125 -12.609375 C 65.660156 -12.609375 73.070312 -15.582031 78.4375 -21.53125 C 83.8125 -27.488281 86.5 -35.601562 86.5 -45.875 L 86.5 -125.359375 L 102.609375 -125.359375 L 102.609375 -46.578125 C 102.609375 -31.398438 98.40625 -19.375 90 -10.5 C 81.59375 -1.632812 70.328125 2.796875 56.203125 2.796875 Z M 56.203125 2.796875 "/></g></g></g></g></g><g transform="matrix(1, 0, 0, 1, 730, 82)"><g clip-path="url(#43ecc278a9)"><g fill="#ec6839" fill-opacity="1"><g transform="translate(0.944986, 169.470933)"><g><path d="M 90 -33.4375 C 90 -22.46875 85.972656 -13.65625 77.921875 -7 C 69.742188 -0.46875 59.820312 2.796875 48.15625 2.796875 C 37.757812 2.796875 28.59375 -0.234375 20.65625 -6.296875 C 12.71875 -12.367188 7.234375 -20.660156 4.203125 -31.171875 L 19.609375 -37.46875 C 20.660156 -33.726562 22.117188 -30.34375 23.984375 -27.3125 C 25.859375 -24.28125 28.046875 -21.679688 30.546875 -19.515625 C 33.054688 -17.359375 35.828125 -15.664062 38.859375 -14.4375 C 41.898438 -13.21875 45.113281 -12.609375 48.5 -12.609375 C 55.851562 -12.609375 61.863281 -14.503906 66.53125 -18.296875 C 71.207031 -22.085938 73.546875 -27.132812 73.546875 -33.4375 C 73.546875 -38.695312 71.617188 -43.191406 67.765625 -46.921875 C 64.140625 -50.546875 57.367188 -54.050781 47.453125 -57.4375 C 37.410156 -61.050781 31.164062 -63.5 28.71875 -64.78125 C 15.40625 -71.550781 8.75 -81.53125 8.75 -94.71875 C 8.75 -103.945312 12.425781 -111.828125 19.78125 -118.359375 C 27.25 -124.898438 36.414062 -128.171875 47.28125 -128.171875 C 56.851562 -128.171875 65.140625 -125.71875 72.140625 -120.8125 C 79.140625 -116.03125 83.804688 -110.019531 86.140625 -102.78125 L 71.09375 -96.484375 C 69.6875 -101.148438 66.910156 -105.03125 62.765625 -108.125 C 58.628906 -111.21875 53.582031 -112.765625 47.625 -112.765625 C 41.320312 -112.765625 36.007812 -111.007812 31.6875 -107.5 C 27.375 -104.238281 25.21875 -99.976562 25.21875 -94.71875 C 25.21875 -90.40625 26.910156 -86.671875 30.296875 -83.515625 C 34.023438 -80.367188 42.132812 -76.632812 54.625 -72.3125 C 67.351562 -67.988281 76.429688 -62.703125 81.859375 -56.453125 C 87.285156 -50.210938 90 -42.539062 90 -33.4375 Z M 90 -33.4375 "/></g></g></g></g></g><g transform="matrix(1, 0, 0, 1, 834, 109)"><g clip-path="url(#a931e9c97d)"><g fill="#ec6839" fill-opacity="1"><g transform="translate(0.117266, 169.158487)"><g><path d="M 85.796875 -125.359375 L 85.796875 -109.953125 L 28.71875 -109.953125 L 28.71875 -70.21875 L 80.1875 -70.21875 L 80.1875 -55.15625 L 28.71875 -55.15625 L 28.71875 -15.40625 L 85.796875 -15.40625 L 85.796875 0 L 12.609375 0 L 12.609375 -125.359375 Z M 85.796875 -125.359375 "/></g></g></g></g></g><g clip-path="url(#0c37c71838)"><g transform="matrix(1, 0, 0, 1, 526, 279)"><g clip-path="url(#9bd5000752)"><g clip-path="url(#ab89b10938)"><path fill="#b94420" d="M 0.460938 0.222656 L 20.136719 0.222656 L 20.136719 19.898438 L 0.460938 19.898438 Z M 0.460938 0.222656 " fill-opacity="1" fill-rule="nonzero"/></g></g></g></g><g clip-path="url(#910acc1526)"><g transform="matrix(1, 0, 0, 1, 938, 205)"><g clip-path="url(#0db4ab6fd4)"><g clip-path="url(#5dc380dc4e)"><path fill="#b94420" d="M 0.0742188 0.40625 L 19.75 0.40625 L 19.75 20.082031 L 0.0742188 20.082031 Z M 0.0742188 0.40625 " fill-opacity="1" fill-rule="nonzero"/></g></g></g></g><g clip-path="url(#4ce25d2dc8)"><g transform="matrix(1, 0, 0, 1, 706, 718)"><g clip-path="url(#7e64e1e647)"><g clip-path="url(#bd69d4097b)"><path fill="#b94420" d="M 0.839844 0.101562 L 20.515625 0.101562 L 20.515625 19.777344 L 0.839844 19.777344 Z M 0.839844 0.101562 " fill-opacity="1" fill-rule="nonzero"/></g></g></g></g><g clip-path="url(#3e0932dfa9)"><g transform="matrix(1, 0, 0, 1, 464, 833)"><g clip-path="url(#1e1655d3d8)"><g clip-path="url(#b2291576d1)"><path fill="#b94420" d="M 0.492188 0.738281 L 20.167969 0.738281 L 20.167969 20.414062 L 0.492188 20.414062 Z M 0.492188 0.738281 " fill-opacity="1" fill-rule="nonzero"/></g></g></g></g></svg>