<svg xmlns="http://www.w3.org/2000/svg" viewBox="0 0 1120.078 493.963">
  <g fill="#d03d00">
    <path d="M101.38 231.478c-33.012 0-58.16-9.18-75.449-27.547C8.644 185.577 0 159.496 0 125.701c0-16.799 2.639-31.791 7.912-44.976C13.187 67.538 20.41 56.404 29.595 47.32c9.179-9.083 20.115-15.968 32.816-20.656 12.695-4.69 26.467-7.03 41.314-7.03 8.594 0 16.41.633 23.44 1.9 7.033 1.276 13.186 2.74 18.459 4.396 5.275 1.661 9.67 3.372 13.186 5.13 3.515 1.757 6.051 3.124 7.62 4.101l-13.187 36.919c-6.255-3.32-13.528-6.152-21.83-8.498-8.304-2.346-17.727-3.514-28.275-3.514-7.031 0-13.917 1.168-20.656 3.514-6.739 2.346-12.699 6.107-17.874 11.282-5.178 5.177-9.33 11.866-12.451 20.07-3.129 8.203-4.689 18.164-4.689 29.885 0 9.377 1.025 18.121 3.076 26.226 2.052 8.107 5.37 15.091 9.963 20.95 4.587 5.86 10.594 10.502 18.019 13.918 7.421 3.42 16.408 5.13 26.956 5.13 6.64 0 12.6-.394 17.873-1.174 5.274-.78 9.963-1.71 14.067-2.785 4.1-1.07 7.714-2.296 10.84-3.66a495.405 495.405 0 0 0 8.498-3.81l12.598 36.626c-6.448 3.908-15.528 7.425-27.25 10.546-11.719 3.123-25.3 4.691-40.728 4.691M248.292 69.151c12.893 0 23.632 1.464 32.23 4.396 8.593 2.927 15.48 7.13 20.658 12.595 5.173 5.473 8.837 12.114 10.987 19.927 2.147 7.815 3.224 16.51 3.224 26.078v90.83c-6.256 1.372-14.944 2.98-26.077 4.836-11.135 1.853-24.614 2.783-40.436 2.783-9.96 0-19-.876-27.103-2.635-8.107-1.758-15.09-4.638-20.95-8.643-5.86-4.004-10.354-9.231-13.477-15.679-3.128-6.444-4.69-14.355-4.69-23.731 0-8.984 1.806-16.603 5.422-22.855 3.611-6.249 8.447-11.232 14.504-14.946 6.053-3.707 12.99-6.396 20.803-8.057 7.811-1.656 15.918-2.488 24.32-2.488 5.663 0 10.693.245 15.09.734 4.395.489 7.957 1.122 10.695 1.901v-4.1c0-7.424-2.25-13.38-6.74-17.874-4.496-4.495-12.306-6.741-23.442-6.741-7.425 0-14.75.542-21.973 1.611-7.232 1.077-13.479 2.591-18.753 4.544l-5.568-35.163c2.537-.775 5.714-1.609 9.523-2.49 3.81-.879 7.957-1.656 12.453-2.345 4.491-.679 9.23-1.266 14.21-1.758 4.982-.483 10.01-.73 15.09-.73zm3.515 127.752c4.295 0 8.397-.098 12.307-.295 3.907-.193 7.032-.485 9.378-.879v-33.108c-1.758-.389-4.397-.782-7.913-1.176-3.515-.387-6.738-.584-9.668-.584-4.104 0-7.962.248-11.573.734-3.619.488-6.79 1.418-9.523 2.784-2.74 1.367-4.884 3.222-6.448 5.567-1.563 2.344-2.344 5.274-2.344 8.788 0 6.843 2.293 11.576 6.887 14.21 4.588 2.638 10.887 3.96 18.897 3.96M493.592 150.313c0 11.92-1.463 22.758-4.393 32.525-2.93 9.767-7.23 18.166-12.894 25.198-5.666 7.031-12.7 12.504-21.096 16.409-8.4 3.905-18.07 5.86-29.006 5.86-6.057 0-11.72-.585-16.994-1.76a81.332 81.332 0 0 1-15.238-4.98v58.016h-43.657V78.525c3.906-1.169 8.398-2.292 13.478-3.369 5.075-1.073 10.4-2 15.97-2.783a317.573 317.573 0 0 1 16.995-1.905c5.757-.486 11.277-.731 16.553-.731 12.695 0 24.026 1.902 33.99 5.711 9.96 3.81 18.359 9.187 25.196 16.118 6.836 6.934 12.059 15.382 15.676 25.344 3.613 9.96 5.42 21.096 5.42 33.403zm-44.536 1.172c0-13.479-3.031-24.27-9.081-32.377-6.058-8.103-15.045-12.16-26.957-12.16-3.912 0-7.523.145-10.842.44-3.324.294-6.057.635-8.205 1.026v78.82c2.733 1.755 6.301 3.219 10.695 4.394a51.536 51.536 0 0 0 13.332 1.757c20.704 0 31.058-13.962 31.058-41.9M569.186 28.716c0 8.011-2.593 14.31-7.764 18.9-5.18 4.59-11.283 6.884-18.313 6.884-7.034 0-13.14-2.293-18.312-6.884-5.18-4.59-7.767-10.889-7.767-18.9 0-8.01 2.586-14.309 7.767-18.901 5.172-4.586 11.278-6.885 18.312-6.885 7.03 0 13.134 2.299 18.313 6.885 5.17 4.592 7.764 10.892 7.764 18.9zm-4.1 198.658h-43.66V73.252h43.66v154.122M599.508 34.87l43.657-7.034v45.416h52.446v36.333h-52.446v54.205c0 9.185 1.606 16.512 4.835 21.977 3.224 5.473 9.714 8.204 19.486 8.204 4.685 0 9.52-.44 14.503-1.318 4.978-.88 9.52-2.099 13.622-3.664l6.157 33.988c-5.275 2.152-11.136 4.008-17.585 5.569-6.444 1.562-14.355 2.342-23.73 2.342-11.92 0-21.784-1.608-29.593-4.834-7.816-3.22-14.068-7.713-18.756-13.479-4.685-5.758-7.963-12.745-9.818-20.947-1.853-8.203-2.778-17.287-2.778-27.249V34.869M956.114 230.304c-12.696-.196-22.998-1.568-30.91-4.1-7.91-2.538-14.161-6.106-18.753-10.695-4.59-4.59-7.72-10.155-9.376-16.703-1.657-6.54-2.487-13.918-2.487-22.124V7.031L938.241 0v167.896c0 3.907.292 7.421.882 10.546.586 3.13 1.706 5.763 3.369 7.91 1.66 2.152 4.054 3.91 7.177 5.276 3.126 1.37 7.327 2.247 12.605 2.635l-6.16 36.041M975.333 151.485c0-13.67 2.1-25.64 6.3-35.893 4.198-10.254 9.719-18.8 16.555-25.64 6.839-6.834 14.702-12.012 23.591-15.528 8.886-3.519 18.02-5.273 27.397-5.273 21.871 0 39.158 6.692 51.856 20.068 12.696 13.384 19.046 33.066 19.046 59.042 0 2.543-.101 5.328-.292 8.35a521.683 521.683 0 0 1-.584 8.06h-99.036c.974 8.985 5.176 16.113 12.596 21.389 7.423 5.276 17.384 7.91 29.89 7.91 8.006 0 15.87-.733 23.585-2.196 7.711-1.464 14.012-3.27 18.894-5.422l5.863 35.454c-2.347 1.171-5.468 2.347-9.374 3.518-3.91 1.171-8.256 2.196-13.034 3.075-4.794.88-9.921 1.613-15.387 2.197-5.474.587-10.94.882-16.405.882-13.872 0-25.931-2.053-36.19-6.154-10.256-4.105-18.75-9.714-25.49-16.85-6.738-7.127-11.721-15.573-14.947-25.344-3.22-9.764-4.834-20.313-4.834-31.645zm102.556-16.7a45.06 45.06 0 0 0-1.905-10.84c-1.076-3.52-2.738-6.643-4.978-9.38-2.25-2.731-5.086-4.98-8.5-6.738-3.424-1.758-7.668-2.637-12.748-2.637-4.882 0-9.086.834-12.594 2.492-3.517 1.662-6.45 3.857-8.792 6.593-2.345 2.735-4.157 5.907-5.419 9.519a62.044 62.044 0 0 0-2.787 10.99h57.723M158.328 484.879c-3.91 1.173-8.401 2.299-13.479 3.37-5.082 1.077-10.401 2-15.968 2.782a312.774 312.774 0 0 1-16.995 1.906c-5.763.485-11.28.733-16.554.733-12.7 0-24.026-1.858-33.99-5.57-9.961-3.706-18.36-9.033-25.197-15.965-6.84-6.933-12.065-15.333-15.675-25.2-3.617-9.861-5.422-20.954-5.422-33.257 0-12.5 1.562-23.78 4.69-33.843 3.12-10.054 7.616-18.604 13.476-25.639 5.86-7.032 13.04-12.401 21.538-16.113 8.494-3.707 18.21-5.567 29.153-5.567 6.05 0 11.473.584 16.262 1.758 4.783 1.172 9.618 2.833 14.503 4.978v-69.734l43.658-7.031zm-98.742-73.253c0 13.48 3.025 24.32 9.082 32.526 6.053 8.203 15.04 12.304 26.958 12.304 3.904 0 7.517-.146 10.84-.438 3.319-.295 6.051-.633 8.204-1.026v-79.407c-2.737-1.758-6.3-3.222-10.694-4.393a51.446 51.446 0 0 0-13.332-1.759c-20.706 0-31.058 14.063-31.058 42.193M326.1 484.587c-7.425 2.151-16.995 4.15-28.716 6.007-11.718 1.854-24.025 2.78-36.918 2.78-13.087 0-23.98-1.754-32.669-5.273-8.694-3.514-15.58-8.444-20.657-14.794-5.082-6.347-8.695-13.918-10.841-22.711-2.152-8.79-3.223-18.459-3.223-29.007v-85.851h43.657v80.575c0 14.069 1.854 24.227 5.567 30.474 3.709 6.253 10.645 9.377 20.803 9.377 3.123 0 6.447-.146 9.964-.441 3.514-.292 6.637-.632 9.375-1.026v-118.96H326.1v148.85M576.028 450.596v39.265h-135.66V286.805h45.705v163.791h89.955M645.406 291.201c0 8.013-2.588 14.31-7.762 18.9-5.182 4.59-11.284 6.886-18.313 6.886-7.034 0-13.138-2.296-18.312-6.885-5.182-4.591-7.767-10.888-7.767-18.9 0-8.01 2.585-14.308 7.767-18.901 5.174-4.587 11.278-6.886 18.312-6.886 7.03 0 13.131 2.3 18.313 6.886 5.174 4.593 7.762 10.891 7.762 18.9zm-4.103 198.66h-43.652V335.738h43.652V489.86M820.532 412.799c0 12.307-1.81 23.442-5.423 33.403-3.614 9.962-8.842 18.46-15.673 25.492-6.844 7.034-15.237 12.452-25.197 16.262-9.967 3.809-21.295 5.714-33.99 5.714-5.28 0-10.797-.248-16.555-.733a311.829 311.829 0 0 1-16.995-1.906c-5.57-.781-10.893-1.705-15.97-2.782-5.08-1.071-9.575-2.197-13.48-3.37V269.518l43.66-7.031v76.765a82.01 82.01 0 0 1 15.237-4.978c5.277-1.174 10.94-1.758 16.996-1.758 10.93 0 20.6 1.9 29.007 5.71 8.392 3.81 15.427 9.233 21.096 16.263 5.662 7.034 9.962 15.487 12.889 25.346 2.932 9.868 4.398 20.855 4.398 32.964zm-44.54-1.173c0-28.13-10.356-42.193-31.058-42.193-4.496 0-8.939.584-13.329 1.759-4.394 1.171-7.966 2.635-10.697 4.393v79.407c2.147.393 4.884.73 8.205 1.026 3.32.292 6.932.438 10.844.438 11.909 0 20.897-4.101 26.955-12.304 6.05-8.206 9.08-19.046 9.08-32.526M942.332 374.414c-3.912-.975-8.5-1.998-13.77-3.076-5.275-1.07-10.946-1.613-16.995-1.613-2.742 0-6.01.251-9.818.733-3.809.49-6.695 1.026-8.644 1.613v117.79h-43.654V343.943c7.81-2.735 17.037-5.32 27.685-7.768 10.647-2.437 22.513-3.659 35.6-3.659 2.347 0 5.173.145 8.5.437 3.32.295 6.634.69 9.96 1.172 3.32.492 6.64 1.08 9.962 1.758 3.32.687 6.152 1.514 8.494 2.492l-7.32 36.039M958.825 413.97c0-13.67 2.096-25.64 6.295-35.893 4.204-10.252 9.72-18.798 16.564-25.639 6.83-6.834 14.693-12.012 23.58-15.529 8.887-3.517 18.022-5.272 27.4-5.272 21.876 0 39.158 6.692 51.862 20.067 12.692 13.384 19.045 33.068 19.045 59.044 0 2.543-.103 5.327-.292 8.348-.196 3.035-.4 5.718-.59 8.06h-99.033c.975 8.988 5.174 16.113 12.602 21.39 7.415 5.275 17.38 7.91 29.883 7.91 8.004 0 15.869-.733 23.588-2.197 7.715-1.463 14.016-3.27 18.898-5.421l5.859 35.455c-2.343 1.17-5.474 2.346-9.376 3.516-3.912 1.173-8.25 2.198-13.038 3.077-4.787.879-9.92 1.611-15.385 2.197-5.466.587-10.94.88-16.406.88-13.872 0-25.93-2.051-36.184-6.154-10.258-4.104-18.754-9.715-25.498-16.848-6.733-7.128-11.72-15.576-14.936-25.346-3.228-9.764-4.838-20.312-4.838-31.644zm102.553-16.7a45.312 45.312 0 0 0-1.907-10.841c-1.073-3.517-2.738-6.64-4.979-9.377-2.245-2.734-5.084-4.981-8.5-6.738-3.415-1.76-7.668-2.64-12.747-2.64-4.881 0-9.077.836-12.594 2.492-3.52 1.663-6.452 3.86-8.793 6.593-2.345 2.737-4.15 5.91-5.417 9.52a61.892 61.892 0 0 0-2.785 10.992h57.722M861.535 116.91c-3.71-9.962-8.89-18.46-15.529-25.491-6.642-7.035-14.606-12.5-23.883-16.408-9.275-3.908-19.48-5.86-30.616-5.86-10.937 0-21.047 1.952-30.324 5.86-9.282 3.907-17.288 9.373-24.03 16.408-6.736 7.03-12.011 15.529-15.821 25.49-3.81 9.961-5.712 21.003-5.712 33.11 0 12.116 1.856 23.201 5.569 33.256 3.71 10.064 8.884 18.66 15.529 25.786 6.634 7.132 14.599 12.649 23.88 16.555 9.278 3.908 19.578 5.862 30.909 5.862 11.524 0 21.926-1.954 31.209-5.862 9.274-3.906 17.232-9.423 23.88-16.555 6.634-7.127 11.72-15.722 15.237-25.786 3.508-10.055 5.27-21.14 5.27-33.257 0-12.106-1.86-23.148-5.568-33.108zm-16.723 29.338c-1.455.324-2.722-.177-3.464-1.201-5.328 5.714-8.47 12.87-10.782 21.406.047-.015.088-.04.137-.048 2.36-.533 4.225 1.11 4.167 3.651-.06 2.546-2.033 5.036-4.393 5.563-2.362.53-4.228-1.1-4.167-3.65.035-1.525.769-3.028 1.853-4.1-6.8-6.382-16.006-11.008-26.067-9.723.012 6.548-2.105 17.353 11.08 24.614.8-1.215 2.004-2.176 3.38-2.51 2.409-.582 4.357.966 4.357 3.446 0 2.49-1.948 4.971-4.357 5.55-2.18.525-3.964-.697-4.292-2.776-7.553 4.537-13.985 10.766-18.2 17.784 1.624.267 2.767 1.605 2.767 3.512 0 2.482-1.95 4.97-4.358 5.548-2.409.582-4.362-.962-4.362-3.444 0-1.917 1.16-3.82 2.795-4.86-4.133-5.252-9.669-8.411-17.478-9.085v.072c0 2.48-1.95 4.964-4.357 5.548-2.414.58-4.366-.961-4.366-3.45 0-2.483 1.952-4.965 4.366-5.552 1.419-.336 2.656.069 3.456.954 7.213-9.199 11.71-20.868 13.43-32.096-10.252 4.187-20.505 12.852-27.744 22.087.897.577 1.426 1.684 1.426 3.113 0 2.49-1.55 4.97-3.959 5.554-2.409.581-3.962-.966-3.962-3.455 0-2.23 1.27-4.452 3.27-5.3-2.46-7.134-6.763-12.757-12.344-15.91-.792 1.617-2.349 2.96-4.03 3.365-1.473.358-4.47-.267-4.47-3.446 0-2.482 2.121-4.97 4.526-5.55 1.466-.35 2.82.087 3.656 1.038 4.93-6.05 6.541-14.16 8.407-22.82-.07.025-.143.06-.22.077-2.4.58-4.358-.961-4.358-3.445 0-2.485 1.957-4.965 4.358-5.547 2.408-.583 4.363.958 4.363 3.44 0 1.466-.686 2.921-1.734 3.994 7.85 5.792 22.307 8.271 32.827 7.5-1.703-10.421-7.97-18.845-15.468-24.39-.799 1.321-2.08 2.374-3.537 2.727-2.409.586-4.357-.961-4.357-3.446 0-2.48 1.948-4.966 4.357-5.544 2.41-.588 4.364.96 4.364 3.445 0 .021-.011.045-.011.068 7.916-4.675 13.801-11.617 18.015-19.13-1.414-.303-2.4-1.633-2.4-3.503 0-2.484 1.755-4.965 3.918-5.55 2.172-.58 3.93.969 3.93 3.447 0 1.843-.963 3.675-2.348 4.736 4.523 5.243 12.154 8.817 20.237 9.738 0-2.483 1.759-4.968 3.93-5.552 2.17-.579 3.922.965 3.922 3.442 0 2.49-1.753 4.974-3.922 5.553-.989.265-1.88.072-2.57-.435-7.082 8.963-11.993 19.585-13.67 30.597 10.731-2.52 15.138-15.36 25.86-20.514a4.417 4.417 0 0 1-.452-2.085c.06-2.546 1.83-5.041 3.958-5.569 2.128-.528 3.809 1.106 3.748 3.648-.052 2.546-1.816 5.032-3.944 5.566 2.175 7.561 6.257 13.505 11.7 16.944.764-1.597 2.183-2.894 3.805-3.255 2.366-.53 4.239 1.103 4.173 3.648-.067 2.543-2.035 5.038-4.395 5.566"/>
  </g>
</svg>
