<?xml version="1.0" encoding="UTF-8" standalone="no"?>
<!-- Created with Inkscape (http://www.inkscape.org/) -->

<svg
   xmlns:dc="http://purl.org/dc/elements/1.1/"
   xmlns:cc="http://creativecommons.org/ns#"
   xmlns:rdf="http://www.w3.org/1999/02/22-rdf-syntax-ns#"
   xmlns:svg="http://www.w3.org/2000/svg"
   xmlns="http://www.w3.org/2000/svg"
   xmlns:sodipodi="http://sodipodi.sourceforge.net/DTD/sodipodi-0.dtd"
   xmlns:inkscape="http://www.inkscape.org/namespaces/inkscape"
   width="275.7807mm"
   height="81.754761mm"
   viewBox="0 0 977.17571 289.68222"
   id="svg2"
   version="1.1"
   inkscape:version="0.91 r13725"
   sodipodi:docname="bleemeo_logo.svg">
  <defs
     id="defs4" />
  <sodipodi:namedview
     id="base"
     pagecolor="#ffffff"
     bordercolor="#666666"
     borderopacity="1.0"
     inkscape:pageopacity="0.0"
     inkscape:pageshadow="2"
     inkscape:zoom="0.35"
     inkscape:cx="202.15928"
     inkscape:cy="-9.4445886"
     inkscape:document-units="px"
     inkscape:current-layer="layer1"
     showgrid="false"
     fit-margin-top="0"
     fit-margin-left="0"
     fit-margin-right="0"
     fit-margin-bottom="0"
     inkscape:window-width="1871"
     inkscape:window-height="1176"
     inkscape:window-x="49"
     inkscape:window-y="24"
     inkscape:window-maximized="1" />
  <metadata
     id="metadata7">
    <rdf:RDF>
      <cc:Work
         rdf:about="">
        <dc:format>image/svg+xml</dc:format>
        <dc:type
           rdf:resource="http://purl.org/dc/dcmitype/StillImage" />
        <dc:title></dc:title>
      </cc:Work>
    </rdf:RDF>
  </metadata>
  <g
     inkscape:label="Layer 1"
     inkscape:groupmode="layer"
     id="layer1"
     transform="translate(248.58785,-233.2354)">
    <g
       id="g4622"
       transform="matrix(4.1702867,0,0,4.1702867,-265.87119,57.580345)">
      <g
         id="g4624">
        <path
           id="path4626"
           d="m 50.944,96.119 c -0.467,0 -0.753,-0.286 -0.753,-0.751 l 0,-3.584 c 0,-0.469 0.286,-0.758 0.753,-0.758 l 3.065,0 0,-31.412 -3.065,0 c -0.467,0 -0.753,-0.233 -0.753,-0.751 l 0,-3.532 c 0,-0.515 0.286,-0.804 0.753,-0.804 l 7.983,0 c 0.979,0 1.387,0.462 1.387,1.266 l 0,35.233 2.78,0 c 0.458,0 0.748,0.289 0.748,0.758 l 0,3.584 c 0,0.465 -0.289,0.751 -0.748,0.751 l -12.15,0 z"
           inkscape:connector-curvature="0" />
        <path
           id="path4628"
           d="m 72.909,82.696 c 0.404,5.789 4.451,8.512 8.565,8.512 4.68,0 8.04,-3.134 8.561,-4.112 0.344,-0.344 0.751,-0.462 1.155,-0.118 l 2.198,2.376 c 0.407,0.344 0.463,0.691 0.174,1.153 -0.636,1.049 -4.634,6.02 -12.552,6.02 -8.043,0 -14.639,-5.437 -14.639,-14.752 0,-9.379 7.056,-14.526 13.998,-14.526 8.621,0 13.31,5.441 13.248,14.583 0,0.521 -0.402,0.865 -0.86,0.865 l -19.848,0 z m 14.519,-4.101 c -0.171,-3.591 -2.486,-6.367 -6.825,-6.367 -3.413,0 -6.885,1.789 -7.583,6.367 l 14.408,0 z"
           inkscape:connector-curvature="0" />
        <path
           id="path4630"
           d="m 97.888,82.696 c -0.46,0 -0.866,-0.344 -0.866,-0.865 -0.058,-9.142 4.627,-14.583 13.25,-14.583 6.943,0 14.003,5.147 14.003,14.526 0,9.315 -6.6,14.752 -14.639,14.752 -7.925,0 -11.923,-4.971 -12.557,-6.02 -0.291,-0.462 -0.234,-0.81 0.172,-1.153 l 2.198,-2.376 c 0.405,-0.344 0.809,-0.226 1.16,0.118 0.517,0.979 3.878,4.112 8.563,4.112 4.104,0 8.156,-2.723 8.56,-8.512 l -19.844,0 z m 19.731,-4.101 c -0.696,-4.578 -4.168,-6.367 -7.581,-6.367 -4.338,0 -6.656,2.776 -6.822,6.367 l 14.403,0 z"
           inkscape:connector-curvature="0" />
        <path
           id="path4632"
           d="m 169.43,96.119 c -1.797,0 -2.659,-0.751 -2.659,-2.542 l 0,-14.348 c 0,-3.882 -1.506,-6.423 -5.5,-6.423 -3.756,0 -5.321,2.542 -5.901,3.585 0.118,0.467 0.175,1.158 0.175,1.678 l 0.116,12.957 3.011,0 c 0.52,0 0.747,0.289 0.747,0.758 l 0,3.584 c 0,0.465 -0.29,0.751 -0.747,0.751 l -12.096,0 c -0.462,0 -0.752,-0.286 -0.752,-0.751 l 0,-3.584 c 0,-0.469 0.235,-0.758 0.752,-0.758 l 2.722,0 0,-11.797 c 0,-3.882 -1.504,-6.423 -5.435,-6.423 -5.036,0 -6.315,4.336 -6.315,4.278 l 0,13.942 2.319,0 c 0.514,0 0.75,0.289 0.75,0.758 l 0,3.584 c 0,0.465 -0.288,0.751 -0.75,0.751 l -11.688,0 c -0.464,0 -0.753,-0.286 -0.753,-0.751 l 0,-3.584 c 0,-0.469 0.289,-0.758 0.753,-0.758 l 3.066,0 0,-18.278 -3.066,0 c -0.464,0 -0.753,-0.291 -0.753,-0.753 l 0,-3.585 c 0,-0.465 0.289,-0.749 0.753,-0.749 l 7.003,0 c 1.093,0 1.618,0.344 1.559,1.437 l -0.063,3.13 0.18,0 c 0.464,-0.756 2.717,-4.979 9.021,-4.979 4.166,0 7.062,1.849 8.504,4.803 0.64,-1.04 2.954,-4.803 8.972,-4.803 6.25,0 9.664,4.11 9.664,10.13 l 0.057,13.648 3.065,0 c 0.521,0 0.754,0.289 0.754,0.758 l 0,3.584 c 0,0.465 -0.285,0.751 -0.754,0.751 l -6.711,0 z"
           inkscape:connector-curvature="0" />
        <path
           id="path4634"
           d="m 184.916,82.696 c 0.398,5.789 4.449,8.512 8.564,8.512 4.68,0 8.041,-3.134 8.562,-4.112 0.344,-0.344 0.751,-0.462 1.152,-0.118 l 2.2,2.376 c 0.407,0.344 0.464,0.691 0.175,1.153 -0.637,1.049 -4.627,6.02 -12.553,6.02 -8.044,0 -14.642,-5.437 -14.642,-14.752 0,-9.379 7.061,-14.526 14.002,-14.526 8.621,0 13.315,5.441 13.25,14.583 0,0.521 -0.405,0.865 -0.867,0.865 l -19.843,0 z m 14.518,-4.101 c -0.168,-3.591 -2.484,-6.367 -6.824,-6.367 -3.415,0 -6.885,1.789 -7.575,6.367 l 14.399,0 z"
           inkscape:connector-curvature="0" />
        <path
           id="path4636"
           d="m 208.903,81.774 c 0,-9.026 6.307,-14.526 14.755,-14.526 8.387,0 14.697,5.558 14.697,14.526 0,8.969 -6.076,14.752 -14.754,14.752 -8.619,0 -14.698,-5.725 -14.698,-14.752 z m 23.033,0 c 0,-5.67 -3.821,-9.141 -8.277,-9.141 -4.516,0 -8.334,3.471 -8.334,9.141 0,5.726 3.648,9.434 8.277,9.434 4.686,0 8.334,-3.708 8.334,-9.434 z"
           inkscape:connector-curvature="0" />
      </g>
      <g
         id="g4638">
        <path
           id="path4640"
           d="m 46.332,81.103 c -0.016,-0.323 -0.067,-0.641 -0.077,-0.964 -0.017,-0.319 -0.2,-0.576 -0.219,-0.909 -0.033,-0.372 -0.176,-0.736 -0.274,-1.108 -0.101,-0.341 -0.2,-0.68 -0.294,-1.023 -0.021,-0.056 -0.014,-0.135 -0.048,-0.161 -0.192,-0.142 -0.152,-0.364 -0.223,-0.549 -0.025,-0.068 -0.003,-0.159 -0.039,-0.214 -0.209,-0.323 -0.344,-0.679 -0.523,-1.014 -0.106,-0.21 -0.173,-0.453 -0.316,-0.64 -0.255,-0.33 -0.46,-0.698 -0.686,-1.049 -0.32,-0.489 -0.667,-0.959 -1.033,-1.419 -0.159,-0.199 -0.32,-0.387 -0.493,-0.575 -0.118,-0.135 -0.245,-0.271 -0.37,-0.396 0.125,-0.135 0.251,-0.263 0.378,-0.398 0.383,-0.397 0.708,-0.831 1.03,-1.266 0.21,-0.264 0.39,-0.546 0.57,-0.836 0.271,-0.44 0.57,-0.864 0.785,-1.338 0.094,-0.205 0.167,-0.436 0.298,-0.607 0.145,-0.182 0.128,-0.416 0.25,-0.58 0.125,-0.183 0.19,-0.378 0.231,-0.583 0.015,-0.044 -0.002,-0.118 0.022,-0.128 0.204,-0.111 0.193,-0.341 0.21,-0.508 0.027,-0.205 0.146,-0.361 0.207,-0.541 0.101,-0.265 0.027,-0.58 0.25,-0.806 0.068,-0.458 0.148,-0.9 0.255,-1.348 0.118,-0.506 0.099,-1.047 0.114,-1.57 0.017,-0.664 0.027,-1.328 0.007,-1.99 -0.017,-0.706 -0.063,-1.404 -0.104,-2.105 -0.009,-0.072 -0.019,-0.173 -0.067,-0.202 -0.113,-0.067 -0.085,-0.171 -0.098,-0.269 -0.021,-0.134 -0.051,-0.26 -0.056,-0.39 -0.01,-0.265 -0.166,-0.488 -0.193,-0.73 -0.063,-0.494 -0.313,-0.922 -0.378,-1.41 -0.009,-0.024 -0.009,-0.065 -0.021,-0.079 -0.199,-0.15 -0.178,-0.387 -0.233,-0.583 -0.022,-0.059 -0.005,-0.13 -0.036,-0.176 -0.216,-0.335 -0.351,-0.705 -0.53,-1.052 -0.101,-0.2 -0.166,-0.429 -0.306,-0.602 C 44.064,50.658 43.86,50.289 43.633,49.94 43.313,49.447 42.967,48.975 42.6,48.519 42.446,48.326 42.285,48.127 42.116,47.944 41.822,47.621 41.521,47.306 41.215,46.995 41.011,46.781 40.817,46.543 40.57,46.386 40.214,46.16 39.932,45.845 39.6,45.589 c -0.234,-0.175 -0.441,-0.404 -0.705,-0.523 -0.411,-0.185 -0.707,-0.575 -1.167,-0.674 -0.333,-0.321 -0.77,-0.472 -1.172,-0.65 -0.329,-0.15 -1.115,-0.417 -1.145,-0.441 -0.251,-0.207 -0.575,-0.224 -0.843,-0.355 -0.284,-0.134 -0.602,-0.113 -0.899,-0.26 -0.333,-0.167 -0.751,-0.111 -1.11,-0.263 -0.291,-0.117 -0.643,-0.083 -0.958,-0.113 -0.073,-0.007 -0.181,0.014 -0.21,-0.027 -0.148,-0.178 -0.347,-0.137 -0.528,-0.137 -3.16,-0.007 -6.326,-0.012 -9.488,-0.017 -0.074,0 -0.146,0.003 -0.221,0.014 -0.146,0.021 -0.192,0.137 -0.106,0.243 0.144,0.186 0.329,0.198 0.537,0.198 2.607,-0.009 5.212,-0.009 7.814,-0.007 0.457,0 0.922,-0.043 1.367,0.038 0.448,0.079 0.936,-0.067 1.348,0.221 0.431,0.029 0.843,0.094 1.252,0.263 0.404,0.169 0.843,0.258 1.266,0.38 0.031,0.007 0.076,0.007 0.083,0.024 0.167,0.241 0.52,0.157 0.688,0.395 0.404,0.106 0.739,0.346 1.091,0.551 0.173,0.1 0.344,0.195 0.501,0.315 0.323,0.232 0.681,0.431 0.987,0.694 0.222,0.188 0.453,0.381 0.694,0.544 0.327,0.216 0.59,0.482 0.852,0.753 0.409,0.424 0.776,0.886 1.163,1.326 0.068,0.077 0.156,0.131 0.221,0.21 0.025,0.038 0.008,0.103 0.014,0.159 -0.055,-0.001 -0.122,0.014 -0.152,-0.012 -0.282,-0.274 -0.612,-0.52 -0.826,-0.84 -0.274,-0.398 -2.809,-2.038 -3.154,-2.275 -0.333,-0.221 -0.73,-0.337 -1.095,-0.53 -0.4,-0.216 -0.83,-0.358 -1.254,-0.508 -0.359,-0.128 -1.745,-0.527 -1.866,-0.544 -0.303,-0.055 -0.605,-0.07 -0.915,-0.099 -0.101,-0.01 -0.245,0.01 -0.286,-0.048 -0.128,-0.144 -0.272,-0.115 -0.405,-0.115 -0.281,-0.008 -0.561,-0.019 -0.84,-0.019 -2.646,-0.01 -5.298,-0.01 -7.944,-0.01 -0.089,0 -0.175,-0.011 -0.265,0.005 -0.048,0.005 -0.115,0.044 -0.132,0.084 -0.077,0.167 0.044,0.345 0.232,0.349 0.118,0.009 0.234,0.003 0.353,0.003 2.328,0 4.647,-0.003 6.974,0 0.474,0 0.949,-0.024 1.409,0.038 0.447,0.059 0.934,-0.031 1.345,0.24 0.491,-0.014 0.908,0.241 1.361,0.338 0.206,0.045 0.397,0.147 0.582,0.236 0.187,0.072 0.423,0.005 0.542,0.221 0.412,0.125 0.77,0.349 1.137,0.551 0.135,0.07 0.245,0.188 0.387,0.248 0.226,0.103 0.421,0.232 0.601,0.4 0.041,0.038 0.073,0.087 0.12,0.106 0.292,0.126 0.534,0.304 0.751,0.541 0.236,0.246 0.561,0.366 0.799,0.626 0.15,0.178 0.325,0.346 0.496,0.513 0.214,0.222 0.414,0.469 0.655,0.65 0.273,0.206 0.289,0.597 0.6,0.77 0.017,0.008 -0.014,0.099 -0.021,0.157 -0.046,-0.014 -0.116,-0.009 -0.147,-0.044 -0.091,-0.089 -0.159,-0.195 -0.248,-0.292 -0.306,-0.31 -0.602,-0.625 -0.922,-0.922 -0.24,-0.216 -0.491,-0.411 -0.754,-0.592 -0.303,-0.205 -0.602,-0.424 -0.891,-0.638 -0.053,-0.04 -0.103,-0.098 -0.161,-0.122 -0.457,-0.164 -0.806,-0.534 -1.286,-0.648 -0.14,-0.197 -0.397,-0.159 -0.568,-0.272 -0.197,-0.133 -0.4,-0.205 -0.626,-0.25 -0.041,-0.007 -0.091,-0.007 -0.13,-0.029 -0.395,-0.262 -0.838,-0.404 -1.301,-0.457 -0.267,-0.029 -0.472,-0.202 -0.734,-0.216 -0.337,-0.017 -0.667,-0.058 -1.002,-0.097 -0.06,-0.002 -0.149,-0.009 -0.166,-0.043 -0.089,-0.156 -0.236,-0.106 -0.354,-0.111 -1.016,-0.029 -2.025,-0.07 -3.04,-0.077 -2.385,-0.01 -4.764,0 -7.147,0 -0.132,0 -0.265,0 -0.398,0.027 -0.048,0.014 -0.101,0.103 -0.101,0.161 -0.005,0.051 0.084,0.165 0.092,0.154 0.171,-0.069 0.299,0.279 0.472,0.044 0.33,0.234 0.705,0.056 1.056,0.103 0.062,0.014 0.139,-0.017 0.202,-0.046 0.333,-0.169 0.679,-0.063 1.021,-0.063 0.128,0.181 0.318,0.116 0.48,0.116 1.651,10e-4 3.3,10e-4 4.949,0 0.205,-0.007 1.199,0 1.394,0.007 0.308,0.014 0.618,-0.005 0.927,0.024 0.311,0.024 0.653,0.031 0.932,0.15 0.292,0.137 0.607,0.048 0.886,0.188 0.034,0.018 0.09,0 0.123,0.024 0.286,0.273 0.732,0.133 1.007,0.407 0.363,0.014 0.631,0.257 0.951,0.376 0.204,0.085 0.381,0.238 0.607,0.288 0.248,0.352 0.674,0.439 0.992,0.701 0.361,0.287 0.761,0.527 1.102,0.845 0.076,0.083 0.149,0.178 0.236,0.241 0.256,0.209 0.503,0.433 0.727,0.676 0.422,0.45 0.773,0.958 1.179,1.418 0.029,0.026 0.029,0.074 0.041,0.106 -0.053,0 -0.124,0.017 -0.158,-0.005 -0.263,-0.246 -0.521,-0.51 -0.783,-0.768 -0.301,-0.299 -0.563,-0.638 -0.905,-0.876 -0.308,-0.213 -0.618,-0.45 -0.927,-0.668 -0.332,-0.229 -0.691,-0.411 -1.023,-0.633 -0.161,-0.115 -0.349,-0.199 -0.523,-0.279 -0.299,-0.128 -0.636,-0.207 -0.898,-0.385 -0.312,-0.222 -0.719,-0.147 -1.009,-0.405 -0.458,-0.029 -2.01,-0.503 -2.142,-0.515 -0.467,-0.042 -0.936,-0.083 -1.404,-0.086 -1.469,-0.01 -2.942,-0.005 -4.412,0 -0.149,0 -0.291,0.027 -0.439,0.048 -0.091,0.007 -0.185,0.024 -0.176,0.142 0.007,0.137 0.042,0.269 0.193,0.296 0.097,0.021 0.205,0.012 0.311,0.012 1.518,0 3.033,-0.005 4.547,0 0.352,0.001 0.711,-0.019 1.054,0.032 0.335,0.048 0.666,0.072 0.997,0.21 0.325,0.128 0.689,0.142 1.02,0.296 0.322,0.156 0.672,0.233 1.002,0.37 0.224,0.101 0.441,0.226 0.66,0.356 0.353,0.226 0.705,0.446 1.043,0.692 0.292,0.207 0.582,0.437 0.845,0.689 0.503,0.472 0.99,0.958 1.473,1.451 0.161,0.167 0.286,0.376 0.417,0.573 0.027,0.034 -0.005,0.104 -0.014,0.159 -0.017,-0.029 -0.034,-0.075 -0.063,-0.092 -0.353,-0.215 -0.542,-0.624 -0.932,-0.804 -0.409,-0.489 -0.956,-0.809 -1.462,-1.188 -0.122,-0.092 -0.241,-0.202 -0.383,-0.246 -0.305,-0.085 -0.51,-0.388 -0.847,-0.394 -0.417,-0.351 -0.966,-0.428 -1.438,-0.67 -0.245,-0.12 -0.534,-0.161 -0.806,-0.246 -0.385,-0.124 -0.802,-0.168 -1.209,-0.26 -0.446,-0.111 -0.929,-0.099 -1.397,-0.103 -1.167,-0.016 -2.327,-0.009 -3.49,-0.009 -0.087,0 -0.178,0 -0.269,0.012 -0.116,0.007 -0.133,0.109 -0.116,0.191 0.01,0.055 0.074,0.133 0.126,0.14 0.108,0.022 0.229,0.014 0.346,0.014 1.119,0 2.236,0 3.351,0.005 0.123,0 0.286,-0.04 0.349,0.021 0.199,0.193 0.445,0.104 0.661,0.142 0.303,0.048 0.66,-0.01 0.903,0.128 0.312,0.172 0.703,0.125 0.963,0.392 0.485,0.094 0.889,0.338 1.312,0.575 0.479,0.267 0.917,0.604 1.377,0.893 0.352,0.217 0.634,0.551 0.927,0.862 0.413,0.435 0.809,0.89 1.203,1.348 0.029,0.032 0.01,0.104 0.019,0.157 -0.051,0 -0.118,0.014 -0.144,-0.007 -0.208,-0.215 -0.4,-0.438 -0.607,-0.646 C 36.432,51.372 36.232,51.139 35.99,50.983 35.667,50.755 35.345,50.526 35.013,50.321 34.548,50.034 34.05,49.801 33.574,49.553 33.383,49.459 33.189,49.367 32.994,49.3 32.696,49.202 32.392,49.177 32.093,49.038 31.742,48.874 31.318,48.889 30.933,48.785 30.5,48.67 30.03,48.679 29.571,48.679 c -2.027,-0.008 -4.056,-0.008 -6.084,-0.008 -0.135,0 -0.27,0 -0.397,0 -0.118,0 -0.145,0.07 -0.15,0.166 -0.017,0.164 0.072,0.202 0.21,0.2 0.47,-0.003 0.942,0 1.415,0 1.676,0 3.354,-0.003 5.032,0 0.161,0 0.354,-0.025 0.465,0.06 0.122,0.096 0.24,0.081 0.361,0.096 0.433,0.065 0.882,0.038 1.301,0.264 0.301,0.173 0.664,0.246 0.996,0.366 0.067,0.021 0.132,0.052 0.188,0.089 0.207,0.12 0.396,0.251 0.599,0.379 0.27,0.178 0.563,0.325 0.814,0.53 0.751,0.599 1.386,1.314 1.997,2.051 0.031,0.032 0.014,0.104 0.024,0.159 -0.055,-0.003 -0.127,0.014 -0.154,-0.008 C 36.084,52.932 35.974,52.83 35.889,52.72 35.644,52.422 35.348,52.193 35.08,51.929 34.798,51.66 34.401,51.577 34.177,51.252 33.766,51.126 33.419,50.881 33.039,50.701 32.724,50.561 32.389,50.527 32.067,50.38 31.744,50.229 31.352,50.239 30.998,50.104 30.716,49.997 30.392,50.003 30.084,50 27.07,49.997 24.051,49.997 21.039,49.993 c -0.091,0 -0.195,-0.012 -0.257,0.031 -0.06,0.034 -0.101,0.135 -0.111,0.21 0,0.039 0.097,0.106 0.149,0.113 0.12,0.019 0.236,0.007 0.354,0.007 2.713,0 5.417,0 8.128,0 0.228,0 0.465,0.003 0.698,0.012 0.087,0 0.214,0 0.248,0.048 0.087,0.131 0.206,0.113 0.315,0.113 0.621,-0.007 2.194,0.783 2.396,0.905 0.214,0.135 0.439,0.239 0.602,0.457 0.091,0.134 0.25,0.224 0.392,0.308 0.251,0.161 0.454,0.37 0.604,0.621 0.041,0.066 0.108,0.121 0.161,0.188 0.236,0.262 0.47,0.525 0.638,0.84 0.022,0.038 0,0.104 -0.002,0.159 -0.032,-0.038 -0.068,-0.084 -0.101,-0.122 -0.158,-0.176 -0.296,-0.394 -0.488,-0.511 -0.327,-0.197 -0.53,-0.554 -0.914,-0.662 -0.359,-0.383 -0.855,-0.53 -1.29,-0.773 -0.246,-0.135 -0.537,-0.142 -0.749,-0.287 -0.226,-0.15 -1.242,-0.38 -1.507,-0.394 -2.06,-0.029 -4.119,-0.029 -6.178,-0.032 -0.146,0 -0.221,0.046 -0.214,0.196 0.005,0.202 0.025,0.241 0.207,0.251 0.09,0.007 0.178,0 0.265,0 1.609,0 3.21,0 4.817,0 1.132,0 1.154,0.007 2.432,0.341 0.481,0.123 1.665,0.73 1.791,0.848 0.381,0.364 0.855,0.612 1.235,1.006 0.346,0.37 0.678,0.751 0.958,1.156 0.226,0.342 0.416,0.702 0.59,1.076 0.191,0.405 0.289,0.847 0.463,1.257 0.06,0.13 0.197,0.802 0.217,0.99 0.009,0.146 -0.012,0.292 0.016,0.439 0.077,0.353 0.07,0.698 0,1.043 -0.067,0.346 0.077,0.732 -0.183,1.047 -0.012,0.39 -0.152,0.746 -0.271,1.108 -0.094,0.272 -0.535,1.115 -0.607,1.252 -0.109,0.197 -0.188,0.419 -0.329,0.586 -0.311,0.375 -0.643,0.743 -0.989,1.086 -0.275,0.282 -0.563,0.566 -0.898,0.756 -0.219,0.13 -0.431,0.265 -0.67,0.37 -0.017,0.007 -0.033,0.014 -0.048,0.021 -0.118,-0.021 -0.241,-0.041 -0.361,-0.098 -0.279,-0.116 -0.631,-0.183 -0.948,-0.222 -0.072,-0.003 -0.525,-0.055 -0.695,-0.055 -3.176,-0.003 -6.353,-0.01 -9.534,-0.016 -0.07,0 -0.142,0.005 -0.217,0.016 -0.146,0.017 -0.19,0.131 -0.106,0.25 0.144,0.188 0.334,0.188 0.546,0.188 2.584,-0.005 5.174,-0.005 7.766,0 0.47,0 0.951,-0.046 1.406,0.034 0.45,0.073 0.939,-0.069 1.348,0.222 0.029,0 0.062,0.01 0.096,0.01 -0.38,0.181 -0.768,0.288 -1.165,0.388 -0.226,0.062 -0.506,0 -0.683,0.117 -0.096,0.068 -0.191,0.089 -0.286,0.106 -2.629,-0.005 -5.26,-0.005 -7.894,-0.01 -0.085,0 -0.174,-0.007 -0.26,0.01 -0.027,0 -0.05,0.012 -0.083,0.027 -0.342,0 -1.022,0 -1.022,0 l 0,-0.007 c 0,0 -1.66,0.003 -1.66,0.007 -0.457,0 -0.915,0 -1.375,0 -0.192,0 -0.38,0.005 -0.571,-0.003 -0.128,0 -0.193,0.038 -0.193,0.171 -0.007,0.122 0.031,0.202 0.167,0.193 0.091,0 0.178,0 0.265,0 0.582,0 1.743,0 1.743,0 l 1.485,0 c 0,0 0.804,0 1.211,0 0.04,0.025 0.089,0.046 0.133,0.046 0.118,0 0.241,0 0.354,0 2.327,0 4.646,0 6.973,0 0.474,0 0.954,-0.029 1.413,0.034 0.441,0.063 0.915,-0.024 1.319,0.231 -0.13,0.051 -0.269,0.089 -0.397,0.138 -0.246,0.092 -0.503,0.193 -0.761,0.26 -0.53,0.128 -1.067,0.167 -1.606,0.167 -0.187,0 -0.371,0 -0.56,0 -0.133,0 -0.269,-0.008 -0.402,-0.008 -0.503,-0.014 -0.999,0 -1.507,0 -2.075,0 -4.145,-0.003 -6.214,0 -0.06,0 -0.117,0.008 -0.18,0.008 -0.501,0 -1.516,0 -1.516,0 l -1.331,0 c 0,0 -4.574,0 -4.981,0 -0.101,0 -0.205,-0.005 -0.308,0.003 -0.042,0.009 -0.11,0.031 -0.111,0.055 -0.016,0.098 -0.031,0.206 -0.009,0.298 0.009,0.042 0.104,0.077 0.169,0.087 0.084,0.017 0.174,0.01 0.26,0.01 0.537,0 1.071,0 1.608,0 0.01,0 0.017,0 0.021,0.003 0.007,-0.003 0.007,-0.003 0.008,-0.003 1.088,0 3.264,0 3.264,0 l 1.468,0 c 0,0 1.011,0 1.521,0 0.035,0.017 0.07,0.017 0.104,0 0.084,0 0.164,0 0.245,0 0.288,0.091 0.599,-0.01 0.893,0.033 0.048,0.005 0.101,-0.016 0.152,-0.033 0.39,0 0.771,0 1.156,0 0.118,0.067 0.267,0.033 0.396,0.033 1.636,0 5.726,-0.033 5.878,-0.033 0.142,0.074 0.304,0.033 0.463,0.042 0.304,0.017 0.616,-0.004 0.924,0.025 0.314,0.021 0.653,0.031 0.937,0.156 0.128,0.058 0.264,0.07 0.397,0.081 -0.041,0.017 -0.075,0.032 -0.113,0.041 -0.077,0.017 -1.149,0.424 -1.362,0.441 -0.472,0.024 -0.934,0.074 -1.406,0.084 -0.582,0 -1.172,0 -1.755,0 -0.708,0 -1.401,-0.01 -2.104,0 -0.003,0 -0.012,0 -0.017,0 -0.599,0 -1.199,0 -1.792,0 0,0 -0.007,0 -0.01,0 -0.2,-0.014 -0.4,-0.01 -0.614,-0.01 l 0,0 c -0.189,0 -0.378,0 -0.569,0 -0.017,0 -0.029,0.01 -0.046,0.01 -0.776,0 -1.54,0 -2.318,0 -0.114,0 -0.232,0.003 -0.352,0 -0.118,-0.01 -0.175,0.438 0.024,0.448 0.111,0 0.347,0 0.347,0 0,0 3.702,0.017 3.717,0 l 0.002,0 c 0,0 0.776,0 1.162,0 0.019,0.007 0.027,0.034 0.055,0.034 0.101,0.021 0.208,0.01 0.313,0.01 1.514,0 3.027,-0.01 4.542,0 0.352,0 0.717,-0.021 1.061,0.034 0.333,0.046 0.666,0.072 0.999,0.205 0.065,0.029 0.147,0.052 0.222,0.067 -0.024,0 -0.044,0.014 -0.065,0.014 -0.017,0 -0.034,0 -0.048,0.003 -0.349,0.323 -0.862,0.144 -1.225,0.416 -0.457,0.026 -0.91,0.081 -1.365,0.081 -0.869,0.003 -1.738,0 -2.608,0 -0.156,0 -0.312,0 -0.462,0 -0.005,0 -0.017,0 -0.022,0 -0.484,0 -0.966,0.003 -1.452,0 -0.002,0 -0.002,0 -0.002,0 -0.025,0 -0.055,0 -0.077,0 -1.039,0 -2.066,0.003 -3.098,0.003 -0.161,0 -0.322,0 -0.486,0.017 -0.141,0.017 -0.185,0.15 -0.084,0.251 0.116,0.109 0.228,0.19 0.414,0.18 2.74,-0.003 5.472,-0.003 8.206,-0.003 0.109,0 0.593,0.06 0.699,0.06 0.613,-0.014 1.189,0.146 1.769,0.331 -0.152,0.058 -0.299,0.118 -0.448,0.145 -0.272,0.057 -0.59,0.014 -0.813,0.141 -0.198,0.113 -0.38,0.126 -0.57,0.13 -1.963,0.003 -3.916,0.008 -5.875,0.012 -0.118,0.009 -0.238,-0.008 -0.346,0.009 -0.038,0 -0.049,0.029 -0.072,0.039 -0.178,0 -0.359,0 -0.534,0 -0.14,0 -0.27,0 -0.404,0 -0.118,0 -0.138,0.07 -0.144,0.166 -0.017,0.168 0.072,0.202 0.214,0.202 0.275,-0.003 0.834,-0.003 0.834,-0.003 l 1.239,0 c 0,0 2.523,0 3.785,0 0.012,0.017 1.033,0.046 1.05,0.062 0.128,0.097 1.249,0.13 1.663,0.362 0.118,0.065 0.243,0.108 0.375,0.149 -0.044,0.014 -0.101,0.027 -0.142,0.043 -0.262,0.106 -1.516,0.284 -1.734,0.284 -1.485,0.014 -2.97,0.014 -4.459,0.017 -0.178,0 -0.349,-0.003 -0.53,0 -0.046,0.007 -0.12,0.031 -0.142,0.048 -1.35,0 -2.703,-0.005 -4.058,-0.008 -0.072,0 -0.147,-0.005 -0.217,0.012 -0.128,0.021 -0.173,0.126 -0.146,0.23 0.015,0.052 0.097,0.101 0.149,0.113 0.12,0.017 0.236,0.005 0.354,0.005 1.305,0 3.909,0 3.909,0 l 0.183,0 c 0,0 0.005,0 0.01,0 0.086,0.125 0.212,0.099 0.335,0.099 1.19,0 2.383,0 3.575,0 0.087,0 1.271,0.067 1.377,0.067 0.544,0 1.024,0.26 1.529,0.407 -0.094,0.048 -0.188,0.089 -0.301,0.089 -0.277,-0.009 -0.595,-0.017 -0.817,0.109 -0.206,0.109 -0.39,0.126 -0.589,0.126 -0.123,-0.034 -0.265,-0.017 -0.39,-0.017 -1.926,-0.01 -3.852,-0.01 -5.78,-0.014 -0.032,0 -0.06,0.003 -0.094,0.003 -0.101,-0.007 -0.158,0.034 -0.185,0.111 -0.003,0.01 -0.003,0.01 -0.003,0.017 -0.007,0.024 -0.019,0.036 -0.019,0.067 0,0.017 0,0.024 0,0.038 0,0.003 0,0.003 0,0.012 0,0 0.005,0 0.005,0.009 0.007,0.147 0.04,0.185 0.202,0.191 0.094,0.007 0.178,0 0.267,0 1.8,0.007 3.592,0.022 5.388,0 0.546,-0.007 1.536,0.277 2.027,0.371 0.029,0.003 0.073,0.007 0.083,0.024 0.075,0.144 0.219,0.147 0.342,0.188 -0.058,0.017 -0.113,0.025 -0.174,0.046 -0.269,0.115 -1.552,0.277 -1.731,0.277 -1.235,0.01 -2.472,0.01 -3.71,0.017 -0.031,-0.034 -0.092,-0.046 -0.193,-0.051 -0.079,0 -0.149,0 -0.221,0 -1.458,0 -2.91,0 -4.367,0 l 0,0 c -1.29,0 -2.581,0 -3.879,0 -0.231,0 -0.47,0 -0.705,0 -0.207,0.01 -0.234,0.038 -0.228,0.219 0.003,0.197 0.031,0.223 0.228,0.231 0.058,0 0.118,0 0.18,0 2.935,0 5.877,0 8.813,0 0.06,0 0.118,0 0.18,0 0.092,0 0.149,-0.012 0.18,-0.041 0.907,0 1.812,0 2.708,0 0.51,0 3.423,-0.303 3.63,-0.354 0.161,0.066 0.318,0.139 0.445,0.243 0.453,0.354 0.944,0.65 1.343,1.074 0.322,0.332 0.631,0.688 0.876,1.076 0.228,0.354 0.431,0.72 0.609,1.104 0.191,0.416 0.289,0.849 0.463,1.268 0.06,0.125 0.192,0.792 0.217,0.985 0.009,0.15 0.05,1.146 0.016,1.486 -0.036,0.334 -0.333,1.79 -0.457,2.155 -0.09,0.272 -0.532,1.117 -0.604,1.249 -0.113,0.195 -0.195,0.418 -0.329,0.589 -0.311,0.373 -0.643,0.742 -0.989,1.086 -0.275,0.277 -0.563,0.566 -0.898,0.756 -0.219,0.129 -0.436,0.264 -0.67,0.368 -0.229,0.098 -0.46,0.21 -0.686,0.326 -0.397,0.199 -0.809,0.303 -1.227,0.411 -0.226,0.06 -0.506,0 -0.683,0.118 -0.236,0.16 -0.472,0.104 -0.706,0.138 -0.087,0.006 -0.173,0 -0.264,0 -3.868,0 -7.74,0 -11.609,0 -0.192,0 -0.38,0 -0.571,-0.003 -0.128,-0.009 -0.193,0.029 -0.193,0.168 -0.007,0.124 0.031,0.201 0.167,0.196 0.091,-0.003 0.178,-0.003 0.265,-0.003 3.914,0 7.828,-0.006 11.743,0.003 0.86,0 1.704,-0.096 2.528,-0.353 0.052,-0.012 0.838,-0.275 0.881,-0.306 0.316,-0.247 0.754,-0.31 1.013,-0.65 0.51,-0.239 0.91,-0.601 1.272,-1.024 0.101,-0.111 0.217,-0.212 0.339,-0.316 0.031,-0.018 0.08,-0.031 0.118,-0.048 0.002,0.055 0.031,0.148 0.007,0.164 -0.208,0.142 -0.251,0.412 -0.429,0.571 -0.525,0.498 -0.938,1.133 -1.62,1.463 -0.222,0.333 -0.631,0.412 -0.925,0.646 -0.185,0.159 -0.46,0.205 -0.693,0.297 -0.246,0.098 -0.503,0.199 -0.761,0.261 -0.53,0.13 -1.067,0.171 -1.606,0.171 -2.729,0 -5.45,0 -8.168,0 -2.845,0 -5.683,0 -8.522,0 -0.101,0 -0.205,-0.004 -0.308,0 -0.042,0 -0.11,0.03 -0.111,0.051 -0.01,0.102 -0.031,0.206 -0.009,0.303 0.009,0.042 0.104,0.074 0.169,0.088 0.084,0.017 0.174,0.003 0.26,0.003 5.597,0.011 11.184,0.011 16.777,0.011 0.223,0 1.598,-0.211 1.748,-0.226 0.469,-0.065 0.898,-0.282 1.36,-0.361 0.125,-0.027 0.281,-0.031 0.378,-0.101 0.226,-0.173 0.491,-0.261 0.739,-0.371 0.394,-0.186 0.744,-0.428 1.083,-0.668 0.446,-0.321 0.903,-0.67 1.231,-1.136 0.015,-0.023 0.087,-0.037 0.108,-0.017 0.025,0.017 0.034,0.077 0.034,0.114 0,0.021 -0.021,0.059 -0.041,0.07 -0.38,0.318 -0.604,0.768 -0.996,1.074 -0.046,0.23 -0.298,0.205 -0.419,0.335 -0.313,0.357 -0.691,0.614 -1.089,0.847 -0.2,0.122 -0.424,0.188 -0.602,0.316 -0.301,0.223 -2.138,0.885 -2.351,0.9 -0.472,0.03 -0.934,0.08 -1.406,0.08 -3.072,0.009 -6.146,0.005 -9.227,0.005 -0.114,0 -0.232,0.004 -0.352,0 -0.149,-0.005 -0.209,0.063 -0.204,0.214 0.005,0.197 0.022,0.223 0.224,0.234 0.115,0 0.238,0 0.351,0 3.166,0 6.331,0 9.494,0 0.176,0 0.355,0 0.528,-0.008 0.096,-0.013 1.545,-0.209 2.034,-0.411 0.289,-0.121 0.607,-0.121 0.898,-0.277 0.133,-0.076 0.325,-0.053 0.46,-0.138 0.414,-0.252 0.883,-0.399 1.298,-0.68 0.106,-0.075 0.207,-0.18 0.33,-0.239 0.467,-0.202 0.867,-0.466 1.194,-0.851 0.113,-0.126 0.264,-0.219 0.399,-0.319 0.019,-0.018 0.042,-0.018 0.07,-0.031 0,0.038 0.017,0.065 0.01,0.089 -0.003,0.043 -0.01,0.093 -0.039,0.127 -0.313,0.298 -0.636,0.596 -0.943,0.898 -0.253,0.246 -0.539,0.447 -0.814,0.67 -0.325,0.266 -0.703,0.452 -1.028,0.717 -0.185,0.152 -0.443,0.202 -0.63,0.332 -0.185,0.134 -0.409,0.121 -0.569,0.271 -0.19,0.17 -0.414,0.186 -0.645,0.211 -0.027,0.005 -0.063,0 -0.081,0.012 -0.357,0.32 -0.867,0.139 -1.233,0.407 -0.457,0.038 -0.907,0.079 -1.365,0.079 -2.576,0.01 -5.149,0.007 -7.721,0.007 -0.161,0 -0.322,0.003 -0.486,0.023 -0.135,0.009 -0.178,0.147 -0.084,0.252 0.122,0.13 0.269,0.18 0.457,0.176 1.218,-0.007 2.444,0 3.663,0 1.442,0 2.886,0 4.328,-0.003 0.19,-0.004 0.409,0.069 0.571,-0.127 0.022,-0.032 0.109,-0.022 0.166,-0.022 0.641,-0.021 1.271,-0.036 1.88,-0.258 0.301,-0.109 0.626,-0.127 0.941,-0.271 0.265,-0.111 0.569,-0.154 0.834,-0.287 0.271,-0.131 0.583,-0.195 0.814,-0.37 0.176,-0.139 0.398,-0.152 0.559,-0.29 0.482,-0.397 1.107,-0.616 1.503,-1.14 0.022,-0.034 0.127,-0.005 0.193,-0.005 -0.015,0.055 -0.014,0.123 -0.042,0.155 -0.264,0.255 -0.519,0.523 -0.791,0.773 -0.287,0.258 -0.571,0.544 -0.903,0.754 -0.344,0.218 -0.696,0.419 -1.049,0.614 -0.409,0.236 -0.813,0.53 -1.305,0.583 -0.044,0.007 -0.101,0.018 -0.116,0.052 -0.128,0.185 -0.346,0.121 -0.513,0.193 -0.178,0.078 -0.359,0.146 -0.551,0.18 -0.272,0.055 -0.588,0.014 -0.813,0.139 -0.198,0.114 -0.38,0.132 -0.57,0.132 -1.955,0.007 -3.916,0.017 -5.869,0.017 -0.118,0 -0.234,-0.01 -0.353,0.007 -0.139,0.018 -0.202,0.121 -0.173,0.252 0.034,0.155 0.161,0.283 0.262,0.228 0.11,-0.072 5.489,-0.018 5.795,-0.018 0.063,-0.142 1.538,-0.121 2.14,-0.364 0.314,-0.132 0.686,-0.098 1.023,-0.271 0.229,-0.111 0.508,-0.128 0.756,-0.251 0.238,-0.116 0.498,-0.18 0.749,-0.288 0.351,-0.152 0.678,-0.354 1.013,-0.513 0.248,-0.113 0.479,-0.255 0.695,-0.394 0.21,-0.159 0.453,-0.285 0.662,-0.455 0.216,-0.162 0.4,-0.381 0.657,-0.506 0.28,-0.131 0.443,-0.398 0.668,-0.587 0.062,-0.057 0.137,-0.102 0.209,-0.147 -0.027,0.088 -0.043,0.185 -0.084,0.272 -0.024,0.048 -0.079,0.063 -0.122,0.109 -0.436,0.415 -0.806,0.893 -1.329,1.233 -0.296,0.191 -0.547,0.474 -0.834,0.699 -0.197,0.159 -0.417,0.28 -0.619,0.425 -0.204,0.135 -0.397,0.301 -0.654,0.386 -0.196,0.075 -0.422,0.172 -0.6,0.289 -0.464,0.32 -1.001,0.441 -1.492,0.668 -0.251,0.114 -0.542,0.101 -0.816,0.235 -0.232,0.122 -0.541,0.091 -0.819,0.125 -0.101,0.012 -0.246,-0.03 -0.296,0.029 -0.197,0.205 -0.438,0.142 -0.66,0.142 -1.485,0.014 -2.97,0.014 -4.459,0.021 -0.175,0 -0.347,-0.007 -0.527,0 -0.053,0 -0.15,0.027 -0.154,0.043 -0.014,0.13 -0.042,0.28 0.003,0.387 0.053,0.134 0.396,0.07 0.52,0.07 1.194,0 2.385,0 3.579,-0.004 0.085,0 0.214,0.009 0.25,-0.037 0.113,-0.156 0.258,-0.102 0.4,-0.109 0.481,-0.029 0.965,-0.089 1.449,-0.079 0.482,0.007 0.912,-0.243 1.387,-0.257 0.144,-0.003 0.314,0.014 0.429,-0.06 0.397,-0.234 0.849,-0.31 1.271,-0.448 0.303,-0.096 0.554,-0.306 0.877,-0.332 0.147,-0.212 0.435,-0.15 0.599,-0.285 0.38,-0.31 0.854,-0.432 1.232,-0.737 0.284,-0.226 0.617,-0.378 0.889,-0.628 0.126,-0.121 0.264,-0.236 0.417,-0.351 0.024,-0.018 0.103,0.017 0.15,0.039 0.009,0 0,0.089 -0.025,0.113 -0.118,0.118 -0.236,0.255 -0.37,0.34 -0.409,0.255 -0.698,0.64 -1.122,0.89 -0.351,0.209 -0.646,0.519 -1.011,0.737 -0.195,0.121 -0.431,0.173 -0.59,0.323 -0.212,0.2 -0.47,0.312 -0.717,0.437 -0.255,0.125 -0.541,0.188 -0.787,0.306 -0.234,0.115 -0.457,0.209 -0.715,0.247 -0.049,0.014 -0.101,0.007 -0.128,0.034 -0.169,0.201 -0.417,0.164 -0.633,0.228 -0.215,0.058 -0.427,0.133 -0.645,0.18 -0.258,0.046 -0.558,-0.004 -0.775,0.114 -0.366,0.2 -0.732,0.142 -1.091,0.142 -1.848,0.018 -3.687,0.013 -5.523,0.018 -0.118,0 -0.231,0 -0.353,0.003 -0.12,0.004 -0.132,0.093 -0.137,0.188 0,0.101 0.039,0.159 0.149,0.159 0.109,0 0.207,0 0.31,0 1.68,0 3.359,0.009 5.036,0 0.484,0 0.977,0.029 1.456,-0.034 0.472,-0.065 0.985,0.034 1.43,-0.229 0.537,0.009 1,-0.229 1.512,-0.323 0.123,-0.023 1.642,-0.61 1.876,-0.726 0.532,-0.26 1.04,-0.545 1.575,-0.788 0.421,-0.193 0.715,-0.563 1.168,-0.681 0.255,-0.364 0.718,-0.493 0.966,-0.871 0.026,-0.043 0.128,-0.029 0.199,-0.043 -0.012,0.061 0,0.147 -0.033,0.177 -0.448,0.428 -0.886,0.855 -1.363,1.25 -0.301,0.248 -0.619,0.474 -0.959,0.683 -0.253,0.152 -0.486,0.325 -0.748,0.462 -0.128,0.059 -0.811,0.563 -1.11,0.597 -0.431,0.368 -1.02,0.389 -1.474,0.688 -0.404,0.034 -0.754,0.267 -1.158,0.323 -0.224,0.027 -0.455,0.078 -0.686,0.188 -0.263,0.122 -0.602,0.082 -0.903,0.113 -0.101,0.009 -0.248,-0.018 -0.301,0.037 -0.154,0.182 -0.353,0.122 -0.523,0.13 -1.71,0.004 -3.413,0.004 -5.123,0.009 -0.123,0 -0.231,0 -0.351,0 -0.117,0.006 -0.147,0.081 -0.147,0.182 0,0.091 0.026,0.175 0.139,0.178 0.118,0.007 0.236,0.007 0.356,0.007 1.394,0 2.795,0 4.189,0 0.491,-0.007 0.979,0.027 1.459,-0.034 0.479,-0.066 0.991,0.041 1.436,-0.236 0.542,0.021 1.021,-0.229 1.546,-0.323 0.144,-0.023 2.001,-0.667 2.311,-0.809 0.247,-0.104 0.522,-0.18 0.736,-0.313 0.379,-0.232 0.806,-0.395 1.163,-0.677 0.128,-0.104 0.269,-0.206 0.424,-0.255 0.412,-0.151 0.708,-0.475 1.052,-0.705 0.495,-0.335 0.938,-0.763 1.369,-1.179 0.419,-0.396 0.809,-0.817 1.212,-1.236 0.375,-0.411 0.717,-0.853 1.057,-1.306 0.212,-0.282 0.394,-0.574 0.585,-0.872 0.262,-0.403 0.532,-0.792 0.729,-1.23 0.109,-0.229 0.178,-0.488 0.329,-0.684 0.138,-0.171 0.128,-0.377 0.232,-0.539 0.12,-0.185 0.207,-0.371 0.246,-0.58 0.012,-0.058 0,-0.155 0.029,-0.173 0.205,-0.116 0.188,-0.338 0.205,-0.501 0.027,-0.216 0.146,-0.367 0.207,-0.546 0.099,-0.27 0.033,-0.583 0.25,-0.811 0.068,-0.453 0.157,-0.897 0.255,-1.341 0.114,-0.521 0.101,-1.078 0.114,-1.62 0.024,-0.662 0.012,-1.322 0.012,-1.989 0.002,-0.318 -0.003,-0.641 -0.015,-0.964 z"
           inkscape:connector-curvature="0"
           style="fill:#458dcb" />
        <path
           id="path4642"
           d="m 26.495,87.922 c -0.083,0 -0.173,0.011 -0.262,0.011 -2.542,0 -5.085,0 -7.625,0 0,-0.011 0,-0.011 0,-0.011 -2.53,0 -5.058,0 -7.583,0 -0.104,0 -0.205,0 -0.308,0.011 -0.117,0.003 -0.139,0.077 -0.139,0.178 0,0.094 0.032,0.166 0.146,0.169 0.118,0 0.236,0.004 0.354,0.004 5.027,0 10.051,0 15.079,0 0.116,0 0.234,-0.004 0.352,-0.007 0.122,0 0.137,-0.086 0.137,-0.173 -0.001,-0.105 -0.033,-0.171 -0.151,-0.182 z"
           inkscape:connector-curvature="0"
           style="fill:#458dcb" />
        <path
           id="path4644"
           d="m 14.02,78.725 c -0.082,0.009 -0.231,0.05 -0.231,0.071 0.01,0.117 0.022,0.243 0.087,0.322 0.043,0.057 0.187,0.046 0.281,0.046 2.017,0.005 4.028,0.005 6.04,0.005 l 0,0 c 2.003,0 4,0 6.002,0 0.089,0 0.174,-0.008 0.262,0 0.142,0.013 0.176,-0.071 0.185,-0.189 0.014,-0.212 -0.012,-0.25 -0.234,-0.255 -0.089,-0.005 -0.178,0 -0.265,0 -3.911,0 -7.821,0 -11.728,0 -0.134,0 -0.273,-0.012 -0.399,0 z"
           inkscape:connector-curvature="0"
           style="fill:#458dcb" />
        <path
           id="path4646"
           d="m 26.495,83.947 c -0.113,0.003 -0.232,-0.006 -0.349,-0.006 -2.236,0 -4.47,0 -6.704,0 -2.271,0 -4.536,0 -6.799,0 -0.118,0 -0.234,-0.007 -0.351,0.018 -0.051,0.009 -0.106,0.092 -0.116,0.15 -0.019,0.089 0.01,0.176 0.126,0.189 0.106,0.009 0.202,0 0.303,0 4.521,0 9.039,0 13.551,0 0.116,0 0.237,0 0.352,0 0.122,-0.005 0.137,-0.089 0.137,-0.187 0,-0.089 -0.029,-0.164 -0.15,-0.164 z"
           inkscape:connector-curvature="0"
           style="fill:#458dcb" />
        <path
           id="path4648"
           d="m 26.508,85.272 c -0.132,-0.011 -0.263,-0.014 -0.398,-0.014 -1.82,0 -3.64,0 -5.47,0 -1.781,0 -3.558,0 -5.333,0 -0.163,0 -0.329,0.014 -0.486,0.017 -0.133,0 -0.183,0.061 -0.176,0.186 0.007,0.112 0.06,0.155 0.164,0.155 0.118,0.004 0.236,0.004 0.353,0.007 3.679,0 7.354,0 11.026,0 0.107,0 0.212,0 0.308,-0.003 0.118,0 0.15,-0.075 0.15,-0.168 -0.001,-0.096 -0.016,-0.177 -0.138,-0.18 z"
           inkscape:connector-curvature="0"
           style="fill:#458dcb" />
        <path
           id="path4650"
           d="m 26.501,89.601 c 0.118,0 0.144,-0.074 0.144,-0.172 0,-0.092 -0.012,-0.176 -0.133,-0.176 -0.118,-0.004 -0.239,-0.004 -0.355,-0.004 -1.749,0 -3.497,0 -5.25,0 -1.781,0 -3.562,0 -5.335,-0.01 -0.106,0 -0.209,0.01 -0.31,0 -0.137,0 -0.173,0.08 -0.173,0.207 0,0.107 0.06,0.154 0.161,0.157 0.085,0 0.174,0 0.265,0 3.562,0 7.116,0 10.679,0 0.1,0.001 0.205,-0.002 0.307,-0.002 z"
           inkscape:connector-curvature="0"
           style="fill:#458dcb" />
        <path
           id="path4652"
           d="m 26.501,81.31 c -0.103,0 -0.205,0 -0.306,0 -3.128,0 -6.261,0 -9.388,0 -0.087,0 -0.179,-0.014 -0.262,0 -0.089,0.015 -0.174,0.046 -0.25,0.09 -0.034,0.026 -0.041,0.102 -0.041,0.156 0,0.025 0.041,0.077 0.072,0.08 0.13,0.018 0.264,0.029 0.397,0.029 1.589,0 3.173,0 4.757,0 1.559,0 3.12,0 4.675,0 0.116,0 0.234,0 0.352,0 0.122,0 0.137,-0.084 0.137,-0.178 0.001,-0.104 -0.024,-0.177 -0.143,-0.177 z"
           inkscape:connector-curvature="0"
           style="fill:#458dcb" />
        <path
           id="path4654"
           d="m 26.508,86.584 c -0.109,0 -0.208,0 -0.313,0 -1.572,0 -3.139,0 -4.719,0 l 0,0 c -1.569,0 -3.139,0 -4.708,0 -0.132,0 -0.267,0.006 -0.394,0.022 -0.048,0.007 -0.12,0.062 -0.118,0.091 0.005,0.059 0.04,0.148 0.084,0.166 0.144,0.041 0.288,0.073 0.428,0.073 3.139,0.009 6.288,0.009 9.43,0.009 0.101,0 0.209,-0.009 0.31,-0.009 0.116,-0.003 0.137,-0.08 0.137,-0.181 0,-0.099 -0.022,-0.171 -0.137,-0.171 z"
           inkscape:connector-curvature="0"
           style="fill:#458dcb" />
        <path
           id="path4656"
           d="m 26.508,82.626 c -0.09,0 -0.176,0 -0.263,0 -1.473,0.007 -2.942,0 -4.412,0 -1.456,0 -2.91,0 -4.367,0 -0.083,0 -0.174,0.007 -0.265,0 -0.123,-0.005 -0.185,0.045 -0.185,0.177 0,0.128 0.049,0.191 0.183,0.188 0.103,-0.01 0.207,0 0.308,0 2.895,0 5.791,0 8.688,0 0.101,0 0.204,-0.01 0.306,-0.01 0.118,0 0.144,-0.07 0.144,-0.175 0,-0.096 -0.025,-0.173 -0.137,-0.18 z"
           inkscape:connector-curvature="0"
           style="fill:#458dcb" />
        <path
           id="path4658"
           d="m 23.245,77.857 c 0,0 0,0 0,-0.005 0.932,0 1.854,0 2.778,0 0.147,0 0.291,0.005 0.438,-0.005 0.057,0 0.149,-0.021 0.152,-0.059 0.027,-0.087 0.046,-0.202 0.012,-0.289 -0.015,-0.051 -0.133,-0.072 -0.208,-0.092 -0.06,-0.012 -0.12,0 -0.18,0 -1.984,0 -3.963,0 -5.944,0 -0.074,0 -0.152,0 -0.219,0 -0.152,-0.012 -0.219,0.051 -0.212,0.21 0,0.209 0.017,0.234 0.256,0.234 1.045,0.006 2.083,0.006 3.127,0.006 z"
           inkscape:connector-curvature="0"
           style="fill:#458dcb" />
        <path
           id="path4660"
           d="m 22.686,97.038 c -0.096,0.005 -0.262,0.025 -0.253,0.171 0.003,0.094 0.094,0.198 0.173,0.269 0.048,0.042 0.139,0.051 0.2,0.051 0.397,0.004 0.795,0 1.188,0.004 0.1,0 0.158,-0.027 0.183,-0.143 0.044,-0.297 0.002,-0.357 -0.306,-0.357 -0.161,0 -0.318,0 -0.48,0 l 0,0 c -0.234,-0.001 -0.468,-0.012 -0.705,0.005 z"
           inkscape:connector-curvature="0"
           style="fill:#458dcb" />
        <path
           id="path4662"
           d="m 11.195,91.802 c -0.243,0 -0.472,0 -0.703,0 l 0,0 c -0.251,0 -0.5,0 -0.753,0 -0.15,0 -0.146,0.118 -0.14,0.219 0.007,0.098 -0.01,0.223 0.14,0.223 0.486,0 0.972,0 1.458,0 0.169,0 0.167,-0.13 0.169,-0.246 0.009,-0.123 -0.046,-0.196 -0.171,-0.196 z"
           inkscape:connector-curvature="0"
           style="fill:#458dcb" />
        <path
           id="path4664"
           d="m 17.596,93.568 c 0.236,0 0.467,0 0.703,0 0.139,0 0.228,-0.023 0.223,-0.196 -0.007,-0.198 -0.024,-0.248 -0.209,-0.248 -0.455,-0.009 -0.912,0 -1.367,-0.004 -0.166,-0.005 -0.2,0.088 -0.191,0.218 0.005,0.126 0.005,0.239 0.183,0.23 0.217,-0.007 0.439,0 0.658,0 l 0,0 z"
           inkscape:connector-curvature="0"
           style="fill:#458dcb" />
        <path
           id="path4666"
           d="m 15.964,76.087 c -0.238,0 -0.47,0 -0.709,0 0,0 0,0 0,-0.005 -0.248,0 -0.5,0 -0.746,0.005 -0.15,0 -0.147,0.116 -0.135,0.217 0.002,0.096 -0.012,0.222 0.144,0.222 0.487,0 0.968,-0.008 1.454,-0.008 0.173,0.008 0.158,-0.13 0.163,-0.243 0.009,-0.127 -0.046,-0.188 -0.171,-0.188 z"
           inkscape:connector-curvature="0"
           style="fill:#458dcb" />
        <path
           id="path4668"
           d="m 12.559,78.725 c -0.233,0 -0.469,0 -0.705,0 0,0.005 0,0.009 0,0.016 -0.262,0 -0.534,-0.007 -0.79,0.01 -0.113,0 -0.169,0.139 -0.089,0.212 0.082,0.081 0.176,0.19 0.269,0.195 0.434,0.018 0.879,0.018 1.315,0.004 0.188,0 0.133,-0.159 0.147,-0.266 0.017,-0.1 -0.036,-0.171 -0.147,-0.171 z"
           inkscape:connector-curvature="0"
           style="fill:#458dcb" />
        <path
           id="path4670"
           d="m 22.764,74.756 c -0.209,0.003 -0.411,0.003 -0.623,0.003 -0.231,0 -0.465,0 -0.703,0 -0.096,-0.003 -0.139,0.04 -0.165,0.122 -0.003,0 -0.003,0.007 -0.003,0.014 -0.001,0.017 -0.017,0.029 -0.012,0.05 0.01,0.106 -0.031,0.253 0.154,0.26 0.458,0 0.907,0 1.365,0 0.101,0 0.128,-0.049 0.145,-0.108 0.012,-0.014 0.003,-0.021 0.012,-0.041 0,-0.017 0,-0.034 0,-0.051 0,-0.015 0,-0.039 0,-0.055 0.006,-0.122 -0.035,-0.198 -0.17,-0.194 z"
           inkscape:connector-curvature="0"
           style="fill:#458dcb" />
        <path
           id="path4672"
           d="m 19.955,94.438 c -0.228,-0.01 -0.463,-0.003 -0.694,-0.003 l 0,0.003 c -0.207,0 -0.411,-0.01 -0.616,0 -0.104,0.007 -0.272,-0.043 -0.272,0.125 0,0.094 0.101,0.193 0.171,0.265 0.04,0.042 0.139,0.052 0.202,0.052 0.292,0.007 0.91,-0.01 1.201,0.007 0.144,0.009 0.161,-0.229 0.161,-0.337 -0.001,-0.039 -0.094,-0.106 -0.153,-0.112 z"
           inkscape:connector-curvature="0"
           style="fill:#458dcb" />
        <path
           id="path4674"
           d="m 17.466,77.857 c 0.392,-0.014 0.789,-0.014 1.184,0 0.168,0.007 0.234,-0.069 0.234,-0.228 0,-0.182 -0.032,-0.217 -0.234,-0.223 -0.198,-0.005 -0.409,0 -0.609,0 -0.195,0 -0.385,-0.005 -0.573,0 -0.154,0.005 -0.247,0.099 -0.226,0.234 0.024,0.12 0.06,0.224 0.224,0.217 z"
           inkscape:connector-curvature="0"
           style="fill:#458dcb" />
        <path
           id="path4676"
           d="m 18.705,65.663 c -0.149,-0.005 -0.204,0.07 -0.193,0.217 0.01,0.118 0.003,0.236 0.176,0.231 0.426,-0.003 0.847,-0.003 1.267,0.005 0.18,0 0.168,-0.127 0.175,-0.236 0.005,-0.116 -0.012,-0.212 -0.158,-0.212 -0.217,-0.005 -0.438,0 -0.657,0 0,-0.005 0,-0.005 0,-0.005 -0.201,0 -0.405,0.005 -0.61,0 z"
           inkscape:connector-curvature="0"
           style="fill:#458dcb" />
        <path
           id="path4678"
           d="m 9.521,88.104 c 0,-0.101 -0.033,-0.168 -0.149,-0.171 -0.229,0 -0.463,0 -0.7,0 0,0.003 0,0.003 0,0.003 -0.26,0 -0.525,0 -0.79,0.013 -0.041,0 -0.103,0.078 -0.118,0.138 -0.015,0.089 0.009,0.186 0.126,0.186 0.496,0.005 0.994,0.005 1.49,0.005 0.119,-0.002 0.141,-0.079 0.141,-0.174 z"
           inkscape:connector-curvature="0"
           style="fill:#458dcb" />
        <path
           id="path4680"
           d="m 13.185,89.249 c -0.236,0 -0.472,-0.01 -0.7,0 -0.126,0.004 -0.226,0.021 -0.223,0.192 0.005,0.152 0.104,0.155 0.207,0.155 0.469,0.007 0.933,0.007 1.399,0.007 0.104,0 0.164,-0.041 0.164,-0.146 0.007,-0.112 -0.003,-0.209 -0.152,-0.209 -0.23,10e-4 -0.463,10e-4 -0.695,10e-4 z"
           inkscape:connector-curvature="0"
           style="fill:#458dcb" />
        <path
           id="path4682"
           d="m 14.509,90.564 c -0.113,0 -0.14,0.081 -0.14,0.179 0,0.096 0.027,0.174 0.14,0.174 0.236,0 0.469,0 0.707,0 l 0,0 c 0.25,0 0.5,0 0.749,0 0.094,0 0.165,-0.032 0.178,-0.146 10e-4,-0.129 -0.043,-0.2 -0.178,-0.2 -0.488,-0.007 -0.967,-0.007 -1.456,-0.007 z"
           inkscape:connector-curvature="0"
           style="fill:#458dcb" />
        <path
           id="path4684"
           d="m 15.234,82.633 c -0.236,0 -0.471,0 -0.705,0 -0.111,-0.007 -0.154,0.052 -0.161,0.156 0,0.098 0.007,0.188 0.128,0.188 0.501,0.004 0.997,0 1.497,0 0.111,0 0.14,-0.075 0.14,-0.174 0,-0.106 -0.041,-0.17 -0.152,-0.17 -0.251,0 -0.495,0 -0.747,0 l 0,0 z"
           inkscape:connector-curvature="0"
           style="fill:#458dcb" />
        <path
           id="path4686"
           d="m 15.167,81.31 c -0.412,0 -0.823,-0.006 -1.23,0 -0.079,0.003 -0.169,0.041 -0.239,0.08 -0.048,0.032 -0.084,0.111 -0.087,0.171 0,0.024 0.081,0.087 0.123,0.087 0.248,0.006 0.498,0 0.746,0 0,0.006 0,0.018 0,0.018 0.236,0 0.47,0 0.703,0 0.128,0 0.182,-0.053 0.18,-0.182 -10e-4,-0.139 -0.074,-0.174 -0.196,-0.174 z"
           inkscape:connector-curvature="0"
           style="fill:#458dcb" />
        <path
           id="path4688"
           d="m 20.373,72.387 c 0,0.125 0.053,0.185 0.183,0.185 0.445,0 0.883,0 1.321,0 0.135,0 0.179,-0.077 0.171,-0.199 0,-0.107 -0.057,-0.166 -0.159,-0.166 -0.222,0 -0.441,0 -0.66,0 -0.221,0 -0.443,0.007 -0.664,0 -0.121,0 -0.192,0.042 -0.192,0.18 z"
           inkscape:connector-curvature="0"
           style="fill:#458dcb" />
        <path
           id="path4690"
           d="m 12.078,85.63 c 0.207,0 0.417,0 0.619,0 0,-0.007 0,-0.01 0,-0.01 0.248,0 0.496,0 0.75,0 0.118,-0.004 0.147,-0.075 0.147,-0.18 0,-0.098 -0.029,-0.168 -0.147,-0.168 -0.457,-0.014 -0.91,-0.014 -1.369,-0.014 -0.139,0 -0.166,0.089 -0.166,0.21 0.005,0.111 0.062,0.155 0.166,0.162 z"
           inkscape:connector-curvature="0"
           style="fill:#458dcb" />
        <path
           id="path4692"
           d="m 23.592,99.669 c -0.222,-0.006 -0.435,-0.006 -0.651,-0.006 0,0.006 0,0.006 0,0.006 -0.25,0 -0.498,-0.006 -0.744,0 -0.118,0.003 -0.139,0.087 -0.139,0.183 0.003,0.098 0.034,0.171 0.149,0.171 0.467,0 0.93,0.007 1.397,-0.003 0.118,0 0.133,-0.084 0.133,-0.175 0,-0.101 -0.027,-0.176 -0.145,-0.176 z"
           inkscape:connector-curvature="0"
           style="fill:#458dcb" />
        <path
           id="path4694"
           d="m 9.786,84.299 c 0.407,0.004 0.821,0 1.227,0.004 0.121,0 0.191,-0.041 0.191,-0.177 0.01,-0.124 -0.046,-0.185 -0.176,-0.185 -0.221,0.006 -0.438,0 -0.657,0 -0.234,0 -0.47,-0.003 -0.701,0.014 -0.053,0 -0.124,0.081 -0.135,0.125 -0.002,0.06 0.038,0.144 0.082,0.185 0.036,0.034 0.111,0.034 0.169,0.034 z"
           inkscape:connector-curvature="0"
           style="fill:#458dcb" />
        <path
           id="path4696"
           d="m 22.817,98.702 c 0.124,-0.007 0.141,-0.116 0.106,-0.193 -0.027,-0.062 -0.111,-0.146 -0.176,-0.146 -0.221,-0.022 -0.44,-0.009 -0.655,-0.009 0,0 0,0 0,0.004 -0.236,0 -0.47,-0.004 -0.705,0 -0.118,0.005 -0.142,0.094 -0.125,0.185 0.008,0.055 0.068,0.152 0.111,0.152 0.478,0.007 0.961,0.007 1.444,0.007 z"
           inkscape:connector-curvature="0"
           style="fill:#458dcb" />
        <path
           id="path4698"
           d="m 13.902,86.59 c -0.05,0 -0.125,0.078 -0.13,0.133 -0.003,0.061 0.04,0.141 0.081,0.186 0.041,0.028 0.12,0.028 0.167,0.028 0.381,0.009 0.767,0 1.148,0 0.044,0 0.101,0.009 0.128,-0.015 0.055,-0.059 0.123,-0.124 0.138,-0.193 0.022,-0.104 -0.07,-0.145 -0.171,-0.145 -0.214,0 -0.438,0 -0.653,0 l 0,0 c -0.235,0 -0.472,-0.008 -0.708,0.006 z"
           inkscape:connector-curvature="0"
           style="fill:#458dcb" />
        <path
           id="path4700"
           d="m 19.471,73.528 c -0.19,0.008 -0.385,0 -0.577,0 0,0.003 0,0.003 0,0.008 -0.236,0 -0.472,-0.014 -0.701,0.004 -0.065,0.008 -0.161,0.104 -0.163,0.164 0,0.058 0.087,0.122 0.146,0.18 0.009,0.017 0.057,0.005 0.082,0.005 0.416,0 0.828,0 1.235,0 0.118,0 0.196,-0.025 0.196,-0.167 0.004,-0.165 -0.083,-0.2 -0.218,-0.194 z"
           inkscape:connector-curvature="0"
           style="fill:#458dcb" />
        <path
           id="path4702"
           d="m 15.614,67.428 c 0.294,0 0.582,-0.007 0.871,0 0.178,0.003 0.178,-0.111 0.183,-0.226 0.017,-0.132 -0.017,-0.229 -0.183,-0.219 -0.126,0.01 -0.262,0 -0.392,0 l 0,0 c -0.159,0 -0.316,0.005 -0.479,0 -0.116,0 -0.19,0.038 -0.195,0.173 0,0.188 0.046,0.265 0.195,0.272 z"
           inkscape:connector-curvature="0"
           style="fill:#458dcb" />
        <path
           id="path4704"
           d="m 13.715,77.407 c -0.142,0 -0.156,0.096 -0.149,0.21 0.007,0.111 -0.017,0.24 0.167,0.24 0.289,-0.005 0.578,-0.01 0.874,-0.005 0.144,0.005 0.2,-0.063 0.2,-0.21 0,-0.188 -0.021,-0.222 -0.222,-0.234 -0.14,-0.008 -0.288,0 -0.431,0 -0.146,-0.001 -0.294,-0.001 -0.439,-0.001 z"
           inkscape:connector-curvature="0"
           style="fill:#458dcb" />
        <path
           id="path4706"
           d="m 14.033,93.12 c -0.114,-0.005 -0.232,0 -0.345,0 -0.077,0 -0.152,0 -0.223,0 -0.087,0 -0.171,-0.005 -0.258,0.013 -0.055,0.008 -0.118,0.034 -0.144,0.075 -0.081,0.164 0.026,0.353 0.207,0.36 0.279,0 0.558,0 0.83,0 0.132,0 0.185,-0.037 0.197,-0.173 0.005,-0.232 -0.023,-0.271 -0.264,-0.275 z"
           inkscape:connector-curvature="0"
           style="fill:#458dcb" />
        <path
           id="path4708"
           d="m 11.717,76.077 c -0.142,0.005 -0.291,0 -0.431,0 0,0 0,0.005 0,0.01 -0.144,0 -0.294,0 -0.436,0 -0.126,0 -0.188,0.062 -0.18,0.183 0.012,0.114 -0.021,0.248 0.163,0.248 0.301,0.008 0.605,0.008 0.917,0.008 0.172,0 0.155,-0.126 0.167,-0.239 0.012,-0.139 -0.037,-0.217 -0.2,-0.21 z"
           inkscape:connector-curvature="0"
           style="fill:#458dcb" />
        <path
           id="path4710"
           d="M 8.339,79.161 C 8.462,79.157 8.562,78.975 8.541,78.829 8.519,78.716 8.423,78.725 8.339,78.725 c -0.128,-0.005 -0.262,0 -0.392,0 0,-0.005 0,-0.009 0,-0.012 -0.198,0.012 -0.407,0.017 -0.601,0.041 -0.041,0.008 -0.109,0.135 -0.096,0.152 0.075,0.096 0.166,0.237 0.26,0.246 0.275,0.033 0.55,0.023 0.829,0.009 z"
           inkscape:connector-curvature="0"
           style="fill:#458dcb" />
        <path
           id="path4712"
           d="m 15.776,66.116 c 0.167,0.003 0.178,-0.104 0.188,-0.236 0,-0.13 -0.031,-0.222 -0.188,-0.222 -0.262,0.01 -0.525,0 -0.787,0.01 -0.052,0 -0.142,0.024 -0.147,0.055 -0.022,0.094 -0.034,0.2 -0.017,0.296 0.012,0.038 0.108,0.081 0.173,0.084 0.126,0.017 0.257,0.005 0.387,0.005 0,0.003 0,0.003 0,0.009 0.13,-0.001 0.256,-0.01 0.391,-0.001 z"
           inkscape:connector-curvature="0"
           style="fill:#458dcb" />
        <path
           id="path4714"
           d="m 15.735,94.435 c -0.116,0 -0.228,0 -0.34,0 l 0,0.003 c -0.149,0 -0.296,0 -0.438,0 -0.115,0 -0.159,0.066 -0.152,0.168 0.016,0.101 -0.034,0.26 0.135,0.267 0.275,0.018 0.554,0.022 0.823,0 0.149,-0.017 0.191,-0.162 0.198,-0.296 0.003,-0.149 -0.12,-0.139 -0.226,-0.142 z"
           inkscape:connector-curvature="0"
           style="fill:#458dcb" />
        <path
           id="path4716"
           d="M 9.355,85.275 C 9.035,85.272 8.712,85.272 8.396,85.272 8.297,85.261 8.216,85.286 8.216,85.4 c -0.005,0.115 0.041,0.206 0.167,0.216 0.157,0.014 0.32,0.004 0.484,0.004 0.154,0 0.316,-0.004 0.477,0 0.132,0 0.176,-0.063 0.171,-0.188 -0.004,-0.114 -0.056,-0.157 -0.16,-0.157 z"
           inkscape:connector-curvature="0"
           style="fill:#458dcb" />
        <path
           id="path4718"
           d="m 19.458,99.663 c -0.142,-0.005 -0.289,0 -0.433,0 0,0.006 0,0.013 0,0.016 -0.175,0 -0.349,-0.003 -0.523,0 -0.115,0 -0.142,0.073 -0.142,0.173 0,0.106 0.044,0.164 0.156,0.164 0.32,0.004 0.641,0.018 0.956,0.004 0.062,-0.004 0.156,-0.095 0.164,-0.163 0.027,-0.105 -0.05,-0.194 -0.178,-0.194 z"
           inkscape:connector-curvature="0"
           style="fill:#458dcb" />
        <path
           id="path4720"
           d="m 11.76,90.582 c -0.178,-0.012 -0.356,-0.004 -0.53,-0.004 0,-0.008 0,-0.014 0,-0.014 -0.163,0 -0.322,0 -0.484,0 -0.104,0 -0.159,0.05 -0.163,0.165 -0.005,0.117 0.038,0.193 0.171,0.193 0.279,0 0.561,0.003 0.84,-0.006 0.066,0 0.14,-0.032 0.195,-0.075 0.048,-0.037 0.082,-0.112 0.091,-0.167 0,-0.028 -0.081,-0.092 -0.12,-0.092 z"
           inkscape:connector-curvature="0"
           style="fill:#458dcb" />
        <path
           id="path4722"
           d="m 10.277,86.937 c 0.25,0.009 0.503,0.009 0.751,0 0.084,-0.003 0.174,-0.046 0.243,-0.08 0.038,-0.024 0.079,-0.101 0.079,-0.134 -0.007,-0.041 -0.063,-0.099 -0.106,-0.109 -0.187,-0.023 -0.382,-0.029 -0.573,-0.046 0,0.009 0,0.017 0,0.017 -0.161,0 -0.322,-0.008 -0.477,0.006 -0.045,0.003 -0.117,0.062 -0.128,0.096 0,0.063 0.017,0.144 0.055,0.191 0.027,0.044 0.103,0.059 0.156,0.059 z"
           inkscape:connector-curvature="0"
           style="fill:#458dcb" />
        <path
           id="path4724"
           d="m 11.762,82.626 c -0.146,0 -0.288,0 -0.429,0 0,0.007 0,0.007 0,0.007 -0.165,0 -0.325,0 -0.488,0 -0.121,0 -0.183,0.061 -0.174,0.185 0,0.11 0.053,0.159 0.163,0.159 0.301,0.004 0.616,0.004 0.917,0.014 0.104,0 0.167,-0.042 0.167,-0.152 0.003,-0.111 -0.013,-0.206 -0.156,-0.213 z"
           inkscape:connector-curvature="0"
           style="fill:#458dcb" />
        <path
           id="path4726"
           d="m 20.53,70.897 c -0.306,0 -0.616,0 -0.92,-0.003 -0.139,0 -0.168,0.081 -0.168,0.202 0.007,0.108 0.06,0.151 0.165,0.151 0.144,0 0.291,0 0.435,0 0.162,0 0.328,0 0.485,0 0.096,0 0.158,-0.04 0.158,-0.144 -10e-4,-0.119 -0.011,-0.209 -0.155,-0.206 z"
           inkscape:connector-curvature="0"
           style="fill:#458dcb" />
        <path
           id="path4728"
           d="M 6.998,83.964 C 6.825,83.947 6.65,83.942 6.473,83.939 c 0,0.003 0,0.003 0,0.003 -0.146,0 -0.292,0 -0.439,0 -0.118,0 -0.202,0.061 -0.202,0.178 0,0.132 0.084,0.18 0.202,0.18 0.263,0.004 0.525,0.009 0.792,0 0.066,0 0.146,-0.034 0.198,-0.071 0.048,-0.038 0.087,-0.108 0.091,-0.164 10e-4,-0.026 -0.076,-0.097 -0.117,-0.101 z"
           inkscape:connector-curvature="0"
           style="fill:#458dcb" />
        <path
           id="path4730"
           d="m 14.362,73.704 c -0.005,0.118 0.039,0.185 0.176,0.185 0.144,-0.005 0.287,0 0.433,0 0,-0.005 0,-0.008 0,-0.017 0.173,0 0.353,0.009 0.523,0 0.036,-0.005 0.098,-0.067 0.101,-0.106 0.008,-0.044 -0.021,-0.122 -0.058,-0.146 -0.072,-0.042 -0.156,-0.08 -0.241,-0.084 -0.262,-0.014 -0.525,-0.005 -0.787,0 -0.108,0 -0.147,0.067 -0.147,0.168 z"
           inkscape:connector-curvature="0"
           style="fill:#458dcb" />
        <path
           id="path4732"
           d="m 18.806,98.522 c -0.003,-0.13 -0.072,-0.171 -0.198,-0.171 -0.247,0 -0.489,-0.005 -0.737,0.003 -0.081,0.004 -0.173,0.038 -0.241,0.084 -0.04,0.021 -0.065,0.091 -0.055,0.142 0.003,0.04 0.055,0.098 0.094,0.104 0.178,0.018 0.345,0.018 0.517,0.031 0,-0.005 0,-0.005 0.008,-0.014 0.144,0 0.288,0 0.435,0 0.124,0.01 0.179,-0.04 0.177,-0.179 z"
           inkscape:connector-curvature="0"
           style="fill:#458dcb" />
        <path
           id="path4734"
           d="m 17.68,72.214 c -0.133,0 -0.263,0 -0.395,0 -0.159,0 -0.32,0 -0.482,0 -0.118,0 -0.135,0.089 -0.135,0.176 0,0.101 0.026,0.178 0.147,0.178 0.291,0 0.58,0.003 0.874,0 0.109,0 0.137,-0.086 0.137,-0.182 0,-0.1 -0.031,-0.172 -0.146,-0.172 z"
           inkscape:connector-curvature="0"
           style="fill:#458dcb" />
        <path
           id="path4736"
           d="M 9.873,89.421 C 9.87,89.319 9.835,89.249 9.723,89.249 c -0.277,-0.01 -0.556,0.004 -0.836,0 -0.126,-0.01 -0.166,0.063 -0.174,0.188 0,0.134 0.073,0.166 0.191,0.166 0.118,-0.003 0.234,0 0.351,0 0,-0.003 0,-0.003 0,-0.003 0.163,0 0.323,0.003 0.481,0 0.12,-0.003 0.137,-0.087 0.137,-0.179 z"
           inkscape:connector-curvature="0"
           style="fill:#458dcb" />
        <path
           id="path4738"
           d="m 11.062,81.31 c -0.144,0 -0.294,0 -0.441,0 -0.144,0 -0.294,0 -0.439,0 -0.106,0.003 -0.149,0.073 -0.149,0.178 0,0.094 0.027,0.178 0.142,0.178 0.288,0 0.588,0 0.879,0 0.109,0 0.144,-0.07 0.144,-0.171 -0.001,-0.102 -0.02,-0.182 -0.136,-0.185 z"
           inkscape:connector-curvature="0"
           style="fill:#458dcb" />
        <path
           id="path4740"
           d="m 5.125,87.922 c -0.118,0 -0.231,0 -0.349,0 l 0,0.011 c -0.163,0 -0.325,-0.021 -0.484,0.003 -0.117,0.013 -0.175,0.118 -0.135,0.226 0.015,0.05 0.09,0.115 0.149,0.115 0.27,0.007 0.556,0.007 0.83,0.007 0.107,0 0.159,-0.062 0.164,-0.163 0.008,-0.122 -0.038,-0.199 -0.175,-0.199 z"
           inkscape:connector-curvature="0"
           style="fill:#458dcb" />
        <path
           id="path4742"
           d="m 6.445,91.802 c -0.043,-0.004 -0.087,0 -0.135,0 l 0,0 c -0.07,0 -0.144,0 -0.215,0 -0.152,-0.018 -0.207,0.057 -0.2,0.212 0.005,0.191 0.022,0.223 0.219,0.232 0.101,0.011 0.206,0.011 0.31,0 C 6.582,92.236 6.695,92.1 6.674,91.93 6.656,91.777 6.541,91.812 6.445,91.802 Z"
           inkscape:connector-curvature="0"
           style="fill:#458dcb" />
        <path
           id="path4744"
           d="m 26.508,64.741 c 0.122,0 0.137,-0.084 0.137,-0.178 0,-0.101 -0.032,-0.175 -0.15,-0.175 -0.083,-0.005 -0.173,0 -0.262,0 -2.542,0 -5.085,0 -7.625,0 l 0,0 c -2.53,0 -5.058,0 -7.583,0 -0.104,0 -0.205,-0.005 -0.308,0 -0.117,0.003 -0.139,0.087 -0.139,0.18 0,0.099 0.032,0.173 0.146,0.173 0.118,0.003 0.236,0.003 0.354,0.003 5.027,0 10.051,0 15.079,0 0.115,0 0.233,0 0.351,-0.003 z"
           inkscape:connector-curvature="0"
           style="fill:#458dcb" />
        <path
           id="path4746"
           d="m 26.411,55.181 c -0.089,0 -0.178,0 -0.265,0 -3.911,0 -7.821,0 -11.728,0 -0.134,0 -0.272,-0.009 -0.399,0.008 -0.082,0.009 -0.231,0.046 -0.231,0.067 0.01,0.113 0.022,0.248 0.087,0.325 0.043,0.057 0.187,0.041 0.281,0.041 2.017,0.007 4.028,0.003 6.04,0.003 l 0,0.003 c 2.003,0 4,0 6.002,0 0.089,0 0.174,-0.007 0.262,0 0.142,0.017 0.176,-0.065 0.185,-0.185 0.014,-0.216 -0.012,-0.254 -0.234,-0.262 z"
           inkscape:connector-curvature="0"
           style="fill:#458dcb" />
        <path
           id="path4748"
           d="m 26.495,60.408 c -0.113,0 -0.232,0 -0.349,0 -2.236,0 -4.47,0 -6.704,0 l 0,0 c -2.271,0 -4.536,0 -6.799,0 -0.118,0 -0.234,-0.014 -0.351,0.012 -0.051,0.008 -0.106,0.091 -0.116,0.152 -0.019,0.087 0.01,0.174 0.126,0.188 0.106,0.007 0.202,0.003 0.303,0.003 4.521,0 9.039,0 13.551,0 0.116,0 0.237,0 0.355,-0.003 0.118,-0.007 0.133,-0.089 0.133,-0.181 0.001,-0.098 -0.028,-0.171 -0.149,-0.171 z"
           inkscape:connector-curvature="0"
           style="fill:#458dcb" />
        <path
           id="path4750"
           d="m 17.244,52.538 c -0.207,0.009 -0.234,0.04 -0.228,0.222 0.003,0.197 0.031,0.223 0.228,0.231 0.058,0 0.118,0 0.18,0 2.935,0 5.877,0 8.813,0 0.06,0 0.118,0 0.18,0 0.197,-0.008 0.224,-0.034 0.229,-0.231 0.009,-0.179 -0.021,-0.208 -0.229,-0.222 -0.079,-0.003 -0.149,0 -0.221,0 -1.458,-0.003 -2.91,-0.003 -4.367,-0.003 0,0.003 0,0.003 0,0.003 -1.29,0 -2.581,0 -3.879,0 -0.232,0 -0.471,-0.004 -0.706,0 z"
           inkscape:connector-curvature="0"
           style="fill:#458dcb" />
        <path
           id="path4752"
           d="m 26.495,61.729 c -0.072,0 -0.144,-0.003 -0.215,-0.003 -3.736,0 -7.474,0 -11.206,0 -0.103,0 -0.207,0.007 -0.308,0.014 -0.128,0.01 -0.13,0.111 -0.115,0.195 0.014,0.051 0.077,0.125 0.13,0.139 0.108,0.021 0.233,0.012 0.347,0.012 1.82,0 3.649,0 5.471,0 1.854,0 3.708,0 5.558,0 0.116,0 0.234,0 0.352,0 0.116,-0.008 0.137,-0.087 0.137,-0.185 -0.001,-0.097 -0.03,-0.176 -0.151,-0.172 z"
           inkscape:connector-curvature="0"
           style="fill:#458dcb" />
        <path
           id="path4754"
           d="m 26.501,57.773 c -0.103,-0.005 -0.205,-0.01 -0.306,-0.01 -3.128,0 -6.261,0 -9.388,0.005 -0.087,0 -0.179,-0.012 -0.262,0.005 -0.089,0.016 -0.174,0.041 -0.25,0.093 -0.034,0.024 -0.041,0.099 -0.041,0.145 0,0.034 0.041,0.081 0.072,0.087 0.135,0.014 0.264,0.031 0.397,0.031 1.589,0 3.173,0 4.757,0 l 0,0 c 1.559,0 3.12,0 4.675,0 0.116,0 0.237,0 0.352,0 0.122,-0.003 0.137,-0.089 0.137,-0.181 0.001,-0.095 -0.024,-0.175 -0.143,-0.175 z"
           inkscape:connector-curvature="0"
           style="fill:#458dcb" />
        <path
           id="path4756"
           d="m 26.508,63.045 c -0.109,0 -0.208,0 -0.313,0 -1.572,0 -3.139,0 -4.719,0 l 0,0 c -1.569,0 -3.139,0 -4.708,0 -0.132,0 -0.267,0.003 -0.394,0.021 -0.048,0.003 -0.12,0.067 -0.118,0.098 0.005,0.058 0.04,0.149 0.084,0.159 0.144,0.041 0.288,0.08 0.428,0.08 3.139,0 6.288,0 9.43,0 0.101,0 0.209,0 0.31,0 0.116,-0.01 0.137,-0.09 0.137,-0.181 0,-0.101 -0.022,-0.177 -0.137,-0.177 z"
           inkscape:connector-curvature="0"
           style="fill:#458dcb" />
        <path
           id="path4758"
           d="m 26.501,59.085 c -0.049,0 -0.085,0 -0.128,0 -3.021,0 -6.029,0 -9.045,0 -0.068,0 -0.157,-0.012 -0.21,0.021 -0.053,0.022 -0.098,0.104 -0.098,0.165 0.001,0.058 0.051,0.155 0.101,0.163 0.113,0.031 0.234,0.014 0.345,0.014 1.44,0 2.877,0 4.323,0 0,0 0,0 0,0.008 1.456,0 2.913,0 4.367,-0.008 0.114,0 0.234,0 0.352,0 0.116,-0.003 0.137,-0.089 0.137,-0.18 0,-0.102 -0.029,-0.179 -0.144,-0.183 z"
           inkscape:connector-curvature="0"
           style="fill:#458dcb" />
        <path
           id="path4760"
           d="m 26.376,53.863 c -1.033,0 -2.054,0 -3.085,0 -0.601,0 -1.199,0 -1.81,0 -0.463,0 -0.93,0 -1.408,0.003 -0.195,0.01 -0.212,0.048 -0.212,0.243 -0.007,0.148 0.053,0.219 0.202,0.205 0.06,-0.003 0.125,-0.003 0.178,-0.003 1.986,0 3.967,0 5.946,0 0.092,0 0.181,0 0.265,0.003 0.13,0.014 0.188,-0.048 0.193,-0.174 0.014,-0.236 -0.012,-0.273 -0.269,-0.277 z"
           inkscape:connector-curvature="0"
           style="fill:#458dcb" />
        <path
           id="path4762"
           d="m 17.73,45.208 c 0.163,0.001 0.328,0.001 0.486,0.001 l 0,-0.001 c 0.236,0 0.467,0.001 0.699,0 0.182,-0.01 0.188,-0.171 0.21,-0.291 0.017,-0.113 -0.056,-0.198 -0.174,-0.205 -0.457,0 -0.91,0 -1.362,0.007 -0.042,0 -0.111,0.051 -0.123,0.092 -0.083,0.226 0.036,0.387 0.264,0.397 z"
           inkscape:connector-curvature="0"
           style="fill:#458dcb" />
        <path
           id="path4764"
           d="m 9.6,68.481 c 0.007,0.1 -0.01,0.221 0.14,0.221 0.486,0 0.972,0 1.458,0 0.169,0 0.167,-0.121 0.169,-0.238 0.008,-0.13 -0.046,-0.202 -0.171,-0.202 -0.236,0.009 -0.472,0 -0.703,0 l 0,0 c -0.251,0 -0.5,-0.003 -0.753,0 -0.151,0.001 -0.146,0.113 -0.14,0.219 z"
           inkscape:connector-curvature="0"
           style="fill:#458dcb" />
        <path
           id="path4766"
           d="m 14.518,52.982 c 0.487,0 0.968,0 1.454,0 0.173,0 0.158,-0.125 0.163,-0.243 0.01,-0.131 -0.046,-0.188 -0.169,-0.193 -0.238,0 -0.47,0 -0.709,0 l 0,0 c -0.248,0 -0.5,0 -0.746,0 -0.15,0 -0.147,0.121 -0.133,0.222 -0.003,0.093 -0.016,0.214 0.14,0.214 z"
           inkscape:connector-curvature="0"
           style="fill:#458dcb" />
        <path
           id="path4768"
           d="m 11.854,55.206 c -0.262,0 -0.534,-0.008 -0.79,0.003 -0.113,0.005 -0.169,0.139 -0.089,0.222 0.082,0.072 0.176,0.185 0.269,0.19 0.434,0.016 0.879,0.012 1.315,0 0.188,0 0.133,-0.164 0.147,-0.263 0.017,-0.103 -0.036,-0.169 -0.147,-0.178 -0.233,0 -0.469,0 -0.705,0 0,0.014 0,0.018 0,0.026 z"
           inkscape:connector-curvature="0"
           style="fill:#458dcb" />
        <path
           id="path4770"
           d="m 22.727,51.675 c 0.169,0.005 0.208,-0.083 0.214,-0.22 0,-0.118 -0.005,-0.234 -0.176,-0.234 -0.445,0.003 -0.888,0.003 -1.326,0 -0.169,0 -0.187,0.104 -0.185,0.226 0.009,0.135 0.034,0.231 0.2,0.222 0.207,-0.01 0.417,0 0.619,0 l 0,0 c 0.217,-10e-4 0.438,-0.005 0.654,0.006 z"
           inkscape:connector-curvature="0"
           style="fill:#458dcb" />
        <path
           id="path4772"
           d="m 18.058,54.315 c 0,-0.003 0,-0.003 0,-0.003 0.214,0 0.433,0 0.65,0 0.181,0.003 0.167,-0.125 0.167,-0.24 0.014,-0.113 -0.012,-0.205 -0.157,-0.205 -0.419,0 -0.844,0.01 -1.27,-0.003 -0.166,-0.003 -0.205,0.113 -0.205,0.222 0,0.106 0.031,0.236 0.2,0.229 0.196,-0.003 0.403,0 0.615,0 z"
           inkscape:connector-curvature="0"
           style="fill:#458dcb" />
        <path
           id="path4774"
           d="m 16.667,56.905 0,0 c 0.217,0 0.438,-0.003 0.659,0 0.181,0.003 0.164,-0.13 0.169,-0.248 0.012,-0.109 -0.017,-0.197 -0.161,-0.197 -0.422,0 -0.847,0 -1.264,-0.009 -0.171,-0.003 -0.206,0.11 -0.206,0.223 -0.005,0.104 0.029,0.234 0.193,0.234 0.205,-0.007 0.405,-0.003 0.61,-0.003 z"
           inkscape:connector-curvature="0"
           style="fill:#458dcb" />
        <path
           id="path4776"
           d="m 18.688,42.574 c 0.426,-0.005 0.847,-0.002 1.267,0 0.18,0.007 0.168,-0.123 0.175,-0.236 0.005,-0.109 -0.012,-0.208 -0.158,-0.208 -0.217,0 -0.438,0 -0.657,0 0,0 0,0 0,-0.003 -0.202,0 -0.405,0.005 -0.61,0 -0.149,-0.01 -0.204,0.077 -0.193,0.212 0.01,0.115 0.003,0.235 0.176,0.235 z"
           inkscape:connector-curvature="0"
           style="fill:#458dcb" />
        <path
           id="path4778"
           d="m 9.372,64.392 c -0.229,-0.003 -0.463,0 -0.7,0 0,0 0,0.003 0,0.009 -0.26,0 -0.525,-0.009 -0.79,0.003 -0.041,0 -0.103,0.08 -0.118,0.142 -0.015,0.085 0.009,0.186 0.126,0.186 0.496,0 0.994,0.009 1.49,0.009 0.118,0 0.14,-0.081 0.14,-0.178 0.001,-0.101 -0.032,-0.171 -0.148,-0.171 z"
           inkscape:connector-curvature="0"
           style="fill:#458dcb" />
        <path
           id="path4780"
           d="m 13.185,65.709 c -0.236,0 -0.472,-0.003 -0.7,0 -0.126,0 -0.226,0.021 -0.223,0.191 0.005,0.156 0.104,0.156 0.207,0.166 0.469,0 0.933,0 1.399,0 0.104,0 0.164,-0.038 0.164,-0.152 0.007,-0.104 -0.003,-0.205 -0.152,-0.205 -0.23,0 -0.463,0 -0.695,0 z"
           inkscape:connector-curvature="0"
           style="fill:#458dcb" />
        <path
           id="path4782"
           d="m 15.263,59.094 c 0,0 0,0 0,-0.005 -0.25,0 -0.5,0 -0.746,0 -0.117,0 -0.149,0.077 -0.149,0.178 0,0.099 0.024,0.176 0.14,0.176 0.489,0 0.968,0 1.456,-0.003 0.125,0 0.18,-0.065 0.178,-0.19 -0.014,-0.115 -0.072,-0.156 -0.171,-0.156 -0.239,0 -0.468,0 -0.708,0 z"
           inkscape:connector-curvature="0"
           style="fill:#458dcb" />
        <path
           id="path4784"
           d="m 24.788,47.712 c 0.122,0 0.195,-0.035 0.195,-0.171 0,-0.13 -0.062,-0.187 -0.185,-0.187 -0.416,0 -0.826,0 -1.235,0 -0.065,0.009 -0.139,0.027 -0.21,0.05 -0.085,0.034 -0.175,0.082 -0.128,0.188 0.021,0.053 0.104,0.106 0.157,0.106 0.231,0.011 0.471,0.011 0.707,0.011 0,0 0,0 0,0.003 0.233,0 0.468,-0.003 0.699,0 z"
           inkscape:connector-curvature="0"
           style="fill:#458dcb" />
        <path
           id="path4786"
           d="m 15.167,57.769 c -0.412,0 -0.823,-0.005 -1.23,0.005 -0.079,0.003 -0.169,0.033 -0.239,0.079 -0.048,0.031 -0.084,0.109 -0.087,0.164 0,0.029 0.081,0.089 0.123,0.089 0.248,0.007 0.498,0.007 0.746,0.007 0,0 0,0.003 0,0.017 0.236,0 0.47,0 0.703,0 0.128,0 0.182,-0.055 0.18,-0.185 -10e-4,-0.139 -0.074,-0.182 -0.196,-0.176 z"
           inkscape:connector-curvature="0"
           style="fill:#458dcb" />
        <path
           id="path4788"
           d="m 21.876,49.034 c 0.135,0 0.179,-0.073 0.171,-0.202 0,-0.108 -0.057,-0.164 -0.159,-0.164 -0.222,0 -0.441,0 -0.66,0 l 0,0.003 c -0.221,0 -0.443,0.005 -0.662,-0.003 -0.122,0 -0.193,0.039 -0.193,0.178 0,0.128 0.053,0.188 0.183,0.188 0.444,-0.003 0.882,0 1.32,0 z"
           inkscape:connector-curvature="0"
           style="fill:#458dcb" />
        <path
           id="path4790"
           d="m 12.078,62.084 c 0.207,0 0.417,0 0.619,0 l 0,0 c 0.248,0 0.496,0 0.75,0 0.118,-0.008 0.147,-0.079 0.147,-0.174 0,-0.101 -0.029,-0.178 -0.147,-0.178 -0.457,-0.003 -0.91,-0.007 -1.369,-0.007 -0.139,0 -0.166,0.083 -0.166,0.205 0.005,0.113 0.065,0.154 0.166,0.154 z"
           inkscape:connector-curvature="0"
           style="fill:#458dcb" />
        <path
           id="path4792"
           d="m 9.786,60.764 c 0.407,0 0.821,0 1.227,0 0.121,0 0.191,-0.043 0.191,-0.171 0.01,-0.132 -0.046,-0.185 -0.176,-0.185 -0.215,0 -0.438,0 -0.657,0 -0.234,0 -0.47,-0.008 -0.701,0.003 -0.053,0.005 -0.124,0.079 -0.135,0.13 -0.002,0.063 0.038,0.138 0.082,0.188 0.036,0.035 0.111,0.035 0.169,0.035 z"
           inkscape:connector-curvature="0"
           style="fill:#458dcb" />
        <path
           id="path4794"
           d="m 13.902,63.049 c -0.05,0 -0.125,0.084 -0.13,0.135 -0.003,0.058 0.04,0.139 0.081,0.185 0.041,0.034 0.113,0.034 0.167,0.034 0.381,0 0.767,0 1.148,0 0.044,0 0.101,0 0.128,-0.017 0.055,-0.056 0.123,-0.123 0.14,-0.195 0.021,-0.111 -0.072,-0.142 -0.173,-0.146 -0.219,0 -0.438,0 -0.653,0 l 0,0 c -0.235,0 -0.472,-0.013 -0.708,0.004 z"
           inkscape:connector-curvature="0"
           style="fill:#458dcb" />
        <path
           id="path4796"
           d="m 18.031,50.162 c 0,0.058 0.087,0.126 0.146,0.183 0.009,0.019 0.057,0.007 0.082,0.007 0.416,0 0.828,0 1.235,0 0.118,0.003 0.196,-0.029 0.196,-0.169 0.003,-0.161 -0.083,-0.198 -0.219,-0.191 -0.193,0.003 -0.385,0 -0.577,0 l 0,0.003 c -0.236,0 -0.472,-0.01 -0.701,0.007 -0.065,0.006 -0.16,0.1 -0.162,0.16 z"
           inkscape:connector-curvature="0"
           style="fill:#458dcb" />
        <path
           id="path4798"
           d="m 15.614,43.446 c -0.116,-0.005 -0.19,0.036 -0.195,0.171 0,0.191 0.046,0.263 0.195,0.267 0.294,0.009 0.585,0 0.871,0.003 0.178,0.007 0.178,-0.109 0.19,-0.226 0.01,-0.133 -0.024,-0.229 -0.19,-0.221 -0.126,0.01 -0.262,0.005 -0.392,0.005 l 0,0 c -0.159,10e-4 -0.317,10e-4 -0.479,10e-4 z"
           inkscape:connector-curvature="0"
           style="fill:#458dcb" />
        <path
           id="path4800"
           d="m 13.734,54.315 c 0.289,-0.003 0.578,-0.003 0.874,-0.003 0.144,0.003 0.2,-0.058 0.2,-0.209 0,-0.188 -0.021,-0.222 -0.222,-0.236 -0.14,-0.003 -0.288,-0.003 -0.431,-0.003 -0.147,0 -0.294,0 -0.439,0 -0.142,0 -0.156,0.101 -0.149,0.208 0.006,0.115 -0.018,0.25 0.167,0.243 z"
           inkscape:connector-curvature="0"
           style="fill:#458dcb" />
        <path
           id="path4802"
           d="m 14.033,69.582 c -0.114,0 -0.232,0 -0.345,0 -0.077,0 -0.152,0 -0.223,0 -0.087,0 -0.171,-0.01 -0.258,0.007 -0.055,0.01 -0.118,0.038 -0.14,0.075 -0.084,0.168 0.022,0.356 0.204,0.356 0.279,0.01 0.558,0 0.83,0.01 0.132,0 0.188,-0.043 0.197,-0.173 0.004,-0.234 -0.024,-0.272 -0.265,-0.275 z"
           inkscape:connector-curvature="0"
           style="fill:#458dcb" />
        <path
           id="path4804"
           d="m 10.833,52.982 c 0.301,0 0.605,0.005 0.917,0.008 0.172,0 0.155,-0.13 0.167,-0.243 0.012,-0.144 -0.038,-0.219 -0.2,-0.214 -0.142,0.012 -0.291,0 -0.431,0 0,0.003 0,0.012 0,0.012 -0.144,0 -0.294,0 -0.436,0 -0.126,0 -0.188,0.058 -0.18,0.193 0.013,0.106 -0.02,0.244 0.163,0.244 z"
           inkscape:connector-curvature="0"
           style="fill:#458dcb" />
        <path
           id="path4806"
           d="m 7.528,55.622 c 0.273,0.016 0.549,0.024 0.824,0 0.14,-0.017 0.197,-0.164 0.197,-0.297 C 8.54,55.173 8.423,55.19 8.321,55.181 c -0.128,0 -0.262,0 -0.388,0 0,0.008 0,0.014 0,0.017 -0.178,0 -0.351,-0.009 -0.523,0.008 -0.058,0 -0.144,0.05 -0.154,0.101 -0.017,0.041 0.049,0.116 0.09,0.167 0.047,0.059 0.115,0.143 0.182,0.148 z"
           inkscape:connector-curvature="0"
           style="fill:#458dcb" />
        <path
           id="path4808"
           d="m 15.031,42.572 c 0.231,0.009 0.463,0.009 0.696,0.002 0.202,-0.005 0.228,-0.034 0.238,-0.224 0,-0.185 -0.031,-0.219 -0.229,-0.224 -0.116,-0.01 -0.231,-0.003 -0.349,-0.003 l 0,0.003 c -0.109,0 -0.226,-0.003 -0.347,0 -0.207,0.005 -0.234,0.034 -0.234,0.217 -10e-4,0.191 0.026,0.22 0.225,0.229 z"
           inkscape:connector-curvature="0"
           style="fill:#458dcb" />
        <path
           id="path4810"
           d="m 15.735,70.897 c -0.116,-0.003 -0.228,0 -0.34,0 l 0,0 c -0.149,0 -0.296,0.005 -0.438,0 -0.115,0 -0.159,0.063 -0.152,0.167 0.016,0.101 -0.034,0.26 0.135,0.271 0.275,0.01 0.554,0.021 0.823,-0.007 0.149,-0.01 0.191,-0.163 0.198,-0.292 0.003,-0.142 -0.12,-0.139 -0.226,-0.139 z"
           inkscape:connector-curvature="0"
           style="fill:#458dcb" />
        <path
           id="path4812"
           d="m 18.802,46.539 c 0.118,-0.021 0.236,0 0.346,-0.007 0.161,-0.007 0.267,-0.14 0.273,-0.318 0,-0.209 -0.155,-0.175 -0.279,-0.18 -0.039,0 -0.089,0 -0.131,0 0,-0.005 -0.003,-0.012 -0.003,-0.019 -0.168,0.027 -0.342,0.043 -0.503,0.089 -0.178,0.048 -0.192,0.14 -0.067,0.267 0.096,0.099 0.204,0.195 0.364,0.168 z"
           inkscape:connector-curvature="0"
           style="fill:#458dcb" />
        <path
           id="path4814"
           d="m 8.216,61.862 c -0.005,0.12 0.041,0.21 0.167,0.214 0.157,0.008 0.32,0.008 0.478,0.008 0.161,0 0.323,-0.008 0.484,0 0.132,0 0.176,-0.066 0.171,-0.191 -0.005,-0.109 -0.056,-0.161 -0.161,-0.161 -0.32,0 -0.643,-0.003 -0.959,-0.003 -0.1,0 -0.18,0.02 -0.18,0.133 z"
           inkscape:connector-curvature="0"
           style="fill:#458dcb" />
        <path
           id="path4816"
           d="m 17.752,51.403 c 0.021,0.183 0.094,0.26 0.269,0.265 0.195,0.007 0.38,-0.005 0.571,0 0.144,0.009 0.206,-0.015 0.21,-0.251 0.005,-0.164 -0.08,-0.205 -0.221,-0.196 -0.101,0.003 -0.204,0 -0.303,0 l 0,0 c -0.135,0 -0.269,-0.009 -0.4,0 -0.109,0.003 -0.147,0.083 -0.126,0.182 z"
           inkscape:connector-curvature="0"
           style="fill:#458dcb" />
        <path
           id="path4818"
           d="m 10.746,67.021 c -0.104,0 -0.159,0.056 -0.163,0.167 -0.005,0.115 0.038,0.193 0.171,0.193 0.279,0 0.561,0.005 0.84,-0.003 0.066,0 0.14,-0.034 0.195,-0.075 0.048,-0.034 0.082,-0.108 0.091,-0.173 0,-0.026 -0.081,-0.084 -0.12,-0.087 -0.178,-0.008 -0.356,-0.005 -0.53,-0.005 0,-0.003 0,-0.012 0,-0.017 -0.163,0 -0.322,0 -0.484,0 z"
           inkscape:connector-curvature="0"
           style="fill:#458dcb" />
        <path
           id="path4820"
           d="m 10.67,63.049 c -0.161,0 -0.322,-0.012 -0.477,0 -0.045,0 -0.117,0.058 -0.128,0.098 0,0.062 0.017,0.146 0.055,0.197 0.029,0.042 0.104,0.06 0.157,0.06 0.25,0 0.503,0 0.751,-0.01 0.084,-0.003 0.174,-0.032 0.243,-0.08 0.038,-0.021 0.079,-0.091 0.079,-0.132 -0.007,-0.043 -0.063,-0.104 -0.106,-0.111 -0.187,-0.021 -0.382,-0.024 -0.573,-0.041 -10e-4,0.007 -10e-4,0.015 -10e-4,0.019 z"
           inkscape:connector-curvature="0"
           style="fill:#458dcb" />
        <path
           id="path4822"
           d="m 11.762,59.085 c -0.146,0 -0.288,0 -0.429,0 0,0.003 0,0.003 0,0.009 -0.165,0 -0.325,0 -0.488,0 -0.121,0 -0.183,0.062 -0.174,0.188 0,0.109 0.053,0.158 0.163,0.158 0.301,0.003 0.616,0.007 0.917,0.007 0.104,0.008 0.167,-0.035 0.167,-0.147 0.003,-0.11 -0.013,-0.211 -0.156,-0.215 z"
           inkscape:connector-curvature="0"
           style="fill:#458dcb" />
        <path
           id="path4824"
           d="m 20.747,47.354 c -0.31,0 -0.612,0 -0.918,0 -0.139,0 -0.169,0.084 -0.169,0.202 0,0.107 0.063,0.156 0.161,0.156 0.148,0 0.297,0 0.439,0 0.161,0 0.322,-0.003 0.48,0 0.104,0 0.166,-0.042 0.166,-0.149 0,-0.118 -0.017,-0.209 -0.159,-0.209 z"
           inkscape:connector-curvature="0"
           style="fill:#458dcb" />
        <path
           id="path4826"
           d="M 6.998,60.428 C 6.825,60.407 6.65,60.407 6.473,60.399 c 0,0.003 0,0.003 0,0.008 -0.146,0 -0.292,0 -0.439,0 -0.118,0 -0.202,0.05 -0.202,0.175 0,0.13 0.084,0.181 0.202,0.181 0.263,0.003 0.525,0.003 0.792,-0.003 0.066,0 0.146,-0.031 0.198,-0.077 0.048,-0.029 0.087,-0.104 0.091,-0.162 10e-4,-0.028 -0.076,-0.089 -0.117,-0.093 z"
           inkscape:connector-curvature="0"
           style="fill:#458dcb" />
        <path
           id="path4828"
           d="m 14.971,50.352 c 0,-0.007 0,-0.014 0,-0.014 0.173,0 0.353,0.003 0.523,-0.007 0.036,0 0.098,-0.067 0.101,-0.109 0.008,-0.04 -0.021,-0.111 -0.058,-0.137 -0.072,-0.046 -0.156,-0.087 -0.241,-0.09 -0.262,-0.01 -0.525,0 -0.787,0 -0.108,0 -0.147,0.072 -0.147,0.166 -0.01,0.125 0.039,0.195 0.176,0.191 0.144,-0.006 0.287,0 0.433,0 z"
           inkscape:connector-curvature="0"
           style="fill:#458dcb" />
        <path
           id="path4830"
           d="m 16.815,49.031 c 0.291,0 0.58,0.003 0.874,-0.007 0.109,0 0.137,-0.077 0.137,-0.178 0.003,-0.094 -0.031,-0.169 -0.146,-0.169 -0.133,-0.005 -0.263,0 -0.395,0 -0.159,0 -0.32,0 -0.482,0 -0.118,0 -0.135,0.079 -0.135,0.176 -10e-4,0.094 0.025,0.178 0.147,0.178 z"
           inkscape:connector-curvature="0"
           style="fill:#458dcb" />
        <path
           id="path4832"
           d="M 9.873,65.88 C 9.87,65.776 9.835,65.709 9.723,65.706 c -0.277,0 -0.556,0.003 -0.836,0.003 -0.126,-0.003 -0.166,0.063 -0.174,0.185 0,0.139 0.073,0.176 0.191,0.173 0.118,0 0.234,0 0.351,0 l 0,0 c 0.163,0 0.323,0 0.481,0 0.12,-0.011 0.137,-0.095 0.137,-0.187 z"
           inkscape:connector-curvature="0"
           style="fill:#458dcb" />
        <path
           id="path4834"
           d="m 10.174,58.126 c 0.288,0.003 0.588,0.003 0.879,0.003 0.109,0 0.144,-0.075 0.144,-0.176 0,-0.092 -0.019,-0.176 -0.135,-0.18 -0.15,-0.005 -0.294,0 -0.441,0 -0.144,0 -0.294,-0.005 -0.439,0 -0.106,0.003 -0.149,0.07 -0.149,0.175 -10e-4,0.097 0.027,0.178 0.141,0.178 z"
           inkscape:connector-curvature="0"
           style="fill:#458dcb" />
        <path
           id="path4836"
           d="m 5.125,64.383 c -0.118,0.005 -0.231,0.005 -0.349,0.005 l 0,0 c -0.163,0 -0.325,-0.017 -0.484,0.003 -0.117,0.012 -0.175,0.122 -0.135,0.231 0.015,0.051 0.09,0.118 0.149,0.118 0.27,0.007 0.556,0.003 0.83,0.003 0.107,0 0.159,-0.06 0.164,-0.164 0.008,-0.117 -0.038,-0.196 -0.175,-0.196 z"
           inkscape:connector-curvature="0"
           style="fill:#458dcb" />
        <path
           id="path4838"
           d="M 6.423,68.709 C 6.581,68.695 6.694,68.561 6.673,68.386 6.656,68.238 6.541,68.272 6.445,68.26 c -0.043,0 -0.094,0 -0.135,0 l 0,0 c -0.07,0 -0.144,0.012 -0.215,0 -0.152,-0.008 -0.207,0.062 -0.2,0.21 0.005,0.202 0.022,0.226 0.219,0.239 0.1,0.003 0.205,0.003 0.309,0 z"
           inkscape:connector-curvature="0"
           style="fill:#458dcb" />
        <path
           id="path4840"
           d="m 23.737,46.304 c 0,0.106 -0.091,0.193 -0.195,0.193 l -1.309,0 c -0.104,0 -0.195,-0.087 -0.195,-0.193 l 0,-0.114 c 0,-0.106 0.091,-0.192 0.195,-0.192 l 1.309,0 c 0.104,0 0.195,0.085 0.195,0.192 l 0,0.114 z"
           inkscape:connector-curvature="0"
           style="fill:#458dcb" />
        <path
           id="path4842"
           d="m 23.329,45.026 c 0,0.098 -0.087,0.175 -0.192,0.175 l -1.31,0 c -0.109,0 -0.195,-0.077 -0.195,-0.175 l 0,-0.101 c 0,-0.098 0.085,-0.173 0.195,-0.173 l 1.31,0 c 0.104,0 0.192,0.075 0.192,0.173 l 0,0.101 z"
           inkscape:connector-curvature="0"
           style="fill:#458dcb" />
        <path
           id="path4844"
           d="m 21.873,45.026 c 0,0.098 -0.086,0.175 -0.19,0.175 l -1.314,0 c -0.109,0 -0.195,-0.077 -0.195,-0.175 l 0,-0.101 c 0,-0.098 0.085,-0.173 0.195,-0.173 l 1.314,0 c 0.104,0 0.19,0.075 0.19,0.173 l 0,0.101 z"
           inkscape:connector-curvature="0"
           style="fill:#458dcb" />
        <path
           id="path4846"
           d="m 20.828,43.697 c 0,0.111 -0.081,0.195 -0.19,0.195 l -1.31,0 c -0.108,0 -0.197,-0.084 -0.197,-0.195 l 0,-0.113 c 0,-0.109 0.089,-0.193 0.197,-0.193 l 1.31,0 c 0.109,0 0.19,0.084 0.19,0.193 l 0,0.113 z"
           inkscape:connector-curvature="0"
           style="fill:#458dcb" />
        <path
           id="path4848"
           d="m 11.7,80.011 c -0.146,0 -0.163,0.101 -0.156,0.212 0.01,0.111 -0.007,0.243 0.167,0.243 0.294,-0.004 0.585,-0.011 0.876,-0.004 0.144,0 0.205,-0.064 0.205,-0.215 0,-0.185 -0.027,-0.226 -0.222,-0.236 -0.14,-0.007 -0.291,0 -0.435,0 -0.146,0 -0.289,0 -0.435,0 z"
           inkscape:connector-curvature="0"
           style="fill:#458dcb" />
        <path
           id="path4850"
           d="m 18.773,95.712 c -0.124,0 -0.233,0 -0.353,0 l 0,0 c -0.142,0 -0.289,0.004 -0.439,0 -0.106,0 -0.156,0.063 -0.149,0.168 0.015,0.101 -0.034,0.263 0.139,0.27 0.279,0.016 0.551,0.024 0.826,0 0.14,-0.014 0.188,-0.165 0.193,-0.294 0.001,-0.144 -0.123,-0.144 -0.217,-0.144 z"
           inkscape:connector-curvature="0"
           style="fill:#458dcb" />
        <path
           id="path4852"
           d="m 19.791,97.05 c -0.115,-0.004 -0.232,0 -0.342,0 l 0,0 c -0.148,0 -0.292,0.01 -0.441,0 -0.11,0 -0.161,0.066 -0.149,0.159 0.017,0.114 -0.041,0.269 0.132,0.282 0.275,0.014 0.554,0.017 0.83,-0.004 0.142,-0.014 0.187,-0.164 0.193,-0.296 0,-0.148 -0.117,-0.141 -0.223,-0.141 z"
           inkscape:connector-curvature="0"
           style="fill:#458dcb" />
        <path
           id="path4854"
           d="m 18.961,69.571 c -0.139,0 -0.277,0 -0.405,0 -0.178,0 -0.34,0 -0.508,0 -0.123,0 -0.145,0.101 -0.145,0.21 0,0.113 0.027,0.202 0.155,0.205 0.301,0 0.607,0 0.91,-0.003 0.118,0 0.146,-0.092 0.146,-0.21 0,-0.113 -0.028,-0.202 -0.153,-0.202 z"
           inkscape:connector-curvature="0"
           style="fill:#458dcb" />
        <path
           id="path4856"
           d="m 12.771,56.922 0,0 c 0.219,0 0.436,-0.005 0.655,0 0.181,0.003 0.161,-0.135 0.171,-0.243 0.01,-0.118 -0.016,-0.202 -0.163,-0.202 -0.419,0 -0.847,0 -1.264,-0.009 -0.169,-0.005 -0.207,0.113 -0.207,0.223 0,0.108 0.031,0.234 0.195,0.231 0.201,-0.005 0.408,0 0.613,0 z"
           inkscape:connector-curvature="0"
           style="fill:#458dcb" />
        <path
           id="path4858"
           d="m 18.564,74.766 c -0.121,0 -0.238,0 -0.349,0 l 0,0.003 c -0.147,0 -0.291,0 -0.435,0 -0.113,0 -0.167,0.063 -0.152,0.163 0.01,0.106 -0.04,0.265 0.132,0.279 0.277,0.007 0.552,0.016 0.823,-0.007 0.15,-0.017 0.193,-0.166 0.197,-0.296 0,-0.142 -0.118,-0.142 -0.216,-0.142 z"
           inkscape:connector-curvature="0"
           style="fill:#458dcb" />
        <path
           id="path4860"
           d="m 16.646,80.063 c -0.238,0 -0.472,0 -0.708,0 -0.109,-0.004 -0.15,0.053 -0.157,0.16 0,0.088 0.012,0.188 0.128,0.188 0.493,0.003 0.994,-0.005 1.499,-0.009 0.111,0 0.14,-0.068 0.14,-0.173 0,-0.101 -0.044,-0.162 -0.157,-0.162 -0.251,0 -0.498,0 -0.744,0 -10e-4,-0.004 -10e-4,-0.004 -10e-4,-0.004 z"
           inkscape:connector-curvature="0"
           style="fill:#458dcb" />
        <path
           id="path4862"
           d="m 21.676,95.705 c -0.106,0 -0.267,0.024 -0.262,0.175 0.007,0.089 0.101,0.185 0.179,0.256 0.043,0.047 0.135,0.05 0.2,0.05 0.396,0.009 0.792,0.006 1.184,0.009 0.101,0 0.162,-0.029 0.185,-0.142 0.044,-0.303 0.003,-0.357 -0.306,-0.357 -0.157,0 -0.318,0 -0.481,0 l 0,0 c -0.233,-0.001 -0.464,-0.014 -0.699,0.009 z"
           inkscape:connector-curvature="0"
           style="fill:#458dcb" />
        <path
           id="path4864"
           d="m 26.399,56.477 c -1.037,0 -2.06,0 -3.087,0 -0.605,0 -1.205,0 -1.803,0 -0.474,0 -2.673,-0.009 -3.152,0 -0.191,0 -0.212,0.041 -0.212,0.239 -0.007,0.147 0.052,0.217 0.207,0.209 0.053,-0.003 0.113,-0.003 0.171,-0.003 1.982,0 5.706,0 7.684,0 0.091,0 0.185,-0.005 0.267,0 0.13,0.012 0.186,-0.046 0.186,-0.178 0.016,-0.233 -0.01,-0.267 -0.261,-0.267 z"
           inkscape:connector-curvature="0"
           style="fill:#458dcb" />
        <path
           id="path4866"
           d="m 26.361,80.011 c -1.033,0 -2.054,0 -3.086,0 -0.602,0 -1.208,0 -1.81,0 -0.465,0 -2.677,-0.003 -3.149,0 -0.19,0 -0.207,0.043 -0.207,0.239 -0.008,0.147 0.05,0.216 0.204,0.212 0.058,-0.007 0.11,-0.007 0.171,-0.007 1.986,0 5.706,0 7.689,0 0.082,0 0.176,0 0.262,0.007 0.13,0.004 0.185,-0.051 0.195,-0.181 0.012,-0.236 -0.014,-0.27 -0.269,-0.27 z"
           inkscape:connector-curvature="0"
           style="fill:#458dcb" />
      </g>
      <g
         id="g4868">
        <path
           id="path4870"
           d="m 16.141,109.561 c 0.139,0.826 0.681,1.208 1.417,1.208 0.725,0 1.22,-0.336 1.22,-0.969 0,-0.599 -0.301,-0.886 -1.404,-1.3 -1.059,-0.368 -1.983,-0.806 -1.983,-2.062 0,-1.412 1.108,-1.919 2.167,-1.919 1.242,0 2.183,0.484 2.301,1.782 l -1.047,0.209 c -0.072,-0.748 -0.563,-1.141 -1.244,-1.141 -0.635,0 -1.093,0.344 -1.093,0.979 0,0.677 0.542,0.908 1.485,1.255 1.037,0.378 1.899,0.792 1.899,2.06 0,1.334 -1.059,1.921 -2.361,1.921 -1.334,0 -2.128,-0.528 -2.347,-1.76 l 0.99,-0.263 z"
           inkscape:connector-curvature="0"
           style="fill:#458dcb" />
        <path
           id="path4872"
           d="m 24.11,109.788 -1.276,-2.347 c -0.392,-0.737 -0.504,-1.162 -0.504,-1.162 l -0.05,0 c 0,0 0.06,0.416 0.06,1.222 l 0,3.944 -1.061,0 0,-6.775 1.233,0 1.611,3.127 c 0.265,0.521 0.344,0.831 0.344,0.831 l 0.048,0 c 0,0 0.068,-0.311 0.344,-0.831 l 1.6,-3.127 1.184,0 0,6.775 -1.069,0 0,-3.944 c 0,-0.806 0.068,-1.222 0.068,-1.222 l -0.044,0 c 0,0 -0.114,0.425 -0.518,1.162 l -1.264,2.347 -0.706,0 z"
           inkscape:connector-curvature="0"
           style="fill:#458dcb" />
        <path
           id="path4874"
           d="m 33.232,109.593 -2.774,0 -0.643,1.853 -1.102,0 2.472,-6.775 1.391,0 2.451,6.775 -1.137,0 -0.658,-1.853 z m -2.475,-0.876 2.164,0 -0.515,-1.515 c -0.383,-1.061 -0.532,-1.783 -0.532,-1.783 l -0.046,0 c 0,0 -0.161,0.712 -0.53,1.77 l -0.541,1.528 z"
           inkscape:connector-curvature="0"
           style="fill:#458dcb" />
        <path
           id="path4876"
           d="m 39.9,111.445 c -0.159,-0.185 -0.238,-0.369 -0.296,-0.631 l -0.275,-1.174 c -0.197,-0.797 -0.601,-0.944 -1.268,-0.944 l -0.908,0 0,2.749 -1.061,0 0,-6.775 2.349,0 c 1.555,0 2.313,0.655 2.313,1.934 0,1.068 -0.715,1.633 -1.565,1.678 l 0,0.036 c 0.647,0.078 0.991,0.355 1.174,1.081 l 0.345,1.334 c 0.081,0.273 0.185,0.508 0.359,0.713 l -1.167,0 z m -2.747,-3.636 1.242,0 c 0.85,0 1.254,-0.357 1.254,-1.127 0,-0.705 -0.404,-1.127 -1.242,-1.127 l -1.254,0 0,2.254 z"
           inkscape:connector-curvature="0"
           style="fill:#458dcb" />
        <path
           id="path4878"
           d="m 43.373,111.445 0,-5.854 -1.965,0 0,-0.921 5.016,0 0,0.921 -1.981,0 0,5.854 -1.07,0 z"
           inkscape:connector-curvature="0"
           style="fill:#458dcb" />
        <path
           id="path4880"
           d="m 52.865,109.788 -1.28,-2.347 c -0.392,-0.737 -0.504,-1.162 -0.504,-1.162 l -0.048,0 c 0,0 0.056,0.416 0.056,1.222 l 0,3.944 -1.057,0 0,-6.775 1.233,0 1.608,3.127 c 0.269,0.521 0.349,0.831 0.349,0.831 l 0.042,0 c 0,0 0.07,-0.311 0.346,-0.831 l 1.6,-3.127 1.187,0 0,6.775 -1.071,0 0,-3.944 c 0,-0.806 0.066,-1.222 0.066,-1.222 l -0.046,0 c 0,0 -0.113,0.425 -0.517,1.162 l -1.264,2.347 -0.7,0 z"
           inkscape:connector-curvature="0"
           style="fill:#458dcb" />
        <path
           id="path4882"
           d="m 57.853,108.063 c 0,-2.268 1.196,-3.533 3.062,-3.533 1.863,0 3.048,1.266 3.048,3.533 0,2.255 -1.186,3.521 -3.048,3.521 -1.867,0 -3.062,-1.266 -3.062,-3.521 z m 1.113,0 c 0,1.622 0.668,2.599 1.948,2.599 1.276,0 1.931,-0.977 1.931,-2.599 0,-1.612 -0.669,-2.602 -1.931,-2.602 -1.279,0.001 -1.948,0.99 -1.948,2.602 z"
           inkscape:connector-curvature="0"
           style="fill:#458dcb" />
        <path
           id="path4884"
           d="m 69.173,108.548 c 0.402,0.599 0.771,1.286 0.771,1.286 l 0.044,0 c 0,0 -0.056,-0.725 -0.056,-1.577 l 0,-3.587 1.057,0 0,6.775 -1.045,0 -2.708,-3.864 c -0.423,-0.612 -0.78,-1.313 -0.78,-1.313 l -0.046,0 c 0,0 0.068,0.722 0.068,1.603 l 0,3.575 -1.058,0 0,-6.775 1.081,0 2.672,3.877 z"
           inkscape:connector-curvature="0"
           style="fill:#458dcb" />
        <path
           id="path4886"
           d="m 73.956,104.67 0,6.775 -1.061,0 0,-6.775 1.061,0 z"
           inkscape:connector-curvature="0"
           style="fill:#458dcb" />
        <path
           id="path4888"
           d="m 76.992,111.445 0,-5.854 -1.969,0 0,-0.921 5.017,0 0,0.921 -1.979,0 0,5.854 -1.069,0 z"
           inkscape:connector-curvature="0"
           style="fill:#458dcb" />
        <path
           id="path4890"
           d="m 80.43,108.063 c 0,-2.268 1.196,-3.533 3.059,-3.533 1.866,0 3.051,1.266 3.051,3.533 0,2.255 -1.185,3.521 -3.051,3.521 -1.863,0 -3.059,-1.266 -3.059,-3.521 z m 1.115,0 c 0,1.622 0.669,2.599 1.943,2.599 1.279,0 1.936,-0.977 1.936,-2.599 0,-1.612 -0.668,-2.602 -1.936,-2.602 -1.274,0.001 -1.943,0.99 -1.943,2.602 z"
           inkscape:connector-curvature="0"
           style="fill:#458dcb" />
        <path
           id="path4892"
           d="m 91.807,111.445 c -0.161,-0.185 -0.24,-0.369 -0.299,-0.631 l -0.277,-1.174 c -0.193,-0.797 -0.597,-0.944 -1.262,-0.944 l -0.912,0 0,2.749 -1.059,0 0,-6.775 2.347,0 c 1.555,0 2.316,0.655 2.316,1.934 0,1.068 -0.717,1.633 -1.567,1.678 l 0,0.036 c 0.645,0.078 0.989,0.355 1.173,1.081 l 0.346,1.334 c 0.077,0.273 0.183,0.508 0.357,0.713 l -1.163,0 z m -2.75,-3.636 1.243,0 c 0.851,0 1.254,-0.357 1.254,-1.127 0,-0.705 -0.403,-1.127 -1.242,-1.127 l -1.255,0 0,2.254 z"
           inkscape:connector-curvature="0"
           style="fill:#458dcb" />
        <path
           id="path4894"
           d="m 95.382,104.67 0,6.775 -1.061,0 0,-6.775 1.061,0 z"
           inkscape:connector-curvature="0"
           style="fill:#458dcb" />
        <path
           id="path4896"
           d="m 101.041,108.548 c 0.402,0.599 0.771,1.286 0.771,1.286 l 0.043,0 c 0,0 -0.053,-0.725 -0.053,-1.577 l 0,-3.587 1.057,0 0,6.775 -1.047,0 -2.705,-3.864 c -0.427,-0.612 -0.783,-1.313 -0.783,-1.313 l -0.044,0 c 0,0 0.068,0.722 0.068,1.603 l 0,3.575 -1.058,0 0,-6.775 1.081,0 2.67,3.877 z"
           inkscape:connector-curvature="0"
           style="fill:#458dcb" />
        <path
           id="path4898"
           d="m 110.103,107.949 0,3.496 -0.84,0 -0.139,-0.874 c -0.275,0.669 -1.081,1.013 -1.863,1.013 -1.736,0 -2.945,-1.207 -2.945,-3.498 0,-2.268 1.276,-3.556 3.165,-3.556 1.288,0 2.116,0.538 2.542,1.632 l -0.988,0.483 c -0.275,-0.815 -0.873,-1.206 -1.611,-1.206 -1.186,0 -2.001,0.931 -2.001,2.646 0,1.531 0.621,2.624 1.943,2.624 0.91,0 1.692,-0.426 1.692,-1.334 l 0,-0.505 -1.646,0 0,-0.922 2.691,0 z"
           inkscape:connector-curvature="0"
           style="fill:#458dcb" />
        <path
           id="path4900"
           d="m 113.875,108.063 c 0,-2.268 1.194,-3.533 3.058,-3.533 1.863,0 3.052,1.266 3.052,3.533 0,2.255 -1.189,3.521 -3.052,3.521 -1.864,0 -3.058,-1.266 -3.058,-3.521 z m 1.115,0 c 0,1.622 0.665,2.599 1.943,2.599 1.276,0 1.935,-0.977 1.935,-2.599 0,-1.612 -0.669,-2.602 -1.935,-2.602 -1.278,0.001 -1.943,0.99 -1.943,2.602 z"
           inkscape:connector-curvature="0"
           style="fill:#458dcb" />
        <path
           id="path4902"
           d="m 121.438,111.445 0,-6.775 3.994,0 0,0.921 -2.934,0 0,2.069 2.578,0 0,0.92 -2.578,0 0,2.865 -1.06,0 z"
           inkscape:connector-curvature="0"
           style="fill:#458dcb" />
        <path
           id="path4904"
           d="m 130.71,106.818 c 0.39,0.771 0.473,1.155 0.473,1.155 l 0.046,0 c 0,0 0.068,-0.384 0.438,-1.155 l 1.001,-2.148 1.117,0 -2.073,4.21 0,2.565 -1.058,0 0,-2.565 -2.212,-4.21 1.21,0 1.058,2.148 z"
           inkscape:connector-curvature="0"
           style="fill:#458dcb" />
        <path
           id="path4906"
           d="m 134.103,108.063 c 0,-2.268 1.197,-3.533 3.058,-3.533 1.866,0 3.052,1.266 3.052,3.533 0,2.255 -1.186,3.521 -3.052,3.521 -1.861,0 -3.058,-1.266 -3.058,-3.521 z m 1.115,0 c 0,1.622 0.668,2.599 1.942,2.599 1.278,0 1.936,-0.977 1.936,-2.599 0,-1.612 -0.666,-2.602 -1.936,-2.602 -1.274,0.001 -1.942,0.99 -1.942,2.602 z"
           inkscape:connector-curvature="0"
           style="fill:#458dcb" />
        <path
           id="path4908"
           d="m 146.677,104.67 0,4.557 c 0,1.757 -1.29,2.357 -2.612,2.357 -1.336,0 -2.615,-0.601 -2.615,-2.357 l 0,-4.557 1.062,0 0,4.281 c 0,1.219 0.563,1.759 1.554,1.759 0.979,0 1.539,-0.54 1.539,-1.738 l 0,-4.302 1.072,0 z"
           inkscape:connector-curvature="0"
           style="fill:#458dcb" />
        <path
           id="path4910"
           d="m 152.171,111.445 c -0.159,-0.185 -0.239,-0.369 -0.296,-0.631 L 151.6,109.64 c -0.197,-0.797 -0.601,-0.944 -1.268,-0.944 l -0.91,0 0,2.749 -1.059,0 0,-6.775 2.347,0 c 1.557,0 2.316,0.655 2.316,1.934 0,1.068 -0.716,1.633 -1.569,1.678 l 0,0.036 c 0.646,0.078 0.991,0.355 1.176,1.081 l 0.344,1.334 c 0.082,0.273 0.185,0.508 0.359,0.713 l -1.165,0 z m -2.749,-3.636 1.243,0 c 0.851,0 1.254,-0.357 1.254,-1.127 0,-0.705 -0.403,-1.127 -1.241,-1.127 l -1.256,0 0,2.254 z"
           inkscape:connector-curvature="0"
           style="fill:#458dcb" />
        <path
           id="path4912"
           d="m 158.289,104.67 0,6.775 -1.059,0 0,-6.775 1.059,0 z"
           inkscape:connector-curvature="0"
           style="fill:#458dcb" />
        <path
           id="path4914"
           d="m 163.948,108.548 c 0.403,0.599 0.771,1.286 0.771,1.286 l 0.046,0 c 0,0 -0.057,-0.725 -0.057,-1.577 l 0,-3.587 1.059,0 0,6.775 -1.048,0 -2.703,-3.864 c -0.426,-0.612 -0.785,-1.313 -0.785,-1.313 l -0.045,0 c 0,0 0.067,0.722 0.067,1.603 l 0,3.575 -1.056,0 0,-6.775 1.079,0 2.672,3.877 z"
           inkscape:connector-curvature="0"
           style="fill:#458dcb" />
        <path
           id="path4916"
           d="m 167.672,111.445 0,-6.775 3.994,0 0,0.921 -2.936,0 0,2.069 2.578,0 0,0.92 -2.578,0 0,2.865 -1.058,0 z"
           inkscape:connector-curvature="0"
           style="fill:#458dcb" />
        <path
           id="path4918"
           d="m 176.782,111.445 c -0.161,-0.185 -0.241,-0.369 -0.3,-0.631 l -0.273,-1.174 c -0.196,-0.797 -0.599,-0.944 -1.268,-0.944 l -0.91,0 0,2.749 -1.057,0 0,-6.775 2.347,0 c 1.553,0 2.313,0.655 2.313,1.934 0,1.068 -0.713,1.633 -1.566,1.678 l 0,0.036 c 0.646,0.078 0.99,0.355 1.175,1.081 l 0.346,1.334 c 0.08,0.273 0.185,0.508 0.357,0.713 l -1.164,0 z m -2.751,-3.636 1.245,0 c 0.851,0 1.253,-0.357 1.253,-1.127 0,-0.705 -0.402,-1.127 -1.242,-1.127 l -1.256,0 0,2.254 z"
           inkscape:connector-curvature="0"
           style="fill:#458dcb" />
        <path
           id="path4920"
           d="m 182.979,109.593 -2.771,0 -0.645,1.853 -1.104,0 2.474,-6.775 1.391,0 2.451,6.775 -1.136,0 -0.66,-1.853 z m -2.473,-0.876 2.164,0 -0.517,-1.515 c -0.382,-1.061 -0.53,-1.783 -0.53,-1.783 l -0.046,0 c 0,0 -0.161,0.712 -0.532,1.77 l -0.539,1.528 z"
           inkscape:connector-curvature="0"
           style="fill:#458dcb" />
        <path
           id="path4922"
           d="m 186.2,109.561 c 0.137,0.826 0.678,1.208 1.415,1.208 0.727,0 1.218,-0.336 1.218,-0.969 0,-0.599 -0.3,-0.886 -1.402,-1.3 -1.06,-0.368 -1.981,-0.806 -1.981,-2.062 0,-1.412 1.107,-1.919 2.166,-1.919 1.241,0 2.186,0.484 2.301,1.782 l -1.049,0.209 c -0.068,-0.748 -0.563,-1.141 -1.242,-1.141 -0.633,0 -1.093,0.344 -1.093,0.979 0,0.677 0.542,0.908 1.484,1.255 1.035,0.378 1.899,0.792 1.899,2.06 0,1.334 -1.06,1.921 -2.357,1.921 -1.336,0 -2.132,-0.528 -2.349,-1.76 l 0.99,-0.263 z"
           inkscape:connector-curvature="0"
           style="fill:#458dcb" />
        <path
           id="path4924"
           d="m 192.466,111.445 0,-5.854 -1.967,0 0,-0.921 5.019,0 0,0.921 -1.98,0 0,5.854 -1.072,0 z"
           inkscape:connector-curvature="0"
           style="fill:#458dcb" />
        <path
           id="path4926"
           d="m 200.393,111.445 c -0.16,-0.185 -0.239,-0.369 -0.299,-0.631 l -0.275,-1.174 c -0.195,-0.797 -0.601,-0.944 -1.266,-0.944 l -0.912,0 0,2.749 -1.058,0 0,-6.775 2.348,0 c 1.555,0 2.314,0.655 2.314,1.934 0,1.068 -0.714,1.633 -1.565,1.678 l 0,0.036 c 0.645,0.078 0.988,0.355 1.173,1.081 l 0.345,1.334 c 0.08,0.273 0.183,0.508 0.357,0.713 l -1.162,0 z m -2.752,-3.636 1.247,0 c 0.847,0 1.252,-0.357 1.252,-1.127 0,-0.705 -0.405,-1.127 -1.242,-1.127 l -1.257,0 0,2.254 z"
           inkscape:connector-curvature="0"
           style="fill:#458dcb" />
        <path
           id="path4928"
           d="m 207.857,104.67 0,4.557 c 0,1.757 -1.289,2.357 -2.613,2.357 -1.334,0 -2.612,-0.601 -2.612,-2.357 l 0,-4.557 1.061,0 0,4.281 c 0,1.219 0.563,1.759 1.552,1.759 0.979,0 1.543,-0.54 1.543,-1.738 l 0,-4.302 1.069,0 z"
           inkscape:connector-curvature="0"
           style="fill:#458dcb" />
        <path
           id="path4930"
           d="m 214.794,110.178 c -0.623,0.958 -1.384,1.406 -2.727,1.406 -1.764,0 -2.97,-1.254 -2.97,-3.508 0,-2.269 1.276,-3.546 3.161,-3.546 1.233,0 2.085,0.538 2.547,1.632 l -0.992,0.483 c -0.275,-0.804 -0.852,-1.206 -1.611,-1.206 -1.266,0 -2.003,1.012 -2.003,2.637 0,1.599 0.659,2.563 1.948,2.563 0.828,0 1.367,-0.31 1.827,-1.059 l 0.82,0.598 z"
           inkscape:connector-curvature="0"
           style="fill:#458dcb" />
        <path
           id="path4932"
           d="m 217.147,111.445 0,-5.854 -1.967,0 0,-0.921 5.017,0 0,0.921 -1.98,0 0,5.854 -1.07,0 z"
           inkscape:connector-curvature="0"
           style="fill:#458dcb" />
        <path
           id="path4934"
           d="m 226.271,104.67 0,4.557 c 0,1.757 -1.289,2.357 -2.611,2.357 -1.335,0 -2.614,-0.601 -2.614,-2.357 l 0,-4.557 1.061,0 0,4.281 c 0,1.219 0.564,1.759 1.554,1.759 0.977,0 1.541,-0.54 1.541,-1.738 l 0,-4.302 1.069,0 z"
           inkscape:connector-curvature="0"
           style="fill:#458dcb" />
        <path
           id="path4936"
           d="m 231.768,111.445 c -0.162,-0.185 -0.239,-0.369 -0.296,-0.631 l -0.278,-1.174 c -0.195,-0.797 -0.598,-0.944 -1.265,-0.944 l -0.91,0 0,2.749 -1.059,0 0,-6.775 2.347,0 c 1.556,0 2.314,0.655 2.314,1.934 0,1.068 -0.715,1.633 -1.566,1.678 l 0,0.036 c 0.645,0.078 0.99,0.355 1.175,1.081 l 0.344,1.334 c 0.082,0.273 0.187,0.508 0.359,0.713 l -1.165,0 z m -2.749,-3.636 1.244,0 c 0.85,0 1.254,-0.357 1.254,-1.127 0,-0.705 -0.404,-1.127 -1.244,-1.127 l -1.254,0 0,2.254 z"
           inkscape:connector-curvature="0"
           style="fill:#458dcb" />
        <path
           id="path4938"
           d="m 238.463,111.445 -4.177,0 0,-6.775 4.177,0 0,0.921 -3.122,0 0,1.999 2.763,0 0,0.922 -2.763,0 0,2.014 3.122,0 0,0.919 z"
           inkscape:connector-curvature="0"
           style="fill:#458dcb" />
      </g>
    </g>
  </g>
</svg>
