<?xml version="1.0" encoding="UTF-8" standalone="no"?>
<!-- Creator: fig2dev Version 3.2 Patchlevel 5 -->

<!-- CreationDate: Sat Oct 20 14:12:09 2007 -->

<!-- Magnification: 0.525 -->

<svg
   xmlns:dc="http://purl.org/dc/elements/1.1/"
   xmlns:cc="http://creativecommons.org/ns#"
   xmlns:rdf="http://www.w3.org/1999/02/22-rdf-syntax-ns#"
   xmlns:svg="http://www.w3.org/2000/svg"
   xmlns="http://www.w3.org/2000/svg"
   xmlns:sodipodi="http://sodipodi.sourceforge.net/DTD/sodipodi-0.dtd"
   xmlns:inkscape="http://www.inkscape.org/namespaces/inkscape"
   width="32.3in"
   height="5.4in"
   viewBox="-29 4096 38746 6421"
   id="svg2215"
   sodipodi:version="0.32"
   inkscape:version="0.48.4 r9939"
   sodipodi:docname="inpn7logo.svg"
   inkscape:output_extension="org.inkscape.output.svg.inkscape"
   version="1.1"
   inkscape:export-filename="/media/numahell/NUMAHELL/associatif/toulibre/Evenements/2013-capitole-du-libre/graphisme/logos/inpn7logo.png"
   inkscape:export-xdpi="72"
   inkscape:export-ydpi="72">
  <metadata
     id="metadata2258">
    <rdf:RDF>
      <cc:Work
         rdf:about="">
        <dc:format>image/svg+xml</dc:format>
        <dc:type
           rdf:resource="http://purl.org/dc/dcmitype/StillImage" />
        <dc:title></dc:title>
      </cc:Work>
    </rdf:RDF>
  </metadata>
  <defs
     id="defs2256" />
  <sodipodi:namedview
     inkscape:window-height="581"
     inkscape:window-width="701"
     inkscape:pageshadow="2"
     inkscape:pageopacity="0.0"
     guidetolerance="10.0"
     gridtolerance="10.0"
     objecttolerance="10.0"
     borderopacity="1.0"
     bordercolor="#666666"
     pagecolor="#ffffff"
     id="base"
     inkscape:zoom="0.21155831"
     inkscape:cx="1453.5"
     inkscape:cy="243"
     inkscape:window-x="174"
     inkscape:window-y="161"
     inkscape:current-layer="svg2215"
     showgrid="false"
     inkscape:window-maximized="0" />
  <g
     style="stroke-width:.025in; stroke:black; fill:none"
     id="g2217">
    <!-- Line: box -->
    <rect
       x="-23"
       y="4102"
       width="8445"
       height="6408"
       rx="0"
       style="stroke:#646464;stroke-width:4; stroke-linejoin:miter; stroke-linecap:butt; fill:#646464; "
       id="rect2219" />
    <!-- Line: box -->
    <rect
       x="8422"
       y="4102"
       width="30288"
       height="6408"
       rx="0"
       style="stroke:#00008f;stroke-width:4; stroke-linejoin:miter; stroke-linecap:butt; fill:#00008f; "
       id="rect2221" />
    <!-- Text -->
    <text
       xml:space="preserve"
       x="794"
       y="9156"
       stroke="#ffffff"
       fill="#ffffff"
       font-family="Helvetica Narrow"
       font-style="normal"
       font-weight="bold"
       font-size="309"
       text-anchor="start"
       id="text2223">T      O       U       L       O       U       S       E</text>
    <!-- Line: box -->
    <rect
       x="10254"
       y="8841"
       width="21612"
       height="374"
       rx="0"
       style="stroke:#ffffff;stroke-width:4; stroke-linejoin:miter; stroke-linecap:butt; fill:#ffffff; "
       id="rect2225" />
    <!-- Line -->
    <polygon
       points="12163,6608 10825,6608 10825,5858 12512,5858 12367,5500 10262,5500 10262,8167 12453,8167 12632,7801 10825,7801 10825,6958 12163,6958 12163,6608 "
       style="stroke:#ffffff;stroke-width:4; stroke-linejoin:miter; stroke-linecap:butt; fill:#ffffff; "
       id="polygon2227" />
    <!-- Line -->
    <polygon
       points="21350,6608 20004,6608 20004,5858 21691,5858 21546,5500 19441,5500 19441,8167 21632,8167 21811,7801 20004,7801 20004,6958 21350,6958 21350,6608 "
       style="stroke:#ffffff;stroke-width:4; stroke-linejoin:miter; stroke-linecap:butt; fill:#ffffff; "
       id="polygon2229" />
    <!-- Line -->
    <polygon
       points="24069,6608 22731,6608 22731,5858 24418,5858 24274,5500 22168,5500 22168,8167 24359,8167 24529,7801 22731,7801 22731,6958 24069,6958 24069,6608 "
       style="stroke:#ffffff;stroke-width:4; stroke-linejoin:miter; stroke-linecap:butt; fill:#ffffff; "
       id="polygon2231" />
    <!-- Line -->
    <polygon
       points="24861,8210 25449,8193 25449,5475 24861,5525 24861,8210 "
       style="stroke:#ffffff;stroke-width:4; stroke-linejoin:miter; stroke-linecap:butt; fill:#ffffff; "
       id="polygon2233" />
    <!-- Line -->
    <polygon
       points="12973,8210 13552,8167 13552,6361 16100,8236 16100,5517 15521,5569 15521,7298 12973,5424 12973,8210 "
       style="stroke:#ffffff;stroke-width:4; stroke-linejoin:miter; stroke-linecap:butt; fill:#ffffff; "
       id="polygon2235" />
    <!-- Line -->
    <polygon
       points="26608,5475 26046,5517 26046,8219 26617,8193 26617,6983 28552,6983 28552,8236 29131,8176 29131,5457 28552,5525 28552,6625 26608,6625 26608,5475 "
       style="stroke:#ffffff;stroke-width:4; stroke-linejoin:miter; stroke-linecap:butt; fill:#ffffff; "
       id="polygon2237" />
    <!-- Line -->
    <polygon
       points="30341,5892 29319,5892 29514,5525 31833,5525 31833,5892 30912,5892 30912,8193 30341,8236 30341,5892 "
       style="stroke:#ffffff;stroke-width:4; stroke-linejoin:miter; stroke-linecap:butt; fill:#ffffff; "
       id="polygon2239" />
    <!-- Line -->
    <polygon
       points="785,4102 785,4733 6564,4102 785,4102 "
       style="stroke:#ff0000;stroke-width:4; stroke-linejoin:miter; stroke-linecap:butt; fill:#ff0000; "
       id="polygon2241" />
    <!-- Line -->
    <polygon
       points="743,8117 743,5440 1288,5440 1288,8117 743,8117 "
       style="stroke:#ffffff;stroke-width:4; stroke-linejoin:miter; stroke-linecap:butt; fill:#ffffff; "
       id="polygon2243" />
    <!-- Line -->
    <polygon
       points="1731,5424 4331,7316 4331,5525 4876,5525 4876,8167 2268,6310 2268,8133 1731,8133 1731,5424 "
       style="stroke:#ffffff;stroke-width:4; stroke-linejoin:miter; stroke-linecap:butt; fill:#ffffff; "
       id="polygon2245" />
    <!-- Line -->
    <polygon
       points="18531,5593 18518,5587 18504,5581 18490,5575 18476,5570 18461,5564 18446,5559 18430,5553 18415,5548 18398,5542 18381,5537 18364,5531 18346,5525 18328,5520 18309,5514 18289,5509 18269,5504 18249,5499 18229,5494 18208,5489 18187,5485 18165,5480 18143,5476 18122,5472 18100,5468 18078,5465 18056,5461 18033,5458 18011,5455 17989,5453 17966,5450 17944,5448 17922,5446 17900,5445 17878,5443 17855,5442 17833,5441 17811,5441 17787,5440 17767,5440 17746,5440 17724,5441 17703,5441 17681,5443 17659,5444 17636,5445 17613,5446 17590,5448 17566,5450 17542,5453 17518,5456 17493,5459 17469,5462 17444,5466 17418,5470 17393,5475 17368,5480 17342,5485 17317,5490 17292,5496 17267,5502 17242,5509 17217,5516 17193,5523 17169,5531 17145,5539 17122,5546 17099,5555 17077,5563 17056,5572 17035,5582 17014,5591 16994,5601 16975,5611 16956,5621 16938,5632 16920,5642 16903,5653 16886,5664 16870,5676 16855,5688 16838,5701 16822,5716 16806,5730 16791,5745 16776,5761 16762,5777 16748,5794 16734,5811 16721,5828 16709,5847 16697,5866 16685,5885 16674,5904 16663,5924 16653,5945 16644,5965 16635,5986 16627,6007 16619,6029 16613,6050 16606,6071 16601,6092 16596,6114 16592,6135 16588,6155 16586,6176 16584,6196 16582,6216 16582,6236 16582,6255 16582,6274 16583,6292 16585,6309 16587,6327 16590,6344 16593,6360 16597,6376 16602,6392 16607,6409 16614,6426 16621,6443 16629,6459 16638,6476 16647,6491 16657,6508 16668,6523 16680,6539 16692,6554 16706,6569 16719,6584 16733,6598 16748,6613 16764,6627 16780,6640 16796,6654 16812,6667 16829,6679 16846,6691 16864,6703 16881,6715 16899,6725 16916,6736 16933,6746 16951,6756 16967,6765 16984,6774 17001,6782 17018,6791 17034,6798 17050,6806 17066,6813 17082,6819 17099,6827 17115,6834 17132,6840 17149,6847 17165,6854 17183,6860 17200,6866 17217,6872 17235,6878 17253,6885 17271,6890 17290,6896 17308,6902 17327,6907 17346,6913 17365,6918 17384,6923 17403,6929 17422,6934 17441,6939 17460,6943 17479,6948 17498,6953 17517,6957 17535,6962 17554,6966 17572,6970 17591,6974 17609,6978 17627,6982 17646,6986 17664,6990 17682,6994 17700,6998 17718,7002 17737,7006 17756,7010 17775,7014 17795,7019 17815,7023 17835,7028 17856,7033 17876,7038 17897,7043 17919,7048 17940,7054 17961,7060 17982,7066 18003,7071 18024,7078 18044,7084 18065,7090 18085,7097 18103,7103 18122,7110 18141,7117 18158,7124 18175,7131 18191,7139 18207,7146 18222,7153 18236,7161 18249,7168 18262,7176 18275,7184 18287,7192 18299,7201 18311,7211 18322,7221 18332,7232 18342,7242 18352,7254 18361,7265 18369,7277 18376,7289 18383,7302 18390,7316 18395,7329 18400,7342 18404,7356 18407,7371 18409,7384 18412,7398 18413,7413 18413,7427 18413,7441 18412,7455 18411,7468 18408,7482 18406,7495 18403,7508 18398,7521 18394,7533 18390,7545 18384,7558 18379,7570 18372,7581 18365,7593 18358,7605 18350,7616 18342,7628 18333,7640 18323,7651 18312,7663 18301,7675 18289,7687 18277,7698 18264,7710 18250,7721 18236,7732 18222,7742 18206,7753 18191,7763 18175,7773 18159,7782 18142,7791 18125,7800 18108,7808 18091,7815 18074,7822 18057,7829 18040,7835 18023,7840 18005,7846 17987,7850 17970,7855 17954,7858 17938,7862 17921,7865 17904,7867 17887,7870 17869,7872 17851,7874 17833,7875 17814,7877 17794,7878 17775,7878 17755,7879 17735,7879 17714,7879 17695,7878 17674,7877 17653,7876 17633,7875 17612,7873 17592,7871 17572,7869 17552,7867 17533,7864 17514,7861 17495,7858 17477,7855 17459,7851 17441,7848 17425,7844 17408,7840 17392,7836 17376,7832 17361,7827 17346,7823 17330,7817 17313,7812 17297,7805 17281,7799 17266,7792 17249,7785 17234,7777 17217,7769 17200,7759 17183,7750 17165,7739 17147,7728 17128,7716 17109,7704 17089,7691 17069,7678 17049,7664 17029,7650 17011,7637 16993,7625 16976,7613 16962,7603 16949,7593 16939,7586 16931,7580 16925,7576 16921,7573 16920,7572 16919,7571 16918,7572 16916,7573 16912,7575 16906,7578 16897,7582 16886,7588 16872,7595 16855,7604 16835,7615 16813,7626 16788,7639 16762,7653 16734,7667 16706,7682 16677,7697 16649,7711 16623,7725 16598,7738 16576,7749 16556,7760 16539,7769 16525,7776 16514,7782 16506,7786 16499,7789 16496,7791 16493,7792 16492,7793 16493,7793 16495,7794 16498,7796 16503,7800 16510,7804 16519,7810 16531,7818 16546,7827 16563,7838 16582,7850 16604,7864 16627,7878 16653,7894 16679,7910 16707,7927 16735,7944 16764,7961 16793,7977 16822,7994 16850,8010 16879,8026 16907,8040 16934,8055 16961,8068 16987,8081 17013,8093 17037,8104 17062,8115 17086,8125 17110,8134 17133,8143 17156,8151 17180,8158 17203,8165 17226,8171 17249,8177 17274,8182 17297,8187 17322,8192 17343,8196 17365,8199 17387,8202 17410,8205 17433,8208 17457,8210 17481,8213 17505,8214 17530,8216 17555,8217 17581,8218 17607,8219 17634,8220 17661,8220 17688,8220 17716,8219 17743,8219 17772,8218 17800,8217 17828,8215 17857,8213 17886,8211 17914,8209 17942,8206 17971,8203 17999,8200 18027,8196 18055,8192 18082,8188 18109,8184 18136,8179 18162,8174 18188,8169 18214,8164 18238,8159 18262,8153 18287,8146 18310,8141 18332,8134 18354,8128 18376,8121 18397,8114 18418,8107 18438,8099 18457,8092 18477,8084 18498,8075 18519,8065 18540,8055 18560,8045 18580,8034 18599,8023 18618,8012 18637,8000 18655,7987 18674,7975 18691,7962 18708,7948 18725,7934 18742,7920 18758,7906 18773,7891 18788,7876 18803,7860 18817,7844 18830,7828 18844,7813 18856,7796 18868,7780 18879,7764 18889,7748 18899,7731 18909,7715 18917,7699 18925,7682 18933,7667 18940,7650 18946,7635 18952,7619 18957,7604 18962,7588 18966,7574 18970,7559 18973,7544 18976,7529 18978,7514 18980,7497 18982,7480 18983,7462 18984,7445 18984,7428 18983,7410 18982,7392 18980,7374 18978,7356 18975,7339 18972,7320 18967,7302 18963,7283 18958,7266 18952,7247 18945,7229 18939,7212 18931,7194 18923,7176 18915,7160 18906,7143 18897,7127 18888,7111 18878,7096 18868,7080 18857,7066 18847,7052 18836,7038 18825,7026 18814,7013 18802,7001 18791,6990 18779,6978 18766,6967 18754,6957 18741,6946 18728,6937 18714,6927 18700,6917 18686,6908 18671,6898 18656,6889 18640,6880 18624,6871 18607,6862 18590,6854 18572,6846 18554,6838 18536,6829 18518,6822 18499,6814 18480,6806 18460,6800 18441,6792 18422,6785 18403,6779 18384,6772 18365,6766 18346,6760 18327,6754 18309,6749 18290,6743 18272,6738 18254,6733 18236,6728 18218,6723 18201,6718 18183,6713 18165,6708 18147,6703 18129,6699 18111,6693 18093,6689 18074,6684 18056,6679 18036,6674 18017,6669 17998,6664 17979,6658 17959,6653 17939,6648 17919,6643 17899,6637 17879,6632 17859,6627 17839,6622 17820,6616 17801,6611 17782,6606 17763,6601 17745,6596 17728,6591 17710,6586 17693,6582 17677,6577 17661,6573 17646,6569 17630,6564 17616,6560 17602,6556 17588,6552 17575,6548 17558,6543 17541,6538 17524,6533 17508,6528 17491,6522 17476,6517 17460,6511 17444,6506 17429,6500 17414,6493 17400,6487 17385,6480 17371,6473 17358,6466 17344,6458 17332,6450 17320,6443 17309,6435 17299,6426 17289,6418 17279,6409 17270,6400 17262,6391 17254,6381 17246,6371 17239,6361 17233,6351 17227,6341 17221,6330 17216,6318 17211,6306 17206,6294 17201,6281 17197,6268 17193,6254 17190,6240 17186,6226 17184,6211 17182,6196 17181,6181 17180,6166 17180,6152 17180,6137 17181,6122 17183,6108 17185,6094 17188,6081 17192,6068 17195,6055 17200,6043 17205,6031 17212,6020 17218,6009 17225,5999 17233,5988 17241,5979 17251,5970 17261,5961 17272,5952 17284,5943 17296,5934 17310,5926 17323,5918 17338,5910 17354,5903 17370,5896 17386,5889 17403,5882 17420,5876 17437,5869 17455,5864 17472,5859 17490,5854 17508,5849 17525,5845 17542,5841 17559,5837 17576,5834 17592,5830 17608,5828 17624,5825 17640,5823 17656,5820 17671,5818 17687,5816 17702,5814 17718,5813 17734,5812 17750,5810 17766,5809 17783,5808 17800,5808 17817,5808 17834,5808 17850,5808 17868,5809 17885,5810 17901,5811 17918,5813 17935,5815 17951,5817 17967,5819 17983,5822 17999,5825 18014,5828 18029,5832 18045,5836 18059,5840 18074,5845 18089,5849 18102,5854 18115,5859 18128,5864 18142,5870 18156,5876 18170,5882 18185,5889 18201,5897 18217,5905 18234,5914 18251,5923 18270,5933 18290,5944 18310,5955 18332,5967 18354,5980 18376,5993 18398,6006 18421,6019 18443,6033 18464,6045 18483,6057 18501,6068 18518,6077 18531,6085 18542,6092 18550,6097 18556,6101 18560,6103 18562,6104 18563,6105 18564,6104 18566,6103 18571,6100 18577,6096 18586,6089 18598,6081 18613,6070 18630,6058 18651,6044 18674,6027 18698,6010 18724,5992 18751,5973 18777,5954 18803,5936 18828,5919 18850,5902 18871,5888 18889,5876 18903,5865 18916,5857 18924,5850 18931,5846 18935,5843 18937,5841 18938,5841 18937,5840 18935,5839 18932,5837 18927,5833 18919,5827 18910,5821 18898,5813 18884,5803 18869,5792 18852,5781 18834,5769 18816,5756 18797,5743 18778,5731 18760,5719 18741,5707 18723,5695 18706,5685 18689,5674 18672,5664 18656,5655 18640,5646 18625,5638 18609,5629 18594,5622 18579,5614 18563,5607 18547,5600 18531,5593 "
       style="stroke:#ffffff;stroke-width:4; stroke-linejoin:bevel; stroke-linecap:butt; fill:#ffffff; "
       id="polygon2247" />
    <!-- Line -->
    <polygon
       points="5337,8151 5338,8151 5340,8151 5344,8151 5350,8151 5360,8151 5372,8151 5387,8151 5405,8151 5427,8151 5452,8151 5480,8151 5510,8151 5542,8151 5575,8151 5609,8151 5643,8151 5677,8151 5709,8151 5739,8151 5766,8151 5791,8151 5813,8151 5832,8151 5847,8151 5859,8151 5868,8151 5875,8151 5879,8151 5881,8151 5882,8151 5882,8150 5882,8148 5882,8145 5882,8140 5882,8133 5882,8123 5882,8111 5882,8095 5882,8077 5882,8055 5882,8029 5882,8001 5882,7969 5882,7934 5882,7897 5882,7857 5882,7815 5882,7770 5882,7724 5882,7678 5882,7630 5882,7584 5882,7537 5882,7491 5882,7447 5882,7405 5882,7364 5882,7327 5882,7292 5882,7260 5882,7232 5882,7207 5882,7185 5882,7166 5882,7151 5882,7139 5882,7129 5882,7121 5882,7117 5882,7113 5882,7111 5882,7111 5883,7111 5885,7111 5889,7110 5895,7110 5903,7110 5915,7109 5929,7109 5948,7108 5969,7107 5993,7106 6021,7105 6052,7103 6085,7102 6121,7100 6159,7098 6198,7097 6238,7095 6280,7092 6321,7090 6363,7088 6405,7086 6446,7083 6486,7081 6525,7078 6563,7076 6600,7074 6636,7071 6670,7068 6703,7066 6735,7063 6765,7060 6794,7058 6822,7055 6848,7053 6874,7049 6898,7047 6921,7044 6944,7040 6965,7037 6986,7034 7006,7030 7026,7027 7045,7024 7062,7019 7081,7016 7106,7010 7130,7004 7154,6997 7177,6990 7200,6983 7222,6975 7243,6967 7265,6959 7285,6951 7306,6942 7325,6932 7344,6922 7363,6912 7381,6902 7399,6892 7416,6881 7432,6870 7448,6859 7462,6848 7477,6836 7490,6825 7502,6814 7514,6803 7526,6791 7537,6780 7546,6769 7556,6758 7564,6746 7573,6736 7581,6725 7588,6714 7595,6703 7603,6690 7611,6676 7618,6662 7625,6648 7632,6634 7638,6619 7645,6605 7650,6590 7656,6574 7661,6558 7666,6542 7670,6526 7674,6510 7678,6493 7681,6478 7685,6461 7687,6446 7690,6430 7692,6415 7693,6400 7695,6385 7697,6371 7698,6356 7699,6343 7700,6329 7700,6316 7701,6302 7701,6288 7701,6275 7701,6261 7701,6247 7701,6233 7700,6218 7699,6203 7698,6188 7696,6172 7693,6157 7691,6141 7688,6125 7684,6110 7680,6094 7676,6078 7671,6063 7665,6047 7659,6032 7653,6017 7646,6002 7638,5988 7630,5973 7622,5959 7613,5945 7604,5931 7596,5920 7588,5910 7580,5899 7572,5889 7562,5878 7552,5867 7542,5856 7531,5845 7519,5834 7507,5822 7493,5811 7479,5800 7465,5788 7449,5776 7433,5765 7415,5753 7397,5742 7379,5731 7360,5720 7340,5709 7319,5698 7297,5688 7275,5677 7253,5668 7229,5658 7206,5649 7182,5640 7157,5632 7131,5623 7106,5616 7079,5608 7053,5601 7025,5595 6997,5588 6968,5583 6939,5577 6919,5573 6898,5570 6877,5567 6855,5564 6833,5561 6810,5558 6786,5555 6762,5552 6737,5550 6711,5548 6684,5545 6656,5543 6627,5541 6597,5540 6565,5538 6533,5536 6499,5534 6464,5533 6427,5532 6390,5530 6351,5529 6310,5528 6269,5527 6226,5525 6182,5524 6137,5524 6091,5523 6044,5522 5997,5521 5950,5521 5902,5520 5855,5520 5808,5519 5762,5519 5717,5519 5673,5518 5632,5518 5592,5518 5554,5518 5520,5518 5488,5517 5460,5517 5434,5517 5412,5517 5393,5517 5377,5517 5364,5517 5354,5517 5347,5517 5342,5517 5339,5517 5337,5517 5337,5517 5337,5518 5337,5519 5337,5521 5337,5524 5337,5529 5337,5535 5337,5544 5337,5555 5337,5569 5337,5585 5337,5603 5337,5625 5337,5649 5337,5677 5337,5708 5337,5742 5337,5780 5337,5820 5337,5865 5337,5912 5337,5962 5337,6016 5337,6072 5337,6132 5337,6194 5337,6258 5337,6325 5337,6394 5337,6464 5337,6536 5337,6609 5337,6684 5337,6759 5337,6834 5337,6909 5337,6984 5337,7058 5337,7132 5337,7204 5337,7274 5337,7343 5337,7410 5337,7474 5337,7536 5337,7596 5337,7652 5337,7706 5337,7756 5337,7803 5337,7847 5337,7888 5337,7925 5337,7960 5337,7991 5337,8018 5337,8043 5337,8065 5337,8083 5337,8099 5337,8112 5337,8123 5337,8132 5337,8139 5337,8144 5337,8147 5337,8149 5337,8150 5337,8151 "
       style="stroke:#ffffff;stroke-width:4; stroke-linejoin:bevel; stroke-linecap:butt; fill:#ffffff; "
       id="polygon2249" />
    <!-- Line -->
    <polygon
       points="30405,7854 30424,7846 30443,7839 30462,7832 30482,7824 30502,7816 30522,7808 30542,7801 30562,7793 30583,7785 30604,7776 30626,7769 30647,7760 30669,7751 30691,7743 30714,7734 30737,7725 30760,7716 30784,7707 30807,7698 30831,7689 30855,7680 30879,7670 30903,7661 30927,7651 30952,7642 30976,7633 31000,7624 31025,7614 31049,7605 31073,7596 31097,7586 31121,7577 31145,7568 31169,7559 31192,7550 31216,7541 31239,7532 31262,7524 31286,7515 31309,7506 31332,7498 31354,7489 31377,7480 31401,7471 31423,7463 31446,7455 31468,7446 31491,7438 31514,7429 31538,7420 31562,7412 31586,7403 31611,7394 31635,7384 31660,7375 31686,7366 31711,7356 31738,7347 31764,7337 31790,7328 31816,7318 31843,7308 31870,7298 31897,7288 31924,7278 31951,7268 31978,7258 32005,7248 32032,7238 32058,7228 32084,7218 32110,7209 32136,7200 32161,7190 32186,7181 32211,7171 32236,7162 32259,7153 32283,7144 32306,7136 32329,7127 32351,7119 32372,7111 32393,7102 32414,7095 32434,7087 32454,7079 32474,7071 32493,7064 32512,7057 32534,7048 32556,7039 32578,7031 32600,7022 32621,7014 32642,7005 32663,6997 32684,6988 32705,6980 32726,6971 32746,6963 32767,6954 32788,6946 32808,6938 32828,6929 32848,6921 32868,6913 32888,6905 32907,6897 32927,6889 32945,6881 32964,6874 32982,6867 33000,6859 33018,6853 33035,6845 33052,6839 33068,6832 33085,6826 33100,6820 33116,6814 33131,6808 33146,6803 33161,6797 33175,6792 33190,6787 33204,6782 33218,6777 33236,6771 33254,6765 33271,6759 33290,6753 33308,6748 33327,6742 33345,6737 33364,6732 33383,6727 33403,6722 33422,6718 33441,6713 33461,6709 33480,6705 33499,6701 33518,6698 33537,6695 33555,6692 33573,6690 33591,6688 33608,6687 33625,6685 33640,6685 33656,6684 33671,6684 33686,6684 33700,6685 33713,6686 33726,6687 33739,6689 33754,6692 33769,6695 33784,6699 33798,6704 33813,6709 33827,6714 33840,6721 33854,6728 33867,6735 33880,6744 33893,6752 33905,6761 33917,6770 33928,6780 33939,6789 33949,6798 33959,6808 33968,6818 33977,6828 33985,6837 33992,6846 34000,6856 34006,6865 34013,6874 34019,6883 34026,6893 34033,6903 34039,6913 34045,6923 34050,6934 34056,6945 34061,6956 34066,6967 34071,6980 34076,6991 34080,7004 34084,7016 34087,7028 34090,7040 34093,7053 34096,7066 34098,7078 34100,7091 34101,7103 34103,7116 34104,7130 34104,7143 34105,7157 34106,7171 34106,7186 34106,7202 34106,7217 34107,7233 34107,7249 34107,7265 34107,7280 34108,7295 34109,7310 34110,7324 34111,7337 34112,7349 34114,7360 34117,7370 34119,7379 34122,7386 34125,7392 34129,7397 34134,7401 34139,7403 34144,7404 34150,7403 34157,7402 34164,7399 34172,7395 34181,7390 34191,7384 34200,7377 34211,7369 34221,7360 34232,7350 34244,7340 34255,7329 34266,7318 34277,7307 34289,7296 34300,7284 34311,7273 34321,7262 34332,7251 34343,7240 34352,7230 34362,7220 34372,7211 34382,7201 34392,7191 34402,7181 34412,7171 34423,7161 34434,7151 34445,7141 34456,7132 34467,7123 34478,7114 34489,7106 34500,7097 34511,7090 34521,7082 34532,7076 34542,7070 34553,7064 34563,7059 34573,7055 34583,7050 34593,7047 34603,7044 34614,7040 34626,7038 34637,7036 34649,7034 34661,7034 34673,7033 34686,7033 34698,7034 34711,7035 34723,7036 34735,7039 34748,7041 34759,7045 34771,7048 34782,7053 34792,7057 34803,7061 34812,7067 34821,7072 34830,7078 34838,7083 34846,7090 34854,7097 34861,7104 34869,7112 34876,7121 34883,7130 34890,7140 34896,7150 34902,7161 34909,7172 34914,7184 34919,7197 34924,7210 34928,7223 34932,7237 34935,7250 34939,7264 34941,7278 34943,7292 34945,7307 34946,7322 34948,7337 34948,7351 34949,7365 34949,7380 34949,7395 34949,7411 34949,7427 34949,7444 34949,7461 34949,7478 34949,7495 34950,7512 34950,7529 34951,7546 34952,7562 34953,7577 34955,7593 34958,7607 34960,7620 34963,7633 34967,7645 34971,7655 34976,7665 34981,7674 34987,7682 34994,7689 35002,7695 35010,7700 35019,7705 35029,7709 35040,7713 35051,7716 35064,7717 35078,7719 35091,7719 35107,7719 35122,7719 35138,7718 35154,7716 35170,7714 35187,7712 35204,7709 35220,7706 35237,7702 35254,7699 35270,7695 35287,7691 35303,7687 35320,7683 35334,7680 35348,7676 35363,7672 35377,7669 35392,7665 35407,7661 35423,7657 35439,7653 35455,7648 35471,7644 35487,7640 35504,7635 35520,7631 35537,7626 35553,7622 35570,7617 35585,7613 35601,7608 35616,7604 35632,7600 35646,7595 35660,7591 35674,7587 35688,7583 35700,7580 35713,7576 35725,7572 35738,7569 35752,7564 35767,7559 35782,7554 35796,7550 35810,7545 35824,7540 35838,7535 35853,7530 35866,7525 35879,7520 35892,7514 35904,7509 35917,7503 35928,7498 35938,7492 35948,7486 35958,7481 35966,7475 35974,7469 35981,7464 35988,7458 35994,7452 36001,7445 36007,7438 36012,7430 36018,7423 36023,7414 36027,7405 36032,7395 36036,7385 36040,7374 36044,7363 36048,7351 36051,7339 36055,7327 36059,7314 36062,7301 36066,7288 36069,7275 36072,7261 36076,7247 36080,7233 36083,7222 36086,7210 36090,7198 36093,7185 36097,7173 36101,7159 36106,7145 36110,7130 36114,7116 36119,7100 36124,7085 36130,7068 36134,7053 36140,7036 36145,7020 36151,7004 36156,6987 36161,6972 36167,6956 36172,6940 36177,6925 36182,6910 36187,6896 36192,6881 36197,6868 36202,6854 36207,6840 36212,6827 36216,6813 36220,6800 36225,6786 36229,6773 36233,6760 36237,6746 36240,6733 36243,6720 36245,6708 36246,6696 36247,6685 36247,6674 36247,6663 36246,6653 36243,6644 36240,6636 36236,6629 36232,6622 36226,6616 36219,6612 36211,6608 36203,6605 36193,6602 36182,6601 36172,6601 36162,6600 36150,6601 36138,6602 36125,6603 36111,6605 36097,6607 36081,6610 36065,6613 36048,6616 36030,6620 36012,6625 35993,6629 35973,6634 35953,6639 35933,6644 35913,6649 35892,6654 35871,6660 35850,6665 35830,6670 35809,6676 35790,6681 35770,6686 35750,6691 35731,6695 35712,6700 35694,6704 35676,6708 35659,6711 35641,6714 35625,6718 35605,6721 35586,6723 35566,6725 35548,6728 35529,6729 35510,6730 35492,6730 35474,6730 35456,6730 35438,6729 35421,6727 35404,6725 35388,6723 35372,6720 35356,6717 35341,6713 35327,6709 35313,6704 35300,6700 35287,6695 35276,6689 35264,6684 35253,6678 35243,6672 35233,6666 35223,6659 35213,6652 35203,6644 35194,6636 35184,6628 35174,6619 35165,6609 35156,6600 35146,6590 35138,6579 35129,6569 35120,6558 35111,6546 35103,6535 35095,6524 35087,6512 35080,6501 35073,6490 35066,6480 35060,6469 35054,6459 35048,6449 35042,6439 35037,6430 35032,6420 35025,6410 35019,6399 35013,6388 35007,6377 35001,6366 34995,6355 34989,6344 34983,6333 34977,6322 34972,6311 34966,6300 34961,6289 34956,6278 34951,6267 34946,6257 34942,6247 34938,6237 34934,6227 34931,6217 34928,6207 34924,6196 34921,6185 34917,6174 34914,6162 34911,6150 34908,6139 34906,6127 34903,6115 34901,6103 34900,6092 34899,6082 34898,6072 34898,6064 34898,6056 34898,6049 34899,6043 34900,6038 34902,6034 34905,6030 34909,6028 34913,6027 34919,6027 34925,6029 34932,6031 34941,6034 34950,6038 34959,6042 34969,6047 34979,6051 34989,6055 34999,6059 35010,6063 35018,6065 35027,6067 35037,6069 35047,6071 35057,6072 35068,6074 35080,6075 35092,6076 35104,6076 35117,6077 35130,6077 35142,6076 35155,6076 35168,6075 35180,6075 35193,6074 35205,6072 35217,6071 35227,6070 35238,6069 35249,6068 35260,6066 35271,6065 35283,6062 35295,6061 35308,6059 35321,6057 35334,6055 35348,6052 35361,6050 35375,6047 35389,6045 35403,6042 35416,6039 35430,6037 35444,6034 35457,6031 35470,6028 35484,6026 35497,6023 35508,6020 35519,6018 35530,6016 35542,6013 35553,6011 35566,6008 35579,6005 35592,6002 35606,5998 35620,5994 35635,5991 35650,5986 35666,5982 35682,5977 35699,5972 35716,5967 35733,5962 35751,5956 35769,5950 35787,5944 35806,5938 35824,5931 35843,5924 35862,5917 35881,5910 35901,5902 35921,5895 35942,5887 35958,5880 35975,5873 35992,5866 36009,5858 36028,5851 36046,5843 36065,5835 36085,5827 36104,5818 36124,5809 36145,5801 36166,5792 36187,5783 36208,5774 36230,5764 36251,5755 36272,5746 36294,5737 36315,5728 36336,5720 36357,5711 36377,5702 36397,5695 36417,5687 36436,5679 36454,5672 36471,5666 36489,5659 36505,5653 36521,5648 36536,5643 36550,5638 36564,5634 36577,5630 36590,5627 36601,5624 36617,5620 36633,5617 36647,5616 36660,5615 36672,5615 36683,5615 36693,5616 36702,5618 36711,5622 36718,5625 36724,5628 36730,5633 36735,5637 36740,5642 36743,5647 36746,5652 36749,5657 36751,5662 36752,5667 36754,5672 36755,5676 36755,5680 36756,5684 36758,5688 36759,5692 36760,5696 36762,5699 36764,5701 36766,5703 36768,5704 36771,5704 36773,5704 36776,5704 36780,5704 36783,5703 36786,5702 36789,5701 36793,5700 36796,5700 36800,5699 36804,5699 36808,5699 36813,5699 36818,5700 36823,5701 36828,5702 36833,5704 36837,5707 36841,5710 36845,5713 36847,5717 36850,5720 36851,5724 36853,5729 36853,5735 36852,5741 36850,5749 36849,5756 36847,5765 36845,5774 36843,5784 36841,5793 36840,5802 36840,5811 36841,5819 36843,5827 36845,5833 36847,5838 36851,5845 36855,5850 36859,5857 36865,5864 36871,5870 36877,5877 36883,5884 36890,5891 36897,5899 36903,5907 36910,5914 36916,5922 36922,5930 36928,5938 36932,5944 36937,5951 36941,5959 36944,5967 36948,5975 36952,5984 36954,5993 36957,6003 36959,6012 36961,6023 36961,6033 36961,6043 36961,6053 36960,6063 36958,6073 36954,6082 36951,6092 36946,6101 36941,6110 36935,6120 36929,6127 36922,6134 36915,6142 36907,6150 36899,6158 36889,6166 36879,6175 36869,6184 36857,6193 36846,6203 36834,6212 36821,6222 36808,6233 36796,6243 36783,6254 36771,6264 36758,6275 36746,6287 36734,6298 36722,6309 36711,6321 36700,6332 36689,6344 36679,6356 36670,6367 36662,6379 36654,6391 36646,6403 36637,6415 36629,6428 36622,6442 36614,6456 36606,6471 36598,6486 36590,6501 36583,6517 36575,6533 36568,6550 36561,6566 36554,6583 36547,6600 36540,6616 36534,6633 36528,6649 36521,6666 36516,6681 36510,6697 36504,6713 36499,6728 36495,6743 36489,6758 36485,6773 36479,6788 36474,6805 36469,6821 36464,6837 36458,6854 36453,6870 36448,6887 36443,6903 36437,6921 36432,6938 36427,6955 36422,6972 36417,6988 36412,7005 36407,7021 36403,7037 36398,7052 36394,7067 36390,7081 36386,7095 36383,7108 36380,7120 36376,7132 36373,7143 36371,7154 36368,7165 36366,7174 36363,7183 36362,7192 36360,7201 36358,7209 36356,7217 36355,7225 36354,7233 36354,7240 36353,7247 36353,7254 36354,7260 36355,7266 36356,7271 36358,7277 36360,7282 36362,7286 36365,7290 36369,7293 36373,7297 36377,7299 36382,7301 36387,7303 36393,7304 36400,7305 36407,7306 36414,7306 36422,7306 36430,7305 36439,7304 36449,7302 36460,7301 36471,7299 36483,7296 36497,7293 36510,7290 36524,7286 36540,7282 36555,7277 36572,7272 36589,7267 36606,7261 36624,7255 36643,7248 36661,7241 36679,7235 36698,7227 36717,7220 36735,7212 36754,7205 36773,7196 36791,7188 36809,7180 36827,7172 36846,7163 36864,7155 36881,7146 36898,7138 36915,7129 36933,7120 36950,7111 36968,7102 36986,7092 37005,7082 37023,7072 37041,7063 37060,7053 37078,7043 37097,7033 37115,7024 37133,7014 37151,7005 37167,6996 37184,6987 37201,6979 37216,6971 37230,6964 37245,6957 37258,6951 37271,6945 37282,6940 37294,6935 37304,6931 37314,6928 37323,6925 37331,6923 37340,6922 37348,6921 37355,6921 37362,6921 37367,6922 37373,6924 37377,6927 37381,6930 37384,6934 37387,6939 37389,6944 37391,6950 37392,6956 37393,6962 37393,6969 37393,6976 37392,6983 37391,6991 37390,6998 37388,7005 37387,7013 37385,7020 37383,7027 37382,7034 37380,7040 37378,7047 37375,7057 37372,7067 37370,7077 37367,7087 37365,7097 37363,7107 37361,7116 37359,7125 37358,7135 37357,7144 37356,7152 37356,7161 37357,7169 37358,7176 37359,7184 37361,7192 37363,7198 37365,7205 37368,7213 37371,7220 37374,7228 37379,7236 37383,7245 37387,7254 37393,7263 37397,7272 37403,7282 37408,7292 37414,7301 37419,7311 37425,7321 37430,7331 37435,7341 37440,7351 37444,7358 37448,7365 37451,7373 37455,7381 37458,7389 37461,7397 37464,7406 37467,7415 37469,7425 37471,7435 37473,7445 37474,7455 37475,7466 37475,7477 37475,7488 37474,7499 37471,7510 37469,7521 37466,7532 37462,7543 37457,7554 37452,7566 37446,7577 37438,7588 37431,7600 37422,7611 37414,7620 37406,7629 37397,7639 37387,7649 37376,7659 37365,7669 37353,7680 37341,7691 37328,7702 37313,7713 37299,7724 37283,7736 37268,7748 37251,7759 37235,7771 37217,7782 37200,7794 37182,7806 37164,7817 37146,7828 37128,7840 37110,7851 37091,7861 37074,7872 37056,7882 37038,7892 37020,7902 37003,7911 36986,7920 36970,7929 36953,7938 36937,7946 36920,7954 36903,7962 36887,7970 36870,7978 36854,7986 36837,7994 36820,8001 36803,8009 36785,8016 36768,8024 36750,8032 36733,8039 36715,8046 36697,8053 36679,8060 36662,8067 36644,8074 36627,8080 36609,8087 36593,8092 36576,8099 36560,8104 36544,8110 36528,8116 36513,8121 36498,8125 36483,8130 36469,8135 36455,8139 36441,8144 36428,8148 36415,8152 36399,8157 36383,8162 36366,8166 36351,8171 36334,8176 36319,8181 36302,8186 36286,8191 36270,8196 36255,8202 36239,8207 36223,8213 36208,8218 36194,8225 36180,8230 36166,8237 36153,8243 36140,8249 36129,8256 36118,8263 36107,8270 36098,8277 36089,8284 36080,8291 36072,8299 36066,8307 36059,8315 36053,8324 36047,8333 36041,8343 36036,8353 36032,8364 36027,8376 36023,8389 36019,8402 36016,8416 36013,8430 36010,8446 36008,8462 36005,8478 36003,8495 36002,8513 36000,8531 35998,8549 35997,8567 35996,8586 35995,8606 35994,8625 35993,8645 35992,8665 35991,8685 35990,8706 35990,8722 35988,8739 35987,8756 35986,8774 35985,8792 35984,8811 35983,8830 35982,8849 35981,8869 35979,8889 35978,8910 35976,8931 35975,8952 35973,8973 35971,8994 35970,9015 35968,9036 35966,9057 35964,9077 35962,9098 35960,9118 35958,9137 35956,9155 35954,9174 35952,9191 35950,9208 35948,9224 35945,9240 35943,9255 35941,9268 35939,9281 35937,9294 35934,9306 35932,9317 35928,9334 35924,9350 35920,9363 35915,9376 35911,9387 35906,9397 35901,9406 35896,9414 35891,9420 35886,9426 35880,9430 35876,9434 35871,9437 35866,9439 35861,9441 35857,9444 35853,9445 35849,9447 35846,9448 35843,9450 35838,9454 35834,9458 35829,9464 35825,9470 35820,9477 35816,9485 35811,9493 35806,9502 35802,9511 35796,9520 35791,9530 35785,9539 35780,9548 35773,9557 35769,9562 35765,9566 35761,9571 35757,9576 35753,9581 35748,9585 35743,9590 35738,9594 35733,9597 35728,9601 35723,9604 35717,9607 35712,9609 35707,9611 35702,9613 35697,9613 35692,9613 35687,9612 35683,9611 35679,9609 35675,9606 35671,9603 35668,9598 35665,9593 35662,9587 35659,9581 35657,9573 35655,9565 35653,9555 35652,9545 35650,9534 35649,9522 35648,9508 35648,9494 35648,9479 35647,9463 35647,9447 35648,9429 35648,9411 35649,9393 35650,9374 35651,9355 35653,9337 35654,9318 35656,9298 35657,9280 35659,9261 35661,9243 35663,9225 35665,9207 35667,9190 35669,9172 35671,9156 35674,9140 35676,9124 35678,9108 35681,9091 35683,9075 35686,9058 35689,9041 35692,9025 35695,9007 35698,8990 35701,8973 35704,8955 35708,8939 35711,8921 35714,8904 35718,8888 35721,8871 35724,8855 35728,8839 35731,8824 35735,8808 35738,8794 35741,8780 35744,8765 35748,8751 35751,8738 35754,8724 35758,8710 35761,8696 35764,8681 35768,8667 35771,8653 35774,8638 35777,8624 35780,8609 35782,8595 35784,8582 35785,8568 35786,8555 35786,8542 35786,8530 35785,8519 35784,8508 35782,8498 35779,8488 35775,8480 35771,8472 35765,8466 35760,8460 35753,8455 35745,8451 35737,8448 35728,8446 35718,8445 35709,8444 35698,8444 35687,8445 35675,8446 35661,8447 35647,8449 35633,8453 35617,8456 35601,8459 35583,8463 35566,8468 35548,8472 35529,8477 35509,8482 35490,8488 35470,8494 35450,8500 35429,8506 35409,8511 35390,8517 35370,8523 35350,8528 35331,8534 35311,8539 35292,8544 35274,8549 35256,8553 35238,8558 35220,8561 35203,8565 35185,8568 35168,8571 35151,8574 35133,8576 35116,8579 35098,8581 35080,8583 35062,8584 35045,8585 35027,8586 35009,8586 34992,8586 34974,8586 34957,8585 34940,8584 34923,8583 34907,8582 34891,8580 34875,8578 34860,8575 34845,8573 34830,8570 34817,8566 34804,8563 34791,8560 34778,8556 34766,8552 34754,8548 34743,8543 34730,8537 34717,8531 34704,8525 34692,8518 34680,8511 34668,8503 34656,8495 34644,8486 34632,8477 34619,8467 34608,8457 34596,8446 34585,8436 34574,8425 34564,8413 34553,8402 34543,8390 34534,8378 34525,8366 34516,8354 34508,8342 34500,8330 34492,8318 34485,8306 34478,8293 34471,8281 34465,8268 34458,8254 34451,8240 34444,8226 34437,8212 34430,8197 34423,8183 34416,8169 34409,8155 34402,8142 34395,8129 34387,8117 34380,8106 34373,8096 34365,8087 34358,8079 34350,8072 34342,8067 34334,8063 34327,8061 34319,8060 34311,8061 34302,8063 34294,8067 34287,8071 34280,8077 34272,8083 34265,8090 34257,8099 34248,8109 34240,8119 34231,8131 34222,8143 34213,8156 34203,8171 34194,8185 34184,8201 34174,8217 34164,8233 34154,8250 34145,8267 34135,8285 34126,8302 34117,8319 34108,8337 34099,8353 34090,8370 34082,8386 34074,8402 34066,8418 34059,8433 34052,8447 34045,8461 34039,8475 34031,8491 34023,8507 34016,8522 34009,8537 34003,8551 33996,8565 33990,8579 33984,8593 33978,8606 33972,8619 33967,8632 33962,8644 33957,8655 33953,8667 33949,8678 33945,8688 33941,8698 33938,8708 33934,8717 33932,8726 33929,8735 33927,8743 33924,8752 33922,8760 33920,8771 33917,8783 33914,8794 33911,8806 33909,8817 33906,8829 33902,8841 33899,8853 33895,8864 33891,8874 33886,8884 33881,8893 33876,8901 33871,8909 33865,8915 33858,8920 33851,8924 33844,8928 33837,8930 33830,8931 33823,8932 33814,8932 33805,8931 33796,8930 33785,8929 33775,8926 33763,8923 33751,8920 33739,8916 33727,8911 33714,8906 33701,8900 33688,8895 33675,8888 33662,8882 33649,8875 33637,8868 33625,8861 33612,8854 33600,8847 33588,8840 33576,8833 33565,8825 33553,8817 33541,8809 33529,8801 33517,8792 33505,8783 33493,8773 33481,8763 33470,8753 33458,8743 33448,8732 33437,8722 33427,8711 33418,8700 33410,8690 33403,8679 33396,8669 33390,8658 33384,8648 33380,8637 33376,8627 33374,8617 33372,8606 33370,8595 33370,8584 33370,8573 33371,8562 33372,8550 33374,8538 33377,8525 33380,8512 33384,8499 33388,8486 33393,8472 33398,8459 33403,8445 33409,8432 33415,8418 33420,8405 33426,8391 33432,8379 33438,8365 33443,8353 33449,8340 33454,8328 33459,8316 33464,8304 33468,8292 33472,8281 33477,8269 33481,8256 33486,8243 33490,8230 33494,8216 33498,8203 33502,8188 33506,8173 33510,8158 33514,8143 33518,8127 33522,8111 33525,8095 33529,8079 33533,8062 33536,8046 33540,8029 33543,8013 33546,7997 33549,7980 33552,7963 33555,7946 33559,7929 33561,7914 33564,7900 33566,7885 33569,7870 33572,7854 33575,7838 33577,7821 33581,7804 33583,7786 33586,7769 33589,7750 33592,7731 33595,7713 33598,7693 33601,7675 33604,7655 33607,7636 33609,7616 33613,7597 33615,7578 33618,7559 33620,7541 33623,7522 33625,7504 33628,7487 33630,7470 33632,7453 33634,7437 33636,7421 33638,7405 33639,7390 33641,7375 33643,7357 33645,7339 33646,7321 33648,7303 33649,7286 33650,7268 33652,7251 33653,7234 33654,7217 33655,7200 33655,7183 33655,7167 33656,7152 33656,7137 33656,7122 33655,7108 33655,7095 33654,7082 33653,7070 33652,7059 33651,7049 33649,7040 33648,7031 33646,7023 33645,7015 33643,7008 33640,7002 33637,6995 33634,6990 33631,6984 33627,6980 33623,6975 33619,6972 33614,6969 33608,6966 33603,6964 33596,6962 33590,6961 33582,6960 33574,6960 33566,6960 33558,6961 33548,6962 33539,6963 33529,6964 33519,6966 33509,6969 33498,6971 33486,6973 33475,6976 33465,6978 33456,6980 33446,6983 33435,6985 33424,6988 33413,6991 33401,6994 33388,6997 33374,7000 33361,7004 33346,7007 33331,7011 33315,7015 33298,7019 33281,7024 33264,7029 33246,7034 33228,7038 33209,7044 33190,7049 33170,7054 33150,7060 33130,7066 33110,7071 33090,7077 33069,7083 33048,7089 33027,7095 33006,7101 32984,7108 32963,7114 32941,7121 32924,7125 32907,7131 32890,7136 32872,7141 32855,7146 32837,7152 32818,7158 32799,7164 32779,7170 32759,7176 32739,7183 32718,7189 32697,7196 32675,7203 32653,7210 32630,7217 32607,7225 32584,7233 32561,7240 32537,7248 32513,7256 32489,7264 32465,7272 32440,7281 32416,7289 32392,7298 32367,7306 32343,7314 32319,7323 32294,7332 32270,7340 32246,7349 32223,7358 32199,7366 32175,7374 32152,7383 32129,7392 32107,7400 32084,7409 32061,7417 32039,7426 32017,7435 31995,7443 31973,7452 31951,7460 31929,7469 31907,7478 31885,7487 31863,7497 31840,7506 31818,7515 31795,7525 31772,7534 31749,7544 31725,7554 31702,7564 31678,7574 31654,7585 31630,7595 31606,7606 31582,7616 31557,7627 31533,7637 31509,7648 31484,7659 31460,7669 31436,7680 31412,7690 31388,7701 31365,7711 31342,7721 31319,7731 31297,7741 31275,7751 31253,7761 31232,7770 31211,7779 31190,7788 31170,7797 31150,7805 31130,7814 31111,7822 31092,7829 31075,7837 31057,7845 31039,7852 31022,7859 31005,7866 30983,7875 30961,7884 30940,7892 30919,7900 30898,7909 30877,7917 30856,7924 30835,7932 30814,7940 30793,7948 30772,7955 30752,7962 30731,7970 30711,7977 30691,7984 30671,7991 30651,7997 30632,8004 30613,8010 30594,8016 30576,8022 30559,8028 30541,8033 30524,8038 30508,8044 30492,8049 30477,8054 30462,8058 30448,8062 30434,8067 30420,8071 30407,8076 30394,8080 30381,8084 30366,8089 30351,8093 30335,8098 30321,8103 30306,8108 30291,8113 30276,8118 30261,8123 30246,8129 30230,8134 30215,8139 30200,8145 30184,8150 30169,8155 30154,8161 30139,8167 30124,8172 30109,8178 30095,8183 30080,8188 30066,8194 30051,8200 30038,8205 30024,8210 30011,8216 29997,8221 29984,8226 29971,8232 29957,8237 29943,8243 29929,8248 29914,8254 29900,8260 29885,8267 29869,8273 29853,8279 29837,8286 29820,8292 29804,8299 29787,8306 29770,8313 29753,8319 29736,8326 29719,8333 29702,8339 29685,8346 29669,8352 29653,8358 29636,8364 29621,8370 29606,8375 29591,8380 29576,8385 29562,8390 29548,8395 29534,8399 29520,8404 29505,8408 29490,8412 29476,8416 29461,8420 29446,8424 29431,8428 29416,8432 29401,8435 29386,8438 29371,8441 29355,8445 29340,8447 29325,8450 29311,8453 29296,8455 29282,8457 29268,8458 29255,8460 29242,8461 29229,8462 29217,8464 29205,8465 29193,8465 29182,8466 29171,8466 29156,8466 29142,8466 29128,8466 29114,8466 29100,8465 29086,8464 29073,8462 29060,8461 29048,8459 29036,8457 29026,8455 29016,8452 29007,8449 29001,8446 28995,8443 28990,8440 28987,8436 28985,8433 28984,8429 28985,8425 28987,8420 28990,8416 28995,8412 29001,8406 29008,8401 29017,8395 29027,8390 29038,8383 29050,8377 29064,8371 29077,8364 29091,8358 29106,8351 29121,8344 29137,8338 29152,8332 29166,8325 29182,8320 29196,8314 29211,8308 29221,8304 29232,8300 29242,8296 29253,8292 29264,8288 29275,8283 29286,8279 29298,8275 29310,8270 29323,8265 29336,8260 29350,8255 29364,8249 29378,8244 29393,8238 29408,8233 29423,8227 29439,8221 29455,8215 29471,8209 29487,8203 29504,8196 29521,8190 29538,8184 29556,8177 29574,8170 29592,8163 29611,8156 29625,8151 29639,8146 29653,8140 29668,8135 29683,8129 29699,8123 29715,8117 29732,8111 29749,8104 29767,8098 29785,8090 29804,8083 29823,8076 29843,8069 29862,8061 29883,8054 29904,8046 29925,8037 29946,8029 29969,8021 29991,8013 30013,8004 30035,7996 30057,7987 30080,7979 30102,7970 30124,7962 30147,7953 30169,7944 30191,7936 30213,7928 30235,7919 30257,7911 30278,7902 30300,7895 30321,7886 30342,7878 30363,7870 30384,7862 30405,7854 "
       style="stroke:#ffffff;stroke-width:4; stroke-linejoin:bevel; stroke-linecap:butt; fill:#ffffff; "
       id="polygon2251" />
    <!-- Line -->
    <polygon
       points="5882,6795 5883,6795 5885,6795 5889,6795 5896,6795 5904,6795 5917,6796 5932,6796 5951,6796 5972,6796 5997,6796 6024,6796 6054,6796 6085,6796 6118,6796 6151,6796 6186,6796 6220,6796 6255,6796 6289,6796 6322,6795 6355,6795 6386,6795 6416,6794 6445,6793 6473,6793 6499,6792 6524,6791 6548,6790 6571,6789 6592,6788 6613,6786 6632,6785 6650,6784 6668,6782 6685,6780 6701,6778 6717,6776 6732,6774 6747,6772 6767,6768 6787,6764 6806,6760 6825,6755 6843,6750 6861,6745 6878,6739 6895,6733 6911,6727 6928,6720 6943,6713 6958,6706 6972,6698 6986,6690 6999,6682 7012,6675 7023,6666 7035,6658 7045,6649 7055,6640 7064,6632 7073,6624 7081,6615 7089,6606 7096,6598 7102,6590 7109,6581 7115,6573 7122,6562 7129,6551 7135,6539 7142,6528 7148,6516 7154,6503 7159,6491 7164,6478 7169,6465 7174,6451 7177,6438 7181,6424 7184,6411 7187,6398 7190,6385 7192,6372 7194,6360 7195,6348 7196,6336 7197,6325 7197,6314 7197,6303 7197,6292 7197,6281 7196,6270 7195,6259 7194,6248 7192,6237 7190,6226 7187,6214 7184,6203 7181,6191 7177,6179 7173,6167 7169,6156 7164,6145 7159,6133 7153,6123 7147,6112 7141,6102 7134,6092 7128,6082 7121,6072 7113,6062 7107,6055 7101,6047 7094,6040 7087,6032 7079,6024 7070,6016 7062,6008 7052,6001 7042,5993 7032,5984 7020,5976 7008,5969 6995,5961 6982,5953 6968,5945 6953,5938 6938,5931 6923,5924 6907,5917 6890,5911 6873,5904 6856,5899 6838,5893 6819,5888 6801,5883 6782,5879 6762,5875 6741,5871 6727,5868 6711,5866 6696,5864 6679,5861 6662,5859 6645,5857 6626,5856 6607,5854 6587,5852 6565,5850 6543,5849 6520,5848 6495,5847 6468,5845 6441,5844 6413,5843 6383,5842 6351,5841 6319,5840 6286,5839 6252,5838 6218,5838 6184,5837 6149,5836 6116,5836 6083,5835 6052,5835 6023,5834 5996,5834 5972,5834 5950,5833 5932,5833 5917,5833 5904,5833 5896,5833 5889,5833 5885,5833 5883,5833 5882,5833 5882,5833 5882,5835 5882,5838 5882,5844 5882,5851 5882,5861 5882,5875 5882,5891 5882,5911 5882,5933 5882,5960 5882,5989 5882,6022 5882,6057 5882,6096 5882,6136 5882,6179 5882,6223 5882,6268 5882,6314 5882,6360 5882,6405 5882,6449 5882,6492 5882,6532 5882,6571 5882,6606 5882,6639 5882,6668 5882,6695 5882,6717 5882,6737 5882,6753 5882,6766 5882,6776 5882,6784 5882,6790 5882,6793 5882,6795 5882,6795 "
       style="stroke:#646464;stroke-width:4; stroke-linejoin:bevel; stroke-linecap:butt; fill:#646464; "
       id="polygon2253" />
  </g>
</svg>
