<svg xmlns="http://www.w3.org/2000/svg" width="200" height="80" viewBox="10 0 210 80" fill="#ff5046">
<path d="M189 48C189 48 190 48 190 48C190 48 194 51 198 51C200 51 201 50 201 48C201 46 199 44 196 43C191 41 186 38 186 31C186 26 190 21 198 21C203 21 207 24 209 25C209 25 210 26 210 26L206 32C206 32 205 31 205 31C204 31 200 28 197 28C195 28 194 29 194 31C194 33 196 34 200 36C204 37 210 41 210 48C210 53 206 59 198 59C191 59 187 56 186 54C186 54 185 54 185 54L189 48Z"/>
<path d="M177 58H169V36H177V58ZM178 21H169V29H178V21Z"/>
<path d="M153 43C157 41 160 38 160 33C160 27 156 21 149 21H134V29H148C151 29 152 31 152 33C152 35 151 37 148 37H141L152 58H161L153 43Z"/>
<path d="M128 58H104V51H128V58ZM119 36H104V43H119V36ZM128 21H104V29H128V21Z"/>
<path d="M97 36L93 26L86 41L77 21H68L85 59H87L97 36Z"/>
<path d="M62 58H53V36H62V58ZM62 21H53V29H62V21Z"/>
<path d="M46 36L42 26L35 41L26 21H17L34 59H36L46 36Z"/>
</svg>