<?xml version="1.0" encoding="utf-8"?>
<!-- Generator: Adobe Illustrator 16.0.0, SVG Export Plug-In . SVG Version: 6.00 Build 0)  -->
<!DOCTYPE svg PUBLIC "-//W3C//DTD SVG 1.1//EN" "http://www.w3.org/Graphics/SVG/1.1/DTD/svg11.dtd">
<svg version="1.1" xmlns="http://www.w3.org/2000/svg" xmlns:xlink="http://www.w3.org/1999/xlink" x="0px" y="0px"
	 width="239.151px" height="64.151px" viewBox="0 0 239.151 64.151" enable-background="new 0 0 239.151 64.151"
	 xml:space="preserve">
<g id="Calque_1" display="none">
	<g display="inline">
		<g>
			<g>
				<path fill="#1E1E1D" d="M59.339,22.019c3.318,0,5.886,1.135,7.701,3.404c1.7,2.099,2.553,4.849,2.553,8.252
					c0,3.205-0.767,5.871-2.298,8c-1.73,2.324-4.112,3.487-7.148,3.487c-2.098,0-3.813-0.369-5.146-1.105v-3.999
					c1.02,0.85,2.254,1.276,3.699,1.276c2.043,0,3.604-0.811,4.681-2.426c0.908-1.39,1.36-3.163,1.36-5.317
					c0-2.1-0.51-3.885-1.531-5.361c-1.135-1.588-2.637-2.383-4.51-2.383c-2.015,0-3.559,0.696-4.637,2.084
					c-1.021,1.363-1.53,3.248-1.53,5.66v10.977h-4.681V14.234h4.851v11.231h0.084C54.263,23.169,56.447,22.019,59.339,22.019z"/>
				<path fill="#1E1E1D" d="M73.804,22.614h4.849v18.034c0,4.566-2.098,6.85-6.295,6.85c-0.88,0-1.603-0.057-2.171-0.171V43.5
					c0.568,0.111,1.121,0.168,1.66,0.168c0.822,0,1.36-0.27,1.616-0.807c0.226-0.426,0.341-1.234,0.341-2.427V22.614z
					 M73.804,14.234h4.849v4.595h-4.849V14.234z"/>
				<path fill="#1E1E1D" d="M103.583,37.632c-0.481,2.354-1.674,4.199-3.572,5.529c-1.787,1.307-3.901,1.958-6.339,1.958
					c-3.404,0-6.07-1.077-7.998-3.231c-1.845-2.071-2.768-4.853-2.768-8.34c0-0.595,0.043-1.248,0.131-1.957h4.721v0.043H99.03
					c-0.113-1.617-0.639-2.978-1.572-4.084c-1.049-1.164-2.355-1.744-3.914-1.744c-2.44,0-4.17,1.078-5.189,3.233h-4.682
					c0.767-2.128,1.985-3.815,3.659-5.063c1.759-1.332,3.828-2,6.212-2c3.345,0,6.025,1.32,8.041,3.957
					c1.955,2.525,2.721,5.475,2.296,8.848H87.758c0,1.871,0.48,3.391,1.446,4.554c1.049,1.305,2.537,1.956,4.468,1.956
					c2.692,0,4.466-1.221,5.316-3.658H103.583z"/>
				<path fill="#1E1E1D" d="M122.431,29.975c-0.399-2.751-2.071-4.128-5.02-4.128c-1.619,0-2.938,0.497-3.958,1.49
					c-1.39,1.362-2.084,3.531-2.084,6.508c0,2.07,0.439,3.787,1.317,5.148c1.051,1.59,2.554,2.383,4.51,2.383
					c3.007,0,4.75-1.673,5.234-5.02h4.85c-0.907,5.898-4.27,8.849-10.084,8.849c-3.346,0-5.983-1.093-7.912-3.276
					c-1.844-2.043-2.766-4.736-2.766-8.084c0-3.488,0.908-6.295,2.724-8.422c1.926-2.27,4.637-3.404,8.126-3.404
					c2.691,0,4.92,0.652,6.679,1.957c1.929,1.418,3.005,3.418,3.233,5.999H122.431z"/>
				<path fill="#1E1E1D" d="M129.024,22.614h3.657v-6.593h4.852v6.593h4.38v3.617h-4.38v11.741c0,1.135,0.111,1.887,0.341,2.255
					c0.311,0.511,0.977,0.767,1.998,0.767c0.909,0,1.588-0.057,2.041-0.17v3.744c-1.418,0.17-2.465,0.254-3.146,0.254
					c-2.383,0-4.013-0.48-4.892-1.445c-0.739-0.768-1.136-2.156-1.193-4.17V26.231h-3.657V22.614z"/>
				<path fill="#1E1E1D" d="M145.53,14.234h4.851v4.595h-4.851V14.234z M145.53,22.614h4.851V44.61h-4.851V22.614z"/>
				<path fill="#1E1E1D" d="M153.485,22.614h3.617v-1.828c0-2.553,0.623-4.353,1.871-5.403c0.937-0.767,2.34-1.148,4.212-1.148
					c1.589,0,2.722,0.101,3.403,0.298v3.786c-0.624-0.17-1.376-0.254-2.256-0.254c-1.586,0-2.381,0.765-2.381,2.296v2.254h4.127
					v3.617h-4.127V44.61h-4.85V26.231h-3.617V22.614z"/>
			</g>
			<g>
				<g>
					<g>
						<path fill="#1E1E1D" d="M37.875,25.718c0,8.158-6.615,14.771-14.773,14.771c-8.155,0-14.771-6.613-14.771-14.771
							c0-8.153,6.606-14.766,14.759-14.771V4.548c-11.688,0-21.17,9.477-21.17,21.17c0,11.694,9.479,21.172,21.17,21.172
							c11.693,0,21.174-9.478,21.174-21.172l0,0H37.875L37.875,25.718z"/>
					</g>
				</g>
			</g>
		</g>
		<g>
			<path fill="#1E1E1D" d="M93.638,54.966v3.381c0,0.465,0.08,0.823,0.24,1.076h-1.634c-0.101-0.151-0.151-0.346-0.151-0.582
				c-0.608,0.49-1.305,0.734-2.09,0.734c-0.625,0-1.145-0.184-1.558-0.551c-0.414-0.367-0.621-0.855-0.621-1.463
				c0-1.08,0.65-1.748,1.95-2.001l0.646-0.126c0.431-0.085,0.987-0.211,1.672-0.381v-0.189c0-0.541-0.405-0.811-1.216-0.811
				c-0.448,0-0.758,0.071-0.931,0.215c-0.174,0.145-0.26,0.393-0.26,0.748l-1.546-0.064c0-0.7,0.279-1.236,0.836-1.607
				c0.49-0.321,1.123-0.482,1.9-0.482c0.836,0,1.469,0.123,1.899,0.367C93.351,53.56,93.638,54.138,93.638,54.966z M92.093,57.131
				V56.22c-0.169,0.084-0.414,0.16-0.734,0.228l-0.849,0.177c-0.354,0.076-0.604,0.165-0.748,0.266
				c-0.211,0.136-0.316,0.343-0.316,0.621c0,0.236,0.096,0.429,0.285,0.576c0.19,0.148,0.429,0.222,0.716,0.222
				c0.413,0,0.776-0.093,1.089-0.278C91.906,57.811,92.093,57.511,92.093,57.131z"/>
			<path fill="#1E1E1D" d="M94.815,59.423v-6.408h1.545v0.887h0.025c0.347-0.692,1.005-1.039,1.976-1.039v1.57
				c-0.582,0-1.047,0.141-1.393,0.418c-0.405,0.33-0.608,0.82-0.608,1.47v3.103H94.815z"/>
			<path fill="#1E1E1D" d="M104.604,54.687l-1.354,0.621c-0.102-0.313-0.277-0.563-0.525-0.748c-0.25-0.186-0.526-0.278-0.83-0.278
				c-0.523,0-0.938,0.198-1.241,0.595c-0.278,0.363-0.418,0.811-0.418,1.344c0,0.54,0.127,0.987,0.38,1.342
				c0.287,0.396,0.685,0.596,1.19,0.596c0.701,0,1.221-0.414,1.558-1.242l1.317,0.697c-0.6,1.309-1.566,1.963-2.9,1.963
				c-0.962,0-1.734-0.32-2.317-0.963c-0.565-0.615-0.849-1.414-0.849-2.393c0-0.98,0.293-1.784,0.88-2.413s1.388-0.944,2.4-0.944
				C103.203,52.863,104.106,53.471,104.604,54.687z"/>
			<path fill="#1E1E1D" d="M105.34,59.423v-9.018h1.545v3.242h0.025c0.405-0.523,1.018-0.785,1.837-0.785
				c0.658,0,1.186,0.152,1.583,0.457c0.507,0.396,0.76,1.018,0.76,1.861v4.242h-1.545v-3.799c0-0.844-0.38-1.267-1.14-1.267
				c-0.532,0-0.93,0.198-1.19,0.595c-0.22,0.313-0.33,0.705-0.33,1.178v3.293H105.34z"/>
			<path fill="#1E1E1D" d="M112.355,51.977v-1.571h1.545v1.571H112.355z M112.355,59.423v-6.408h1.545v6.408H112.355z"/>
			<path fill="#1E1E1D" d="M115.408,53.015v-2.279h1.545v2.279h1.38v1.115h-1.38v3.242c0,0.278,0.042,0.473,0.126,0.582
				c0.102,0.135,0.292,0.203,0.57,0.203l0.684-0.076v1.266c-0.489,0.102-0.898,0.152-1.229,0.152c-1.131,0-1.696-0.515-1.696-1.545
				V54.13h-0.938v-1.115H115.408z"/>
			<path fill="#1E1E1D" d="M124.856,56.587h-4.737c0.009,0.455,0.186,0.836,0.532,1.139c0.313,0.287,0.688,0.432,1.127,0.432
				c0.802,0,1.419-0.305,1.85-0.912l1.304,0.76c-0.684,1.047-1.734,1.57-3.153,1.57c-1.013,0-1.819-0.32-2.419-0.963
				c-0.574-0.615-0.861-1.414-0.861-2.393c0-0.98,0.293-1.784,0.88-2.413s1.388-0.944,2.4-0.944
				C123.83,52.863,124.856,54.105,124.856,56.587z M120.119,55.396h3.116c0-0.244-0.114-0.498-0.343-0.76
				c-0.287-0.338-0.658-0.506-1.114-0.506c-0.431,0-0.794,0.119-1.089,0.36C120.394,54.732,120.203,55.033,120.119,55.396z"/>
			<path fill="#1E1E1D" d="M131.276,54.687l-1.354,0.621c-0.102-0.313-0.277-0.563-0.525-0.748c-0.25-0.186-0.526-0.278-0.83-0.278
				c-0.523,0-0.938,0.198-1.241,0.595c-0.278,0.363-0.418,0.811-0.418,1.344c0,0.54,0.127,0.987,0.38,1.342
				c0.287,0.396,0.685,0.596,1.19,0.596c0.701,0,1.221-0.414,1.558-1.242l1.317,0.697c-0.6,1.309-1.566,1.963-2.9,1.963
				c-0.962,0-1.734-0.32-2.317-0.963c-0.565-0.615-0.849-1.414-0.849-2.393c0-0.98,0.293-1.784,0.88-2.413s1.388-0.944,2.4-0.944
				C129.875,52.863,130.778,53.471,131.276,54.687z"/>
			<path fill="#1E1E1D" d="M132.253,53.015v-2.279h1.545v2.279h1.38v1.115h-1.38v3.242c0,0.278,0.042,0.473,0.126,0.582
				c0.102,0.135,0.292,0.203,0.57,0.203l0.684-0.076v1.266c-0.489,0.102-0.898,0.152-1.229,0.152c-1.131,0-1.696-0.515-1.696-1.545
				V54.13h-0.938v-1.115H132.253z"/>
			<path fill="#1E1E1D" d="M141.701,56.587h-4.737c0.009,0.455,0.186,0.836,0.532,1.139c0.313,0.287,0.688,0.432,1.127,0.432
				c0.802,0,1.419-0.305,1.85-0.912l1.304,0.76c-0.684,1.047-1.734,1.57-3.153,1.57c-1.013,0-1.819-0.32-2.419-0.963
				c-0.574-0.615-0.861-1.414-0.861-2.393c0-0.98,0.293-1.784,0.88-2.413s1.388-0.944,2.4-0.944
				C140.675,52.863,141.701,54.105,141.701,56.587z M136.964,55.396h3.116c0-0.244-0.114-0.498-0.343-0.76
				c-0.287-0.338-0.658-0.506-1.114-0.506c-0.431,0-0.794,0.119-1.089,0.36C137.238,54.732,137.048,55.033,136.964,55.396z"/>
			<path fill="#1E1E1D" d="M150.021,59.423v-0.62h-0.025c-0.431,0.515-1.03,0.772-1.799,0.772c-0.811,0-1.478-0.324-2.001-0.975
				s-0.785-1.444-0.785-2.381c0-0.938,0.262-1.731,0.785-2.382c0.523-0.649,1.19-0.976,2.001-0.976c0.71,0,1.317,0.232,1.824,0.697
				v-3.154h1.545v9.018H150.021z M148.552,54.282c-0.531,0-0.929,0.207-1.19,0.62c-0.22,0.338-0.329,0.777-0.329,1.318
				c0,0.54,0.109,0.979,0.329,1.316c0.262,0.414,0.659,0.621,1.19,0.621c0.532,0,0.934-0.207,1.203-0.621
				c0.211-0.338,0.317-0.776,0.317-1.316c0-0.541-0.106-0.98-0.317-1.318C149.485,54.489,149.084,54.282,148.552,54.282z"/>
			<path fill="#1E1E1D" d="M158.772,56.587h-4.737c0.009,0.455,0.186,0.836,0.532,1.139c0.313,0.287,0.688,0.432,1.127,0.432
				c0.802,0,1.419-0.305,1.85-0.912l1.304,0.76c-0.684,1.047-1.734,1.57-3.153,1.57c-1.013,0-1.819-0.32-2.419-0.963
				c-0.574-0.615-0.861-1.414-0.861-2.393c0-0.98,0.293-1.784,0.88-2.413s1.388-0.944,2.4-0.944
				C157.746,52.863,158.772,54.105,158.772,56.587z M154.035,55.396h3.116c0-0.244-0.114-0.498-0.343-0.76
				c-0.287-0.338-0.658-0.506-1.114-0.506c-0.431,0-0.794,0.119-1.089,0.36C154.31,54.732,154.119,55.033,154.035,55.396z"/>
			<path fill="#1E1E1D" d="M162.876,59.423v-9.018h1.545v9.018H162.876z"/>
			<path fill="#1E1E1D" d="M166.092,53.927v-3.521h1.19v3.521H166.092z"/>
			<path fill="#1E1E1D" d="M171.829,52.863c1.014,0,1.819,0.322,2.419,0.963c0.574,0.617,0.861,1.414,0.861,2.395
				c0,0.979-0.287,1.777-0.861,2.393c-0.6,0.643-1.405,0.963-2.419,0.963c-1.013,0-1.819-0.32-2.419-0.963
				c-0.574-0.615-0.861-1.414-0.861-2.393c0-0.98,0.293-1.784,0.88-2.413S170.816,52.863,171.829,52.863z M171.829,54.282
				c-0.523,0-0.938,0.198-1.241,0.595c-0.278,0.363-0.418,0.811-0.418,1.344c0,0.531,0.14,0.979,0.418,1.342
				c0.304,0.396,0.718,0.596,1.241,0.596s0.938-0.199,1.241-0.596c0.278-0.363,0.418-0.811,0.418-1.342
				c0-0.533-0.14-0.98-0.418-1.344C172.767,54.48,172.353,54.282,171.829,54.282z"/>
			<path fill="#1E1E1D" d="M175.971,61.476v-8.461h1.545v0.545h0.025c0.507-0.465,1.115-0.697,1.824-0.697
				c0.802,0,1.463,0.326,1.981,0.976c0.52,0.65,0.779,1.444,0.779,2.382c0,0.937-0.262,1.73-0.785,2.381s-1.19,0.975-2.001,0.975
				c-0.76,0-1.368-0.258-1.824-0.772v2.673H175.971z M178.985,58.158c0.531,0,0.933-0.207,1.203-0.621
				c0.211-0.338,0.316-0.776,0.316-1.316c0-0.541-0.105-0.98-0.316-1.318c-0.271-0.413-0.672-0.62-1.203-0.62
				c-0.532,0-0.929,0.207-1.19,0.62c-0.22,0.338-0.33,0.777-0.33,1.318c0,0.54,0.11,0.979,0.33,1.316
				C178.057,57.951,178.453,58.158,178.985,58.158z"/>
			<path fill="#1E1E1D" d="M188.939,56.587h-4.737c0.009,0.455,0.186,0.836,0.532,1.139c0.313,0.287,0.688,0.432,1.127,0.432
				c0.802,0,1.419-0.305,1.85-0.912l1.304,0.76c-0.684,1.047-1.734,1.57-3.153,1.57c-1.013,0-1.819-0.32-2.419-0.963
				c-0.574-0.615-0.861-1.414-0.861-2.393c0-0.98,0.293-1.784,0.88-2.413s1.388-0.944,2.4-0.944
				C187.913,52.863,188.939,54.105,188.939,56.587z M184.202,55.396h3.116c0-0.244-0.114-0.498-0.343-0.76
				c-0.287-0.338-0.658-0.506-1.114-0.506c-0.431,0-0.794,0.119-1.089,0.36C184.477,54.732,184.286,55.033,184.202,55.396z"/>
			<path fill="#1E1E1D" d="M189.776,59.423v-6.408h1.546v0.633h0.025c0.431-0.523,1.013-0.785,1.747-0.785
				c1.47,0,2.204,0.727,2.204,2.18v4.381h-1.545V55.51c0-0.769-0.354-1.152-1.064-1.152c-0.396,0-0.718,0.136-0.962,0.405
				c-0.271,0.295-0.405,0.722-0.405,1.279v3.381H189.776z"/>
			<path fill="#1E1E1D" d="M205.036,54.029l-1.076,1.014c-0.271-0.6-0.807-0.904-1.608-0.912c-0.785-0.009-1.178,0.197-1.178,0.62
				c0,0.287,0.351,0.498,1.051,0.634c1.056,0.193,1.701,0.346,1.938,0.455c0.7,0.305,1.051,0.803,1.051,1.494
				c0,0.727-0.291,1.293-0.874,1.697c-0.523,0.363-1.182,0.545-1.976,0.545c-1.385,0-2.419-0.389-3.103-1.165l1.165-0.899
				c0.362,0.532,0.979,0.798,1.849,0.798c0.347,0,0.646-0.08,0.899-0.24c0.228-0.152,0.342-0.321,0.342-0.507
				c0-0.278-0.342-0.485-1.025-0.621c-1.022-0.211-1.659-0.371-1.913-0.48c-0.684-0.313-1.025-0.818-1.025-1.52
				c0-0.693,0.274-1.221,0.823-1.584c0.498-0.329,1.169-0.494,2.014-0.494C203.529,52.863,204.411,53.251,205.036,54.029z"/>
			<path fill="#1E1E1D" d="M208.785,52.863c1.014,0,1.819,0.322,2.419,0.963c0.574,0.617,0.861,1.414,0.861,2.395
				c0,0.979-0.287,1.777-0.861,2.393c-0.6,0.643-1.405,0.963-2.419,0.963c-1.013,0-1.819-0.32-2.419-0.963
				c-0.574-0.615-0.861-1.414-0.861-2.393c0-0.98,0.293-1.784,0.88-2.413S207.772,52.863,208.785,52.863z M208.785,54.282
				c-0.523,0-0.938,0.198-1.241,0.595c-0.278,0.363-0.418,0.811-0.418,1.344c0,0.531,0.14,0.979,0.418,1.342
				c0.304,0.396,0.718,0.596,1.241,0.596s0.938-0.199,1.241-0.596c0.278-0.363,0.418-0.811,0.418-1.342
				c0-0.533-0.14-0.98-0.418-1.344C209.723,54.48,209.309,54.282,208.785,54.282z"/>
			<path fill="#1E1E1D" d="M218.676,53.015v6.408h-1.545v-0.633h-0.025c-0.405,0.523-1.018,0.785-1.837,0.785
				c-0.658,0-1.186-0.152-1.583-0.456c-0.506-0.396-0.76-1.017-0.76-1.861v-4.243h1.545v3.8c0,0.845,0.38,1.267,1.141,1.267
				c0.531,0,0.933-0.174,1.203-0.52c0.211-0.287,0.316-0.654,0.316-1.102v-3.445H218.676z"/>
			<path fill="#1E1E1D" d="M219.942,59.423v-6.408h1.545v0.887h0.025c0.347-0.692,1.005-1.039,1.976-1.039v1.57
				c-0.582,0-1.047,0.141-1.393,0.418c-0.405,0.33-0.608,0.82-0.608,1.47v3.103H219.942z"/>
			<path fill="#1E1E1D" d="M229.732,54.687l-1.354,0.621c-0.102-0.313-0.277-0.563-0.525-0.748c-0.25-0.186-0.526-0.278-0.83-0.278
				c-0.523,0-0.938,0.198-1.241,0.595c-0.278,0.363-0.418,0.811-0.418,1.344c0,0.54,0.127,0.987,0.38,1.342
				c0.287,0.396,0.685,0.596,1.19,0.596c0.701,0,1.221-0.414,1.558-1.242l1.317,0.697c-0.6,1.309-1.566,1.963-2.9,1.963
				c-0.962,0-1.734-0.32-2.317-0.963c-0.565-0.615-0.849-1.414-0.849-2.393c0-0.98,0.293-1.784,0.88-2.413s1.388-0.944,2.4-0.944
				C228.331,52.863,229.234,53.471,229.732,54.687z"/>
			<path fill="#1E1E1D" d="M236.42,56.587h-4.737c0.009,0.455,0.186,0.836,0.532,1.139c0.313,0.287,0.688,0.432,1.127,0.432
				c0.802,0,1.419-0.305,1.85-0.912l1.304,0.76c-0.684,1.047-1.734,1.57-3.153,1.57c-1.013,0-1.819-0.32-2.419-0.963
				c-0.574-0.615-0.861-1.414-0.861-2.393c0-0.98,0.293-1.784,0.88-2.413s1.388-0.944,2.4-0.944
				C235.394,52.863,236.42,54.105,236.42,56.587z M231.683,55.396h3.116c0-0.244-0.114-0.498-0.343-0.76
				c-0.287-0.338-0.658-0.506-1.114-0.506c-0.431,0-0.794,0.119-1.089,0.36C231.957,54.732,231.767,55.033,231.683,55.396z"/>
		</g>
		<g>
			<path fill="#ACC637" d="M175.734,22.998l-2.544,22.416c-0.313,0-0.652,0.076-1.02,0.228c-0.102,0-0.207-0.048-0.312-0.142
				l-0.183,0.029c-0.124,0.018-0.236,0.025-0.338,0.025c-0.039-0.035-0.279-0.234-0.722-0.593c-0.075,0-0.188,0.085-0.339,0.255
				c-0.067-0.188-0.161-0.412-0.283-0.666c-0.188-1.281-0.284-2.063-0.284-2.348l1.187-10.223c0.34-2.802,0.729-6.353,1.161-10.65
				c0.076-0.313,0.223-0.859,0.438-1.641c0.179-0.66,0.42-1.141,0.723-1.443l0.608,0.072c0.272,0.254,0.528,0.422,0.763,0.509
				c0.058,0.122,0.286,0.438,0.693,0.947c0.302,0.913,0.45,1.475,0.45,1.682V22.998z"/>
			<path fill="#ACC637" d="M182.014,39.853v-0.04c-0.007,0-0.022,0.071-0.041,0.211c-0.027,0.22-0.054,0.458-0.07,0.723
				c-0.021,0.349-0.028,0.771-0.028,1.273v1.455l-0.438,1.048l-0.313-0.071c-0.084,0.068-0.182,0.137-0.296,0.212
				c-0.074-0.027-0.17-0.075-0.283-0.141c-0.095,0.027-0.193,0.075-0.297,0.141c-0.075-0.057-0.472-0.172-1.188-0.354
				c-0.34-0.556-0.637-1.513-0.893-2.87c-0.047-0.237-0.068-0.538-0.068-0.903c0-0.123,0.004-0.258,0.014-0.396l0.086-2.533
				l0.354-1.683c0.263-0.237,0.431-0.482,0.507-0.737l0.762-0.168c0.113,0,0.27,0.064,0.469,0.197
				c0.282,0.332,0.705,0.801,1.272,1.415c0.312,0.548,0.466,1.034,0.466,1.458L182.014,39.853z M182.835,29.192
				c-0.047,0.083-0.121,0.183-0.227,0.298c0.094,0.234,0.143,0.457,0.143,0.663c-0.094,0.151-0.349,0.326-0.764,0.522
				c-0.037-0.047-0.133-0.068-0.284-0.068c-0.161,0-0.259,0.021-0.296,0.068c-0.406-0.215-0.867-0.361-1.387-0.436
				c-0.349-0.813-0.522-1.307-0.522-1.484c0-0.012,0-0.021,0-0.031l0.138-1.584c0.098-0.035,0.252-0.164,0.469-0.379h0.891
				c0.295,0.17,0.614,0.508,0.964,1.018c0.244,0.075,0.425,0.268,0.536,0.578C182.657,28.81,182.77,29.087,182.835,29.192z"/>
			<path fill="#ACC637" d="M204.798,36.052c0,0.16-0.323,0.895-0.975,2.208c-0.283,0.177-0.477,0.436-0.582,0.778
				c-1.129,1.034-2.508,1.953-4.128,2.757c-0.281,0.14-1.659,0.747-4.128,1.821c-0.342,0.048-0.869,0.18-1.586,0.398
				c-0.717,0.215-1.086,0.324-1.104,0.324c-0.019,0-0.116-0.01-0.289-0.029c-0.178-0.018-0.281-0.025-0.316-0.025
				c-0.283-0.294-0.565-0.441-0.836-0.441c-0.066,0-0.128,0-0.184,0c-0.049-0.121-0.166-0.297-0.354-0.523
				c-0.134,0.244-0.295,0.537-0.482,0.877c-0.152,0.068-0.313,0.101-0.496,0.101c-0.045,0-0.092-0.005-0.139-0.013l-0.295,0.295
				h-0.228c-0.06,0-0.327-0.128-0.808-0.383c-0.255,0.059-0.399,0.088-0.437,0.088c-0.491-0.418-0.737-0.762-0.737-1.036
				c-0.225-0.29-0.371-0.712-0.438-1.257c-0.161-0.265-0.264-0.543-0.311-0.833c-0.021-0.153-0.063-0.431-0.126-0.837
				c-0.069-0.404-0.123-0.621-0.16-0.65v0.069V38.23c-0.084-0.482-0.124-0.81-0.124-0.992c0-0.045,0.005-0.083,0.012-0.109
				c-0.025-0.124-0.043-0.256-0.043-0.398c0-0.179,0.025-0.354,0.071-0.521c-0.104-0.18-0.414-0.38-0.933-0.596
				c-0.35-0.416-0.522-0.881-0.522-1.399c0-0.349,0.14-0.755,0.424-1.214c0.264-0.455,0.554-0.773,0.876-0.967l0.102-7.225
				c0.025-0.479,0.092-1.484,0.197-3.014c0.055-0.855,0.284-1.607,0.692-2.249c0.058-0.054,0.169-0.161,0.337-0.324
				c0.371-0.169,0.604-0.255,0.708-0.255c0.038,0,0.14,0.023,0.305,0.07c0.165,0.049,0.253,0.074,0.262,0.074
				c0.124,0.252,0.358,0.621,0.706,1.1c0.133,0.36,0.279,0.826,0.442,1.402c-0.013,0.046-0.018,0.098-0.018,0.154
				c0,0.162,0.018,0.364,0.044,0.609c0.025,0.273,0.061,0.627,0.099,1.062l0.281,6.887c0.019,0.054,0.072,0.103,0.157,0.142
				c0.064-0.029,0.405-0.067,1.017-0.115l2.956-0.253l2.871,0.055c0.105,0,0.49,0.03,1.16,0.087c0.791,0.15,1.467,0.295,2.021,0.436
				c0.123,0.059,0.316,0.161,0.58,0.313c0.793,0.18,1.604,0.674,2.433,1.486c0.745,0.735,1.229,1.438,1.456,2.105
				c0.33,1.01,0.514,1.516,0.553,1.516C204.794,36.095,204.798,36.081,204.798,36.052z M200.075,36.052v-0.228
				c-0.207-0.263-0.527-0.532-0.962-0.806c-1.017-0.406-2.202-0.642-3.551-0.708c-0.207-0.065-0.336-0.098-0.381-0.098h-0.015
				l-2.871,0.126c-0.47,0.028-1.36,0.273-2.67,0.736v0.466c0,0.021,0.021,0.091,0.068,0.214c0.046,0.122,0.071,0.193,0.071,0.211
				v1.543l0.552,3.787c0.037-0.035,0.088-0.055,0.155-0.055c0.018-0.076,0.069-0.17,0.155-0.283c0.764-0.44,1.999-0.986,3.705-1.625
				c1.648-0.623,2.687-1.094,3.113-1.414C197.794,37.852,198.67,37.231,200.075,36.052z"/>
			<path fill="#ACC637" d="M221.315,35.174c-0.462,0.028-1.084,0.112-1.864,0.255c-0.907,0.313-1.755,0.573-2.547,0.779
				c-1.481,0.581-2.829,1.157-4.045,1.723c-1.603,0.736-2.611,1.857-3.024,3.365c0,0.059,0.045,0.436,0.139,1.133v0.467
				c-0.094,0.17-0.158,0.311-0.197,0.424c-0.02,0.049-0.029,0.095-0.029,0.143c0,0.123,0.063,0.221,0.186,0.296l-1.416,0.905h-0.281
				c-0.188-0.113-0.445-0.307-0.764-0.58l-0.383,0.059c-0.122-0.182-0.286-0.426-0.493-0.736c-0.098-0.246-0.192-0.463-0.297-0.65
				l-0.173-0.906v-1.229c0-0.01,0.014-0.063,0.036-0.154c0.023-0.097,0.037-0.152,0.037-0.172v-1.315
				c0-0.388,0.142-1.042,0.423-1.964c0.348-1.18,0.736-1.77,1.159-1.77h0.427l0.495,0.438h0.208c0.248,0,1.119-0.475,2.618-1.428
				c1.037-0.443,2.606-1.127,4.711-2.049c0.074,0,0.558-0.194,1.442-0.58c0.218-0.01,0.654-0.09,1.313-0.241l1.036-0.211h1.425
				C222.456,31.174,221.315,35.174,221.315,35.174z"/>
			<path fill="#ACC637" d="M237.419,41.667c-0.121,0.168-0.288,0.453-0.492,0.846c-0.135,0-0.234-0.026-0.299-0.084
				c-0.104,0.039-0.264,0.123-0.479,0.256c0.207,0.084,0.472,0.223,0.803,0.41c-0.122,0.035-0.38,0.234-0.775,0.594
				c-0.397,0.14-0.997,0.302-1.798,0.482c-0.245,0.148-0.412,0.361-0.506,0.633l-3.608,0.453c-2.583-0.169-4.644-0.754-6.181-1.754
				c-1.112-1.14-1.808-2.445-2.093-3.917c-0.104-0.206-0.155-0.372-0.155-0.497c0-0.923,0.395-2.039,1.189-3.348
				c0.883-1.442,1.863-2.383,2.923-2.815c0.06-0.028,0.215-0.042,0.468-0.042c0.454-0.387,1.247-0.723,2.395-1.004
				c1.007-0.246,1.873-0.367,2.6-0.367c0.633,0,1.356,0.232,2.176,0.693c-0.016,0.036-0.026,0.151-0.026,0.338
				c0.181,0.036,0.393,0.088,0.637,0.156c0,0.058,0.06,0.149,0.183,0.281c0,0.35,0.132,0.801,0.396,1.357v0.621
				c0,0.077-0.056,0.171-0.17,0.285c0.067,0.094,0.1,0.196,0.1,0.31c0,0.209-0.09,0.447-0.271,0.706
				c-0.018,0.135-0.036,0.322-0.056,0.567c-0.216,0.293-0.49,0.731-0.819,1.315l-3.071,2.221c0.305,0.178,1.133,0.288,2.49,0.325
				l3.594,0.085C236.729,41.048,237.015,41.345,237.419,41.667z M230.659,35.332l0.016,0.013c-0.02,0-0.059-0.08-0.115-0.241
				c-0.735,0.293-1.225,0.506-1.471,0.639c-0.698,0.367-1.169,0.758-1.414,1.173c0.066,0,0.139,0.032,0.213,0.101
				C229.198,36.515,230.122,35.954,230.659,35.332z"/>
		</g>
		<g>
			<path fill="#ACC637" d="M24.731,27.39c5.814-6.854,11.429-13.941,18.323-19.767c-0.272-0.024-0.542-0.047-0.814-0.071
				c-0.589,0.916-1.29,1.624-2.107,2.338c-0.07,0.062,0.636,0.227,0.813,0.072c0.817-0.715,1.52-1.422,2.108-2.339
				c0.103-0.159-0.686-0.18-0.814-0.071c-6.895,5.823-12.508,12.912-18.321,19.766C23.836,27.416,24.587,27.561,24.731,27.39
				L24.731,27.39z"/>
			<path fill="#ACC637" d="M22.063,27.533c3.938-3.281,7.008-7.502,10.248-11.44c1.19-1.445,2.337-2.925,3.545-4.356
				c1.059-1.257,2.631-3.502,4.335-3.89c0.528-0.12-0.207-0.288-0.424-0.239c-1.229,0.279-2.164,1.28-3.016,2.146
				c-1.586,1.606-2.971,3.419-4.38,5.177c-3.458,4.32-6.854,8.969-11.122,12.523C21.164,27.525,21.878,27.688,22.063,27.533
				L22.063,27.533z"/>
			<path fill="#ACC637" d="M20.857,26.607c6.867-6.057,11.264-14.468,18.669-19.963c0.044-0.031-0.625-0.201-0.813-0.064
				c-0.382,0.277-0.733,0.582-1.115,0.86c-0.041,0.029,0.624,0.204,0.814,0.065c0.381-0.277,0.733-0.582,1.114-0.861
				c-0.271-0.021-0.543-0.043-0.813-0.064c-7.405,5.494-11.803,13.904-18.669,19.962C19.988,26.589,20.685,26.759,20.857,26.607
				L20.857,26.607z"/>
			<path fill="#ACC637" d="M23.351,23.717C29.34,18.355,34.053,11.63,40.577,6.861C41,6.552,40.303,6.186,39.982,6.42
				c-6.527,4.771-11.235,11.492-17.224,16.855C22.366,23.626,23.053,23.985,23.351,23.717L23.351,23.717z"/>
			<path fill="#ACC637" d="M44.253,14.931c0.384-3.741,0.647-7.5,0.486-11.26c-0.011-0.25-0.796-0.249-0.846-0.008
				c-1.1,5.303-0.752,10.818-2.107,16.07c0.281,0.002,0.563,0.004,0.845,0.007c1.272-4.967,0.829-10.137,0.993-15.21
				c0.008-0.246-0.783-0.245-0.845-0.007c-0.946,3.688-0.973,7.498-1.646,11.231c-0.037,0.211,0.792,0.268,0.846,0.006
				c0.873-4.309,1.543-8.676,1.281-13.084c-0.014-0.254-0.785-0.244-0.844-0.007c-1.199,4.788-0.169,9.765-1.115,14.593
				c-0.04,0.21,0.779,0.262,0.846,0.006c1.199-4.652,1.025-9.58,0.149-14.274C42.25,2.75,41.45,2.744,41.451,2.988
				c0.021,5.207,0.254,10.395-1.067,15.481c-0.051,0.192,0.772,0.272,0.843,0.007c1.383-5.141,2.171-10.547,1.763-15.873
				c-0.018-0.223-0.505-0.18-0.636-0.153C36.38,3.615,31.447,7.667,25.893,9.924c-0.419,0.171,0.405,0.315,0.595,0.247
				c5.62-2.003,11.328-3.73,17.124-5.148c-0.192-0.079-0.386-0.158-0.578-0.238c-2.643,2.105-5.951,3.349-9.271,3.863
				c-0.933,0.146-6.011,0.387-3.113-1.009c1.738-0.837,3.645-1.301,5.518-1.717c1.501-0.333,3.021-0.579,4.534-0.847
				c0.825-0.146,1.647-0.302,2.469-0.467c-0.447-0.278-0.899-0.271-1.359,0.018c-0.508,0.146-1.015,0.291-1.524,0.432
				c-4.083,1.146-8.211,2.127-12.351,3.045C27.5,8.2,27.903,8.429,28.146,8.423c5.43-0.137,10.022-3.021,15.035-4.736
				c-0.198-0.082-0.396-0.165-0.595-0.247c-4.863,1.694-9.649,3.622-14.834,4.038c2.195-0.177,4.626-1.207,6.87-1.653
				c2.404-0.479,4.812-0.899,7.162-1.599c0.525-0.156-0.171-0.374-0.425-0.299c-4.796,1.428-9.849,1.762-14.521,3.629
				c-0.406,0.163,0.281,0.297,0.407,0.29c5.583-0.284,10.717-2.341,15.935-4.159c0.414-0.145-0.396-0.316-0.595-0.247
				C38.16,4.955,34.056,7.474,29.34,8.023c-0.399,0.354-0.199,0.361,0.6,0.025c0.781-0.175,1.562-0.357,2.342-0.539
				c1.286-0.301,2.57-0.617,3.853-0.938c2.557-0.642,5.099-1.346,7.626-2.091c0.536-0.158-0.182-0.351-0.424-0.299
				c-5.072,1.096-10.446,1.441-15.01,4.132c-0.118,0.069-0.025,0.174,0.064,0.208c4.904,1.853,11.466-0.446,15.371-3.558
				c0.276-0.22-0.471-0.265-0.575-0.239c-5.852,1.432-11.619,3.178-17.294,5.2c0.198,0.082,0.397,0.165,0.595,0.247
				C31.99,7.935,36.869,3.9,42.777,2.748c-0.21-0.051-0.422-0.102-0.633-0.152c0.409,5.327-0.379,10.733-1.761,15.874
				c0.281,0.002,0.563,0.005,0.843,0.007c1.324-5.088,1.09-10.274,1.069-15.481c-0.281-0.002-0.563-0.005-0.845-0.007
				c0.875,4.694,1.051,9.621-0.15,14.275c0.283,0.002,0.563,0.004,0.846,0.006c0.946-4.828-0.085-9.805,1.113-14.592
				c-0.28-0.002-0.563-0.004-0.844-0.007c0.261,4.407-0.409,8.776-1.283,13.085c0.282,0.002,0.563,0.004,0.846,0.006
				c0.675-3.732,0.698-7.543,1.646-11.23c-0.282-0.002-0.563-0.004-0.845-0.007c-0.165,5.073,0.279,10.243-0.993,15.21
				c-0.049,0.193,0.776,0.273,0.845,0.007c1.354-5.253,1.009-10.769,2.108-16.069c-0.282-0.003-0.563-0.006-0.846-0.008
				c0.162,3.762-0.102,7.52-0.484,11.26C43.386,15.151,44.228,15.187,44.253,14.931L44.253,14.931z"/>
		</g>
	</g>
</g>
<g id="Calque_2">
	<g>
		<g>
			<g>
				<path fill="#1E1E1D" d="M58.919,22c3.318,0,5.886,1.135,7.701,3.404c1.7,2.099,2.553,4.849,2.553,8.251
					c0,3.205-0.767,5.871-2.298,8c-1.73,2.324-4.112,3.488-7.148,3.488c-2.098,0-3.813-0.369-5.146-1.105v-4
					c1.02,0.85,2.254,1.277,3.699,1.277c2.043,0,3.604-0.811,4.681-2.426c0.908-1.391,1.36-3.164,1.36-5.318
					c0-2.1-0.51-3.884-1.531-5.361c-1.135-1.588-2.637-2.383-4.51-2.383c-2.015,0-3.559,0.696-4.637,2.084
					c-1.021,1.363-1.53,3.248-1.53,5.66v10.977h-4.681V14.215h4.851v11.231h0.084C53.843,23.15,56.027,22,58.919,22z"/>
				<path fill="#1E1E1D" d="M73.384,22.595h4.849v18.034c0,4.566-2.098,6.85-6.295,6.85c-0.88,0-1.603-0.057-2.171-0.17V43.48
					c0.568,0.111,1.121,0.168,1.66,0.168c0.822,0,1.36-0.27,1.616-0.807c0.226-0.426,0.341-1.234,0.341-2.426V22.595z
					 M73.384,14.215h4.849v4.595h-4.849V14.215z"/>
				<path fill="#1E1E1D" d="M103.163,37.613c-0.481,2.355-1.674,4.199-3.572,5.529c-1.787,1.307-3.901,1.959-6.339,1.959
					c-3.404,0-6.07-1.078-7.998-3.232c-1.845-2.07-2.768-4.852-2.768-8.34c0-0.594,0.043-1.248,0.131-1.957h4.721v0.043H98.61
					c-0.113-1.617-0.639-2.977-1.572-4.083c-1.049-1.164-2.355-1.744-3.914-1.744c-2.44,0-4.17,1.078-5.189,3.233h-4.682
					c0.767-2.128,1.985-3.815,3.659-5.063c1.759-1.332,3.828-2,6.212-2c3.345,0,6.025,1.32,8.041,3.957
					c1.955,2.525,2.721,5.474,2.296,8.847H87.338c0,1.871,0.48,3.391,1.446,4.555c1.049,1.305,2.537,1.955,4.468,1.955
					c2.692,0,4.466-1.221,5.316-3.658H103.163z"/>
				<path fill="#1E1E1D" d="M122.011,29.956c-0.399-2.751-2.071-4.128-5.02-4.128c-1.619,0-2.938,0.497-3.958,1.49
					c-1.39,1.362-2.084,3.531-2.084,6.507c0,2.07,0.439,3.787,1.317,5.148c1.051,1.59,2.554,2.383,4.51,2.383
					c3.007,0,4.75-1.672,5.234-5.02h4.85c-0.907,5.898-4.27,8.85-10.084,8.85c-3.346,0-5.983-1.094-7.912-3.277
					c-1.844-2.043-2.766-4.736-2.766-8.084c0-3.488,0.908-6.294,2.724-8.421c1.926-2.27,4.637-3.404,8.126-3.404
					c2.691,0,4.92,0.652,6.679,1.957c1.929,1.418,3.005,3.418,3.233,5.999H122.011z"/>
				<path fill="#1E1E1D" d="M128.604,22.595h3.657v-6.593h4.852v6.593h4.38v3.617h-4.38v11.741c0,1.135,0.111,1.887,0.341,2.256
					c0.311,0.51,0.977,0.766,1.998,0.766c0.909,0,1.588-0.057,2.041-0.17v3.744c-1.418,0.17-2.465,0.254-3.146,0.254
					c-2.383,0-4.013-0.48-4.892-1.445c-0.739-0.768-1.136-2.156-1.193-4.17V26.212h-3.657V22.595z"/>
				<path fill="#1E1E1D" d="M145.11,14.215h4.851v4.595h-4.851V14.215z M145.11,22.595h4.851v21.997h-4.851V22.595z"/>
				<path fill="#1E1E1D" d="M153.065,22.595h3.617v-1.828c0-2.553,0.623-4.353,1.871-5.403c0.937-0.767,2.34-1.148,4.212-1.148
					c1.589,0,2.722,0.101,3.403,0.298v3.786c-0.624-0.17-1.376-0.254-2.256-0.254c-1.586,0-2.381,0.765-2.381,2.296v2.254h4.127
					v3.617h-4.127v18.379h-4.85V26.212h-3.617V22.595z"/>
			</g>
			<g>
				<g>
					<g>
						<path fill="#1E1E1D" d="M37.455,25.699c0,8.158-6.615,14.771-14.773,14.771c-8.155,0-14.771-6.613-14.771-14.771
							c0-8.153,6.606-14.766,14.759-14.771V4.529c-11.688,0-21.17,9.477-21.17,21.17c0,11.695,9.479,21.171,21.17,21.171
							c11.693,0,21.174-9.477,21.174-21.171l0,0H37.455L37.455,25.699z"/>
					</g>
				</g>
			</g>
		</g>
		<g>
			<path fill="#1E1E1D" d="M106.063,54.566v3.381c0,0.465,0.08,0.824,0.24,1.078h-1.634c-0.101-0.152-0.151-0.348-0.151-0.584
				c-0.608,0.49-1.305,0.734-2.09,0.734c-0.625,0-1.145-0.184-1.558-0.551c-0.414-0.367-0.621-0.854-0.621-1.463
				c0-1.08,0.65-1.746,1.95-2l0.646-0.127c0.431-0.084,0.987-0.211,1.672-0.381v-0.189c0-0.539-0.405-0.811-1.216-0.811
				c-0.448,0-0.758,0.072-0.931,0.215c-0.174,0.145-0.26,0.393-0.26,0.748l-1.546-0.063c0-0.701,0.279-1.238,0.836-1.609
				c0.49-0.32,1.123-0.48,1.9-0.48c0.836,0,1.469,0.121,1.899,0.367C105.775,53.16,106.063,53.738,106.063,54.566z M104.518,56.732
				V55.82c-0.169,0.084-0.414,0.16-0.734,0.229l-0.849,0.178c-0.354,0.074-0.604,0.164-0.748,0.266
				c-0.211,0.135-0.316,0.342-0.316,0.619c0,0.238,0.096,0.43,0.285,0.578c0.19,0.146,0.429,0.221,0.716,0.221
				c0.413,0,0.776-0.094,1.089-0.279C104.331,57.412,104.518,57.111,104.518,56.732z"/>
			<path fill="#1E1E1D" d="M112.99,52.615v6.41h-1.545V58.39h-0.025c-0.405,0.523-1.018,0.785-1.837,0.785
				c-0.658,0-1.186-0.15-1.583-0.455c-0.506-0.396-0.76-1.018-0.76-1.861v-4.244h1.545v3.801c0,0.844,0.38,1.266,1.141,1.266
				c0.531,0,0.933-0.172,1.203-0.52c0.211-0.287,0.316-0.654,0.316-1.102v-3.445H112.99z"/>
			<path fill="#1E1E1D" d="M122.729,53.628l-1.076,1.014c-0.271-0.6-0.807-0.904-1.608-0.912c-0.785-0.008-1.178,0.199-1.178,0.621
				c0,0.287,0.351,0.498,1.051,0.633c1.056,0.195,1.701,0.346,1.938,0.457c0.7,0.303,1.051,0.801,1.051,1.494
				c0,0.727-0.291,1.291-0.874,1.697c-0.523,0.363-1.182,0.543-1.976,0.543c-1.385,0-2.419-0.387-3.103-1.164l1.165-0.9
				c0.362,0.533,0.979,0.799,1.849,0.799c0.347,0,0.646-0.08,0.899-0.24c0.228-0.152,0.342-0.32,0.342-0.508
				c0-0.277-0.342-0.484-1.025-0.619c-1.022-0.211-1.659-0.373-1.913-0.482c-0.684-0.313-1.025-0.818-1.025-1.52
				c0-0.691,0.274-1.221,0.823-1.582c0.498-0.33,1.169-0.494,2.014-0.494C121.222,52.464,122.104,52.853,122.729,53.628z"/>
			<path fill="#1E1E1D" d="M129.555,56.187h-4.737c0.009,0.457,0.186,0.836,0.532,1.141c0.313,0.287,0.688,0.43,1.127,0.43
				c0.802,0,1.419-0.303,1.85-0.912l1.304,0.76c-0.684,1.047-1.734,1.57-3.153,1.57c-1.013,0-1.819-0.32-2.419-0.961
				c-0.574-0.617-0.861-1.414-0.861-2.395c0-0.979,0.293-1.783,0.88-2.412s1.388-0.943,2.4-0.943
				C128.528,52.464,129.555,53.705,129.555,56.187z M124.817,54.998h3.116c0-0.246-0.114-0.498-0.343-0.762
				c-0.287-0.336-0.658-0.506-1.114-0.506c-0.431,0-0.794,0.121-1.089,0.361C125.092,54.332,124.901,54.634,124.817,54.998z"/>
			<path fill="#1E1E1D" d="M130.391,59.025v-6.41h1.545v0.887h0.025c0.347-0.691,1.005-1.037,1.976-1.037v1.57
				c-0.582,0-1.047,0.139-1.393,0.418c-0.405,0.328-0.608,0.818-0.608,1.469v3.104H130.391z"/>
			<path fill="#1E1E1D" d="M135.964,59.025l-2.115-6.41h1.634l1.279,4.434h0.025l1.279-4.434h1.634l-2.115,6.41H135.964z"/>
			<path fill="#1E1E1D" d="M140.218,51.578v-1.57h1.545v1.57H140.218z M140.218,59.025v-6.41h1.545v6.41H140.218z"/>
			<path fill="#1E1E1D" d="M148.614,54.287l-1.354,0.621c-0.102-0.313-0.277-0.561-0.525-0.746c-0.25-0.186-0.526-0.279-0.83-0.279
				c-0.523,0-0.938,0.199-1.241,0.596c-0.278,0.363-0.418,0.811-0.418,1.342c0,0.541,0.127,0.988,0.38,1.342
				c0.287,0.398,0.685,0.596,1.19,0.596c0.701,0,1.221-0.414,1.558-1.24l1.317,0.695c-0.6,1.309-1.566,1.963-2.9,1.963
				c-0.962,0-1.734-0.32-2.317-0.961c-0.565-0.617-0.849-1.414-0.849-2.395c0-0.979,0.293-1.783,0.88-2.412s1.388-0.943,2.4-0.943
				C147.213,52.464,148.116,53.072,148.614,54.287z"/>
			<path fill="#1E1E1D" d="M155.303,56.187h-4.737c0.009,0.457,0.186,0.836,0.532,1.141c0.313,0.287,0.688,0.43,1.127,0.43
				c0.802,0,1.419-0.303,1.85-0.912l1.304,0.76c-0.684,1.047-1.734,1.57-3.153,1.57c-1.013,0-1.819-0.32-2.419-0.961
				c-0.574-0.617-0.861-1.414-0.861-2.395c0-0.979,0.293-1.783,0.88-2.412s1.388-0.943,2.4-0.943
				C154.276,52.464,155.303,53.705,155.303,56.187z M150.565,54.998h3.116c0-0.246-0.114-0.498-0.343-0.762
				c-0.287-0.336-0.658-0.506-1.114-0.506c-0.431,0-0.794,0.121-1.089,0.361C150.84,54.332,150.649,54.634,150.565,54.998z"/>
			<path fill="#1E1E1D" d="M163.623,59.025v-0.621h-0.025c-0.431,0.516-1.03,0.771-1.799,0.771c-0.811,0-1.478-0.324-2.001-0.975
				s-0.785-1.443-0.785-2.381s0.262-1.73,0.785-2.381s1.19-0.975,2.001-0.975c0.71,0,1.317,0.232,1.824,0.695v-3.152h1.545v9.018
				H163.623z M162.153,53.882c-0.531,0-0.929,0.207-1.19,0.621c-0.22,0.338-0.329,0.775-0.329,1.316s0.109,0.98,0.329,1.316
				c0.262,0.414,0.659,0.621,1.19,0.621c0.532,0,0.934-0.207,1.203-0.621c0.211-0.336,0.317-0.775,0.317-1.316
				s-0.106-0.979-0.317-1.316C163.087,54.089,162.686,53.882,162.153,53.882z"/>
			<path fill="#1E1E1D" d="M172.374,56.187h-4.737c0.009,0.457,0.186,0.836,0.532,1.141c0.313,0.287,0.688,0.43,1.127,0.43
				c0.802,0,1.419-0.303,1.85-0.912l1.304,0.76c-0.684,1.047-1.734,1.57-3.153,1.57c-1.013,0-1.819-0.32-2.419-0.961
				c-0.574-0.617-0.861-1.414-0.861-2.395c0-0.979,0.293-1.783,0.88-2.412s1.388-0.943,2.4-0.943
				C171.348,52.464,172.374,53.705,172.374,56.187z M167.637,54.998h3.116c0-0.246-0.114-0.498-0.343-0.762
				c-0.287-0.336-0.658-0.506-1.114-0.506c-0.431,0-0.794,0.121-1.089,0.361C167.911,54.332,167.721,54.634,167.637,54.998z"/>
			<path fill="#1E1E1D" d="M177.846,59.025l-2.115-6.41h1.634l1.279,4.434h0.025l1.279-4.434h1.634l-2.115,6.41H177.846z"/>
			<path fill="#1E1E1D" d="M184.975,52.464c1.014,0,1.819,0.32,2.419,0.961c0.574,0.617,0.861,1.416,0.861,2.395
				c0,0.98-0.287,1.777-0.861,2.395c-0.6,0.641-1.405,0.961-2.419,0.961c-1.013,0-1.819-0.32-2.419-0.961
				c-0.574-0.617-0.861-1.414-0.861-2.395c0-0.979,0.293-1.783,0.88-2.412S183.962,52.464,184.975,52.464z M184.975,53.882
				c-0.523,0-0.938,0.199-1.241,0.596c-0.278,0.363-0.418,0.811-0.418,1.342s0.14,0.98,0.418,1.342
				c0.304,0.398,0.718,0.596,1.241,0.596s0.938-0.197,1.241-0.596c0.278-0.361,0.418-0.811,0.418-1.342s-0.14-0.979-0.418-1.342
				C185.912,54.082,185.498,53.882,184.975,53.882z"/>
			<path fill="#1E1E1D" d="M189.357,52.615v-2.279h1.545v2.279h1.38v1.115h-1.38v3.242c0,0.279,0.042,0.473,0.126,0.582
				c0.102,0.137,0.292,0.203,0.57,0.203l0.684-0.076v1.268c-0.489,0.102-0.898,0.152-1.229,0.152c-1.131,0-1.696-0.516-1.696-1.547
				V53.73h-0.938v-1.115H189.357z"/>
			<path fill="#1E1E1D" d="M192.853,59.025v-6.41h1.545v0.887h0.025c0.347-0.691,1.005-1.037,1.976-1.037v1.57
				c-0.582,0-1.047,0.139-1.393,0.418c-0.405,0.328-0.608,0.818-0.608,1.469v3.104H192.853z"/>
			<path fill="#1E1E1D" d="M203.01,56.187h-4.737c0.009,0.457,0.186,0.836,0.532,1.141c0.313,0.287,0.688,0.43,1.127,0.43
				c0.802,0,1.419-0.303,1.85-0.912l1.304,0.76c-0.684,1.047-1.734,1.57-3.153,1.57c-1.013,0-1.819-0.32-2.419-0.961
				c-0.574-0.617-0.861-1.414-0.861-2.395c0-0.979,0.293-1.783,0.88-2.412s1.388-0.943,2.4-0.943
				C201.983,52.464,203.01,53.705,203.01,56.187z M198.272,54.998h3.116c0-0.246-0.114-0.498-0.343-0.762
				c-0.287-0.336-0.658-0.506-1.114-0.506c-0.431,0-0.794,0.121-1.089,0.361C198.547,54.332,198.356,54.634,198.272,54.998z"/>
			<path fill="#1E1E1D" d="M212.697,54.287l-1.354,0.621c-0.102-0.313-0.277-0.561-0.525-0.746c-0.25-0.186-0.526-0.279-0.83-0.279
				c-0.523,0-0.938,0.199-1.241,0.596c-0.278,0.363-0.418,0.811-0.418,1.342c0,0.541,0.127,0.988,0.38,1.342
				c0.287,0.398,0.685,0.596,1.19,0.596c0.701,0,1.221-0.414,1.558-1.24l1.317,0.695c-0.6,1.309-1.566,1.963-2.9,1.963
				c-0.962,0-1.734-0.32-2.317-0.961c-0.565-0.617-0.849-1.414-0.849-2.395c0-0.979,0.293-1.783,0.88-2.412s1.388-0.943,2.4-0.943
				C211.296,52.464,212.199,53.072,212.697,54.287z"/>
			<path fill="#1E1E1D" d="M213.433,59.025v-9.018h1.545v9.018H213.433z"/>
			<path fill="#1E1E1D" d="M219.119,52.464c1.014,0,1.819,0.32,2.419,0.961c0.574,0.617,0.861,1.416,0.861,2.395
				c0,0.98-0.287,1.777-0.861,2.395c-0.6,0.641-1.405,0.961-2.419,0.961c-1.013,0-1.819-0.32-2.419-0.961
				c-0.574-0.617-0.861-1.414-0.861-2.395c0-0.979,0.293-1.783,0.88-2.412S218.106,52.464,219.119,52.464z M219.119,53.882
				c-0.523,0-0.938,0.199-1.241,0.596c-0.278,0.363-0.418,0.811-0.418,1.342s0.14,0.98,0.418,1.342
				c0.304,0.398,0.718,0.596,1.241,0.596s0.938-0.197,1.241-0.596c0.278-0.361,0.418-0.811,0.418-1.342s-0.14-0.979-0.418-1.342
				C220.057,54.082,219.643,53.882,219.119,53.882z"/>
			<path fill="#1E1E1D" d="M229.01,52.615v6.41h-1.545V58.39h-0.025c-0.405,0.523-1.018,0.785-1.837,0.785
				c-0.658,0-1.186-0.15-1.583-0.455c-0.506-0.396-0.76-1.018-0.76-1.861v-4.244h1.545v3.801c0,0.844,0.38,1.266,1.141,1.266
				c0.531,0,0.933-0.172,1.203-0.52c0.211-0.287,0.316-0.654,0.316-1.102v-3.445H229.01z"/>
			<path fill="#1E1E1D" d="M234.494,59.025v-0.621h-0.025c-0.431,0.516-1.03,0.771-1.799,0.771c-0.811,0-1.478-0.324-2.001-0.975
				s-0.785-1.443-0.785-2.381s0.262-1.73,0.785-2.381s1.19-0.975,2.001-0.975c0.71,0,1.317,0.232,1.824,0.695v-3.152h1.545v9.018
				H234.494z M233.024,53.882c-0.531,0-0.929,0.207-1.19,0.621c-0.22,0.338-0.329,0.775-0.329,1.316s0.109,0.98,0.329,1.316
				c0.262,0.414,0.659,0.621,1.19,0.621c0.532,0,0.934-0.207,1.203-0.621c0.211-0.336,0.317-0.775,0.317-1.316
				s-0.106-0.979-0.317-1.316C233.958,54.089,233.557,53.882,233.024,53.882z"/>
		</g>
		<g>
			<path fill="#ACC637" d="M175.314,22.979l-2.544,22.416c-0.313,0-0.652,0.076-1.02,0.229c-0.102,0-0.207-0.049-0.312-0.143
				l-0.183,0.029c-0.124,0.018-0.236,0.025-0.338,0.025c-0.039-0.035-0.279-0.234-0.722-0.592c-0.075,0-0.188,0.084-0.339,0.254
				c-0.067-0.188-0.161-0.412-0.283-0.666c-0.188-1.281-0.284-2.063-0.284-2.348l1.187-10.223c0.34-2.801,0.729-6.352,1.161-10.65
				c0.076-0.313,0.223-0.859,0.438-1.641c0.179-0.66,0.42-1.141,0.723-1.443l0.608,0.072c0.272,0.254,0.528,0.422,0.763,0.509
				c0.058,0.122,0.286,0.438,0.693,0.947c0.302,0.913,0.45,1.475,0.45,1.682V22.979z"/>
			<path fill="#ACC637" d="M181.594,39.833v-0.039c-0.007,0-0.022,0.07-0.041,0.211c-0.027,0.219-0.054,0.457-0.07,0.723
				c-0.021,0.348-0.028,0.77-0.028,1.273v1.455l-0.438,1.047l-0.313-0.07c-0.084,0.068-0.182,0.137-0.296,0.211
				c-0.074-0.027-0.17-0.074-0.283-0.141c-0.095,0.027-0.193,0.076-0.297,0.141c-0.075-0.057-0.472-0.172-1.188-0.354
				c-0.34-0.555-0.637-1.512-0.893-2.869c-0.047-0.238-0.068-0.539-0.068-0.904c0-0.123,0.004-0.258,0.014-0.396l0.086-2.533
				l0.354-1.682c0.263-0.238,0.431-0.482,0.507-0.738L179.401,35c0.113,0,0.27,0.064,0.469,0.197
				c0.282,0.332,0.705,0.801,1.272,1.416c0.312,0.547,0.466,1.033,0.466,1.457L181.594,39.833z M182.415,29.173
				c-0.047,0.083-0.121,0.183-0.227,0.298c0.094,0.234,0.143,0.457,0.143,0.663c-0.094,0.151-0.349,0.326-0.764,0.522
				c-0.037-0.047-0.133-0.068-0.284-0.068c-0.161,0-0.259,0.021-0.296,0.068c-0.406-0.215-0.867-0.361-1.387-0.436
				c-0.349-0.813-0.522-1.307-0.522-1.484c0-0.012,0-0.021,0-0.031l0.138-1.584c0.098-0.035,0.252-0.164,0.469-0.379h0.891
				c0.295,0.17,0.614,0.508,0.964,1.018c0.244,0.075,0.425,0.268,0.536,0.578C182.237,28.791,182.35,29.068,182.415,29.173z"/>
			<path fill="#ACC637" d="M204.378,36.033c0,0.16-0.323,0.895-0.975,2.209c-0.283,0.176-0.477,0.436-0.582,0.777
				c-1.129,1.035-2.508,1.953-4.128,2.758c-0.281,0.139-1.659,0.746-4.128,1.82c-0.342,0.049-0.869,0.18-1.586,0.398
				c-0.717,0.215-1.086,0.324-1.104,0.324c-0.019,0-0.116-0.01-0.289-0.029c-0.178-0.018-0.281-0.025-0.316-0.025
				c-0.283-0.293-0.565-0.441-0.836-0.441c-0.066,0-0.128,0-0.184,0c-0.049-0.121-0.166-0.297-0.354-0.523
				c-0.134,0.244-0.295,0.537-0.482,0.877c-0.152,0.068-0.313,0.102-0.496,0.102c-0.045,0-0.092-0.006-0.139-0.014l-0.295,0.295
				h-0.228c-0.06,0-0.327-0.127-0.808-0.383c-0.255,0.059-0.399,0.088-0.437,0.088c-0.491-0.418-0.737-0.762-0.737-1.035
				c-0.225-0.291-0.371-0.713-0.438-1.258c-0.161-0.264-0.264-0.543-0.311-0.832c-0.021-0.154-0.063-0.432-0.126-0.838
				c-0.069-0.404-0.123-0.621-0.16-0.65v0.07V38.21c-0.084-0.482-0.124-0.809-0.124-0.992c0-0.045,0.005-0.082,0.012-0.109
				c-0.025-0.123-0.043-0.256-0.043-0.398c0-0.178,0.025-0.354,0.071-0.521c-0.104-0.18-0.414-0.379-0.933-0.596
				c-0.35-0.416-0.522-0.881-0.522-1.398c0-0.35,0.14-0.756,0.424-1.215c0.264-0.455,0.554-0.773,0.876-0.967l0.102-7.224
				c0.025-0.479,0.092-1.484,0.197-3.014c0.055-0.855,0.284-1.607,0.692-2.249c0.058-0.054,0.169-0.161,0.337-0.324
				c0.371-0.169,0.604-0.255,0.708-0.255c0.038,0,0.14,0.023,0.305,0.07c0.165,0.049,0.253,0.074,0.262,0.074
				c0.124,0.252,0.358,0.621,0.706,1.1c0.133,0.36,0.279,0.826,0.442,1.402c-0.013,0.046-0.018,0.098-0.018,0.154
				c0,0.162,0.018,0.364,0.044,0.609c0.025,0.273,0.061,0.627,0.099,1.062l0.281,6.887c0.019,0.054,0.072,0.103,0.157,0.142
				c0.064-0.029,0.405-0.067,1.017-0.115l2.956-0.253l2.871,0.055c0.105,0,0.49,0.03,1.16,0.087c0.791,0.15,1.467,0.295,2.021,0.436
				c0.123,0.059,0.316,0.161,0.58,0.313c0.793,0.179,1.604,0.673,2.433,1.486c0.745,0.736,1.229,1.438,1.456,2.105
				c0.33,1.01,0.514,1.516,0.553,1.516C204.374,36.076,204.378,36.062,204.378,36.033z M199.655,36.033v-0.227
				c-0.207-0.264-0.527-0.533-0.962-0.807c-1.017-0.406-2.202-0.641-3.551-0.707c-0.207-0.066-0.336-0.098-0.381-0.098h-0.015
				l-2.871,0.125c-0.47,0.029-1.36,0.273-2.67,0.736v0.467c0,0.02,0.021,0.09,0.068,0.213c0.046,0.123,0.071,0.193,0.071,0.211
				v1.543l0.552,3.787c0.037-0.035,0.088-0.055,0.155-0.055c0.018-0.076,0.069-0.17,0.155-0.283
				c0.764-0.439,1.999-0.986,3.705-1.625c1.648-0.623,2.687-1.094,3.113-1.414C197.374,37.833,198.25,37.212,199.655,36.033z"/>
			<path fill="#ACC637" d="M220.896,35.156c-0.462,0.027-1.084,0.111-1.864,0.254c-0.907,0.313-1.755,0.574-2.547,0.779
				c-1.481,0.582-2.829,1.158-4.045,1.723c-1.603,0.736-2.611,1.857-3.024,3.365c0,0.059,0.045,0.436,0.139,1.133v0.467
				c-0.094,0.17-0.158,0.311-0.197,0.424c-0.02,0.049-0.029,0.096-0.029,0.143c0,0.123,0.063,0.221,0.186,0.297l-1.416,0.904h-0.281
				c-0.188-0.113-0.445-0.307-0.764-0.58l-0.383,0.059c-0.122-0.182-0.286-0.426-0.493-0.736c-0.098-0.246-0.192-0.463-0.297-0.65
				l-0.173-0.906v-1.229c0-0.01,0.014-0.063,0.036-0.154c0.023-0.096,0.037-0.152,0.037-0.172V38.96
				c0-0.389,0.142-1.043,0.423-1.965c0.348-1.18,0.736-1.77,1.159-1.77h0.427l0.495,0.438h0.208c0.248,0,1.119-0.475,2.618-1.428
				c1.037-0.443,2.606-1.127,4.711-2.049c0.074,0,0.558-0.193,1.442-0.58c0.218-0.01,0.654-0.09,1.313-0.24l1.036-0.211h1.425
				C222.036,31.156,220.896,35.156,220.896,35.156z"/>
			<path fill="#ACC637" d="M236.999,41.648c-0.121,0.168-0.288,0.453-0.492,0.846c-0.135,0-0.234-0.025-0.299-0.084
				c-0.104,0.039-0.264,0.123-0.479,0.256c0.207,0.084,0.472,0.223,0.803,0.41c-0.122,0.035-0.38,0.234-0.775,0.594
				c-0.397,0.141-0.997,0.303-1.798,0.482c-0.245,0.148-0.412,0.361-0.506,0.633l-3.608,0.453c-2.583-0.168-4.644-0.754-6.181-1.754
				c-1.112-1.139-1.808-2.445-2.093-3.916c-0.104-0.207-0.155-0.373-0.155-0.498c0-0.922,0.395-2.039,1.189-3.348
				c0.883-1.441,1.863-2.383,2.923-2.814c0.06-0.029,0.215-0.043,0.468-0.043c0.454-0.387,1.247-0.723,2.395-1.004
				c1.007-0.246,1.873-0.367,2.6-0.367c0.633,0,1.356,0.232,2.176,0.693c-0.016,0.037-0.026,0.152-0.026,0.338
				c0.181,0.037,0.393,0.088,0.637,0.156c0,0.059,0.06,0.15,0.183,0.281c0,0.35,0.132,0.801,0.396,1.357v0.621
				c0,0.078-0.056,0.172-0.17,0.285c0.067,0.094,0.1,0.197,0.1,0.311c0,0.209-0.09,0.447-0.271,0.705
				c-0.018,0.135-0.036,0.322-0.056,0.568c-0.216,0.293-0.49,0.73-0.819,1.314l-3.071,2.221c0.305,0.178,1.133,0.289,2.49,0.326
				l3.594,0.084C236.31,41.029,236.595,41.326,236.999,41.648z M230.239,35.312l0.016,0.014c-0.02,0-0.059-0.08-0.115-0.242
				c-0.735,0.293-1.225,0.506-1.471,0.639c-0.698,0.367-1.169,0.758-1.414,1.174c0.066,0,0.139,0.031,0.213,0.1
				C228.778,36.496,229.702,35.935,230.239,35.312z"/>
		</g>
		<g>
			<path fill="#ACC637" d="M24.312,27.371C30.126,20.517,35.74,13.43,42.635,7.604c-0.272-0.024-0.542-0.047-0.814-0.071
				c-0.589,0.916-1.29,1.624-2.107,2.338c-0.07,0.062,0.636,0.227,0.813,0.072c0.817-0.715,1.52-1.422,2.108-2.339
				c0.103-0.159-0.686-0.18-0.814-0.071c-6.895,5.823-12.508,12.912-18.321,19.766C23.416,27.396,24.167,27.542,24.312,27.371
				L24.312,27.371z"/>
			<path fill="#ACC637" d="M21.644,27.514c3.938-3.281,7.008-7.502,10.248-11.44c1.19-1.445,2.337-2.925,3.545-4.356
				c1.059-1.257,2.631-3.502,4.335-3.89c0.528-0.12-0.207-0.288-0.424-0.239c-1.229,0.279-2.164,1.28-3.016,2.146
				c-1.586,1.606-2.971,3.419-4.38,5.177c-3.458,4.32-6.854,8.969-11.122,12.523C20.744,27.506,21.458,27.669,21.644,27.514
				L21.644,27.514z"/>
			<path fill="#ACC637" d="M20.438,26.588c6.867-6.057,11.264-14.468,18.669-19.963c0.044-0.031-0.625-0.201-0.813-0.064
				c-0.382,0.277-0.733,0.582-1.115,0.86c-0.041,0.029,0.624,0.204,0.814,0.065c0.381-0.277,0.733-0.582,1.114-0.861
				c-0.271-0.021-0.543-0.043-0.813-0.064c-7.405,5.494-11.803,13.904-18.669,19.962C19.568,26.57,20.265,26.74,20.438,26.588
				L20.438,26.588z"/>
			<path fill="#ACC637" d="M22.931,23.698c5.989-5.362,10.702-12.087,17.227-16.856c0.423-0.309-0.274-0.675-0.595-0.44
				c-6.527,4.771-11.235,11.492-17.224,16.855C21.946,23.607,22.633,23.966,22.931,23.698L22.931,23.698z"/>
			<path fill="#ACC637" d="M43.833,14.912c0.384-3.741,0.647-7.5,0.486-11.26c-0.011-0.25-0.796-0.249-0.846-0.008
				c-1.1,5.303-0.752,10.818-2.107,16.07c0.281,0.002,0.563,0.004,0.845,0.007c1.272-4.967,0.829-10.137,0.993-15.21
				c0.008-0.246-0.783-0.245-0.845-0.007c-0.946,3.688-0.973,7.498-1.646,11.231c-0.037,0.211,0.792,0.268,0.846,0.006
				c0.873-4.309,1.543-8.676,1.281-13.084c-0.014-0.254-0.785-0.244-0.844-0.007c-1.199,4.788-0.169,9.765-1.115,14.593
				c-0.04,0.21,0.779,0.262,0.846,0.006c1.199-4.652,1.025-9.58,0.149-14.274C41.83,2.73,41.03,2.725,41.031,2.969
				c0.021,5.207,0.254,10.395-1.067,15.481c-0.051,0.192,0.772,0.272,0.843,0.007c1.383-5.141,2.171-10.547,1.763-15.873
				c-0.018-0.223-0.505-0.18-0.636-0.153C35.96,3.596,31.027,7.648,25.473,9.905c-0.419,0.171,0.405,0.315,0.595,0.247
				c5.62-2.003,11.328-3.73,17.124-5.148c-0.192-0.079-0.386-0.158-0.578-0.238c-2.643,2.105-5.951,3.349-9.271,3.863
				c-0.933,0.146-6.011,0.387-3.113-1.009c1.738-0.837,3.645-1.301,5.518-1.717c1.501-0.333,3.021-0.579,4.534-0.847
				c0.825-0.146,1.647-0.302,2.469-0.467c-0.447-0.278-0.899-0.271-1.359,0.018c-0.508,0.146-1.015,0.291-1.524,0.432
				c-4.083,1.146-8.211,2.127-12.351,3.045c-0.436,0.097-0.032,0.326,0.211,0.32c5.43-0.137,10.022-3.021,15.035-4.736
				c-0.198-0.082-0.396-0.165-0.595-0.247c-4.863,1.694-9.649,3.622-14.834,4.038c2.195-0.177,4.626-1.207,6.87-1.653
				c2.404-0.479,4.812-0.899,7.162-1.599c0.525-0.156-0.171-0.374-0.425-0.299C36.145,5.336,31.092,5.67,26.42,7.537
				c-0.406,0.163,0.281,0.297,0.407,0.29c5.583-0.284,10.717-2.341,15.935-4.159c0.414-0.145-0.396-0.316-0.595-0.247
				C37.74,4.936,33.636,7.455,28.92,8.004c-0.399,0.354-0.199,0.361,0.6,0.025c0.781-0.175,1.562-0.357,2.342-0.539
				c1.286-0.301,2.57-0.617,3.853-0.938c2.557-0.642,5.099-1.346,7.626-2.091c0.536-0.158-0.182-0.351-0.424-0.299
				c-5.072,1.096-10.446,1.441-15.01,4.132c-0.118,0.069-0.025,0.174,0.064,0.208c4.904,1.853,11.466-0.446,15.371-3.558
				c0.276-0.22-0.471-0.265-0.575-0.239c-5.852,1.432-11.619,3.178-17.294,5.2c0.198,0.082,0.397,0.165,0.595,0.247
				c5.503-2.236,10.382-6.271,16.29-7.424c-0.21-0.051-0.422-0.102-0.633-0.152c0.409,5.327-0.379,10.733-1.761,15.874
				c0.281,0.002,0.563,0.005,0.843,0.007c1.324-5.088,1.09-10.274,1.069-15.481c-0.281-0.002-0.563-0.005-0.845-0.007
				c0.875,4.694,1.051,9.621-0.15,14.275c0.283,0.002,0.563,0.004,0.846,0.006c0.946-4.828-0.085-9.805,1.113-14.592
				c-0.28-0.002-0.563-0.004-0.844-0.007c0.261,4.407-0.409,8.776-1.283,13.085c0.282,0.002,0.563,0.004,0.846,0.006
				c0.675-3.732,0.698-7.543,1.646-11.23c-0.282-0.002-0.563-0.004-0.845-0.007c-0.165,5.073,0.279,10.243-0.993,15.21
				c-0.049,0.193,0.776,0.273,0.845,0.007c1.354-5.253,1.009-10.769,2.108-16.069c-0.282-0.003-0.563-0.006-0.846-0.008
				c0.162,3.762-0.102,7.52-0.484,11.26C42.966,15.132,43.808,15.168,43.833,14.912L43.833,14.912z"/>
		</g>
	</g>
</g>
</svg>
